<?xml version="1.0" encoding="UTF-8"?>
<svg width="212.53" height="193.58" version="1.1" viewBox="0 0 212.53 193.58" xml:space="preserve" xmlns="http://www.w3.org/2000/svg"><defs><clipPath id="clipPath67"><path d="M 0,170.079 H 170.079 V 0 H 0 Z"/></clipPath></defs><g transform="matrix(1.3333 0 0 -1.3333 -6.7357 209.91)"><g transform="translate(76.206 54.676)"><path d="m0 0 7.22 8.384" fill="none" stroke="#231f20" stroke-linecap="round" stroke-miterlimit="10" stroke-width="2"/></g><g transform="translate(83.426 63.06)"><path d="m0 0 2.794-10.729" fill="none" stroke="#231f20" stroke-linecap="round" stroke-miterlimit="10" stroke-width="2"/></g><g transform="translate(83.396 62.999)"><path d="m0 0 3.958 8.277" fill="none" stroke="#231f20" stroke-linecap="round" stroke-miterlimit="10" stroke-width="2"/></g><g transform="translate(86.22 68.902)"><path d="m0 0-6.404-1.704" fill="#231f20" stroke="#231f20" stroke-linecap="round" stroke-miterlimit="10" stroke-width="2"/></g><g transform="translate(79.816 67.198)"><path d="m0 0-1.168 3.194" fill="none" stroke="#231f20" stroke-linecap="round" stroke-miterlimit="10" stroke-width="2"/></g><g transform="translate(86.22 68.902)"><path d="m0 0 4.65-5.072" fill="none" stroke="#231f20" stroke-linecap="round" stroke-miterlimit="10" stroke-width="2"/></g><g transform="translate(90.871 63.597)"><path d="m0 0 4.193 0.466" fill="none" stroke="#231f20" stroke-linecap="round" stroke-miterlimit="10" stroke-width="2"/></g><g clip-path="url(#clipPath67)"><g transform="translate(90.609 73.519)"><path d="m0 0c0 1.462-1.166 2.648-2.602 2.648-1.437 0-2.601-1.186-2.601-2.648s1.164-2.647 2.601-2.647c1.436 0 2.602 1.185 2.602 2.647" fill="#231f20"/><path d="m0 0c0 1.462-1.166 2.648-2.602 2.648-1.437 0-2.601-1.186-2.601-2.648s1.164-2.647 2.601-2.647c1.436 0 2.602 1.185 2.602 2.647z" fill="none" stroke="#231f20" stroke-linecap="round" stroke-miterlimit="10" stroke-width="2"/></g><g transform="translate(84.81 47.341)"><path d="m0 0c0.801 1.597 7.664 4.126 3.3 9-1.791 2-0.293 1.444-0.668 3.75 0 0-1.039 2.696-3.58 2.932" fill="none" stroke="#231f20" stroke-miterlimit="10" stroke-width=".5"/></g><g transform="translate(84.082 47.341)"><path d="m0 0c0-0.507 0.326-0.917 0.728-0.917 0.401 0 0.727 0.41 0.727 0.917s-0.326 0.917-0.727 0.917c-0.402 0-0.728-0.41-0.728-0.917z" fill="none" stroke="#231f20" stroke-miterlimit="10" stroke-width=".5"/></g><g transform="translate(164.07 25.374)"><path d="m0 0-79.554 21.967-79.092-22.418" fill="none" stroke="#231f20" stroke-linecap="round" stroke-miterlimit="10" stroke-width=".75"/></g><g transform="translate(84.781 47.374)"><path d="m0 0s-9.514 2.648-15.003-4.278" fill="none" stroke="#231f20" stroke-linecap="round" stroke-miterlimit="10" stroke-width=".75"/></g><g transform="translate(69.257 43.121)"><path d="m0 0s-9.624 2.674-15.177-4.322" fill="none" stroke="#231f20" stroke-linecap="round" stroke-miterlimit="10" stroke-width=".75"/></g><g transform="translate(53.735 38.35)"><path d="m0 0s-7.068-7.607-15.785-4.472" fill="none" stroke="#231f20" stroke-linecap="round" stroke-miterlimit="10" stroke-width=".75"/></g><g transform="translate(37.74 33.832)"><path d="m0 0s-7.068-7.606-15.785-4.473" fill="none" stroke="#231f20" stroke-linecap="round" stroke-miterlimit="10" stroke-width=".75"/></g><g transform="translate(21.522 29.2)"><path d="m0 0s-7.068-7.608-15.785-4.474" fill="none" stroke="#231f20" stroke-linecap="round" stroke-miterlimit="10" stroke-width=".75"/></g><g transform="translate(84.519 47.341)"><path d="m0 0s9.492 2.721 15.036-4.162" fill="none" stroke="#231f20" stroke-linecap="round" stroke-miterlimit="10" stroke-width=".75"/></g><g transform="translate(100.07 43.207)"><path d="m0 0s9.604 2.749 15.21-4.204" fill="none" stroke="#231f20" stroke-linecap="round" stroke-miterlimit="10" stroke-width=".75"/></g><g transform="translate(115.63 38.557)"><path d="m0 0s7.127-7.553 15.818-4.35" fill="none" stroke="#231f20" stroke-linecap="round" stroke-miterlimit="10" stroke-width=".75"/></g><g transform="translate(131.66 34.162)"><path d="m0 0s7.126-7.551 15.819-4.349" fill="none" stroke="#231f20" stroke-linecap="round" stroke-miterlimit="10" stroke-width=".75"/></g><g transform="translate(147.92 29.657)"><path d="m0 0s7.127-7.553 15.816-4.352" fill="none" stroke="#231f20" stroke-linecap="round" stroke-miterlimit="10" stroke-width=".75"/></g><g transform="translate(96.02 134.3)"><path d="m0 0c-7.506 1.013-15.023 1.109-22.562 1.285-6.761 0.157-13.472-0.194-20.152-1.16-3.804-0.55-7.585-1.251-11.225-2.544-0.309-0.111-0.604-0.288-1.003-0.085 1.191 2.253 3.112 3.788 5.17 5.095 2.802 1.78 5.747 3.335 8.589 5.053 1.192 0.72 2.508 0.98 3.813 1.232 5.206 1.004 10.466 1.384 15.767 1.573 6.301 0.226 12.588 0.208 18.86-0.323 9.216-0.776 17.993-3.182 26.16-7.611 0.632-0.343 1.192-0.814 1.807-1.194 0.696-0.431 1.311-0.629 0.698-1.806-0.821-1.572 1.042-3.128 3.193-2.625 0.84 0.196 1.183-0.066 1.703-0.574 1.307-1.277 2.487-2.625 3.161-4.135-10.943 4.103-22.376 6.252-33.979 7.819m33.131-10.632c-1.433-1.858-3.613-2.288-5.634-2.934-2.396-0.767-4.938-0.815-7.419-1.184-1.679-0.188-3.368-0.312-5.032-0.586-0.918-0.152-1.457 0.174-1.626 0.972-0.184 0.866-0.758 1.102-1.47 1.361-6.861 2.493-13.996 3.877-21.226 4.223-8.524 0.41-17.046-0.119-25.242-2.954-0.782-0.271-1.555-0.303-2.388-0.14-3.479 0.684-7.045 1.051-10.431 2.042-2.312 0.677-4.774 1.067-6.911 2.322-0.373 0.218-0.765 0.419-1.093 0.695-1.292 1.085-1.205 1.926 0.298 2.672 2.48 1.233 5.16 1.842 7.862 2.265 3.615 0.565 7.142 1.586 10.817 1.846 5.862 0.413 11.74 0.164 17.59 0.426 9.509 0.426 18.76-1.515 28.009-2.894 7.212-1.074 14.565-2.515 21.312-5.728 0.824-0.393 1.604-0.876 2.414-1.299 0.579-0.303 0.563-0.592 0.17-1.105m-27.394-8.314c-1.641-0.397-3.292-0.712-4.977-0.828-0.521-0.037-1.264-0.162-1.104 0.659 0.303 1.556-0.891 2.01-1.819 2.379-2.76 1.098-5.704 1.331-8.641 1.173-2.406-0.129-4.803-0.485-7.199-0.78-1.798-0.22-2.158-0.623-2.042-2.414 0.062-0.958-0.044-1.313-1.155-1.017-3.392 0.899-6.907 1.306-10.186 2.67-1.148 0.477-2.045 1.19-2.931 2.032-1.079 1.027-0.683 1.674 0.386 2.151 1.4 0.625 2.811 1.354 4.294 1.642 4.816 0.938 9.662 1.555 14.61 1.496 2.87-0.036 5.754-0.092 8.632-0.037 1.948 0.038 3.787-0.655 5.651-1.096 3.646-0.863 7.404-1.283 10.894-2.782 0.953-0.407 1.789-0.903 2.491-1.651-1.81-2.198-4.311-2.969-6.904-3.597m-24.515 1.017c5.617 1.239 11.274 2.928 16.903-0.884-5.911-1.815-11.476-2.065-16.903 0.884m-8.677 33.949c4.667 3.642 10.022 5.366 15.823 5.958 1.999 0.204 3.886-0.348 5.809-0.752 5.189-1.091 9.539-3.831 13.561-7.075 1.14-0.922 1.751-2.566 2.446-3.96 0.413-0.831-0.011-1.039-0.906-0.789-4.598 1.283-9.338 1.736-14.07 1.99-7.113 0.379-14.237 0.459-21.345-0.299-1.895-0.202-3.809-0.216-5.873-0.324 1.282 2.081 2.711 3.811 4.555 5.251m54.186-16.676c0.256 0.293 0.61 0.128 0.896-0.083 0.538-0.396 1.078-0.792 1.749-1.287-1.071-0.432-1.874-0.567-2.474 0.47-0.178 0.307-0.423 0.612-0.171 0.9m-26.334-20.396c3.064 0.19 7.332 1.027 10.173 2.392 3.174 1.527 6.333 2.865 9.93 3.051 2.836 0.148 5.664 0.546 8.419 1.309 2.622 0.727 5.178 1.524 6.651 4.131 0.372 0.66 0.39 1.151 0.079 1.849-2.245 5.044-6.093 8.562-10.644 11.464-3.768 2.401-7.886 4.009-12.06 5.503-0.597 0.213-1.107 0.415-1.381 1.102-2.117 5.345-6.149 8.664-11.344 10.841-3.317 1.389-6.799 2.428-10.292 2.537-4.375 0.137-8.696-1.048-12.746-2.807-4.285-1.86-7.7-4.875-10.512-8.576-0.661-0.872-1.33-1.538-2.549-1.611-1.14-0.068-2.277-0.376-3.39-0.675-6.462-1.741-11.647-5.57-16.391-10.104-1.599-1.529-2.689-3.235-1.913-5.586 0.194-0.59 0.288-1.204 0.951-1.516 1.865-0.881 3.702-1.774 5.705-2.386 4.426-1.354 8.977-2.045 13.502-2.888 0.68-0.126 1.188-0.322 1.091-1.142-0.18-1.519 0.871-2.258 1.926-2.949 1.252-0.819 2.409-1.496 3.859-1.905 1.994-0.563 5.594-1.813 9.594-2.217 0 0 6.878-0.554 10.618-0.512 3.741 0.041 10.724 0.695 10.724 0.695" fill="#231f20" fill-rule="evenodd"/></g><g transform="translate(116.1 119.55)"><path d="m0 0c-1.679-0.187-3.368-0.312-5.032-0.585-0.918-0.152-1.457 0.174-1.626 0.971-0.184 0.867-0.758 1.102-1.47 1.362-6.861 2.493-13.996 3.877-21.226 4.223-8.524 0.409-17.046-0.12-25.242-2.955-0.782-0.27-1.555-0.303-2.388-0.139-3.479 0.683-7.045 1.051-10.431 2.041-2.313 0.677-4.774 1.067-6.911 2.322-0.373 0.219-0.765 0.42-1.093 0.696-1.292 1.084-1.205 1.926 0.297 2.672 2.48 1.233 5.161 1.842 7.863 2.265 3.614 0.564 7.142 1.586 10.817 1.845 5.862 0.414 11.74 0.165 17.589 0.427 9.51 0.425 18.761-1.516 28.01-2.894 7.212-1.075 14.565-2.515 21.312-5.729 0.824-0.392 1.604-0.875 2.414-1.299 0.579-0.302 0.563-0.591 0.17-1.104-1.433-1.859-3.614-2.288-5.634-2.934-2.397-0.768-4.939-0.816-7.419-1.185" fill="#fff" fill-rule="evenodd"/></g><g transform="translate(59.042 139.35)"><path d="m0 0c0.144 1.201-0.737 1.593-1.777 1.574-1.574-0.029-3.242-1.508-3.112-2.599 0.121-1.016 1.095-1.49 2.743-1.336 1.542 0.144 2.28 0.907 2.146 2.361m52.189-1.703c-1.15-0.143-1.908-1.59-1.125-2.686 0.954-1.338 3.926-1.525 4.938-0.094 0.61 0.865 0.338 2.397-0.542 2.537-0.981 0.157-1.987 0.156-3.271 0.243m-39.584 0.863c0.466 0.051 0.751 0.088 1.037 0.114 1.074 0.104 1.597 0.678 1.656 1.772 0.066 1.23-0.712 1.615-1.682 1.688-1.45 0.11-2.679-0.624-3.825-1.373-0.761-0.496-0.651-1.168 0.11-1.737 0.898-0.671 1.875-0.611 2.704-0.464m12.466 3.471c-0.901-0.14-1.812-0.06-1.924-1.107-0.117-1.087 0.384-1.813 1.472-2.161 1.388-0.444 2.726-0.449 4.042 0.211 0.594 0.298 1.018 0.648 0.936 1.438-0.078 0.746-0.416 1.121-1.121 1.277-1.175 0.261-2.358 0.378-3.405 0.342m14.945-1.553c-0.525-0.015-1.107-0.205-1.694-0.449-0.777-0.322-0.815-0.883-0.611-1.535 0.665-2.116 4.538-2.988 6.098-1.393 0.395 0.404 0.377 0.862 0.262 1.344-0.347 1.444-1.925 2.259-4.055 2.033m-57.98-8.639c1.191 2.252 3.111 3.788 5.169 5.095 2.802 1.779 5.747 3.335 8.59 5.052 1.192 0.721 2.508 0.98 3.813 1.233 5.205 1.004 10.466 1.384 15.767 1.573 6.3 0.226 12.588 0.208 18.859-0.323 9.216-0.776 17.994-3.182 26.161-7.611 0.631-0.343 1.192-0.814 1.806-1.194 0.696-0.431 1.312-0.629 0.698-1.806-0.821-1.572 1.042-3.128 3.194-2.625 0.84 0.196 1.182-0.066 1.703-0.574 1.307-1.278 2.486-2.625 3.16-4.135-10.942 4.103-22.376 6.252-33.978 7.819-7.506 1.013-15.023 1.109-22.562 1.285-6.761 0.157-13.472-0.194-20.153-1.161-3.803-0.549-7.584-1.25-11.225-2.544-0.308-0.11-0.604-0.287-1.002-0.084" fill="#231f20" fill-rule="evenodd"/><path d="m0 0c0.144 1.201-0.737 1.593-1.777 1.574-1.574-0.029-3.242-1.508-3.112-2.599 0.121-1.016 1.095-1.49 2.743-1.336 1.542 0.144 2.28 0.907 2.146 2.361zm52.189-1.703c-1.15-0.143-1.908-1.59-1.125-2.686 0.954-1.338 3.926-1.525 4.938-0.094 0.61 0.865 0.338 2.397-0.542 2.537-0.981 0.157-1.987 0.156-3.271 0.243zm-39.584 0.863c0.466 0.051 0.751 0.088 1.037 0.114 1.074 0.104 1.597 0.678 1.656 1.772 0.066 1.23-0.712 1.615-1.682 1.688-1.45 0.11-2.679-0.624-3.825-1.373-0.761-0.496-0.651-1.168 0.11-1.737 0.898-0.671 1.875-0.611 2.704-0.464zm12.466 3.471c-0.901-0.14-1.812-0.06-1.924-1.107-0.117-1.087 0.384-1.813 1.472-2.161 1.388-0.444 2.726-0.449 4.042 0.211 0.594 0.298 1.018 0.648 0.936 1.438-0.078 0.746-0.416 1.121-1.121 1.277-1.175 0.261-2.358 0.378-3.405 0.342zm14.945-1.553c-0.525-0.015-1.107-0.205-1.694-0.449-0.777-0.322-0.815-0.883-0.611-1.535 0.665-2.116 4.538-2.988 6.098-1.393 0.395 0.404 0.377 0.862 0.262 1.344-0.347 1.444-1.925 2.259-4.055 2.033zm-57.98-8.639c1.191 2.252 3.111 3.788 5.169 5.095 2.802 1.779 5.747 3.335 8.59 5.052 1.192 0.721 2.508 0.98 3.813 1.233 5.205 1.004 10.466 1.384 15.767 1.573 6.3 0.226 12.588 0.208 18.859-0.323 9.216-0.776 17.994-3.182 26.161-7.611 0.631-0.343 1.192-0.814 1.806-1.194 0.696-0.431 1.312-0.629 0.698-1.806-0.821-1.572 1.042-3.128 3.194-2.625 0.84 0.196 1.182-0.066 1.703-0.574 1.307-1.278 2.486-2.625 3.16-4.135-10.942 4.103-22.376 6.252-33.978 7.819-7.506 1.013-15.023 1.109-22.562 1.285-6.761 0.157-13.472-0.194-20.153-1.161-3.803-0.549-7.584-1.25-11.225-2.544-0.308-0.11-0.604-0.287-1.002-0.084z" fill="none" stroke="#231f20" stroke-miterlimit="10"/></g><g transform="translate(64.01 145.07)"><path d="m0 0c1.282 2.081 2.711 3.811 4.556 5.251 4.666 3.642 10.021 5.366 15.822 5.957 1.999 0.205 3.886-0.347 5.809-0.751 5.189-1.091 9.539-3.832 13.562-7.075 1.139-0.922 1.751-2.566 2.445-3.96 0.413-0.831-0.011-1.039-0.905-0.789-4.599 1.283-9.338 1.736-14.071 1.99-7.113 0.379-14.237 0.459-21.344-0.299-1.895-0.202-3.81-0.216-5.874-0.324" fill="#fff" fill-rule="evenodd"/></g><g transform="translate(108.66 118.95)"><path d="m0 0c-1.81-2.199-4.311-2.969-6.903-3.597-1.642-0.397-3.292-0.712-4.978-0.829-0.52-0.036-1.264-0.161-1.103 0.66 0.302 1.556-0.892 2.009-1.82 2.378-2.759 1.099-5.704 1.332-8.641 1.174-2.406-0.13-4.803-0.485-7.199-0.781-1.797-0.219-2.158-0.623-2.042-2.413 0.062-0.958-0.044-1.313-1.155-1.018-3.392 0.9-6.907 1.306-10.186 2.671-1.148 0.477-2.045 1.19-2.931 2.032-1.079 1.026-0.683 1.673 0.386 2.15 1.401 0.626 2.811 1.354 4.295 1.643 4.816 0.938 9.661 1.555 14.61 1.495 2.87-0.035 5.753-0.091 8.632-0.036 1.947 0.038 3.786-0.655 5.65-1.096 3.647-0.863 7.405-1.284 10.895-2.782 0.952-0.408 1.789-0.903 2.49-1.651" fill="#231f20" fill-rule="evenodd"/><path d="m0 0c-1.81-2.199-4.311-2.969-6.903-3.597-1.642-0.397-3.292-0.712-4.978-0.829-0.52-0.036-1.264-0.161-1.103 0.66 0.302 1.556-0.892 2.009-1.82 2.378-2.759 1.099-5.704 1.332-8.641 1.174-2.406-0.13-4.803-0.485-7.199-0.781-1.797-0.219-2.158-0.623-2.042-2.413 0.062-0.958-0.044-1.313-1.155-1.018-3.392 0.9-6.907 1.306-10.186 2.671-1.148 0.477-2.045 1.19-2.931 2.032-1.079 1.026-0.683 1.673 0.386 2.15 1.401 0.626 2.811 1.354 4.295 1.643 4.816 0.938 9.661 1.555 14.61 1.495 2.87-0.035 5.753-0.091 8.632-0.036 1.947 0.038 3.786-0.655 5.65-1.096 3.647-0.863 7.405-1.284 10.895-2.782 0.952-0.408 1.789-0.903 2.49-1.651z" fill="none" stroke="#231f20" stroke-miterlimit="10"/></g><g transform="translate(77.242 116.37)"><path d="M 0,0 C 5.618,1.239 11.274,2.928 16.903,-0.884 10.992,-2.699 5.427,-2.949 0,0" fill="#fff" fill-rule="evenodd"/></g><g transform="translate(125.4 132.27)"><path d="m0 0c-1.071-0.432-1.874-0.567-2.474 0.47-0.178 0.307-0.422 0.612-0.171 0.9 0.256 0.293 0.61 0.128 0.896-0.083 0.538-0.396 1.078-0.792 1.749-1.287" fill="#fff" fill-rule="evenodd"/></g><g transform="translate(98.989 139.23)"><path d="m0 0c-0.251-0.052-0.925 0.104-1.015-0.476-0.095-0.618 0.623-0.553 1.009-0.752 0.21-0.107 0.447-0.165 0.655-0.276 0.622-0.332 1.247-0.491 1.898-0.093 0.255 0.154 0.25 0.381 0.12 0.615-0.382 0.688-1.063 0.908-1.759 1.071-0.219 0.052-0.471-0.04-0.908-0.089m0.069 1.201c2.13 0.226 3.708-0.589 4.056-2.032 0.114-0.482 0.133-0.94-0.263-1.344-1.559-1.596-5.432-0.723-6.097 1.392-0.204 0.652-0.166 1.213 0.611 1.535 0.587 0.244 1.169 0.435 1.693 0.449" fill="#06100b" fill-rule="evenodd"/><path d="m0 0c-0.251-0.052-0.925 0.104-1.015-0.476-0.095-0.618 0.623-0.553 1.009-0.752 0.21-0.107 0.447-0.165 0.655-0.276 0.622-0.332 1.247-0.491 1.898-0.093 0.255 0.154 0.25 0.381 0.12 0.615-0.382 0.688-1.063 0.908-1.759 1.071-0.219 0.052-0.471-0.04-0.908-0.089zm0.069 1.201c2.13 0.226 3.708-0.589 4.056-2.032 0.114-0.482 0.133-0.94-0.263-1.344-1.559-1.596-5.432-0.723-6.097 1.392-0.204 0.652-0.166 1.213 0.611 1.535 0.587 0.244 1.169 0.435 1.693 0.449z" fill="none" stroke="#231f20" stroke-miterlimit="10"/></g><g transform="translate(83.616 140.73)"><path d="m0 0c0.678-1.191 1.378-1.45 2.67-1.132 0.369 0.089 0.882 0.202 0.863 0.575-0.028 0.49-0.484 0.844-1.004 0.824-0.801-0.033-1.599-0.163-2.529-0.267m0.497 1.259c1.047 0.035 2.23-0.082 3.405-0.342 0.705-0.156 1.043-0.532 1.121-1.277 0.082-0.79-0.342-1.141-0.936-1.439-1.316-0.659-2.653-0.655-4.042-0.211-1.088 0.348-1.589 1.074-1.472 2.162 0.113 1.047 1.024 0.967 1.924 1.107" fill="#06100b" fill-rule="evenodd"/><path d="m0 0c0.678-1.191 1.378-1.45 2.67-1.132 0.369 0.089 0.882 0.202 0.863 0.575-0.028 0.49-0.484 0.844-1.004 0.824-0.801-0.033-1.599-0.163-2.529-0.267zm0.497 1.259c1.047 0.035 2.23-0.082 3.405-0.342 0.705-0.156 1.043-0.532 1.121-1.277 0.082-0.79-0.342-1.141-0.936-1.439-1.316-0.659-2.653-0.655-4.042-0.211-1.088 0.348-1.589 1.074-1.472 2.162 0.113 1.047 1.024 0.967 1.924 1.107z" fill="none" stroke="#231f20" stroke-miterlimit="10"/></g><g transform="translate(69.498 140.18)"><path d="m0 0c0.389-1.497 1.687-0.733 2.732-0.68 0.56 0.028 1.038 0.527 0.869 1.068-0.167 0.533-0.812 0.433-1.267 0.268-0.865-0.314-1.398-0.122-2.334-0.656m2.149-1.668c-0.828-0.147-1.805-0.207-2.704 0.463-0.76 0.57-0.87 1.242-0.11 1.738 1.146 0.749 2.375 1.483 3.825 1.373 0.971-0.073 1.749-0.458 1.682-1.688-0.059-1.094-0.581-1.668-1.655-1.772-0.287-0.027-0.572-0.063-1.038-0.114" fill="#06100b" fill-rule="evenodd"/><path d="m0 0c0.389-1.497 1.687-0.733 2.732-0.68 0.56 0.028 1.038 0.527 0.869 1.068-0.167 0.533-0.812 0.433-1.267 0.268-0.865-0.314-1.398-0.122-2.334-0.656zm2.149-1.668c-0.828-0.147-1.805-0.207-2.704 0.463-0.76 0.57-0.87 1.242-0.11 1.738 1.146 0.749 2.375 1.483 3.825 1.373 0.971-0.073 1.749-0.458 1.682-1.688-0.059-1.094-0.581-1.668-1.655-1.772-0.287-0.027-0.572-0.063-1.038-0.114z" fill="none" stroke="#231f20" stroke-miterlimit="10"/></g><g transform="translate(112.23 136.63)"><path d="m0 0c-1.105-0.103-1.188-0.181-0.99-0.745 0.239-0.67 1.901-1.394 2.397-0.945 0.262 0.236 0.783 0.487 0.683 0.993-0.09 0.449-0.499 0.51-0.893 0.551-0.468 0.047-0.934 0.113-1.197 0.146m-0.996 1.021c1.283-0.087 2.29-0.086 3.27-0.243 0.88-0.14 1.153-1.672 0.542-2.537-1.011-1.43-3.984-1.244-4.937 0.094-0.783 1.096-0.025 2.543 1.125 2.686" fill="#06100b" fill-rule="evenodd"/><path d="m0 0c-1.105-0.103-1.188-0.181-0.99-0.745 0.239-0.67 1.901-1.394 2.397-0.945 0.262 0.236 0.783 0.487 0.683 0.993-0.09 0.449-0.499 0.51-0.893 0.551-0.468 0.047-0.934 0.113-1.197 0.146zm-0.996 1.021c1.283-0.087 2.29-0.086 3.27-0.243 0.88-0.14 1.153-1.672 0.542-2.537-1.011-1.43-3.984-1.244-4.937 0.094-0.783 1.096-0.025 2.543 1.125 2.686z" fill="none" stroke="#231f20" stroke-miterlimit="10"/></g><g transform="translate(56.403 139.55)"><path d="m0 0c-0.309-0.509-1.37 0.298-1.366-0.699 3e-3 -0.744 0.891-0.843 1.45-0.801 0.625 0.049 1.465 0.337 1.344 1.148-0.119 0.792-0.877 0.121-1.428 0.352m2.64-0.193c0.133-1.453-0.605-2.217-2.146-2.361-1.648-0.154-2.622 0.321-2.743 1.336-0.13 1.091 1.538 2.571 3.111 2.599 1.041 0.019 1.921-0.373 1.778-1.574" fill="#060a08" fill-rule="evenodd"/><path d="m0 0c-0.309-0.509-1.37 0.298-1.366-0.699 3e-3 -0.744 0.891-0.843 1.45-0.801 0.625 0.049 1.465 0.337 1.344 1.148-0.119 0.792-0.877 0.121-1.428 0.352zm2.64-0.193c0.133-1.453-0.605-2.217-2.146-2.361-1.648-0.154-2.622 0.321-2.743 1.336-0.13 1.091 1.538 2.571 3.111 2.599 1.041 0.019 1.921-0.373 1.778-1.574z" fill="none" stroke="#231f20" stroke-miterlimit="10"/></g><g transform="translate(98.989 139.23)"><path d="m0 0c0.437 0.049 0.689 0.141 0.908 0.089 0.696-0.163 1.377-0.383 1.759-1.071 0.13-0.234 0.135-0.461-0.12-0.615-0.651-0.398-1.276-0.239-1.898 0.093-0.208 0.111-0.445 0.169-0.655 0.276-0.386 0.199-1.104 0.134-1.009 0.752 0.09 0.58 0.764 0.424 1.015 0.476" fill="#fff" fill-rule="evenodd"/></g><g transform="translate(83.616 140.73)"><path d="m0 0c0.93 0.104 1.728 0.234 2.529 0.267 0.52 0.02 0.976-0.334 1.004-0.824 0.019-0.373-0.494-0.486-0.863-0.575-1.292-0.318-1.992-0.059-2.67 1.132" fill="#fff" fill-rule="evenodd"/></g><g transform="translate(112.23 136.63)"><path d="m0 0c0.263-0.033 0.729-0.099 1.197-0.146 0.394-0.041 0.803-0.102 0.893-0.551 0.1-0.506-0.421-0.757-0.683-0.993-0.496-0.449-2.158 0.275-2.397 0.945-0.198 0.564-0.115 0.642 0.99 0.745" fill="#fff" fill-rule="evenodd"/></g><g transform="translate(56.403 139.55)"><path d="m0 0c0.551-0.231 1.309 0.44 1.428-0.352 0.121-0.811-0.719-1.099-1.344-1.148-0.559-0.042-1.447 0.057-1.45 0.801-4e-3 0.997 1.057 0.19 1.366 0.699" fill="#fff" fill-rule="evenodd"/></g><g transform="translate(47.686 16.121)"><path d="m0 0 29.239 100.46s10.921 3.918 17.596-0.7l26.862-98.947" fill="none" stroke="#231f20" stroke-linecap="round" stroke-miterlimit="10"/></g><g transform="translate(69.498 140.15)"><path d="m0 0s-0.107-0.838 0.797-0.894c0.905-0.056 1.596 0.158 2.063 0.23 0.467 0.073 1.69 1.121 0.203 1.449-1.486 0.327-3.258-0.889-3.063-0.785" fill="#fff" fill-rule="evenodd"/></g><g transform="translate(78.383 105.38)"><path d="m0 0-20.136-85.294" fill="none" stroke="#231f20" stroke-dasharray="3, 3, 4, 5, 4, 6" stroke-linecap="round" stroke-miterlimit="10" stroke-width=".59"/></g><g transform="translate(90.871 110.57)"><path d="m0 0 22.454-93.833" fill="none" stroke="#231f20" stroke-dasharray="2.413, 6.033, 4.827, 3.62, 3.62, 7.24" stroke-linecap="round" stroke-miterlimit="10" stroke-width=".593"/></g><g transform="translate(84.945 97.335)"><path d="m0 0 0.189-74.39" fill="none" stroke="#231f20" stroke-dasharray="2.23, 5.575, 4.46, 3.345, 3.345, 6.69" stroke-linecap="round" stroke-miterlimit="10" stroke-width=".558"/></g><g transform="translate(82.34 108.75)"><path d="m0 0-11.436-96.5" fill="none" stroke="#231f20" stroke-dasharray="2.683, 6.706, 5.365, 4.024, 4.024, 8.048" stroke-linecap="round" stroke-miterlimit="10" stroke-width=".61"/></g><g transform="translate(88.031 105.38)"><path d="m0 0 9.873-84.648" fill="none" stroke="#231f20" stroke-dasharray="3, 3, 5, 5, 4, 6" stroke-linecap="round" stroke-miterlimit="10" stroke-width=".533"/></g><g transform="translate(21.77 123.51)"><path d="m0 0c1.412-0.273 2.457-0.881 3.133-1.823 0.676-0.943 0.934-2.127 0.773-3.558-0.035-0.341-0.098-0.753-0.188-1.24s-0.265-0.867-0.525-1.14c-0.268-0.295-0.608-0.443-1.021-0.445-0.413-1e-3 -0.762 0.153-1.047 0.464-0.232 0.27-0.341 0.592-0.331 0.964 0.012 0.372 0.011 0.76-2e-3 1.165-0.012 0.405-0.078 0.763-0.196 1.074-0.119 0.311-0.335 0.576-0.648 0.796-0.3 0.189-0.59 0.283-0.869 0.279-0.281-5e-3 -0.538-0.083-0.774-0.237-0.236-0.155-0.451-0.367-0.642-0.635-0.192-0.268-0.332-0.552-0.422-0.851-0.11-0.292-0.167-0.558-0.171-0.793-5e-3 -0.239 4e-3 -0.472 0.023-0.704 0.06-0.619 0.225-1.22 0.497-1.801 0.271-0.583 0.539-1.14 0.804-1.67 0.265-0.531 0.528-1.067 0.789-1.608 0.261-0.542 0.493-1.106 0.696-1.694 0.204-0.587 0.366-1.199 0.487-1.836 0.121-0.639 0.159-1.326 0.117-2.065-0.036-0.716-0.173-1.489-0.411-2.32-0.239-0.831-0.576-1.569-1.015-2.214-0.357-0.52-0.793-0.971-1.309-1.354-0.517-0.385-1.084-0.66-1.703-0.825-0.618-0.165-1.264-0.203-1.94-0.114-0.675 0.089-1.347 0.361-2.015 0.812-0.783 0.51-1.372 1.186-1.765 2.031-0.394 0.846-0.517 1.847-0.37 3.006 0.041 0.288 0.096 0.584 0.166 0.89 0.069 0.304 0.16 0.591 0.273 0.856 0.114 0.268 0.252 0.489 0.417 0.665 0.164 0.176 0.365 0.291 0.606 0.345 0.293 0.087 0.6 0.051 0.92-0.108 0.321-0.158 0.556-0.359 0.705-0.605 0.102-0.18 0.159-0.38 0.173-0.597 0.012-0.215 0.012-0.442-3e-3 -0.675-0.014-0.235-0.032-0.48-0.053-0.736-0.021-0.257-0.012-0.504 0.029-0.742 0.073-0.422 0.27-0.808 0.591-1.154 0.319-0.346 0.756-0.49 1.309-0.429 0.485 0.054 0.911 0.303 1.277 0.744s0.598 1.011 0.696 1.708c0.111 0.894 0.03 1.757-0.244 2.59-0.274 0.835-0.584 1.566-0.93 2.197-0.299 0.565-0.613 1.155-0.942 1.767-0.33 0.612-0.596 1.268-0.799 1.968s-0.318 1.449-0.347 2.246c-0.028 0.798 0.103 1.679 0.392 2.644 0.351 1.174 0.814 2.143 1.391 2.91 0.575 0.767 1.231 1.303 1.97 1.608 0.334 0.15 0.705 0.253 1.112 0.306 0.405 0.053 0.851 0.032 1.336-0.062" fill="#231f20"/><path d="m0 0c1.412-0.273 2.457-0.881 3.133-1.823 0.676-0.943 0.934-2.127 0.773-3.558-0.035-0.341-0.098-0.753-0.188-1.24s-0.265-0.867-0.525-1.14c-0.268-0.295-0.608-0.443-1.021-0.445-0.413-1e-3 -0.762 0.153-1.047 0.464-0.232 0.27-0.341 0.592-0.331 0.964 0.012 0.372 0.011 0.76-2e-3 1.165-0.012 0.405-0.078 0.763-0.196 1.074-0.119 0.311-0.335 0.576-0.648 0.796-0.3 0.189-0.59 0.283-0.869 0.279-0.281-5e-3 -0.538-0.083-0.774-0.237-0.236-0.155-0.451-0.367-0.642-0.635-0.192-0.268-0.332-0.552-0.422-0.851-0.11-0.292-0.167-0.558-0.171-0.793-5e-3 -0.239 4e-3 -0.472 0.023-0.704 0.06-0.619 0.225-1.22 0.497-1.801 0.271-0.583 0.539-1.14 0.804-1.67 0.265-0.531 0.528-1.067 0.789-1.608 0.261-0.542 0.493-1.106 0.696-1.694 0.204-0.587 0.366-1.199 0.487-1.836 0.121-0.639 0.159-1.326 0.117-2.065-0.036-0.716-0.173-1.489-0.411-2.32-0.239-0.831-0.576-1.569-1.015-2.214-0.357-0.52-0.793-0.971-1.309-1.354-0.517-0.385-1.084-0.66-1.703-0.825-0.618-0.165-1.264-0.203-1.94-0.114-0.675 0.089-1.347 0.361-2.015 0.812-0.783 0.51-1.372 1.186-1.765 2.031-0.394 0.846-0.517 1.847-0.37 3.006 0.041 0.288 0.096 0.584 0.166 0.89 0.069 0.304 0.16 0.591 0.273 0.856 0.114 0.268 0.252 0.489 0.417 0.665 0.164 0.176 0.365 0.291 0.606 0.345 0.293 0.087 0.6 0.051 0.92-0.108 0.321-0.158 0.556-0.359 0.705-0.605 0.102-0.18 0.159-0.38 0.173-0.597 0.012-0.215 0.012-0.442-3e-3 -0.675-0.014-0.235-0.032-0.48-0.053-0.736-0.021-0.257-0.012-0.504 0.029-0.742 0.073-0.422 0.27-0.808 0.591-1.154 0.319-0.346 0.756-0.49 1.309-0.429 0.485 0.054 0.911 0.303 1.277 0.744s0.598 1.011 0.696 1.708c0.111 0.894 0.03 1.757-0.244 2.59-0.274 0.835-0.584 1.566-0.93 2.197-0.299 0.565-0.613 1.155-0.942 1.767-0.33 0.612-0.596 1.268-0.799 1.968s-0.318 1.449-0.347 2.246c-0.028 0.798 0.103 1.679 0.392 2.644 0.351 1.174 0.814 2.143 1.391 2.91 0.575 0.767 1.231 1.303 1.97 1.608 0.334 0.15 0.705 0.253 1.112 0.306 0.405 0.053 0.851 0.032 1.336-0.062z" fill="none" stroke="#231f20" stroke-miterlimit="10"/></g><g transform="translate(29.953 120.8)"><path d="m0 0c0.231-0.045 0.46-0.139 0.685-0.281 0.225-0.144 0.384-0.354 0.48-0.632 0.067-0.222 0.071-0.505 0.013-0.851-0.06-0.344-0.148-0.713-0.265-1.104s-0.246-0.803-0.388-1.236c-0.141-0.434-0.256-0.839-0.346-1.211-0.435-1.6-0.894-3.171-1.38-4.717s-0.973-3.135-1.463-4.768c-0.172-0.574-0.35-1.129-0.531-1.663-0.183-0.534-0.31-1.034-0.384-1.501-0.072-0.466-0.074-0.898-3e-3 -1.296 0.07-0.396 0.266-0.731 0.585-1.002 0.246-0.223 0.52-0.387 0.823-0.49 0.304-0.104 0.589-0.214 0.854-0.332 0.266-0.117 0.498-0.256 0.696-0.415 0.197-0.159 0.326-0.398 0.387-0.717 0.087-0.453 0.013-0.92-0.219-1.4-0.233-0.482-0.525-0.782-0.873-0.904-0.403-0.155-0.892-0.126-1.464 0.083-0.573 0.208-1.177 0.409-1.811 0.598l-1.718 0.516c-0.471 0.14-0.848 0.297-1.131 0.469-0.282 0.173-0.451 0.467-0.504 0.885-0.047 0.289 7e-3 0.693 0.162 1.21 0.155 0.518 0.301 1.005 0.439 1.465l4.145 13.829c0.138 0.459 0.27 0.915 0.394 1.366 0.124 0.452 0.275 0.939 0.454 1.461 0.152 0.431 0.293 0.828 0.424 1.19 0.13 0.361 0.275 0.662 0.437 0.902 0.161 0.238 0.358 0.411 0.591 0.518 0.232 0.105 0.536 0.115 0.911 0.028" fill="#231f20"/><path d="m0 0c0.231-0.045 0.46-0.139 0.685-0.281 0.225-0.144 0.384-0.354 0.48-0.632 0.067-0.222 0.071-0.505 0.013-0.851-0.06-0.344-0.148-0.713-0.265-1.104s-0.246-0.803-0.388-1.236c-0.141-0.434-0.256-0.839-0.346-1.211-0.435-1.6-0.894-3.171-1.38-4.717s-0.973-3.135-1.463-4.768c-0.172-0.574-0.35-1.129-0.531-1.663-0.183-0.534-0.31-1.034-0.384-1.501-0.072-0.466-0.074-0.898-3e-3 -1.296 0.07-0.396 0.266-0.731 0.585-1.002 0.246-0.223 0.52-0.387 0.823-0.49 0.304-0.104 0.589-0.214 0.854-0.332 0.266-0.117 0.498-0.256 0.696-0.415 0.197-0.159 0.326-0.398 0.387-0.717 0.087-0.453 0.013-0.92-0.219-1.4-0.233-0.482-0.525-0.782-0.873-0.904-0.403-0.155-0.892-0.126-1.464 0.083-0.573 0.208-1.177 0.409-1.811 0.598l-1.718 0.516c-0.471 0.14-0.848 0.297-1.131 0.469-0.282 0.173-0.451 0.467-0.504 0.885-0.047 0.289 7e-3 0.693 0.162 1.21 0.155 0.518 0.301 1.005 0.439 1.465l4.145 13.829c0.138 0.459 0.27 0.915 0.394 1.366 0.124 0.452 0.275 0.939 0.454 1.461 0.152 0.431 0.293 0.828 0.424 1.19 0.13 0.361 0.275 0.662 0.437 0.902 0.161 0.238 0.358 0.411 0.591 0.518 0.232 0.105 0.536 0.115 0.911 0.028z" fill="none" stroke="#231f20" stroke-miterlimit="10"/></g><g transform="translate(38.045 107.62)"><path d="m0 0c-0.234-0.557-0.488-1.146-0.763-1.764-0.274-0.619-0.481-1.158-0.619-1.619-0.173-0.649-0.178-1.243-0.015-1.779 0.162-0.537 0.561-0.789 1.196-0.754 0.43 0.022 0.782 0.229 1.056 0.624 0.274 0.393 0.496 0.871 0.665 1.435 0.168 0.563 0.307 1.155 0.415 1.774 0.107 0.619 0.209 1.165 0.306 1.637 0.034 0.264 0.082 0.57 0.141 0.916 0.058 0.345 0.09 0.674 0.095 0.986 4e-3 0.312-0.039 0.575-0.131 0.79-0.091 0.217-0.267 0.338-0.527 0.365-0.217 0.016-0.422-0.068-0.609-0.25-0.189-0.181-0.355-0.4-0.499-0.658-0.144-0.257-0.274-0.544-0.391-0.859-0.118-0.317-0.224-0.597-0.32-0.844m3.151 9.729c0.272-0.057 0.558-0.124 0.859-0.202 0.3-0.078 0.587-0.181 0.859-0.313 0.273-0.133 0.513-0.299 0.72-0.499 0.208-0.199 0.339-0.434 0.392-0.699 0.082-0.326 0.081-0.739-2e-3 -1.24-0.084-0.501-0.167-1.003-0.25-1.504-0.12-0.766-0.231-1.491-0.334-2.172-0.105-0.683-0.208-1.361-0.308-2.032-0.101-0.672-0.205-1.354-0.314-2.048-0.107-0.694-0.221-1.425-0.338-2.192-0.209-1.439-0.429-2.84-0.658-4.199-0.228-1.36-0.444-2.786-0.646-4.279-0.064-0.507-0.138-1.017-0.225-1.53-0.087-0.512-0.229-0.914-0.428-1.205-0.186-0.246-0.419-0.394-0.703-0.447-0.284-0.055-0.558-0.04-0.824 0.039-0.266 0.08-0.51 0.216-0.731 0.407-0.221 0.193-0.372 0.413-0.454 0.662-0.06 0.169-0.084 0.37-0.07 0.605 0.015 0.232 0.038 0.476 0.069 0.73s0.054 0.516 0.069 0.788c0.015 0.271 7e-3 0.511-0.019 0.719-0.094 0.429-0.286 0.776-0.575 1.037-0.29 0.263-0.614 0.429-0.971 0.499-0.359 0.07-0.724 0.06-1.096-0.03-0.372-0.088-0.671-0.249-0.898-0.482-0.218-0.21-0.395-0.445-0.528-0.706-0.135-0.26-0.273-0.519-0.417-0.777-0.144-0.257-0.299-0.493-0.463-0.707-0.165-0.214-0.37-0.358-0.616-0.435-0.218-0.06-0.445-0.074-0.681-0.04-0.236 0.033-0.448 0.102-0.639 0.21s-0.35 0.249-0.475 0.424c-0.127 0.175-0.192 0.365-0.198 0.567-0.019 0.383 0.091 0.824 0.332 1.329 0.239 0.504 0.456 0.966 0.648 1.384 0.625 1.34 1.221 2.623 1.788 3.843s1.165 2.549 1.798 3.99c0.343 0.773 0.662 1.485 0.958 2.135 0.295 0.651 0.579 1.281 0.85 1.888s0.55 1.22 0.835 1.836c0.284 0.615 0.592 1.288 0.922 2.016 0.185 0.395 0.36 0.776 0.525 1.139 0.165 0.365 0.345 0.667 0.54 0.909 0.195 0.243 0.426 0.417 0.693 0.526 0.267 0.108 0.601 0.126 1.004 0.056" fill="#231f20"/><path d="m0 0c-0.234-0.557-0.488-1.146-0.763-1.764-0.274-0.619-0.481-1.158-0.619-1.619-0.173-0.649-0.178-1.243-0.015-1.779 0.162-0.537 0.561-0.789 1.196-0.754 0.43 0.022 0.782 0.229 1.056 0.624 0.274 0.393 0.496 0.871 0.665 1.435 0.168 0.563 0.307 1.155 0.415 1.774 0.107 0.619 0.209 1.165 0.306 1.637 0.034 0.264 0.082 0.57 0.141 0.916 0.058 0.345 0.09 0.674 0.095 0.986 4e-3 0.312-0.039 0.575-0.131 0.79-0.091 0.217-0.267 0.338-0.527 0.365-0.217 0.016-0.422-0.068-0.609-0.25-0.189-0.181-0.355-0.4-0.499-0.658-0.144-0.257-0.274-0.544-0.391-0.859-0.118-0.317-0.224-0.597-0.32-0.844zm3.151 9.729c0.272-0.057 0.558-0.124 0.859-0.202 0.3-0.078 0.587-0.181 0.859-0.313 0.273-0.133 0.513-0.299 0.72-0.499 0.208-0.199 0.339-0.434 0.392-0.699 0.082-0.326 0.081-0.739-2e-3 -1.24-0.084-0.501-0.167-1.003-0.25-1.504-0.12-0.766-0.231-1.491-0.334-2.172-0.105-0.683-0.208-1.361-0.308-2.032-0.101-0.672-0.205-1.354-0.314-2.048-0.107-0.694-0.221-1.425-0.338-2.192-0.209-1.439-0.429-2.84-0.658-4.199-0.228-1.36-0.444-2.786-0.646-4.279-0.064-0.507-0.138-1.017-0.225-1.53-0.087-0.512-0.229-0.914-0.428-1.205-0.186-0.246-0.419-0.394-0.703-0.447-0.284-0.055-0.558-0.04-0.824 0.039-0.266 0.08-0.51 0.216-0.731 0.407-0.221 0.193-0.372 0.413-0.454 0.662-0.06 0.169-0.084 0.37-0.07 0.605 0.015 0.232 0.038 0.476 0.069 0.73s0.054 0.516 0.069 0.788c0.015 0.271 7e-3 0.511-0.019 0.719-0.094 0.429-0.286 0.776-0.575 1.037-0.29 0.263-0.614 0.429-0.971 0.499-0.359 0.07-0.724 0.06-1.096-0.03-0.372-0.088-0.671-0.249-0.898-0.482-0.218-0.21-0.395-0.445-0.528-0.706-0.135-0.26-0.273-0.519-0.417-0.777-0.144-0.257-0.299-0.493-0.463-0.707-0.165-0.214-0.37-0.358-0.616-0.435-0.218-0.06-0.445-0.074-0.681-0.04-0.236 0.033-0.448 0.102-0.639 0.21s-0.35 0.249-0.475 0.424c-0.127 0.175-0.192 0.365-0.198 0.567-0.019 0.383 0.091 0.824 0.332 1.329 0.239 0.504 0.456 0.966 0.648 1.384 0.625 1.34 1.221 2.623 1.788 3.843s1.165 2.549 1.798 3.99c0.343 0.773 0.662 1.485 0.958 2.135 0.295 0.651 0.579 1.281 0.85 1.888s0.55 1.22 0.835 1.836c0.284 0.615 0.592 1.288 0.922 2.016 0.185 0.395 0.36 0.776 0.525 1.139 0.165 0.365 0.345 0.667 0.54 0.909 0.195 0.243 0.426 0.417 0.693 0.526 0.267 0.108 0.601 0.126 1.004 0.056z" fill="none" stroke="#231f20" stroke-miterlimit="10"/></g><g transform="translate(53.177 114.59)"><path d="m0 0c1.398-0.318 2.377-1.013 2.938-2.083 0.56-1.069 0.763-2.309 0.609-3.716-0.036-0.415-0.112-0.912-0.23-1.49-0.118-0.579-0.327-1.036-0.628-1.372-0.199-0.216-0.433-0.346-0.702-0.391-0.271-0.045-0.533-0.027-0.789 0.049s-0.491 0.203-0.705 0.381c-0.215 0.178-0.352 0.388-0.413 0.631-0.081 0.25-0.088 0.527-0.018 0.832 0.069 0.305 0.131 0.625 0.187 0.959 0.104 0.57 0.089 1.119-0.042 1.647s-0.463 0.871-0.996 1.031c-0.347 0.104-0.653 0.089-0.916-0.044-0.263-0.135-0.501-0.333-0.712-0.595-0.213-0.262-0.397-0.576-0.551-0.943-0.156-0.367-0.301-0.743-0.439-1.128-0.302-0.862-0.572-1.721-0.806-2.578-0.235-0.856-0.472-1.687-0.713-2.492-0.269-0.895-0.54-1.761-0.811-2.594-0.273-0.833-0.505-1.647-0.698-2.44-0.124-0.413-0.225-0.823-0.301-1.226s-0.115-0.773-0.115-1.111c-1e-3 -0.338 0.05-0.648 0.156-0.93 0.104-0.282 0.29-0.5 0.556-0.655 0.524-0.333 1.007-0.34 1.448-0.021s0.792 0.726 1.054 1.225c0.212 0.412 0.375 0.865 0.49 1.357 0.113 0.491 0.321 0.905 0.623 1.241 0.164 0.176 0.377 0.293 0.641 0.353 0.262 0.058 0.53 0.061 0.803 2e-3 0.273-0.055 0.517-0.172 0.732-0.35 0.214-0.176 0.358-0.402 0.432-0.674 0.095-0.354 0.068-0.778-0.08-1.272-0.148-0.496-0.288-0.924-0.418-1.285-0.475-1.211-1.095-2.202-1.862-2.975-0.766-0.772-1.587-1.24-2.461-1.404-0.683-0.122-1.402-0.062-2.155 0.175-0.754 0.239-1.369 0.605-1.845 1.099-0.422 0.452-0.757 0.991-1.004 1.616s-0.37 1.315-0.368 2.065c2e-3 0.751 0.119 1.586 0.35 2.507 0.231 0.92 0.478 1.818 0.74 2.691l1.654 5.517c0.297 0.989 0.58 1.918 0.853 2.789 0.272 0.871 0.581 1.661 0.928 2.372 0.346 0.709 0.745 1.331 1.193 1.859 0.448 0.529 0.99 0.925 1.626 1.186 0.39 0.183 0.821 0.285 1.296 0.306 0.474 0.021 0.964-0.02 1.469-0.121" fill="#231f20"/><path d="m0 0c1.398-0.318 2.377-1.013 2.938-2.083 0.56-1.069 0.763-2.309 0.609-3.716-0.036-0.415-0.112-0.912-0.23-1.49-0.118-0.579-0.327-1.036-0.628-1.372-0.199-0.216-0.433-0.346-0.702-0.391-0.271-0.045-0.533-0.027-0.789 0.049s-0.491 0.203-0.705 0.381c-0.215 0.178-0.352 0.388-0.413 0.631-0.081 0.25-0.088 0.527-0.018 0.832 0.069 0.305 0.131 0.625 0.187 0.959 0.104 0.57 0.089 1.119-0.042 1.647s-0.463 0.871-0.996 1.031c-0.347 0.104-0.653 0.089-0.916-0.044-0.263-0.135-0.501-0.333-0.712-0.595-0.213-0.262-0.397-0.576-0.551-0.943-0.156-0.367-0.301-0.743-0.439-1.128-0.302-0.862-0.572-1.721-0.806-2.578-0.235-0.856-0.472-1.687-0.713-2.492-0.269-0.895-0.54-1.761-0.811-2.594-0.273-0.833-0.505-1.647-0.698-2.44-0.124-0.413-0.225-0.823-0.301-1.226s-0.115-0.773-0.115-1.111c-1e-3 -0.338 0.05-0.648 0.156-0.93 0.104-0.282 0.29-0.5 0.556-0.655 0.524-0.333 1.007-0.34 1.448-0.021s0.792 0.726 1.054 1.225c0.212 0.412 0.375 0.865 0.49 1.357 0.113 0.491 0.321 0.905 0.623 1.241 0.164 0.176 0.377 0.293 0.641 0.353 0.262 0.058 0.53 0.061 0.803 2e-3 0.273-0.055 0.517-0.172 0.732-0.35 0.214-0.176 0.358-0.402 0.432-0.674 0.095-0.354 0.068-0.778-0.08-1.272-0.148-0.496-0.288-0.924-0.418-1.285-0.475-1.211-1.095-2.202-1.862-2.975-0.766-0.772-1.587-1.24-2.461-1.404-0.683-0.122-1.402-0.062-2.155 0.175-0.754 0.239-1.369 0.605-1.845 1.099-0.422 0.452-0.757 0.991-1.004 1.616s-0.37 1.315-0.368 2.065c2e-3 0.751 0.119 1.586 0.35 2.507 0.231 0.92 0.478 1.818 0.74 2.691l1.654 5.517c0.297 0.989 0.58 1.918 0.853 2.789 0.272 0.871 0.581 1.661 0.928 2.372 0.346 0.709 0.745 1.331 1.193 1.859 0.448 0.529 0.99 0.925 1.626 1.186 0.39 0.183 0.821 0.285 1.296 0.306 0.474 0.021 0.964-0.02 1.469-0.121z" fill="none" stroke="#231f20" stroke-miterlimit="10"/></g><g transform="translate(60.837 111.46)"><path d="m0 0c0.232-0.045 0.448-0.14 0.649-0.288 0.202-0.149 0.343-0.348 0.424-0.597 0.088-0.227 0.116-0.485 0.085-0.776-0.032-0.291-0.094-0.594-0.186-0.903-0.094-0.311-0.196-0.632-0.306-0.962-0.11-0.329-0.21-0.645-0.3-0.943-0.082-0.276-0.163-0.584-0.242-0.924-0.08-0.338-0.138-0.661-0.173-0.963s-0.02-0.57 0.044-0.801c0.065-0.234 0.206-0.395 0.424-0.485 0.273-0.131 0.542-0.106 0.809 0.077s0.516 0.421 0.75 0.715c0.232 0.293 0.45 0.61 0.652 0.951 0.203 0.339 0.369 0.616 0.499 0.828 0.179 0.297 0.362 0.611 0.551 0.943 0.188 0.332 0.382 0.643 0.581 0.935 0.198 0.291 0.405 0.554 0.621 0.79s0.447 0.392 0.693 0.469c0.171 0.049 0.383 0.067 0.635 0.054 0.253-0.014 0.5-0.062 0.742-0.147s0.443-0.214 0.603-0.388 0.233-0.396 0.218-0.666c-7e-3 -0.248-0.066-0.463-0.175-0.643-0.111-0.179-0.21-0.345-0.299-0.494-0.302-0.41-0.615-0.843-0.941-1.296-0.325-0.454-0.639-0.885-0.94-1.296-0.426-0.599-0.864-1.207-1.315-1.823-0.453-0.616-0.828-1.231-1.122-1.844-0.31-0.659-0.492-1.362-0.548-2.109-0.058-0.748-0.101-1.431-0.129-2.048-0.093-1.425-0.176-2.816-0.247-4.172-0.073-1.356-0.152-2.773-0.238-4.252-0.014-0.27-0.047-0.581-0.094-0.929-0.05-0.348-0.163-0.635-0.341-0.857-0.247-0.301-0.578-0.422-0.994-0.359-0.416 0.062-0.782 0.202-1.095 0.422-0.293 0.213-0.488 0.491-0.586 0.833-0.099 0.343-0.146 0.72-0.146 1.134 1e-3 0.413 0.032 0.848 0.091 1.307 0.059 0.458 0.117 0.929 0.173 1.414 0.015 0.271 0.04 0.576 0.074 0.916 0.036 0.341 0.042 0.678 0.019 1.01-0.023 0.333-0.098 0.624-0.223 0.875-0.126 0.25-0.345 0.41-0.659 0.48-0.464 0.088-0.86-0.099-1.189-0.564-0.329-0.466-0.611-1.015-0.845-1.645-0.117-0.316-0.217-0.649-0.3-1-0.083-0.352-0.174-0.695-0.273-1.027-0.1-0.334-0.209-0.639-0.326-0.918-0.117-0.277-0.247-0.508-0.391-0.689-0.198-0.217-0.437-0.359-0.713-0.426-0.276-0.068-0.542-0.063-0.798 0.014s-0.483 0.213-0.681 0.41c-0.197 0.197-0.315 0.452-0.355 0.764-0.027 0.285 0.038 0.685 0.193 1.202s0.287 0.997 0.398 1.44c0.317 1.207 0.649 2.373 0.998 3.497 0.348 1.124 0.701 2.245 1.059 3.365s0.717 2.247 1.08 3.378c0.361 1.133 0.704 2.314 1.028 3.544 0.098 0.398 0.218 0.837 0.363 1.321 0.144 0.482 0.285 0.953 0.423 1.413 0.131 0.436 0.262 0.836 0.393 1.197 0.13 0.362 0.278 0.67 0.443 0.921 0.164 0.251 0.364 0.434 0.601 0.553 0.235 0.117 0.52 0.137 0.854 0.062" fill="#231f20"/><path d="m0 0c0.232-0.045 0.448-0.14 0.649-0.288 0.202-0.149 0.343-0.348 0.424-0.597 0.088-0.227 0.116-0.485 0.085-0.776-0.032-0.291-0.094-0.594-0.186-0.903-0.094-0.311-0.196-0.632-0.306-0.962-0.11-0.329-0.21-0.645-0.3-0.943-0.082-0.276-0.163-0.584-0.242-0.924-0.08-0.338-0.138-0.661-0.173-0.963s-0.02-0.57 0.044-0.801c0.065-0.234 0.206-0.395 0.424-0.485 0.273-0.131 0.542-0.106 0.809 0.077s0.516 0.421 0.75 0.715c0.232 0.293 0.45 0.61 0.652 0.951 0.203 0.339 0.369 0.616 0.499 0.828 0.179 0.297 0.362 0.611 0.551 0.943 0.188 0.332 0.382 0.643 0.581 0.935 0.198 0.291 0.405 0.554 0.621 0.79s0.447 0.392 0.693 0.469c0.171 0.049 0.383 0.067 0.635 0.054 0.253-0.014 0.5-0.062 0.742-0.147s0.443-0.214 0.603-0.388 0.233-0.396 0.218-0.666c-7e-3 -0.248-0.066-0.463-0.175-0.643-0.111-0.179-0.21-0.345-0.299-0.494-0.302-0.41-0.615-0.843-0.941-1.296-0.325-0.454-0.639-0.885-0.94-1.296-0.426-0.599-0.864-1.207-1.315-1.823-0.453-0.616-0.828-1.231-1.122-1.844-0.31-0.659-0.492-1.362-0.548-2.109-0.058-0.748-0.101-1.431-0.129-2.048-0.093-1.425-0.176-2.816-0.247-4.172-0.073-1.356-0.152-2.773-0.238-4.252-0.014-0.27-0.047-0.581-0.094-0.929-0.05-0.348-0.163-0.635-0.341-0.857-0.247-0.301-0.578-0.422-0.994-0.359-0.416 0.062-0.782 0.202-1.095 0.422-0.293 0.213-0.488 0.491-0.586 0.833-0.099 0.343-0.146 0.72-0.146 1.134 1e-3 0.413 0.032 0.848 0.091 1.307 0.059 0.458 0.117 0.929 0.173 1.414 0.015 0.271 0.04 0.576 0.074 0.916 0.036 0.341 0.042 0.678 0.019 1.01-0.023 0.333-0.098 0.624-0.223 0.875-0.126 0.25-0.345 0.41-0.659 0.48-0.464 0.088-0.86-0.099-1.189-0.564-0.329-0.466-0.611-1.015-0.845-1.645-0.117-0.316-0.217-0.649-0.3-1-0.083-0.352-0.174-0.695-0.273-1.027-0.1-0.334-0.209-0.639-0.326-0.918-0.117-0.277-0.247-0.508-0.391-0.689-0.198-0.217-0.437-0.359-0.713-0.426-0.276-0.068-0.542-0.063-0.798 0.014s-0.483 0.213-0.681 0.41c-0.197 0.197-0.315 0.452-0.355 0.764-0.027 0.285 0.038 0.685 0.193 1.202s0.287 0.997 0.398 1.44c0.317 1.207 0.649 2.373 0.998 3.497 0.348 1.124 0.701 2.245 1.059 3.365s0.717 2.247 1.08 3.378c0.361 1.133 0.704 2.314 1.028 3.544 0.098 0.398 0.218 0.837 0.363 1.321 0.144 0.482 0.285 0.953 0.423 1.413 0.131 0.436 0.262 0.836 0.393 1.197 0.13 0.362 0.278 0.67 0.443 0.921 0.164 0.251 0.364 0.434 0.601 0.553 0.235 0.117 0.52 0.137 0.854 0.062z" fill="none" stroke="#231f20" stroke-miterlimit="10"/></g><g transform="translate(108.53 100.53)"><path d="m0 0c0.111-0.594 0.221-1.225 0.332-1.894 0.11-0.669 0.236-1.233 0.378-1.692 0.219-0.636 0.556-1.128 1.01-1.478 0.453-0.35 0.953-0.328 1.5 0.066 0.371 0.266 0.566 0.639 0.586 1.122 0.017 0.483-0.06 1.005-0.233 1.567s-0.389 1.129-0.649 1.703c-0.26 0.572-0.483 1.082-0.666 1.527-0.122 0.239-0.256 0.517-0.402 0.837-0.146 0.319-0.307 0.608-0.482 0.869-0.175 0.26-0.366 0.452-0.571 0.578-0.205 0.125-0.432 0.124-0.679-3e-3 -0.204-0.113-0.337-0.298-0.401-0.556-0.065-0.259-0.086-0.535-0.068-0.831 0.021-0.295 0.068-0.607 0.146-0.935 0.077-0.327 0.142-0.621 0.199-0.88m-2.779 9.843c0.276 0.109 0.571 0.219 0.883 0.328 0.313 0.109 0.628 0.186 0.948 0.235 0.319 0.048 0.63 0.048 0.928 3e-3 0.301-0.046 0.552-0.163 0.752-0.352 0.26-0.222 0.497-0.563 0.711-1.025 0.213-0.461 0.427-0.923 0.641-1.385 0.334-0.7 0.651-1.362 0.95-1.985 0.3-0.624 0.598-1.242 0.894-1.854 0.295-0.612 0.594-1.236 0.896-1.871 0.304-0.635 0.621-1.303 0.957-2.003 0.642-1.309 1.25-2.59 1.827-3.845 0.577-1.254 1.204-2.555 1.881-3.902 0.236-0.457 0.462-0.92 0.679-1.393 0.218-0.473 0.321-0.887 0.311-1.241-0.025-0.309-0.148-0.567-0.37-0.773-0.222-0.208-0.476-0.354-0.759-0.441-0.284-0.088-0.579-0.116-0.887-0.085s-0.569 0.126-0.785 0.286c-0.153 0.104-0.288 0.256-0.409 0.458-0.123 0.2-0.242 0.415-0.36 0.642s-0.248 0.458-0.391 0.69-0.286 0.426-0.43 0.583c-0.33 0.3-0.7 0.475-1.109 0.525-0.409 0.049-0.793 0-1.153-0.148s-0.681-0.366-0.963-0.653c-0.281-0.288-0.455-0.593-0.523-0.915-0.074-0.299-0.098-0.595-0.067-0.888 0.03-0.291 0.055-0.584 0.075-0.88 0.018-0.295 0.017-0.579-7e-3 -0.85-0.025-0.271-0.124-0.509-0.3-0.713-0.16-0.175-0.355-0.317-0.585-0.425-0.229-0.109-0.46-0.174-0.691-0.194-0.233-0.021-0.455 5e-3 -0.667 0.077-0.214 0.072-0.382 0.19-0.504 0.354-0.237 0.304-0.393 0.733-0.468 1.287s-0.147 1.059-0.215 1.516c-0.213 1.465-0.417 2.866-0.613 4.199-0.195 1.333-0.425 2.775-0.688 4.327-0.137 0.836-0.262 1.609-0.372 2.316-0.11 0.706-0.218 1.388-0.326 2.046-0.106 0.658-0.21 1.323-0.309 1.995-0.101 0.673-0.212 1.404-0.336 2.195-0.062 0.433-0.124 0.847-0.185 1.242-0.062 0.395-0.076 0.749-0.041 1.061s0.141 0.59 0.316 0.832c0.176 0.242 0.464 0.45 0.864 0.624" fill="#231f20"/><path d="m0 0c0.111-0.594 0.221-1.225 0.332-1.894 0.11-0.669 0.236-1.233 0.378-1.692 0.219-0.636 0.556-1.128 1.01-1.478 0.453-0.35 0.953-0.328 1.5 0.066 0.371 0.266 0.566 0.639 0.586 1.122 0.017 0.483-0.06 1.005-0.233 1.567s-0.389 1.129-0.649 1.703c-0.26 0.572-0.483 1.082-0.666 1.527-0.122 0.239-0.256 0.517-0.402 0.837-0.146 0.319-0.307 0.608-0.482 0.869-0.175 0.26-0.366 0.452-0.571 0.578-0.205 0.125-0.432 0.124-0.679-3e-3 -0.204-0.113-0.337-0.298-0.401-0.556-0.065-0.259-0.086-0.535-0.068-0.831 0.021-0.295 0.068-0.607 0.146-0.935 0.077-0.327 0.142-0.621 0.199-0.88zm-2.779 9.843c0.276 0.109 0.571 0.219 0.883 0.328 0.313 0.109 0.628 0.186 0.948 0.235 0.319 0.048 0.63 0.048 0.928 3e-3 0.301-0.046 0.552-0.163 0.752-0.352 0.26-0.222 0.497-0.563 0.711-1.025 0.213-0.461 0.427-0.923 0.641-1.385 0.334-0.7 0.651-1.362 0.95-1.985 0.3-0.624 0.598-1.242 0.894-1.854 0.295-0.612 0.594-1.236 0.896-1.871 0.304-0.635 0.621-1.303 0.957-2.003 0.642-1.309 1.25-2.59 1.827-3.845 0.577-1.254 1.204-2.555 1.881-3.902 0.236-0.457 0.462-0.92 0.679-1.393 0.218-0.473 0.321-0.887 0.311-1.241-0.025-0.309-0.148-0.567-0.37-0.773-0.222-0.208-0.476-0.354-0.759-0.441-0.284-0.088-0.579-0.116-0.887-0.085s-0.569 0.126-0.785 0.286c-0.153 0.104-0.288 0.256-0.409 0.458-0.123 0.2-0.242 0.415-0.36 0.642s-0.248 0.458-0.391 0.69-0.286 0.426-0.43 0.583c-0.33 0.3-0.7 0.475-1.109 0.525-0.409 0.049-0.793 0-1.153-0.148s-0.681-0.366-0.963-0.653c-0.281-0.288-0.455-0.593-0.523-0.915-0.074-0.299-0.098-0.595-0.067-0.888 0.03-0.291 0.055-0.584 0.075-0.88 0.018-0.295 0.017-0.579-7e-3 -0.85-0.025-0.271-0.124-0.509-0.3-0.713-0.16-0.175-0.355-0.317-0.585-0.425-0.229-0.109-0.46-0.174-0.691-0.194-0.233-0.021-0.455 5e-3 -0.667 0.077-0.214 0.072-0.382 0.19-0.504 0.354-0.237 0.304-0.393 0.733-0.468 1.287s-0.147 1.059-0.215 1.516c-0.213 1.465-0.417 2.866-0.613 4.199-0.195 1.333-0.425 2.775-0.688 4.327-0.137 0.836-0.262 1.609-0.372 2.316-0.11 0.706-0.218 1.388-0.326 2.046-0.106 0.658-0.21 1.323-0.309 1.995-0.101 0.673-0.212 1.404-0.336 2.195-0.062 0.433-0.124 0.847-0.185 1.242-0.062 0.395-0.076 0.749-0.041 1.061s0.141 0.59 0.316 0.832c0.176 0.242 0.464 0.45 0.864 0.624z" fill="none" stroke="#231f20" stroke-miterlimit="10"/></g><g transform="translate(115.14 113.34)"><path d="m0 0c0.233 0.097 0.491 0.151 0.774 0.164 0.283 0.01 0.546-0.072 0.791-0.247 0.187-0.144 0.353-0.375 0.5-0.694 0.146-0.319 0.28-0.674 0.4-1.063 0.12-0.391 0.241-0.806 0.363-1.244 0.123-0.439 0.253-0.839 0.389-1.2 0.529-1.569 1.022-3.131 1.477-4.686 0.454-1.555 0.933-3.147 1.435-4.776 0.176-0.573 0.336-1.132 0.48-1.678s0.318-1.033 0.52-1.46c0.203-0.426 0.45-0.783 0.741-1.072 0.291-0.287 0.658-0.45 1.1-0.49 0.347-0.043 0.686-0.02 1.016 0.069 0.33 0.088 0.649 0.161 0.953 0.217 0.305 0.056 0.591 0.076 0.86 0.057 0.267-0.018 0.519-0.141 0.757-0.369 0.339-0.323 0.542-0.75 0.609-1.28 0.068-0.533-0.019-0.949-0.261-1.248-0.269-0.361-0.721-0.619-1.353-0.775-0.632-0.158-1.286-0.34-1.961-0.547l-1.83-0.563c-0.501-0.155-0.928-0.243-1.28-0.263-0.351-0.019-0.67 0.126-0.958 0.44-0.208 0.212-0.391 0.577-0.55 1.092-0.16 0.517-0.309 1.004-0.451 1.463l-4.246 13.797c-0.14 0.458-0.286 0.91-0.434 1.354-0.15 0.444-0.293 0.933-0.434 1.467-0.112 0.443-0.215 0.851-0.305 1.225-0.091 0.373-0.134 0.706-0.127 0.996 5e-3 0.291 0.082 0.546 0.228 0.768 0.147 0.22 0.412 0.402 0.797 0.546" fill="#231f20"/><path d="m0 0c0.233 0.097 0.491 0.151 0.774 0.164 0.283 0.01 0.546-0.072 0.791-0.247 0.187-0.144 0.353-0.375 0.5-0.694 0.146-0.319 0.28-0.674 0.4-1.063 0.12-0.391 0.241-0.806 0.363-1.244 0.123-0.439 0.253-0.839 0.389-1.2 0.529-1.569 1.022-3.131 1.477-4.686 0.454-1.555 0.933-3.147 1.435-4.776 0.176-0.573 0.336-1.132 0.48-1.678s0.318-1.033 0.52-1.46c0.203-0.426 0.45-0.783 0.741-1.072 0.291-0.287 0.658-0.45 1.1-0.49 0.347-0.043 0.686-0.02 1.016 0.069 0.33 0.088 0.649 0.161 0.953 0.217 0.305 0.056 0.591 0.076 0.86 0.057 0.267-0.018 0.519-0.141 0.757-0.369 0.339-0.323 0.542-0.75 0.609-1.28 0.068-0.533-0.019-0.949-0.261-1.248-0.269-0.361-0.721-0.619-1.353-0.775-0.632-0.158-1.286-0.34-1.961-0.547l-1.83-0.563c-0.501-0.155-0.928-0.243-1.28-0.263-0.351-0.019-0.67 0.126-0.958 0.44-0.208 0.212-0.391 0.577-0.55 1.092-0.16 0.517-0.309 1.004-0.451 1.463l-4.246 13.797c-0.14 0.458-0.286 0.91-0.434 1.354-0.15 0.444-0.293 0.933-0.434 1.467-0.112 0.443-0.215 0.851-0.305 1.225-0.091 0.373-0.134 0.706-0.127 0.996 5e-3 0.291 0.082 0.546 0.228 0.768 0.147 0.22 0.412 0.402 0.797 0.546z" fill="none" stroke="#231f20" stroke-miterlimit="10"/></g><g transform="translate(124.1 116.1)"><path d="m0 0c0.27 0.133 0.56 0.197 0.871 0.193 0.312-5e-3 0.572-0.076 0.78-0.212 0.246-0.175 0.466-0.465 0.662-0.87 0.197-0.404 0.373-0.859 0.528-1.363 0.155-0.505 0.301-1.019 0.438-1.541 0.137-0.523 0.266-0.979 0.386-1.369 0.762-2.478 1.482-4.836 2.159-7.076 0.677-2.241 1.384-4.553 2.118-6.938 0.141-0.459 0.287-0.935 0.44-1.428 0.151-0.494 0.192-0.901 0.125-1.223-0.046-0.24-0.17-0.455-0.375-0.643-0.204-0.188-0.439-0.336-0.705-0.442-0.265-0.108-0.538-0.148-0.821-0.121-0.283 0.025-0.535 0.129-0.757 0.312-0.252 0.199-0.462 0.549-0.629 1.05-0.166 0.501-0.291 0.965-0.373 1.391-0.127 0.489-0.28 0.963-0.457 1.423-0.177 0.461-0.337 0.882-0.479 1.265-0.177 0.498-0.329 0.991-0.455 1.48-0.127 0.488-0.25 0.927-0.37 1.318l-2.552 8.292c-0.113 0.366-0.234 0.8-0.363 1.3-0.131 0.5-0.295 0.995-0.494 1.486-0.313 0.859-0.502 1.611-0.569 2.255-0.068 0.645 0.23 1.132 0.892 1.461" fill="#231f20"/><path d="m0 0c0.27 0.133 0.56 0.197 0.871 0.193 0.312-5e-3 0.572-0.076 0.78-0.212 0.246-0.175 0.466-0.465 0.662-0.87 0.197-0.404 0.373-0.859 0.528-1.363 0.155-0.505 0.301-1.019 0.438-1.541 0.137-0.523 0.266-0.979 0.386-1.369 0.762-2.478 1.482-4.836 2.159-7.076 0.677-2.241 1.384-4.553 2.118-6.938 0.141-0.459 0.287-0.935 0.44-1.428 0.151-0.494 0.192-0.901 0.125-1.223-0.046-0.24-0.17-0.455-0.375-0.643-0.204-0.188-0.439-0.336-0.705-0.442-0.265-0.108-0.538-0.148-0.821-0.121-0.283 0.025-0.535 0.129-0.757 0.312-0.252 0.199-0.462 0.549-0.629 1.05-0.166 0.501-0.291 0.965-0.373 1.391-0.127 0.489-0.28 0.963-0.457 1.423-0.177 0.461-0.337 0.882-0.479 1.265-0.177 0.498-0.329 0.991-0.455 1.48-0.127 0.488-0.25 0.927-0.37 1.318l-2.552 8.292c-0.113 0.366-0.234 0.8-0.363 1.3-0.131 0.5-0.295 0.995-0.494 1.486-0.313 0.859-0.502 1.611-0.569 2.255-0.068 0.645 0.23 1.132 0.892 1.461z" fill="none" stroke="#231f20" stroke-miterlimit="10"/></g><g transform="translate(129.32 117.74)"><path d="m0 0c0.29 0.14 0.754 0.301 1.389 0.484 0.635 0.182 1.269 0.371 1.902 0.566 0.719 0.221 1.361 0.42 1.928 0.594s1.041 0.144 1.424-0.09c0.209-0.137 0.388-0.332 0.538-0.587s0.256-0.524 0.319-0.806c0.062-0.282 0.069-0.557 0.021-0.823-0.049-0.266-0.162-0.501-0.337-0.705-0.199-0.212-0.454-0.367-0.77-0.464-0.316-0.098-0.623-0.205-0.922-0.32-1.031-0.369-1.708-0.847-2.027-1.434-0.319-0.589-0.275-1.473 0.137-2.652 0.247-0.652 0.546-1.182 0.899-1.588 0.352-0.406 0.839-0.614 1.463-0.623 0.29-0.011 0.588 0.024 0.896 0.106 0.31 0.083 0.607 0.143 0.893 0.181 0.287 0.038 0.56 0.041 0.821 8e-3s0.487-0.17 0.681-0.412c0.252-0.274 0.418-0.657 0.497-1.146 0.078-0.491 0.03-0.877-0.147-1.156-0.109-0.185-0.259-0.339-0.449-0.459-0.189-0.121-0.388-0.227-0.6-0.317-0.21-0.09-0.43-0.17-0.659-0.24-0.229-0.071-0.442-0.174-0.638-0.309-0.576-0.379-0.905-0.863-0.985-1.453-0.081-0.589 0.013-1.32 0.282-2.191 0.247-0.728 0.538-1.342 0.87-1.842 0.333-0.501 0.785-0.788 1.357-0.863 0.37-0.037 0.737-0.012 1.105 0.076 0.366 0.088 0.723 0.186 1.072 0.293s0.687 0.186 1.019 0.237c0.329 0.052 0.625 4e-3 0.884-0.142 0.209-0.137 0.385-0.32 0.528-0.552 0.142-0.233 0.246-0.49 0.308-0.772 0.064-0.282 0.076-0.555 0.037-0.817-0.038-0.263-0.133-0.494-0.287-0.691-0.154-0.199-0.373-0.361-0.657-0.486-0.283-0.124-0.589-0.237-0.915-0.337-0.328-0.101-0.669-0.193-1.024-0.278-0.357-0.085-0.697-0.177-1.025-0.277-0.391-0.121-0.803-0.26-1.23-0.417-0.43-0.156-0.846-0.278-1.248-0.365-0.403-0.087-0.774-0.119-1.115-0.098-0.34 0.021-0.618 0.148-0.834 0.384-0.237 0.228-0.429 0.583-0.578 1.064-0.147 0.482-0.296 0.964-0.444 1.445l-2.573 8.362c-0.234 0.757-0.454 1.474-0.662 2.15-0.208 0.677-0.414 1.342-0.615 1.996s-0.404 1.312-0.608 1.978c-0.205 0.665-0.42 1.365-0.647 2.099-0.155 0.504-0.288 0.953-0.396 1.347s-0.153 0.731-0.134 1.013c0.021 0.283 0.128 0.536 0.322 0.759 0.194 0.222 0.504 0.412 0.934 0.57" fill="#231f20"/><path d="m0 0c0.29 0.14 0.754 0.301 1.389 0.484 0.635 0.182 1.269 0.371 1.902 0.566 0.719 0.221 1.361 0.42 1.928 0.594s1.041 0.144 1.424-0.09c0.209-0.137 0.388-0.332 0.538-0.587s0.256-0.524 0.319-0.806c0.062-0.282 0.069-0.557 0.021-0.823-0.049-0.266-0.162-0.501-0.337-0.705-0.199-0.212-0.454-0.367-0.77-0.464-0.316-0.098-0.623-0.205-0.922-0.32-1.031-0.369-1.708-0.847-2.027-1.434-0.319-0.589-0.275-1.473 0.137-2.652 0.247-0.652 0.546-1.182 0.899-1.588 0.352-0.406 0.839-0.614 1.463-0.623 0.29-0.011 0.588 0.024 0.896 0.106 0.31 0.083 0.607 0.143 0.893 0.181 0.287 0.038 0.56 0.041 0.821 8e-3s0.487-0.17 0.681-0.412c0.252-0.274 0.418-0.657 0.497-1.146 0.078-0.491 0.03-0.877-0.147-1.156-0.109-0.185-0.259-0.339-0.449-0.459-0.189-0.121-0.388-0.227-0.6-0.317-0.21-0.09-0.43-0.17-0.659-0.24-0.229-0.071-0.442-0.174-0.638-0.309-0.576-0.379-0.905-0.863-0.985-1.453-0.081-0.589 0.013-1.32 0.282-2.191 0.247-0.728 0.538-1.342 0.87-1.842 0.333-0.501 0.785-0.788 1.357-0.863 0.37-0.037 0.737-0.012 1.105 0.076 0.366 0.088 0.723 0.186 1.072 0.293s0.687 0.186 1.019 0.237c0.329 0.052 0.625 4e-3 0.884-0.142 0.209-0.137 0.385-0.32 0.528-0.552 0.142-0.233 0.246-0.49 0.308-0.772 0.064-0.282 0.076-0.555 0.037-0.817-0.038-0.263-0.133-0.494-0.287-0.691-0.154-0.199-0.373-0.361-0.657-0.486-0.283-0.124-0.589-0.237-0.915-0.337-0.328-0.101-0.669-0.193-1.024-0.278-0.357-0.085-0.697-0.177-1.025-0.277-0.391-0.121-0.803-0.26-1.23-0.417-0.43-0.156-0.846-0.278-1.248-0.365-0.403-0.087-0.774-0.119-1.115-0.098-0.34 0.021-0.618 0.148-0.834 0.384-0.237 0.228-0.429 0.583-0.578 1.064-0.147 0.482-0.296 0.964-0.444 1.445l-2.573 8.362c-0.234 0.757-0.454 1.474-0.662 2.15-0.208 0.677-0.414 1.342-0.615 1.996s-0.404 1.312-0.608 1.978c-0.205 0.665-0.42 1.365-0.647 2.099-0.155 0.504-0.288 0.953-0.396 1.347s-0.153 0.731-0.134 1.013c0.021 0.283 0.128 0.536 0.322 0.759 0.194 0.222 0.504 0.412 0.934 0.57z" fill="none" stroke="#231f20" stroke-miterlimit="10"/></g><g transform="translate(139.38 120.73)"><path d="m0 0c0.204 0.113 0.487 0.219 0.851 0.318s0.671 0.125 0.925 0.078c0.426-0.07 0.797-0.307 1.113-0.712 0.316-0.406 0.62-0.852 0.913-1.339 0.607-0.969 1.166-1.87 1.674-2.706 0.506-0.836 1.069-1.748 1.683-2.74 0.136-0.209 0.283-0.434 0.441-0.673 0.157-0.242 0.319-0.455 0.483-0.643 0.166-0.187 0.348-0.333 0.546-0.435s0.407-0.119 0.624-0.052c0.327 0.1 0.512 0.352 0.556 0.755 0.043 0.402 0.01 0.856-0.098 1.363-0.108 0.506-0.251 1.027-0.429 1.563-0.176 0.536-0.32 0.988-0.433 1.355-0.141 0.458-0.293 0.932-0.456 1.422-0.164 0.489-0.314 0.964-0.456 1.424-0.211 0.688-0.374 1.309-0.485 1.865-0.112 0.555 5e-3 1.012 0.348 1.369 0.271 0.284 0.583 0.449 0.938 0.496 0.357 0.047 0.671 0.012 0.947-0.104 0.258-0.146 0.49-0.415 0.693-0.804s0.386-0.829 0.549-1.319 0.312-0.996 0.45-1.518c0.136-0.524 0.269-0.991 0.395-1.403l4.342-14.109c0.135-0.434 0.282-0.898 0.446-1.388 0.163-0.49 0.224-0.904 0.185-1.242-0.053-0.293-0.207-0.548-0.463-0.764-0.255-0.217-0.548-0.389-0.879-0.515-0.331-0.127-0.665-0.205-1.002-0.233-0.337-0.029-0.631 0.018-0.883 0.142-0.362 0.164-0.691 0.478-0.988 0.94-0.297 0.46-0.577 0.926-0.842 1.398-0.557 0.958-1.085 1.881-1.585 2.77-0.5 0.887-1.058 1.827-1.673 2.818-0.136 0.209-0.283 0.434-0.441 0.674-0.157 0.24-0.324 0.453-0.5 0.637-0.176 0.185-0.361 0.322-0.556 0.413-0.196 0.091-0.391 0.106-0.586 0.045-0.326-0.1-0.509-0.363-0.544-0.789-0.037-0.425 5e-3 -0.908 0.124-1.449 0.117-0.542 0.269-1.092 0.453-1.65 0.183-0.559 0.332-1.021 0.445-1.388 0.162-0.452 0.321-0.95 0.477-1.492 0.155-0.542 0.306-1.054 0.455-1.536 0.197-0.643 0.361-1.195 0.492-1.656 0.13-0.463 0.147-0.846 0.051-1.153-0.074-0.224-0.211-0.416-0.413-0.579-0.2-0.161-0.427-0.281-0.677-0.358s-0.501-0.098-0.75-0.062c-0.25 0.036-0.471 0.138-0.666 0.304-0.252 0.198-0.45 0.514-0.596 0.946-0.144 0.433-0.301 0.924-0.47 1.475-0.424 1.377-0.864 2.766-1.32 4.17s-0.893 2.782-1.309 4.136c-0.438 1.422-0.849 2.796-1.233 4.122s-0.809 2.708-1.275 4.146c-0.134 0.436-0.255 0.845-0.36 1.227-0.106 0.382-0.158 0.724-0.154 1.026 1e-3 0.302 0.068 0.572 0.195 0.813 0.129 0.241 0.372 0.441 0.728 0.601" fill="#231f20"/><path d="m0 0c0.204 0.113 0.487 0.219 0.851 0.318s0.671 0.125 0.925 0.078c0.426-0.07 0.797-0.307 1.113-0.712 0.316-0.406 0.62-0.852 0.913-1.339 0.607-0.969 1.166-1.87 1.674-2.706 0.506-0.836 1.069-1.748 1.683-2.74 0.136-0.209 0.283-0.434 0.441-0.673 0.157-0.242 0.319-0.455 0.483-0.643 0.166-0.187 0.348-0.333 0.546-0.435s0.407-0.119 0.624-0.052c0.327 0.1 0.512 0.352 0.556 0.755 0.043 0.402 0.01 0.856-0.098 1.363-0.108 0.506-0.251 1.027-0.429 1.563-0.176 0.536-0.32 0.988-0.433 1.355-0.141 0.458-0.293 0.932-0.456 1.422-0.164 0.489-0.314 0.964-0.456 1.424-0.211 0.688-0.374 1.309-0.485 1.865-0.112 0.555 5e-3 1.012 0.348 1.369 0.271 0.284 0.583 0.449 0.938 0.496 0.357 0.047 0.671 0.012 0.947-0.104 0.258-0.146 0.49-0.415 0.693-0.804s0.386-0.829 0.549-1.319 0.312-0.996 0.45-1.518c0.136-0.524 0.269-0.991 0.395-1.403l4.342-14.109c0.135-0.434 0.282-0.898 0.446-1.388 0.163-0.49 0.224-0.904 0.185-1.242-0.053-0.293-0.207-0.548-0.463-0.764-0.255-0.217-0.548-0.389-0.879-0.515-0.331-0.127-0.665-0.205-1.002-0.233-0.337-0.029-0.631 0.018-0.883 0.142-0.362 0.164-0.691 0.478-0.988 0.94-0.297 0.46-0.577 0.926-0.842 1.398-0.557 0.958-1.085 1.881-1.585 2.77-0.5 0.887-1.058 1.827-1.673 2.818-0.136 0.209-0.283 0.434-0.441 0.674-0.157 0.24-0.324 0.453-0.5 0.637-0.176 0.185-0.361 0.322-0.556 0.413-0.196 0.091-0.391 0.106-0.586 0.045-0.326-0.1-0.509-0.363-0.544-0.789-0.037-0.425 5e-3 -0.908 0.124-1.449 0.117-0.542 0.269-1.092 0.453-1.65 0.183-0.559 0.332-1.021 0.445-1.388 0.162-0.452 0.321-0.95 0.477-1.492 0.155-0.542 0.306-1.054 0.455-1.536 0.197-0.643 0.361-1.195 0.492-1.656 0.13-0.463 0.147-0.846 0.051-1.153-0.074-0.224-0.211-0.416-0.413-0.579-0.2-0.161-0.427-0.281-0.677-0.358s-0.501-0.098-0.75-0.062c-0.25 0.036-0.471 0.138-0.666 0.304-0.252 0.198-0.45 0.514-0.596 0.946-0.144 0.433-0.301 0.924-0.47 1.475-0.424 1.377-0.864 2.766-1.32 4.17s-0.893 2.782-1.309 4.136c-0.438 1.422-0.849 2.796-1.233 4.122s-0.809 2.708-1.275 4.146c-0.134 0.436-0.255 0.845-0.36 1.227-0.106 0.382-0.158 0.724-0.154 1.026 1e-3 0.302 0.068 0.572 0.195 0.813 0.129 0.241 0.372 0.441 0.728 0.601z" fill="none" stroke="#231f20" stroke-miterlimit="10"/></g></g></g></svg>
