<?xml version="1.0" encoding="UTF-8" standalone="no"?>
<!-- Created with Inkscape (http://www.inkscape.org/) -->

<svg
   version="1.1"
   id="svg2"
   xml:space="preserve"
   width="1400"
   height="1020"
   viewBox="0 0 1400 1020"
   sodipodi:docname="visokica3.svg"
   inkscape:version="1.1.2 (76b9e6a115, 2022-02-25)"
   xmlns:inkscape="http://www.inkscape.org/namespaces/inkscape"
   xmlns:sodipodi="http://sodipodi.sourceforge.net/DTD/sodipodi-0.dtd"
   xmlns="http://www.w3.org/2000/svg"
   xmlns:svg="http://www.w3.org/2000/svg"><defs
     id="defs6"><clipPath
       clipPathUnits="userSpaceOnUse"
       id="clipPath18"><path
         d="m 342.557,483.768 c 0,-189.841 153.896,-343.737 343.737,-343.737 v 0 c 189.84,0 343.736,153.896 343.736,343.737 v 0 c 0,189.841 -153.896,343.736 -343.736,343.736 v 0 c -189.841,0 -343.737,-153.895 -343.737,-343.736"
         id="path16" /></clipPath><clipPath
       clipPathUnits="userSpaceOnUse"
       id="clipPath6826"><path
         d="M 0,980 H 1400 V 0 H 0 Z"
         id="path6824" /></clipPath><clipPath
       clipPathUnits="userSpaceOnUse"
       id="clipPath6834"><path
         d="M 342.557,791.042 H 1030.03 V 103.57 H 342.557 Z"
         id="path6832" /></clipPath><clipPath
       clipPathUnits="userSpaceOnUse"
       id="clipPath6850"><path
         d="m 342.557,483.768 c 0,-189.841 153.896,-343.737 343.737,-343.737 v 0 c 189.84,0 343.736,153.896 343.736,343.737 v 0 c 0,189.841 -153.896,343.736 -343.736,343.736 v 0 c -189.841,0 -343.737,-153.895 -343.737,-343.736"
         id="path6848" /></clipPath><clipPath
       clipPathUnits="userSpaceOnUse"
       id="clipPath6890"><path
         d="m 342.557,483.768 c 0,-129.09 71.16,-241.56 176.393,-300.323 v 0 h 334.687 c 105.234,58.763 176.393,171.233 176.393,300.323 v 0 c 0,10.961 -0.511,21.787 -1.515,32.486 v 0 c -1.578,-5.084 -1.543,-8.394 -1.543,-8.394 v 0 c -31.118,7.016 -49.788,-25.956 -49.788,-25.956 v 0 c 0,0 -14.459,18.303 -46.021,21.939 v 0 c -33.899,-18.134 -33.634,-42.978 -33.634,-42.978 v 0 c -31.569,7.014 -50.51,-25.957 -50.51,-25.957 v 0 c 0,0 -19.642,24.553 -63.137,22.449 v 0 c -43.495,-2.106 -49.107,-16.838 -49.107,-16.838 v 0 c -26.657,9.122 -32.971,-5.611 -32.971,-5.611 v 0 c 0,0 -11.926,16.838 -44.197,17.537 v 0 c -32.27,0.703 -47.703,-14.029 -47.703,-14.029 v 0 c 0,0 -9.119,28.761 -38.583,28.06 v 0 c -29.464,-0.701 -36.48,-23.849 -36.48,-23.849 v 0 c 0,0 -5.611,9.818 -18.94,11.923 v 0 c -13.329,2.105 -20.696,-8.995 -20.696,-8.995 v 0 c 0,0 4.209,24.079 -25.255,28.289 v 0 c -29.464,4.209 -37.882,-12.629 -37.882,-12.629 v 0 c 0,0 -26.278,77.793 -74.683,88.201 v 0 c -2.777,0.597 -5.547,1.061 -8.292,1.403 v 0 c -4.287,-21.684 -6.536,-44.109 -6.536,-67.051"
         id="path6888" /></clipPath><clipPath
       clipPathUnits="userSpaceOnUse"
       id="clipPath13698"><path
         d="m 342.557,483.768 c 0,-189.841 153.896,-343.737 343.737,-343.737 v 0 c 189.84,0 343.736,153.896 343.736,343.737 v 0 c 0,189.841 -153.896,343.736 -343.736,343.736 v 0 c -189.841,0 -343.737,-153.895 -343.737,-343.736"
         id="path13696" /></clipPath><clipPath
       clipPathUnits="userSpaceOnUse"
       id="clipPath13722"><path
         d="M 398.801,672.26 C 377.957,640.534 362.229,605.163 352.776,567.293 v 0 c 6.307,-8.166 4.609,-17.877 4.609,-17.877 v 0 c 0,0 7.366,11.1 20.696,8.996 v 0 c 13.329,-2.104 18.941,-11.925 18.941,-11.925 v 0 c 0,0 7.015,23.15 36.479,23.851 v 0 c 29.464,0.701 38.583,-28.061 38.583,-28.061 v 0 c 0,0 15.433,14.732 47.704,14.031 v 0 c 32.27,-0.702 44.196,-17.539 44.196,-17.539 v 0 c 0,0 6.314,14.732 32.972,5.612 v 0 c 0,0 5.611,14.732 49.106,16.836 v 0 c 43.495,2.106 63.137,-22.448 63.137,-22.448 v 0 c 0,0 18.942,32.971 50.51,25.957 v 0 c 0,0 3.354,8.374 14.732,21.82 v 0 c -5.551,4.996 -21.64,17.047 -44.196,17.538 v 0 c -32.271,0.701 -47.703,-14.031 -47.703,-14.031 v 0 c 0,0 -9.119,28.763 -38.584,28.062 v 0 c -29.463,-0.701 -36.479,-23.852 -36.479,-23.852 v 0 c 0,0 -5.612,9.821 -18.941,11.926 v 0 c -13.329,2.104 -20.696,-8.997 -20.696,-8.997 v 0 c 0,0 4.21,24.079 -25.255,28.288 v 0 c -29.464,4.21 -37.882,-12.627 -37.882,-12.627 v 0 c 0,0 -17.889,49.458 -66.294,59.866 v 0 c -6.518,1.401 -12.788,2.007 -18.758,2.007 v 0 c -7.45,0 -14.434,-0.944 -20.852,-2.466"
         id="path13720" /></clipPath><clipPath
       clipPathUnits="userSpaceOnUse"
       id="clipPath20530"><path
         d="m 342.557,483.768 c 0,-189.841 153.896,-343.737 343.737,-343.737 v 0 c 189.84,0 343.736,153.896 343.736,343.737 v 0 c 0,189.841 -153.896,343.736 -343.736,343.736 v 0 c -189.841,0 -343.737,-153.895 -343.737,-343.736"
         id="path20528" /></clipPath><clipPath
       clipPathUnits="userSpaceOnUse"
       id="clipPath20546"><path
         d="m 377.312,507.831 h 413.819 v -391.7 H 377.312 Z"
         id="path20544" /></clipPath><clipPath
       clipPathUnits="userSpaceOnUse"
       id="clipPath20622"><path
         d="M 0,980 H 1400 V 0 H 0 Z"
         id="path20620" /></clipPath></defs><sodipodi:namedview
     id="namedview4"
     pagecolor="#505050"
     bordercolor="#ffffff"
     borderopacity="1"
     inkscape:pageshadow="0"
     inkscape:pageopacity="0"
     inkscape:pagecheckerboard="1"
     showgrid="false"
     inkscape:zoom="0.5"
     inkscape:cx="702"
     inkscape:cy="279"
     inkscape:window-width="1536"
     inkscape:window-height="836"
     inkscape:window-x="0"
     inkscape:window-y="0"
     inkscape:window-maximized="1"
     inkscape:current-layer="svg2"
     fit-margin-top="0"
     fit-margin-left="0"
     fit-margin-right="0"
     fit-margin-bottom="0" /><g
     id="g1677"
     transform="matrix(1.3333332,0,0,-1.3333332,-272.57689,1152.5271)"
     inkscape:label="g1677"><g
       id="g6820"
       style="display:inline"
       inkscape:label="krog"
       transform="matrix(1.0054878,0,0,1.0054878,39.372728,-4.7435891)"><g
         transform="translate(1030.0303,447.3066)"
         id="g6838"
         inkscape:label="krog"><path
           d="m 0,0 c 0,-189.842 -153.896,-343.736 -343.736,-343.736 -189.841,0 -343.737,153.894 -343.737,343.736 0,189.839 153.896,343.735 343.737,343.735 C -153.896,343.735 0,189.839 0,0"
           style="fill:#f6e3e3;fill-opacity:1;fill-rule:nonzero;stroke:none"
           id="path6836" /></g></g><g
       id="g20526"
       clip-path="url(#clipPath20530)"
       inkscape:label="sredina"
       style="display:inline"
       transform="matrix(1.0054878,0,0,1.0054878,39.372728,-4.7435891)"><g
         id="g15061"
         inkscape:label="oblaki"
         style="display:inline"><g
           id="g6846"
           clip-path="url(#clipPath6850)"
           style="display:inline"
           inkscape:label="oblaki spodaj"><g
             id="g6852"
             transform="translate(399.1812,592.6104)"><path
               d="m 0,0 124.731,49.77 h 11.674 l 7.988,-8.603 14.746,-8.602 26.421,10.446 14.132,0.614 12.289,10.445 c 0,0 36.867,15.362 38.71,15.362 h 9.83 l 18.434,-11.06 14.131,4.3 15.976,12.289 h 7.373 l 59.602,-45.468 19.046,1.229 25.807,27.65 h 9.216 l 33.795,-25.192 9.83,4.301 h 10.446 l 46.698,-20.276 c 0,0 15.973,4.301 18.431,3.687 2.458,-0.615 25.194,-11.061 25.194,-11.061 0,0 14.746,3.073 16.589,2.458 C 592.933,11.675 635.943,0 635.943,0 Z"
               style="fill:#db8928;fill-opacity:1;fill-rule:nonzero;stroke:none"
               id="path6854" /></g><g
             id="g6856"
             transform="translate(392.5693,590.0996)"><path
               d="m 0,0 124.731,49.77 h 11.674 l 7.988,-8.602 14.746,-8.603 26.421,10.446 14.132,0.614 12.289,10.446 c 0,0 36.868,15.361 38.71,15.361 h 9.83 l 18.434,-11.06 14.132,4.301 15.975,12.289 h 7.373 l 59.602,-45.468 19.046,1.228 25.808,27.65 h 9.215 L 463.9,33.18 l 9.83,4.301 h 10.448 l 46.697,-20.276 c 0,0 15.974,4.301 18.432,3.687 2.458,-0.615 25.193,-11.06 25.193,-11.06 0,0 14.746,3.072 16.59,2.458 C 592.934,11.675 635.943,0 635.943,0 Z"
               style="fill:#2c3f6c;fill-opacity:1;fill-rule:nonzero;stroke:none"
               id="path6858" /></g><g
             id="g6860"
             transform="translate(253.209,664.415)"><path
               d="m 0,0 c 0,0 49.458,26.307 102.072,-14.732 0,0 34.725,33.443 83.13,23.035 48.405,-10.407 66.294,-59.865 66.294,-59.865 0,0 8.419,16.836 37.883,12.627 29.464,-4.209 25.255,-28.288 25.255,-28.288 0,0 7.366,11.101 20.695,8.996 13.329,-2.105 18.941,-11.925 18.941,-11.925 0,0 7.016,23.15 36.48,23.851 29.464,0.702 38.583,-28.06 38.583,-28.06 0,0 15.433,14.731 47.703,14.029 32.271,-0.701 44.196,-17.537 44.196,-17.537 0,0 6.315,14.731 32.972,5.612 0,0 5.611,14.732 49.107,16.836 43.495,2.105 63.136,-22.448 63.136,-22.448 0,0 18.942,32.971 50.51,25.956 0,0 -0.351,31.919 49.107,49.809 49.457,17.888 79.15,-26.308 79.15,-26.308 V -370.405 H 0 Z"
               style="fill:#b0e0e9;fill-opacity:1;fill-rule:nonzero;stroke:none"
               id="path6862" /></g><g
             id="g6864"
             transform="translate(253.209,664.415)"><path
               d="m 0,0 c 0,0 49.458,26.307 102.072,-14.732 0,0 34.725,33.443 83.13,23.035 48.405,-10.407 66.294,-59.865 66.294,-59.865 0,0 8.419,16.836 37.883,12.627 29.464,-4.209 25.255,-28.288 25.255,-28.288 0,0 7.366,11.101 20.695,8.996 13.329,-2.105 18.941,-11.925 18.941,-11.925 0,0 7.016,23.15 36.48,23.851 29.464,0.702 38.583,-28.06 38.583,-28.06 0,0 15.433,14.731 47.703,14.029 32.271,-0.701 44.196,-17.537 44.196,-17.537 0,0 6.315,14.731 32.972,5.612 0,0 5.611,14.732 49.107,16.836 43.495,2.105 63.136,-22.448 63.136,-22.448 0,0 18.942,32.971 50.51,25.956 0,0 -0.351,31.919 49.107,49.809 49.457,17.888 79.15,-26.308 79.15,-26.308 V -370.405 H 0 Z"
               style="fill:none;stroke:#3e83c5;stroke-width:3;stroke-linecap:butt;stroke-linejoin:round;stroke-miterlimit:10;stroke-dasharray:none;stroke-opacity:1"
               id="path6866" /></g><g
             id="g6868"
             transform="translate(1026.9717,507.8599)"
             style="display:inline"><path
               d="m 0,0 c -31.117,7.016 -49.788,-25.956 -49.788,-25.956 0,0 -19.361,24.553 -62.234,22.448 -42.875,-2.104 -48.405,-16.836 -48.405,-16.836 -26.277,9.12 -32.502,-5.612 -32.502,-5.612 0,0 -11.756,16.837 -43.564,17.537 -31.811,0.702 -47.023,-14.029 -47.023,-14.029 0,0 -8.989,28.761 -38.032,28.06 -29.044,-0.7 -35.958,-23.85 -35.958,-23.85 0,0 -5.533,9.819 -18.671,11.924 -13.139,2.105 -20.4,-8.996 -20.4,-8.996 0,0 4.149,24.08 -24.895,28.289 -29.043,4.208 -37.34,-12.627 -37.34,-12.627 0,0 -1.535,68.222 -49.249,78.629 -47.713,10.408 -102.381,30.856 -102.381,30.856 -24.232,19.175 -43.443,10.56 -163.321,9.884 V -213.85 H 71.451 V 54.067 C 64.359,54.083 56.662,52.838 48.406,49.809 -0.345,31.92 0,0 0,0"
               style="fill:#efd9bb;fill-opacity:1;fill-rule:nonzero;stroke:none"
               id="path6870" /></g><g
             id="g6872"
             transform="translate(1026.9717,507.8599)"
             style="display:inline"><path
               d="m 0,0 c -31.117,7.016 -49.788,-25.956 -49.788,-25.956 0,0 -19.361,24.553 -62.234,22.448 -42.875,-2.104 -48.405,-16.836 -48.405,-16.836 -26.277,9.12 -32.502,-5.612 -32.502,-5.612 0,0 -11.756,16.837 -43.564,17.537 -31.811,0.702 -47.023,-14.029 -47.023,-14.029 0,0 -8.989,28.761 -38.032,28.06 -29.044,-0.7 -35.958,-23.85 -35.958,-23.85 0,0 -5.533,9.819 -18.671,11.924 -13.139,2.105 -20.4,-8.996 -20.4,-8.996 0,0 4.149,24.08 -24.895,28.289 -29.043,4.208 -37.34,-12.627 -37.34,-12.627 0,0 -1.535,68.222 -49.249,78.629 -47.713,10.408 -102.381,30.856 -102.381,30.856 -24.232,19.175 -43.443,10.56 -163.321,9.884 V -213.85 H 71.451 V 54.067 C 64.359,54.083 56.662,52.838 48.406,49.809 -0.345,31.92 0,0 0,0 Z"
               style="fill:none;stroke:#3e83c5;stroke-width:3;stroke-linecap:butt;stroke-linejoin:round;stroke-miterlimit:10;stroke-dasharray:none;stroke-opacity:1"
               id="path6874" /></g><g
             id="g6876"
             transform="translate(1075.3779,557.6685)"
             style="display:inline"><path
               d="m 0,0 c -48.751,-17.889 -48.406,-49.809 -48.406,-49.809 -31.117,7.016 -49.788,-25.955 -49.788,-25.955 0,0 -14.459,18.303 -46.021,21.939 -33.899,-18.134 -33.635,-42.978 -33.635,-42.978 -31.568,7.013 -50.509,-25.957 -50.509,-25.957 0,0 -19.642,24.552 -63.137,22.449 -43.495,-2.106 -49.107,-16.838 -49.107,-16.838 -26.657,9.121 -32.971,-5.611 -32.971,-5.611 0,0 -11.926,16.838 -44.197,17.537 -32.27,0.703 -47.703,-14.029 -47.703,-14.029 0,0 -9.119,28.761 -38.583,28.06 -29.464,-0.701 -36.48,-23.85 -36.48,-23.85 0,0 -5.611,9.819 -18.941,11.924 -13.329,2.104 -20.695,-8.996 -20.695,-8.996 0,0 4.209,24.08 -25.255,28.289 -29.464,4.209 -37.882,-12.629 -37.882,-12.629 0,0 -26.277,77.794 -74.683,88.201 -48.405,10.408 -93.013,-19.871 -93.013,-19.871 -3.838,2.992 -7.557,5.446 -11.163,7.448 V -374.223 H 23.045 V 4.259 C 15.953,4.274 8.256,3.03 0,0"
               style="fill:#f3ece4;fill-opacity:1;fill-rule:nonzero;stroke:none"
               id="path6878" /></g><g
             id="g6880"
             transform="translate(1075.3779,557.6685)"
             style="display:inline"><path
               d="m 0,0 c -48.751,-17.889 -48.406,-49.809 -48.406,-49.809 -31.117,7.016 -49.788,-25.955 -49.788,-25.955 0,0 -14.459,18.303 -46.021,21.939 -33.899,-18.134 -33.635,-42.978 -33.635,-42.978 -31.568,7.013 -50.509,-25.957 -50.509,-25.957 0,0 -19.642,24.552 -63.137,22.449 -43.495,-2.106 -49.107,-16.838 -49.107,-16.838 -26.657,9.121 -32.971,-5.611 -32.971,-5.611 0,0 -11.926,16.838 -44.197,17.537 -32.27,0.703 -47.703,-14.029 -47.703,-14.029 0,0 -9.119,28.761 -38.583,28.06 -29.464,-0.701 -36.48,-23.85 -36.48,-23.85 0,0 -5.611,9.819 -18.941,11.924 -13.329,2.104 -20.695,-8.996 -20.695,-8.996 0,0 4.209,24.08 -25.255,28.289 -29.464,4.209 -37.882,-12.629 -37.882,-12.629 0,0 -26.277,77.794 -74.683,88.201 -48.405,10.408 -93.013,-19.871 -93.013,-19.871 -3.838,2.992 -7.557,5.446 -11.163,7.448 V -374.223 H 23.045 V 4.259 C 15.953,4.274 8.256,3.03 0,0 Z"
               style="fill:none;stroke:#3e83c5;stroke-width:3;stroke-linecap:butt;stroke-linejoin:round;stroke-miterlimit:10;stroke-dasharray:none;stroke-opacity:1"
               id="path6882" /></g></g><g
           id="g13694"
           clip-path="url(#clipPath13698)"
           style="display:inline"
           inkscape:label="oblaki zgoraj"><g
             id="g13700"
             transform="translate(1065.4238,348.0176)"><path
               d="m 0,0 c 0,0 -29.692,44.195 -79.149,26.307 -49.458,-17.889 -49.108,-49.809 -49.108,-49.809 -31.568,7.016 -50.51,-25.955 -50.51,-25.955 0,0 -19.641,24.553 -63.136,22.447 -43.495,-2.103 -49.107,-16.836 -49.107,-16.836 -26.657,9.119 -32.971,-5.611 -32.971,-5.611 0,0 -11.926,16.836 -44.197,17.537 -32.27,0.701 -47.703,-14.029 -47.703,-14.029 0,0 -9.119,28.762 -38.583,28.06 -29.464,-0.701 -36.48,-23.851 -36.48,-23.851 0,0 -5.612,9.82 -18.941,11.926 -13.329,2.103 -20.695,-8.997 -20.695,-8.997 0,0 4.209,24.079 -25.255,28.288 -29.464,4.209 -37.883,-12.627 -37.883,-12.627 0,0 -17.888,49.457 -66.294,59.865 -48.405,10.408 -83.13,-23.035 -83.13,-23.035 -25.531,19.914 -50.318,23.97 -69.073,22.869 V -205.229 H 0 Z"
               style="fill:#b0e0e9;fill-opacity:1;fill-rule:nonzero;stroke:none"
               id="path13702" /></g><g
             id="g13704"
             transform="translate(1065.4238,348.0176)"><path
               d="m 0,0 c 0,0 -29.692,44.195 -79.149,26.307 -49.458,-17.889 -49.108,-49.809 -49.108,-49.809 -31.568,7.016 -50.51,-25.955 -50.51,-25.955 0,0 -19.641,24.553 -63.136,22.447 -43.495,-2.103 -49.107,-16.836 -49.107,-16.836 -26.657,9.119 -32.971,-5.611 -32.971,-5.611 0,0 -11.926,16.836 -44.197,17.537 -32.27,0.701 -47.703,-14.029 -47.703,-14.029 0,0 -9.119,28.762 -38.583,28.06 -29.464,-0.701 -36.48,-23.851 -36.48,-23.851 0,0 -5.612,9.82 -18.941,11.926 -13.329,2.103 -20.695,-8.997 -20.695,-8.997 0,0 4.209,24.079 -25.255,28.288 -29.464,4.209 -37.883,-12.627 -37.883,-12.627 0,0 -17.888,49.457 -66.294,59.865 -48.405,10.408 -83.13,-23.035 -83.13,-23.035 -25.531,19.914 -50.318,23.97 -69.073,22.869 V -205.229 H 0 Z"
               style="fill:none;stroke:#3e83c5;stroke-width:3;stroke-linecap:butt;stroke-linejoin:round;stroke-miterlimit:10;stroke-dasharray:none;stroke-opacity:1"
               id="path13706" /></g><g
             id="g13708"
             transform="translate(294.248,565.0767)"><path
               d="m 0,0 c 0,0 8.418,16.836 37.882,12.627 29.464,-4.209 25.255,-28.288 25.255,-28.288 0,0 7.366,11.101 20.696,8.996 13.329,-2.104 18.941,-11.925 18.941,-11.925 0,0 7.015,23.15 36.479,23.851 29.464,0.702 38.583,-28.061 38.583,-28.061 0,0 15.434,14.732 47.704,14.031 32.27,-0.702 44.196,-17.539 44.196,-17.539 0,0 6.315,14.732 32.972,5.613 0,0 5.611,14.732 49.106,16.836 43.496,2.105 63.137,-22.449 63.137,-22.449 0,0 18.942,32.972 50.51,25.957 0,0 3.354,8.374 14.732,21.82 -5.551,4.997 -21.639,17.048 -44.196,17.538 -32.27,0.701 -47.703,-14.03 -47.703,-14.03 0,0 -9.119,28.762 -38.584,28.061 -29.463,-0.702 -36.479,-23.852 -36.479,-23.852 0,0 -5.612,9.821 -18.941,11.926 -13.33,2.104 -20.695,-8.997 -20.695,-8.997 0,0 4.209,24.079 -25.255,28.289 -29.465,4.209 -37.883,-12.628 -37.883,-12.628 0,0 -17.889,49.458 -66.294,59.866 C 95.758,118.049 61.033,84.606 61.033,84.606 8.418,125.646 -41.039,99.338 -41.039,99.338 V 49.775 C -11.511,31.809 0,0 0,0"
               style="fill:#f4efea;fill-opacity:1;fill-rule:nonzero;stroke:none"
               id="path13710" /></g><g
             id="g13712"
             transform="translate(294.248,565.0767)"><path
               d="m 0,0 c 0,0 8.418,16.836 37.882,12.627 29.464,-4.209 25.255,-28.288 25.255,-28.288 0,0 7.366,11.101 20.696,8.996 13.329,-2.104 18.941,-11.925 18.941,-11.925 0,0 7.015,23.15 36.479,23.851 29.464,0.702 38.583,-28.061 38.583,-28.061 0,0 15.434,14.732 47.704,14.031 32.27,-0.702 44.196,-17.539 44.196,-17.539 0,0 6.315,14.732 32.972,5.613 0,0 5.611,14.732 49.106,16.836 43.496,2.105 63.137,-22.449 63.137,-22.449 0,0 18.942,32.972 50.51,25.957 0,0 3.354,8.374 14.732,21.82 -5.551,4.997 -21.639,17.048 -44.196,17.538 -32.27,0.701 -47.703,-14.03 -47.703,-14.03 0,0 -9.119,28.762 -38.584,28.061 -29.463,-0.702 -36.479,-23.852 -36.479,-23.852 0,0 -5.612,9.821 -18.941,11.926 -13.33,2.104 -20.695,-8.997 -20.695,-8.997 0,0 4.209,24.079 -25.255,28.289 -29.465,4.209 -37.883,-12.628 -37.883,-12.628 0,0 -17.889,49.458 -66.294,59.866 C 95.758,118.049 61.033,84.606 61.033,84.606 8.418,125.646 -41.039,99.338 -41.039,99.338 V 49.775 C -11.511,31.809 0,0 0,0 Z"
               style="fill:none;stroke:#3e83c5;stroke-width:3;stroke-linecap:butt;stroke-linejoin:round;stroke-miterlimit:10;stroke-dasharray:none;stroke-opacity:1"
               id="path13714" /></g></g><g
           id="g25550"
           inkscape:label="spirale"><g
             id="g20588"
             transform="translate(504.7051,612.853)"><path
               d="m 0,0 c 0,0 10.204,-29.017 -15.031,-45.577 -25.235,-16.56 -59.144,9.858 -47.709,35.487 11.434,25.629 52.475,16.038 45.344,-11.829 0,0 -4.732,-13.012 -19.715,-9.857 -14.983,3.154 -8.674,22.08 2.366,22.08"
               style="fill:none;stroke:#3e83c5;stroke-width:3;stroke-linecap:butt;stroke-linejoin:round;stroke-miterlimit:10;stroke-dasharray:none;stroke-opacity:1"
               id="path20590" /></g><g
             id="g20592"
             transform="translate(682.542,590.0537)"><path
               d="m 0,0 c 0,0 -9.844,-9.767 -6.726,-22.778 3.118,-13.011 22.045,-13.467 30.326,-5.156 8.279,8.31 1.584,23.688 -9.658,22.505 C 2.701,-6.612 1.518,-23.172 11.77,-24.355 c 10.251,-1.183 10.364,5.914 6.759,9.857"
               style="fill:none;stroke:#3e83c5;stroke-width:3;stroke-linecap:butt;stroke-linejoin:round;stroke-miterlimit:10;stroke-dasharray:none;stroke-opacity:1"
               id="path20594" /></g><g
             id="g20596"
             transform="translate(919.6562,586.5459)"><path
               d="m 0,0 c 0,0 10.048,-11.445 4.527,-24.426 -5.52,-12.981 -28.784,-16.135 -38.641,-2.73 -9.857,13.406 4.732,29.865 17.349,27.156 12.618,-2.709 13.8,-18.542 4.732,-24.426 -9.069,-5.884 -18.531,6.733 -11.04,13.436"
               style="fill:none;stroke:#3e83c5;stroke-width:3;stroke-linecap:butt;stroke-linejoin:round;stroke-miterlimit:10;stroke-dasharray:none;stroke-opacity:1"
               id="path20598" /></g><g
             id="g20600"
             transform="translate(970.166,612.502)"><path
               d="M 0,0 C 0,0 -3.794,-34.58 26.173,-36.551 56.14,-38.523 78.219,2.439 52.59,15.079 26.961,27.718 6.459,1.695 19.864,-15.654 33.27,-33.002 58.899,-5.796 44.311,2.878 29.721,11.552 24.519,-7.273 31.852,-9.098"
               style="fill:none;stroke:#3e83c5;stroke-width:3;stroke-linecap:butt;stroke-linejoin:round;stroke-miterlimit:10;stroke-dasharray:none;stroke-opacity:1"
               id="path20602" /></g><g
             id="g20604"
             transform="translate(355.2808,649.6831)"
             style="display:inline"><path
               d="m 0,0 c 0,0 -16.723,-14.511 -13.04,-31.986 3.684,-17.475 29.991,-19.579 38.409,-9.582 8.418,9.996 1.473,31.568 -14.258,28.937 -15.732,-2.63 -12.68,-24.202 0,-23.676 12.68,0.526 8.471,11.385 3.209,12.532"
               style="fill:none;stroke:#3e83c5;stroke-width:3;stroke-linecap:butt;stroke-linejoin:round;stroke-miterlimit:10;stroke-dasharray:none;stroke-opacity:1"
               id="path20606" /></g><g
             id="g20608"
             transform="translate(607.479,594.2627)"
             style="display:inline"><path
               d="M 0,0 C 0,0 -2.833,-9.649 6.62,-12.806 16.074,-15.963 21.686,-6.135 16.424,0 11.163,6.135 4.782,-3.065 9.024,-6.708"
               style="fill:none;stroke:#3e83c5;stroke-width:3;stroke-linecap:butt;stroke-linejoin:round;stroke-miterlimit:10;stroke-dasharray:none;stroke-opacity:1"
               id="path20610" /></g></g></g><g
         id="g15046"
         inkscape:label="gora"
         style="display:inline"><g
           id="g20536"
           transform="translate(381.9634,127.2949)"><path
             d="m 0,0 36.286,94.9 14.886,13.028 5.582,20.467 19.539,14.888 12.095,71.641 37.216,72.572 24.392,68.85 16.748,7.442 13.025,-4.651 21.399,15.817 25.122,5.582 16.765,-8.374 h 19.52 l 29.773,-13.025 7.444,-13.026 c 0,0 12.217,-1.861 14.482,-4.652 2.265,-2.791 31.836,-152.121 31.836,-152.121 l 19.539,-6.979 10.234,-21.4 34.424,-87.457 c 0,0 21.401,-5.582 24.192,-7.443 2.791,-1.862 34.424,-77.223 34.424,-77.223 H -4.652 Z"
             style="fill:#2c3f6c;fill-opacity:1;fill-rule:nonzero;stroke:none"
             id="path20538" /></g><g
           id="g20540"><g
             id="g20542" /><g
             id="g20554"><g
               clip-path="url(#clipPath20546)"
               id="g20552"><g
                 transform="translate(686.7358,279.1797)"
                 id="g20550"><path
                   d="m 0,0 -4.981,-24.203 -37.216,-11.574 v 22.097 l -18.836,2.106 -7.365,-61.033 -81.027,1.052 -10.523,-31.949 h -18.941 l 13.68,112.975 h 33.673 l 12.994,5.261 5.947,72.608 -5.947,57.478 48.574,13.178 17.354,9.318 10.417,52.963 h -19.52 l -16.766,8.374 -25.121,-5.582 -21.399,-15.817 -13.026,4.651 -16.747,-7.442 -24.392,-68.85 -37.216,-72.572 -12.095,-71.641 -19.539,-14.888 -5.583,-20.467 -14.886,-13.027 -36.285,-94.901 -4.652,-11.164 h 413.265 l -24.92,76.762 25.474,10.799 v 0.002 L 71.111,9.074 60.876,30.475 41.337,37.453 17.889,0 Z"
                   style="fill:#2c3f6c;fill-opacity:1;fill-rule:nonzero;stroke:none"
                   id="path20548" /></g></g></g></g><g
           id="g20556"
           transform="translate(582.5596,366.5195)"><path
             d="M 0,0 V 32.621 L 31.539,50.51 42.459,132.937 25.693,141.311 0.572,135.729 -20.827,119.912 -8.418,0 Z"
             style="fill:#3e83c5;fill-opacity:1;fill-rule:nonzero;stroke:none"
             id="path20558" /></g><g
           id="g20560"
           transform="translate(659.3765,437.1758)"><path
             d="M 0,0 22.378,36.23 14.935,49.256 -14.838,62.281 V 0 Z"
             style="fill:#db8928;fill-opacity:1;fill-rule:nonzero;stroke:none"
             id="path20562" /></g><g
           id="g20564"
           transform="translate(704.625,279.1797)"><path
             d="m 0,0 23.448,37.453 c 0,0 -29.571,149.33 -31.836,152.121 L -17.889,0 Z"
             style="fill:#db8928;fill-opacity:1;fill-rule:nonzero;stroke:none"
             id="path20566" /></g><g
           id="g20568"
           transform="translate(507.5679,414.791)"><path
             d="m 0,0 -37.216,-72.572 -12.096,-71.641 21.18,-21.914 h 13.679 L 9.75,-11.441 27.639,4.344 41.139,76.292 24.392,68.85 Z"
             style="fill:#3e83c5;fill-opacity:1;fill-rule:nonzero;stroke:none"
             id="path20570" /></g><g
           id="g20572"
           transform="translate(440.501,214.9902)"><path
             d="m 0,0 -7.366,20.232 -14.886,-13.027 -36.286,-94.9 -4.651,-11.164 h 34.777 l 10.523,45.193 24.202,-5.262 V -98.859 H 52.614 L 22.098,0 Z"
             style="fill:#3e83c5;fill-opacity:1;fill-rule:nonzero;stroke:none"
             id="path20574" /></g><g
           id="g20576"
           transform="translate(561.7324,103.8457)"><path
             d="m 0,0 12.409,163.76 19.235,11.574 7.072,57.875 33.673,43.145 H 82.806 V 201.641 L 63.286,193.223 68.18,60.229 h 56.823 L 153.415,68 179.723,60.229 220.762,0 Z"
             style="fill:#3e83c5;fill-opacity:1;fill-rule:nonzero;stroke:none"
             id="path20578" /></g><g
           id="g20580"
           transform="translate(816.4619,193.3535)"><path
             d="m 0,0 c -2.791,1.861 -24.191,7.443 -24.191,7.443 l -34.424,87.457 -10.235,21.401 -14.576,-9.43 32.621,-107.332 16.837,-7.367 19.993,-69.395 h 48.4 C 34.425,-77.223 2.791,-1.861 0,0"
             style="fill:#db8928;fill-opacity:1;fill-rule:nonzero;stroke:none"
             id="path20582" /></g><g
           id="g20584"
           transform="translate(608.2529,507.8306)"
           style="display:inline"><path
             d="m 0,0 -25.121,-5.582 10.244,-19.977 H 5.846 l 4.767,-29.254 6.153,46.439 z"
             style="fill:#db8928;fill-opacity:1;fill-rule:nonzero;stroke:none"
             id="path20586" /></g></g><g
         id="g14883"
         inkscape:label="slack"
         style="display:inline"><g
           id="g20612"
           transform="translate(1098.4258,370.7461)"
           style="display:inline"><path
             d="m 0,0 c -0.062,0 0.06,-5.914 -0.003,-5.908 -118.215,8.814 -271.561,-3.278 -282.07,-4.168 -2.901,-0.244 -81.439,34.758 -157,113.084 -36.972,38.324 -72.913,75.74 -73.27,76.129 -0.934,1.017 -0.929,2.246 0.088,3.179 1.018,0.934 0,0 0.933,-1.016 0.352,-0.383 36.979,-37.075 73.601,-75.066 C -371.409,37.449 -282.881,-1.951 -280.286,-2.154 -266.794,-0.99 -13.788,6.035 0.183,4.994 1.56,4.891 2.593,3.691 2.49,2.314 2.393,1 1.296,0 0,0"
             style="fill:#2c3f6c;fill-opacity:1;fill-rule:nonzero;stroke:none"
             id="path20614" /></g><g
           id="g20624"
           transform="translate(587.104,500.0239)"><path
             d="M 0,0 C -0.953,-0.14 0,81.706 0,81.706"
             style="fill:none;stroke:#2c3f6c;stroke-width:2;stroke-linecap:round;stroke-linejoin:miter;stroke-miterlimit:10;stroke-dasharray:none;stroke-opacity:1"
             id="path20626" /></g><g
           id="g20628"
           transform="translate(594.9067,562.3745)"><path
             d="m 0,0 c 0,-0.653 -0.529,-1.182 -1.182,-1.182 h -14.089 c -0.652,0 -1.182,0.529 -1.182,1.182 0,0.653 0.53,1.182 1.182,1.182 H -1.182 C -0.529,1.182 0,0.653 0,0"
             style="fill:#2c3f6c;fill-opacity:1;fill-rule:nonzero;stroke:none"
             id="path20630" /></g><g
           id="g20632"
           transform="translate(822.8027,426.6543)"><path
             d="m 0,0 c -0.608,-3.043 -0.608,-5.885 -0.608,-7.508 0,-1.625 -0.997,-8.119 -0.997,-8.119 0,0 -3.063,7.713 -3.266,11.162 -0.202,3.451 -0.608,8.727 -1.42,10.756 -0.813,2.029 -2.842,4.668 -2.232,5.887 0.608,1.217 5.073,7.914 5.073,7.914 0,0 1.014,-12.988 2.232,-14.408 C 0,4.262 0.609,3.045 0,0 m 116.85,79.744 c -0.088,0.609 -7.998,3.651 -9.042,3.911 -1.043,0.262 -14.082,-1.043 -14.082,-1.043 v 1.391 c 0,0.261 -2.001,0.522 -6.434,0.608 -4.434,0.087 -14.083,2.522 -17.908,2.956 -3.824,0.435 -7.128,2.956 -8.693,3.217 -1.563,0.261 -2.173,-0.522 -7.215,-0.609 -5.042,-0.086 -19.474,10.259 -23.733,13.562 -4.26,3.304 -6.519,4.433 -6.519,4.694 0,0.261 -0.261,2.174 -0.261,2.174 0,0 2.607,-0.435 4.086,2.608 1.477,3.042 2.52,10.084 2.52,10.084 0,0 1.912,0.261 2.434,3.912 0.521,3.651 -2.521,7.477 -2.521,7.477 0,0 -1.216,-1.826 -3.477,0.086 -2.26,1.913 -8.607,5.825 -15.039,0 -6.434,-5.824 -3.565,-14.431 -2.869,-16.691 0.695,-2.26 0.869,-3.825 0.869,-3.825 1.305,-0.347 1.39,0 1.39,0 v -1.999 c 0,0 -4.335,0.65 -6.23,1.732 -1.895,1.082 -7.034,2.571 -10.281,4.195 -3.248,1.623 -5.413,1.082 -7.307,1.758 -1.893,0.677 -5.142,4.33 -6.088,5.818 -0.947,1.488 -2.977,0.677 -4.6,1.759 -1.624,1.083 -7.307,14.341 -7.712,15.289 -0.407,0.946 0,2.841 -0.407,4.058 -0.406,1.218 -2.029,2.301 -2.029,2.301 l -0.406,5.547 c 0,0 1.488,0.406 1.759,1.759 0.27,1.353 2.976,4.329 4.058,5.141 1.082,0.812 2.165,1.488 1.76,2.571 -0.406,1.082 -2.301,-0.677 -2.977,-0.541 -0.677,0.135 -0.271,5.682 -0.271,6.494 0,0.812 -1.353,1.488 -1.353,1.488 0,0 -0.812,1.082 -1.894,1.356 -1.082,0.273 -1.623,-0.409 -2.57,-0.274 -0.948,0.136 -1.489,0.542 -1.895,0 -0.405,-0.541 -0.405,-3.923 -0.676,-5.953 -0.27,-2.029 -0.947,-5.141 -1.353,-7.171 -0.405,-2.029 -0.812,-10.959 -0.812,-10.959 -1.76,0 -1.488,-1.353 -1.488,-1.353 0,0 2.706,-18.129 3.789,-23.677 1.083,-5.547 9.876,-16.1 13.395,-21.106 3.517,-5.006 6.222,-7.171 6.764,-9.877 0.541,-2.706 -1.624,-28.684 -1.624,-28.684 0,0 -6.359,-3.653 -6.9,-8.93 -0.54,-5.275 0.406,-20.158 0.541,-23.406 0.135,-3.246 -4.464,-14.071 -3.924,-17.453 0.541,-3.383 5.548,-9.877 6.225,-11.5 0.675,-1.623 2.976,-7.983 3.382,-12.178 0.406,-4.193 13.123,-38.018 13.123,-38.018 0,0 -2.164,-2.166 -2.975,-3.654 -0.813,-1.488 1.082,-2.435 1.758,-2.977 0.676,-0.539 2.165,-2.974 3.383,-5.003 1.217,-2.03 3.111,-2.166 3.517,-2.03 0.406,0.135 1.488,4.735 1.488,4.735 0,0 1.218,-1.354 1.759,-4.465 0.541,-3.113 0,-7.848 0,-9.199 0,-1.356 5.548,2.705 5.573,3.38 0.026,0.678 2.951,4.194 3.763,6.629 0.812,2.436 2.841,3.924 3.383,4.871 0.541,0.948 -1.489,5.954 -1.489,5.954 l 1.083,1.625 -2.03,7.304 c 0.135,0.678 5.412,57.772 5.547,64.268 0.135,6.494 2.977,19.889 2.436,25.164 -0.542,5.277 -2.773,8.051 -4.126,8.93 -1.354,0.88 -1.421,2.232 -1.421,2.232 h 2.706 c 1.894,0 3.45,1.15 5.006,4.534 1.556,3.383 3.788,11.5 3.788,11.5 0,0 5.683,-0.069 6.494,-0.135 0.813,-0.068 4.06,-2.774 7.307,-3.248 3.247,-0.473 6.156,2.165 6.156,2.165 l 12.244,0.203 c 0,0 1.421,-0.88 3.653,-1.352 2.233,-0.474 32.337,0.489 32.337,0.489 v 2.284 l 1.489,-0.88 c 1.487,-0.88 4.017,-0.109 6.365,-0.022 2.347,0.087 4.868,-0.348 7.129,-1.217 2.26,-0.87 2.26,1.999 1.217,1.912 -1.043,-0.088 -1.217,1.478 -1.217,1.478 l 5.738,-1.13 c 0,0 1.042,0 1.129,0.695 0.088,0.695 -4.086,2.695 -4.086,2.695 l 4.956,-1.565 c 0,0 0.522,0.522 0.435,1.131"
             style="fill:#2c3f6c;fill-opacity:1;fill-rule:nonzero;stroke:none"
             id="path20634" /></g></g></g><g
       id="g20668"
       transform="matrix(1.0054878,0,0,1.0054878,1075.0556,481.67881)"
       style="display:inline"
       inkscape:label="obroc"><path
         d="m 0,0 c 0,-189.84 -153.896,-343.736 -343.736,-343.736 -189.841,0 -343.737,153.896 -343.737,343.736 0,189.841 153.896,343.737 343.737,343.737 C -153.896,343.737 0,189.841 0,0 Z"
         style="fill:none;stroke:#3e83c5;stroke-width:3;stroke-linecap:butt;stroke-linejoin:round;stroke-miterlimit:10;stroke-dasharray:none;stroke-opacity:1"
         id="path20670" /></g><g
       id="g20618"
       clip-path="url(#clipPath20622)"
       inkscape:label="nebo"
       style="display:inline"
       transform="matrix(1.0054878,0,0,1.0054878,39.372728,-4.7435891)"><g
         id="g14875"
         inkscape:label="oblaki"
         style="display:inline"><g
           id="g20636"
           transform="translate(413.4326,674.4395)"><path
             d="m 0,0 c 0,0 -52.452,-3.357 -83.504,-45.739 0,0 -15.947,28.114 -44.061,32.311 -28.114,4.196 -55.39,-18.044 -55.39,-18.044"
             style="fill:none;stroke:#3e83c5;stroke-width:3;stroke-linecap:butt;stroke-linejoin:round;stroke-miterlimit:10;stroke-dasharray:none;stroke-opacity:1"
             id="path20638" /></g><g
           id="g20640"
           transform="translate(354.5522,564.6045)"><path
             d="m 0,0 c 0,0 -14.133,25.006 -54.417,8.464 0,0 -6.714,24.173 -35.668,26.474 -28.954,2.302 -55.81,-20.776 -57.488,-44.275 -1.678,-23.499 29.793,-27.695 37.766,-10.911 7.973,16.785 -15.945,29.793 -24.338,17.205 -8.393,-12.589 6.713,-23.08 15.945,-11.33"
             style="fill:none;stroke:#3e83c5;stroke-width:3;stroke-linecap:butt;stroke-linejoin:round;stroke-miterlimit:10;stroke-dasharray:none;stroke-opacity:1"
             id="path20642" /></g><g
           id="g20644"
           transform="translate(352.1685,550.6509)"><path
             d="m 0,0 c 0,0 -52.872,9.971 -80.567,-39.914 0,0 -12.169,10.961 -28.115,5.086 -15.946,-5.875 -13.008,-16.785 -13.008,-16.785"
             style="fill:none;stroke:#3e83c5;stroke-width:3;stroke-linecap:butt;stroke-linejoin:round;stroke-miterlimit:10;stroke-dasharray:none;stroke-opacity:1"
             id="path20646" /></g><g
           id="g20648"
           transform="translate(1027.2334,510.7368)"><path
             d="m 0,0 c 0,0 2.593,44.101 71.189,37.434 0,0 19.931,26.001 56.597,32.667 36.666,6.667 69.334,-25.333 76,-53.333"
             style="fill:none;stroke:#3e83c5;stroke-width:3;stroke-linecap:butt;stroke-linejoin:round;stroke-miterlimit:10;stroke-dasharray:none;stroke-opacity:1"
             id="path20650" /></g><g
           id="g20652"
           transform="translate(997.0195,376.8379)"><path
             d="m 0,0 c 0,0 1.263,37.332 51.333,33.332 0,0 31.333,42 92,36.668 C 204,64.666 206.001,13.332 184.667,-6.668 163.333,-26.668 127.333,12.467 152,31.9 c 24.667,19.432 40.667,-15.902 26.667,-24.568 -14,-8.666 -25.204,8.107 -14.667,18"
             style="fill:none;stroke:#3e83c5;stroke-width:3;stroke-linecap:butt;stroke-linejoin:round;stroke-miterlimit:10;stroke-dasharray:none;stroke-opacity:1"
             id="path20654" /></g><g
           id="g20656"
           transform="translate(1079.3525,472.5039)"><path
             d="m 0,0 c 0,0 9,18 33,22 24,4 31,-10.736 31,-10.736 0,0 19,33.736 58,33.736 39,0 47,-38 47,-38 0,0 18,16.528 33,4.264"
             style="fill:none;stroke:#3e83c5;stroke-width:3;stroke-linecap:butt;stroke-linejoin:round;stroke-miterlimit:10;stroke-dasharray:none;stroke-opacity:1"
             id="path20658" /></g><g
           id="g20660"
           transform="translate(332.3525,364.6309)"><path
             d="m 0,0 c 0,0 -20,35.873 -66,7.873 0,0 4,19 -15,22 -19,3 -27,-14.935 -27,-14.935"
             style="fill:none;stroke:#3e83c5;stroke-width:3;stroke-linecap:butt;stroke-linejoin:round;stroke-miterlimit:10;stroke-dasharray:none;stroke-opacity:1"
             id="path20662" /></g><g
           id="g20664"
           transform="translate(984.3525,639.4922)"
           style="display:inline"><path
             d="m 0,0 c 0,0 37,50.988 125,0 0,0 19,16.649 38,11.331 19,-5.319 19,-22.123 19,-22.123"
             style="fill:none;stroke:#3e83c5;stroke-width:3;stroke-linecap:butt;stroke-linejoin:round;stroke-miterlimit:10;stroke-dasharray:none;stroke-opacity:1"
             id="path20666" /></g></g><g
         id="g14857"
         inkscape:label="sonce"
         style="display:inline"><g
           id="g20672"
           transform="translate(619.1538,773.395)"><path
             d="m 0,0 c 0,-42.234 -34.237,-76.47 -76.471,-76.47 -42.235,0 -76.471,34.236 -76.471,76.47 0,42.234 34.236,76.472 76.471,76.472 C -34.237,76.472 0,42.234 0,0"
             style="fill:#f2b777;fill-opacity:1;fill-rule:nonzero;stroke:none"
             id="path20674" /></g><g
           id="g20676"
           transform="translate(619.1538,773.395)"><path
             d="m 0,0 c 0,-42.234 -34.237,-76.47 -76.471,-76.47 -42.235,0 -76.471,34.236 -76.471,76.47 0,42.234 34.236,76.472 76.471,76.472 C -34.237,76.472 0,42.234 0,0 Z"
             style="fill:none;stroke:#3e83c5;stroke-width:3;stroke-linecap:butt;stroke-linejoin:round;stroke-miterlimit:10;stroke-dasharray:none;stroke-opacity:1"
             id="path20678" /></g></g><g
         id="g14851"
         inkscape:label="zvezde"
         style="display:inline"><g
           id="g20680"
           transform="translate(804.4385,694.3677)"><path
             d="m 0,0 c 0,-3.314 -2.687,-6 -6,-6 -3.313,0 -6,2.686 -6,6 0,3.313 2.687,6 6,6 3.313,0 6,-2.687 6,-6"
             style="fill:#ffffff;fill-opacity:1;fill-rule:nonzero;stroke:none"
             id="path20682" /></g><g
           id="g20684"
           transform="translate(763.9404,772.479)"><path
             d="m 0,0 c 0,-5.203 -4.218,-9.42 -9.42,-9.42 -5.203,0 -9.421,4.217 -9.421,9.42 0,5.203 4.218,9.42 9.421,9.42 C -4.218,9.42 0,5.203 0,0"
             style="fill:#ffffff;fill-opacity:1;fill-rule:nonzero;stroke:none"
             id="path20686" /></g><g
           id="g20688"
           transform="translate(676.9448,716.6528)"><path
             d="m 0,0 c 0,-2.899 -2.351,-5.25 -5.25,-5.25 -2.899,0 -5.25,2.351 -5.25,5.25 0,2.899 2.351,5.25 5.25,5.25 C -2.351,5.25 0,2.899 0,0"
             style="fill:#ffffff;fill-opacity:1;fill-rule:nonzero;stroke:none"
             id="path20690" /></g><g
           id="g20692"
           transform="translate(385.959,741.4014)"><path
             d="m 0,0 c 0,-4.142 -3.357,-7.5 -7.5,-7.5 -4.142,0 -7.499,3.358 -7.499,7.5 0,4.142 3.357,7.5 7.499,7.5 C -3.357,7.5 0,4.142 0,0"
             style="fill:#ffffff;fill-opacity:1;fill-rule:nonzero;stroke:none"
             id="path20694" /></g><g
           id="g20696"
           transform="translate(457.9556,695.8677)"><path
             d="M 0,0 C 0,-2.485 -2.015,-4.5 -4.5,-4.5 -6.985,-4.5 -9,-2.485 -9,0 -9,2.485 -6.985,4.5 -4.5,4.5 -2.015,4.5 0,2.485 0,0"
             style="fill:#ffffff;fill-opacity:1;fill-rule:nonzero;stroke:none"
             id="path20698" /></g><g
           id="g20700"
           transform="translate(435.457,768.896)"><path
             d="M 0,0 C 0,-2.485 -2.015,-4.5 -4.5,-4.5 -6.985,-4.5 -9,-2.485 -9,0 -9,2.485 -6.985,4.5 -4.5,4.5 -2.015,4.5 0,2.485 0,0"
             style="fill:#ffffff;fill-opacity:1;fill-rule:nonzero;stroke:none"
             id="path20702" /></g><g
           id="g20704"
           transform="translate(628.9473,851.9985)"><path
             d="m 0,0 c 0,-2.704 -2.192,-4.896 -4.896,-4.896 -2.705,0 -4.897,2.192 -4.897,4.896 0,2.705 2.192,4.897 4.897,4.897 C -2.192,4.897 0,2.705 0,0"
             style="fill:#ffffff;fill-opacity:1;fill-rule:nonzero;stroke:none"
             id="path20706" /></g><g
           id="g20708"
           transform="translate(929.2187,668.2964)"><path
             d="m 0,0 c 0,-3.393 -2.75,-6.143 -6.144,-6.143 -3.392,0 -6.142,2.75 -6.142,6.143 0,3.393 2.75,6.143 6.142,6.143 C -2.75,6.143 0,3.393 0,0"
             style="fill:#ffffff;fill-opacity:1;fill-rule:nonzero;stroke:none"
             id="path20710" /></g><g
           id="g20712"
           transform="translate(1016.5869,755.98)"><path
             d="m 0,0 c 0,-3.91 -3.17,-7.079 -7.079,-7.079 -3.91,0 -7.079,3.169 -7.079,7.079 0,3.909 3.169,7.079 7.079,7.079 C -3.17,7.079 0,3.909 0,0"
             style="fill:#ffffff;fill-opacity:1;fill-rule:nonzero;stroke:none"
             id="path20714" /></g><g
           id="g20716"
           transform="translate(1041.4268,721.9023)"><path
             d="M 0,0 H -2.25 -4.5 -2.25 Z"
             style="fill:#ffffff;fill-opacity:1;fill-rule:nonzero;stroke:none"
             id="path20718" /></g><g
           id="g20720"
           transform="translate(880.9346,823.7544)"><path
             d="m 0,0 c 0,-2.071 -1.679,-3.75 -3.75,-3.75 -2.071,0 -3.75,1.679 -3.75,3.75 0,2.071 1.679,3.75 3.75,3.75 C -1.679,3.75 0,2.071 0,0"
             style="fill:#ffffff;fill-opacity:1;fill-rule:nonzero;stroke:none"
             id="path20722" /></g><g
           id="g20724"
           transform="translate(841.5156,752.4404)"><path
             d="m 0,0 c 0,-1.955 -1.585,-3.54 -3.54,-3.54 -1.954,0 -3.539,1.585 -3.539,3.54 0,1.955 1.585,3.54 3.539,3.54 C -1.585,3.54 0,1.955 0,0"
             style="fill:#ffffff;fill-opacity:1;fill-rule:nonzero;stroke:none"
             id="path20726" /></g><g
           id="g20728"
           transform="translate(573.5933,665.2251)"><path
             d="m 0,0 c 0,-1.697 -1.375,-3.072 -3.072,-3.072 -1.696,0 -3.071,1.375 -3.071,3.072 0,1.696 1.375,3.071 3.071,3.071 C -1.375,3.071 0,1.696 0,0"
             style="fill:#ffffff;fill-opacity:1;fill-rule:nonzero;stroke:none"
             id="path20730" /></g><g
           id="g20732"
           transform="translate(745.0996,860.3164)"><path
             d="m 0,0 c 0,-2.253 -1.826,-4.079 -4.079,-4.079 -2.253,0 -4.079,1.826 -4.079,4.079 0,2.253 1.826,4.079 4.079,4.079 C -1.826,4.079 0,2.253 0,0"
             style="fill:#ffffff;fill-opacity:1;fill-rule:nonzero;stroke:none"
             id="path20734" /></g><g
           id="g20736"
           transform="translate(711.3525,781.8994)"><path
             d="m 0,0 h -5.205 -5.204 5.204 z"
             style="fill:#ffffff;fill-opacity:1;fill-rule:nonzero;stroke:none"
             id="path20738" /></g><g
           id="g20740"
           transform="translate(1047.4268,697.3677)"><path
             d="m 0,0 c 0,-1.657 -1.343,-3 -3,-3 -1.657,0 -3,1.343 -3,3 0,1.657 1.343,3 3,3 1.657,0 3,-1.343 3,-3"
             style="fill:#ffffff;fill-opacity:1;fill-rule:nonzero;stroke:none"
             id="path20742" /></g><g
           id="g20744"
           transform="translate(997.0195,824.959)"><path
             d="m 0,0 c 0,-1.406 -1.14,-2.545 -2.546,-2.545 -1.405,0 -2.545,1.139 -2.545,2.545 0,1.406 1.14,2.545 2.545,2.545 C -1.14,2.545 0,1.406 0,0"
             style="fill:#ffffff;fill-opacity:1;fill-rule:nonzero;stroke:none"
             id="path20746" /></g><g
           id="g20748"
           transform="translate(880.9346,733.9019)"><path
             d="M 0,0 H -1.875 -3.75 -1.875 Z"
             style="fill:#ffffff;fill-opacity:1;fill-rule:nonzero;stroke:none"
             id="path20750" /></g><g
           id="g20752"
           transform="translate(332.3525,705.8853)"><path
             d="M 0,0 V -5.518 0 5.518 Z"
             style="fill:#ffffff;fill-opacity:1;fill-rule:nonzero;stroke:none"
             id="path20754" /></g><g
           id="g20756"
           transform="translate(792.4385,682.334)"><path
             d="m 0,0 c 0,-3.332 -2.701,-6.033 -6.033,-6.033 -3.332,0 -6.033,2.701 -6.033,6.033 0,3.333 2.701,6.034 6.033,6.034 C -2.701,6.034 0,3.333 0,0"
             style="fill:#ffffff;fill-opacity:1;fill-rule:nonzero;stroke:none"
             id="path20758" /></g></g><g
         id="g14809"
         inkscape:label="oblaki"
         style="display:inline"><g
           id="g20760"
           transform="translate(1109.9434,757.3394)"><path
             d="m 0,0 h -24.63 c -4.482,0 -8.116,3.125 -8.116,6.98 0,3.856 3.634,6.981 8.116,6.981 h 2.273 c 5.33,0 9.65,3.716 9.65,8.299 0,4.584 -4.32,8.3 -9.65,8.3 h -77.994 c -5.33,0 -9.65,-3.716 -9.65,-8.3 0,-4.583 4.32,-8.299 9.65,-8.299 h 8.651 c 4.482,0 8.117,-3.125 8.117,-6.981 C -83.583,3.125 -87.218,0 -91.7,0 h -27.651 c -4.193,0 -7.591,-2.923 -7.591,-6.528 0,-3.606 3.398,-6.529 7.591,-6.529 H 0 c 4.192,0 7.592,2.923 7.592,6.529 C 7.592,-2.923 4.192,0 0,0"
             style="fill:#ffffff;fill-opacity:1;fill-rule:nonzero;stroke:none"
             id="path20762" /></g><g
           id="g20764"
           transform="translate(365.6631,796.9922)"><path
             d="m 0,0 h -18.04 c -3.282,0 -5.944,2.289 -5.944,5.112 0,2.825 2.662,5.113 5.944,5.113 h 1.665 c 3.904,0 7.068,2.722 7.068,6.079 0,3.357 -3.164,6.078 -7.068,6.078 h -57.124 c -3.904,0 -7.068,-2.721 -7.068,-6.078 0,-3.357 3.164,-6.079 7.068,-6.079 h 6.335 c 3.284,0 5.946,-2.288 5.946,-5.113 C -61.218,2.289 -63.88,0 -67.164,0 h -20.251 c -3.071,0 -5.561,-2.141 -5.561,-4.782 0,-2.641 2.49,-4.781 5.561,-4.781 H 0 c 3.071,0 5.561,2.14 5.561,4.781 C 5.561,-2.141 3.071,0 0,0"
             style="fill:#ffffff;fill-opacity:1;fill-rule:nonzero;stroke:none"
             id="path20766" /></g><g
           id="g20768"
           transform="translate(524.4727,763.6211)"><path
             d="m 0,0 h -126.293 c -3.687,0 -6.675,-2.988 -6.675,-6.675 0,-3.686 2.988,-6.675 6.675,-6.675 h 35.915 c 2.649,0 4.796,-2.147 4.796,-4.796 0,-2.648 -2.147,-4.796 -4.796,-4.796 h 1.146 c -2.378,0 -4.306,-1.928 -4.306,-4.307 0,-2.377 1.928,-4.306 4.306,-4.306 h 22.085 c 2.648,0 4.796,-2.147 4.796,-4.796 0,-2.649 -2.148,-4.796 -4.796,-4.796 h -3.835 c -2.163,0 -3.916,-1.753 -3.916,-3.916 0,-2.163 1.753,-3.916 3.916,-3.916 h 39.518 c 2.162,0 3.915,1.753 3.915,3.916 0,2.163 -1.753,3.916 -3.915,3.916 h -4.311 c -2.648,0 -4.796,2.147 -4.796,4.796 0,2.649 2.148,4.796 4.796,4.796 h 15.801 c 2.379,0 4.307,1.929 4.307,4.306 0,2.379 -1.928,4.307 -4.307,4.307 h -26.081 c -2.649,0 -4.796,2.148 -4.796,4.796 0,2.649 2.147,4.796 4.796,4.796 H 0 c 3.687,0 6.675,2.989 6.675,6.675 C 6.675,-2.988 3.687,0 0,0"
             style="fill:#ffffff;fill-opacity:1;fill-rule:nonzero;stroke:none"
             id="path20770" /></g><g
           id="g20772"
           transform="translate(523.3828,718.4497)"><path
             d="m 0,0 c 0,-2.103 -1.705,-3.807 -3.807,-3.807 h -10.361 c -2.103,0 -3.808,1.704 -3.808,3.807 0,2.103 1.705,3.807 3.808,3.807 H -3.807 C -1.705,3.807 0,2.103 0,0"
             style="fill:#ffffff;fill-opacity:1;fill-rule:nonzero;stroke:none"
             id="path20774" /></g><g
           id="g20776"
           transform="translate(683.7803,803.4014)"><path
             d="m 0,0 h 193.182 c 4.217,0 7.635,-3.418 7.635,-7.636 0,-4.217 -3.418,-7.635 -7.635,-7.635 h -75.785 c -3.268,0 -5.918,-2.649 -5.918,-5.917 0,-3.269 2.65,-5.918 5.918,-5.918 h 29.016 c 3.269,0 5.918,-2.65 5.918,-5.918 0,-3.268 -2.649,-5.917 -5.918,-5.917 h -0.023 c -3.268,0 -5.917,-2.65 -5.917,-5.918 0,-3.269 2.649,-5.918 5.917,-5.918 h 1.325 c 2.55,0 4.616,-2.067 4.616,-4.617 0,-2.549 -2.066,-4.616 -4.616,-4.616 H 72.948 c -2.55,0 -4.616,2.067 -4.616,4.616 0,2.55 2.066,4.617 4.616,4.617 h 23.643 c 3.268,0 5.918,2.649 5.918,5.918 0,3.268 -2.65,5.918 -5.918,5.918 H 8.313 c -3.267,0 -5.917,2.649 -5.917,5.917 0,3.268 2.65,5.918 5.917,5.918 H 36.22 c 3.267,0 5.917,2.649 5.917,5.918 0,3.268 -2.65,5.917 -5.917,5.917 H 0 c -4.218,0 -7.636,3.418 -7.636,7.635 C -7.636,-3.418 -4.218,0 0,0"
             style="fill:#ffffff;fill-opacity:1;fill-rule:nonzero;stroke:none"
             id="path20778" /></g></g><g
         id="g14797"
         inkscape:label="ptice"><g
           id="g20780"
           transform="translate(841.4736,694.0337)"><path
             d="m 0,0 c 0,0 17.108,12.963 32.913,0.895 0,0 2.66,1.33 4.819,-0.84 0,0 15.888,7.145 26.19,-8.162 0,0 -9.115,8.438 -26.342,3.153 l 2.354,-6.413 -15.087,3.96 6.831,4.822 C 31.678,-2.585 19.857,8.591 0,0"
             style="fill:#1c5166;fill-opacity:1;fill-rule:nonzero;stroke:none"
             id="path20782" /></g><g
           id="g20784"
           transform="translate(924.1484,802.6802)"><path
             d="m 0,0 c 0,0 12.483,26.495 39.225,21.902 0,0 2.376,3.291 6.359,2.033 0,0 14.687,18.688 36.824,6.7 0,0 -16.357,4.434 -33.841,-12.851 L 55.47,11.519 34.724,6.762 39.934,16.913 C 39.934,16.913 18.572,22.949 0,0"
             style="fill:#1c5166;fill-opacity:1;fill-rule:nonzero;stroke:none"
             id="path20786" /></g><g
           id="g20788"
           transform="translate(619.1538,692.5771)"><path
             d="m 0,0 c 0,0 14.538,9.031 26.195,-1.715 0,0 2.21,0.86 3.765,-1.023 0,0 13.139,4.502 20.189,-8.41 0,0 -6.615,7.37 -20.68,4.445 l 1.396,-5.265 -11.687,4.256 5.78,3.324 c 0,0 -8.56,9.745 -24.958,4.388"
             style="fill:#1c5166;fill-opacity:1;fill-rule:nonzero;stroke:none"
             id="path20790" /></g><g
           id="g20792"
           transform="translate(419.0547,825.5654)"><path
             d="m 0,0 c 0,0 6.033,9.46 15.971,6.413 0,0 1.062,1.135 2.515,0.463 0,0 6.49,6.387 14.319,0.753 0,0 -6,2.481 -13.485,-3.235 L 21.638,1.677 13.523,0.879 15.997,4.483 C 15.997,4.483 8.174,7.816 0,0"
             style="fill:#1c5166;fill-opacity:1;fill-rule:nonzero;stroke:none"
             id="path20794" /></g><g
           id="g20796"
           transform="translate(299.9526,714.3433)"
           style="display:inline"><path
             d="m 0,0 c 0,0 10.048,6.081 17.962,-1.386 0,0 1.523,0.573 2.575,-0.732 0,0 9.052,2.985 13.786,-5.931 0,0 -4.48,5.11 -14.155,3.215 l 0.916,-3.624 -7.985,3.013 3.992,2.236 c 0,0 -5.796,6.754 -17.091,3.209"
             style="fill:#1c5166;fill-opacity:1;fill-rule:nonzero;stroke:none"
             id="path20798" /></g></g></g></g></svg>
