<?xml version="1.0" encoding="UTF-8" standalone="no"?>
<svg
   width="1400"
   height="1020"
   version="1.1"
   viewBox="0 0 1400 1020"
   xml:space="preserve"
   id="svg585"
   sodipodi:docname="visokica2.svg"
   inkscape:version="1.1.2 (76b9e6a115, 2022-02-25)"
   xmlns:inkscape="http://www.inkscape.org/namespaces/inkscape"
   xmlns:sodipodi="http://sodipodi.sourceforge.net/DTD/sodipodi-0.dtd"
   xmlns="http://www.w3.org/2000/svg"
   xmlns:svg="http://www.w3.org/2000/svg"><sodipodi:namedview
     id="namedview587"
     pagecolor="#505050"
     bordercolor="#ffffff"
     borderopacity="1"
     inkscape:pageshadow="0"
     inkscape:pageopacity="0"
     inkscape:pagecheckerboard="1"
     showgrid="false"
     fit-margin-top="0"
     fit-margin-left="0"
     fit-margin-right="0"
     fit-margin-bottom="0"
     inkscape:zoom="0.5"
     inkscape:cx="595"
     inkscape:cy="563"
     inkscape:window-width="1536"
     inkscape:window-height="836"
     inkscape:window-x="0"
     inkscape:window-y="0"
     inkscape:window-maximized="1"
     inkscape:current-layer="svg585" /><defs
     id="defs17"><clipPath
       id="clipPath18"><path
         d="M 0,980 H 1400 V 0 H 0 Z"
         id="path2" /></clipPath><clipPath
       id="clipPath30"><path
         d="M 378.23,716.48 H 975.2 V 119.51 H 378.23 Z"
         id="path5" /></clipPath><clipPath
       id="clipPath54"><path
         d="m 331.2,469.26 c 0,-189.84 153.9,-343.74 343.74,-343.74 189.84,0 343.74,153.9 343.74,343.74 C 1018.68,659.1 864.78,813 674.94,813 485.1,813 331.2,659.1 331.2,469.26"
         id="path8" /></clipPath><clipPath
       id="clipPath4122"><path
         d="M 258.61,253.3 H 970.07 V 28.99 H 258.61 Z"
         id="path11" /></clipPath><clipPath
       id="clipPath6522"><path
         d="M 0,980 H 1400 V 0 H 0 Z"
         id="path14" /></clipPath></defs><g
     transform="matrix(1.467647,0,0,-1.467647,-533.6409,1195.3985)"
     id="g583"><g
       clip-path="url(#clipPath18)"
       id="g31"
       transform="translate(158.25396)"><g
         transform="translate(1018.7,469.26)"
         id="g23"><path
           d="m 0,0 c 0,-189.84 -153.9,-343.74 -343.74,-343.74 -189.84,0 -343.74,153.9 -343.74,343.74 0,189.84 153.9,343.74 343.74,343.74 C -153.9,343.74 0,189.84 0,0"
           fill="#cceaec"
           id="path21" /></g><g
         clip-path="url(#clipPath30)"
         id="g29"><g
           transform="translate(975.2,417.99)"
           id="g27"><path
             d="m 0,0 c 0,-164.85 -133.64,-298.48 -298.48,-298.48 -164.85,0 -298.49,133.64 -298.49,298.48 0,164.85 133.64,298.49 298.49,298.49 C -133.63,298.49 0,164.85 0,0"
             fill="#cceaec"
             id="path25" /></g></g></g><g
       clip-path="url(#clipPath54)"
       id="g453"
       transform="translate(158.25396)"><g
         id="g193"><path
           d="M 1002.3,263.63 H 965.052 V 468.97 H 1002.3 Z"
           fill="#f4ebe6"
           stroke="#774240"
           stroke-linejoin="round"
           stroke-miterlimit="10"
           id="path33" /><path
           d="M 985.35,468.98 H 965.094 V 263.64 h 20.256 z"
           fill="#f4ebe6"
           stroke="#774240"
           stroke-linejoin="round"
           stroke-miterlimit="10"
           id="path35" /><g
           transform="translate(964.08,468.97)"
           id="g41"><path
             d="m 0,0 38.258,-65.417 v -139.92 H 0 Z"
             fill="#f4ebe6"
             id="path37" /><path
             d="m 0,0 38.258,-65.417 v -139.92 H 0 Z"
             fill="none"
             stroke="#774240"
             stroke-linejoin="round"
             stroke-miterlimit="10"
             id="path39" /></g><path
           d="M 967.1,262.21 H 933.799 V 540.07 H 967.1 Z"
           fill="#f4ebe6"
           stroke="#774240"
           stroke-linejoin="round"
           stroke-miterlimit="10"
           id="path43" /><g
           transform="translate(913.99,445.28)"
           id="g49"><path
             d="M 0,0 H 7.963 L 3.816,43.454 Z"
             fill="none"
             stroke="#774240"
             stroke-linejoin="round"
             stroke-miterlimit="10"
             id="path45" /><path
             d="M 0,0 H 7.963 L 3.816,43.454 Z"
             fill="#f4ebe6"
             id="path47" /></g><g
           transform="translate(904.12,262.97)"
           id="g55"><path
             d="m 0,0 v 181.53 l 13.658,47.659 14.029,-44.506 V 0.003 Z"
             fill="none"
             stroke="#774240"
             stroke-linejoin="round"
             stroke-miterlimit="10"
             id="path51" /><path
             d="m 0,0 v 181.53 l 13.658,47.659 14.029,-44.506 V 0.003 Z"
             fill="#f4ebe6"
             id="path53" /></g><g
           transform="translate(905.41,445.69)"
           id="g61"><path
             d="m 0,0 h 5.734 l 5.973,42.637 z"
             fill="#f4ebe6"
             id="path57" /><path
             d="m 0,0 h 5.734 l 5.973,42.637 z"
             fill="none"
             stroke="#774240"
             stroke-linejoin="round"
             stroke-miterlimit="10"
             id="path59" /></g><g
           transform="translate(930.73,445.69)"
           id="g67"><path
             d="m 0,0 h -5.734 l -6.594,42.637 z"
             fill="#f4ebe6"
             id="path63" /><path
             d="m 0,0 h -5.734 l -6.594,42.637 z"
             fill="none"
             stroke="#774240"
             stroke-linejoin="round"
             stroke-miterlimit="10"
             id="path65" /></g><g
           fill="#f4ebe6"
           stroke="#774240"
           stroke-linejoin="round"
           stroke-miterlimit="10"
           id="g83"><path
             d="m 894.32,508.98 h -10.855 v 17.662 h 10.855 z"
             id="path69" /><path
             d="m 883.46,511.04 h 10.855 v 7.238 H 883.46 Z"
             id="path71" /><path
             d="m 890.83,521.49 h -1.939 v 42.685 h 1.939 z"
             id="path73" /><path
             d="M 898.97,263.63 H 873.382 V 513.39 H 898.97 Z"
             id="path75" /><path
             d="M 898.97,266.46 H 873.382 V 516.22 H 898.97 Z"
             id="path77" /><path
             d="m 873.38,263.63 h 25.588 v 21.937 H 873.38 Z"
             id="path79" /><path
             d="m 873.38,263.9 h 12.613 V 516.22 H 873.38 Z"
             id="path81" /></g><g
           transform="translate(852.87,451.91)"
           id="g89"><path
             d="m 0,0 -18.814,-52.558 v -135.5 h 37.63 v 135.5 z"
             fill="#f4ebe6"
             id="path85" /><path
             d="m 0,0 -18.814,-52.558 v -135.5 h 37.63 v 135.5 z"
             fill="none"
             stroke="#774240"
             stroke-linejoin="round"
             stroke-miterlimit="10"
             id="path87" /></g><path
           d="M 828.85,263.63 H 791.6 v 142.93 h 37.25 z"
           fill="#f4ebe6"
           stroke="#774240"
           stroke-linejoin="round"
           stroke-miterlimit="10"
           id="path91" /><path
           d="M 811.85,406.56 H 791.594 V 263.63 h 20.256 z"
           fill="#f4ebe6"
           stroke="#774240"
           stroke-linejoin="round"
           stroke-miterlimit="10"
           id="path93" /><g
           transform="translate(754.59,406.02)"
           id="g97"><path
             d="M 0,0 7.096,30.795 H 17.197 L 24.738,0 Z"
             fill="#774240"
             id="path95" /></g><g
           id="g107"><path
             d="m 754.59,401.48 h 23.902 v 1.733 H 754.59 Z"
             fill="#f4ebe6"
             stroke="#774240"
             stroke-linejoin="round"
             stroke-miterlimit="10"
             id="path99" /><path
             d="m 778.49,393.99 h -23.902 v 9.221 h 23.902 z"
             fill="#f4ebe6"
             stroke="#774240"
             stroke-linejoin="round"
             stroke-miterlimit="10"
             id="path101" /><path
             d="m 780.53,406.02 h -27.121 v -2.804 h 27.121 z"
             fill="#774240"
             id="path103" /><path
             d="m 780.53,393.99 h -27.121 v -2.804 h 27.121 z"
             fill="#774240"
             id="path105" /></g><g
           fill="#f4ebe6"
           stroke="#774240"
           stroke-linejoin="round"
           stroke-miterlimit="10"
           id="g119"><path
             d="m 780.53,374.38 h -27.121 v 16.812 h 27.121 z"
             id="path109" /><path
             d="M 791.6,262.3 H 743.819 V 374.37 H 791.6 Z"
             id="path111" /><path
             d="m 782,263.63 h 9.592 V 374.37 H 782 Z"
             id="path113" /><path
             d="m 744.06,261.22 h -8.438 v 304.04 h 8.438 z"
             id="path115" /><path
             d="m 703.84,261.22 h 6.211 v 234 h -6.211 z"
             id="path117" /></g><g
           transform="translate(735.62,261.22)"
           id="g125"><path
             d="M 0,0 H -25.57 V 312.93 L 0,320.397 Z"
             fill="none"
             stroke="#774240"
             stroke-linejoin="round"
             stroke-miterlimit="10"
             id="path121" /><path
             d="M 0,0 H -25.57 V 312.93 L 0,320.397 Z"
             fill="#f4ebe6"
             id="path123" /></g><g
           fill="#f4ebe6"
           stroke="#774240"
           stroke-linejoin="round"
           stroke-miterlimit="10"
           id="g165"><path
             d="M 707.6,261.92 H 674.298 V 461.84 H 707.6 Z"
             id="path127" /><path
             d="M 680.9,322.02 H 635.703 V 262.628 H 680.9 Z"
             id="path129" /><path
             d="m 673.16,322.02 h -37.461 v 12.727 h 37.461 z"
             id="path131" /><path
             d="m 662.1,345.62 h 2.912 v 12.301 H 662.1 Z"
             id="path133" /><path
             d="m 665.01,334.75 h -2.912 v 23.169 h 2.912 z"
             id="path135" /><path
             d="m 638.61,357.92 h -2.912 v -12.301 h 2.912 z"
             id="path137" /><path
             d="m 638.61,334.75 h -2.912 v 23.169 h 2.912 z"
             id="path139" /><path
             d="m 665.01,348.11 h -29.315 v 14.061 h 29.315 z"
             id="path141" /><path
             d="M 626.79,329.15 H 543.431 V 261.883 H 626.79 Z"
             id="path143" /><path
             d="m 586.42,329.34 h -11.11 v 87.488 h 11.11 z"
             id="path145" /><path
             d="m 575.31,329.34 h 8.696 v 87.488 h -8.696 z"
             id="path147" /><path
             d="m 579.42,423.08 h -33.33 v -93.738 h 33.33 z"
             id="path149" /><path
             d="M 632.89,264.16 H 589.152 V 496.12 H 632.89 Z"
             id="path151" /><path
             d="m 589.15,490.5 h 43.738 v 5.614 H 589.15 Z"
             id="path153" /><path
             d="M 543.43,261.89 H 494.468 V 470.42 H 543.43 Z"
             id="path155" /><path
             d="m 545.61,468.73 h -53.317 v 8.644 h 53.317 z"
             id="path157" /><path
             d="m 494.47,465.52 h 48.962 v 4.897 H 494.47 Z"
             id="path159" /><path
             d="M 487.84,263.06 H 454.911 V 384.14 H 487.84 Z"
             id="path161" /><path
             d="M 468.64,263.06 H 454.905 V 384.14 H 468.64 Z"
             id="path163" /></g><path
           d="M 445.45,254.16 H 391.958 V 481.13 H 445.45 Z"
           fill="#f4ebe6"
           stroke="#774240"
           stroke-linejoin="round"
           stroke-miterlimit="10"
           id="path167" /><g
           transform="translate(448.31,258.84)"
           id="g173"><path
             d="m 0,0 v 147.405 l -2.859,6.691 V 1.462 C -1.676,0.504 0,0 0,0 Z"
             fill="none"
             stroke="#774240"
             stroke-linejoin="round"
             stroke-miterlimit="10"
             id="path169" /><path
             d="m 0,0 v 147.405 l -2.859,6.691 V 1.462 C -1.676,0.504 0,0 0,0"
             fill="#f4ebe6"
             id="path171" /></g><g
           transform="translate(445.45,412.93)"
           id="g179"><path
             d="m 0,0 9.551,-22.349 v -136.42 H 0 Z"
             fill="none"
             stroke="#774240"
             stroke-linejoin="round"
             stroke-miterlimit="10"
             id="path175" /><path
             d="m 0,0 9.551,-22.349 v -136.42 H 0 Z"
             fill="#f4ebe6"
             id="path177" /></g><path
           d="m 431.05,574.87 h -33.33 v -93.739 h 33.33 z"
           fill="#f4ebe6"
           stroke="#774240"
           stroke-linejoin="round"
           stroke-miterlimit="10"
           id="path181" /><path
           d="m 438.05,568.62 h -11.11 v -87.49 h 11.11 z"
           fill="#f4ebe6"
           stroke="#774240"
           stroke-linejoin="round"
           stroke-miterlimit="10"
           id="path183" /><g
           transform="translate(397.72,492.71)"
           id="g189"><path
             d="M 0,0 V -11.583 H 40.325 V 0 Z"
             fill="none"
             stroke="#774240"
             stroke-linejoin="round"
             stroke-miterlimit="10"
             id="path185" /><path
             d="M 0,0 V -11.583 H 40.325 V 0 Z"
             fill="#f4ebe6"
             id="path187" /></g><path
           d="M 391.96,261.92 H 358.659 V 461.84 H 391.96 Z"
           fill="#f4ebe6"
           stroke="#774240"
           stroke-linejoin="round"
           stroke-miterlimit="10"
           id="path191" /></g><g
         id="g451"><g
           transform="translate(219.59,265.07)"
           style="mix-blend-mode:normal"
           id="g197"><path
             d="M 0,0 30.261,36.141 121.909,3.877 195.866,33.781 281.772,0 l 86.77,24.994 133.91,-6.275 95.561,20.178 104.05,-16.14 52.215,24.475 L 855.648,0 l 32.646,13.679 13.745,-42.76 -152.06,-175.03 h -129.77 l -41.995,41.97 -100.05,-73.452 -41.23,12.241 -14.431,66.459 -66.683,3.496 -63.874,-38.475 -45.876,36.727 -42.112,-34.978 -45.892,55.965 -45.007,-20.987 -26.485,69.004 H 39.512 Z"
             fill="#3ab8ca"
             id="path195" /></g><g
           transform="translate(219.59,265.07)"
           id="g201"><path
             d="M 0,0 30.261,36.141 121.909,3.877 195.866,33.781 281.772,0 l 86.77,24.994 133.91,-6.275 95.561,20.178 104.05,-16.14 52.215,24.475 L 855.648,0 l 32.646,13.679 13.745,-42.76 -152.06,-175.03 h -129.77 l -41.995,41.97 -100.05,-73.452 -41.23,12.241 -14.431,66.459 -66.683,3.496 -63.874,-38.475 -45.876,36.727 -42.112,-34.978 -45.892,55.965 -45.007,-20.987 -26.485,69.004 H 39.512 Z"
             fill="none"
             stroke="#894c1f"
             stroke-linecap="round"
             stroke-linejoin="round"
             stroke-miterlimit="10"
             id="path199" /></g><g
           transform="translate(306.17,178.94)"
           id="g207"><path
             d="m 0,0 26.485,-69.004 45.007,20.986 45.892,-55.964 42.112,34.978 45.876,-36.727 63.874,38.475 66.683,-3.496 14.431,-66.459 41.23,-12.241 100.05,73.452 41.995,-41.971 h 129.76 l 96.915,111.55 c 1.588,6.877 2.499,11.053 2.499,11.053 L 709.787,67.958 652.665,4.632 618.175,-58.815 575.505,14.935 538.71,35.02 511.511,-10.77 448.303,58.764 451.699,-20.241 440.668,-52.519 403.321,-108.21 358.023,36.34 313.508,-0.002 282.769,6.019 276.653,77.573 216.848,90.03 165.407,-30.22 127.174,20.085 36.43,-41.476 14.093,77.894 -23.044,30.677 -86.581,86.136 -47.064,-0.003 Z"
             fill="#3ab8ca"
             id="path203" /><path
             d="m 0,0 26.485,-69.004 45.007,20.986 45.892,-55.964 42.112,34.978 45.876,-36.727 63.874,38.475 66.683,-3.496 14.431,-66.459 41.23,-12.241 100.05,73.452 41.995,-41.971 h 129.76 l 96.915,111.55 c 1.588,6.877 2.499,11.053 2.499,11.053 L 709.787,67.958 652.665,4.632 618.175,-58.815 575.505,14.935 538.71,35.02 511.511,-10.77 448.303,58.764 451.699,-20.241 440.668,-52.519 403.321,-108.21 358.023,36.34 313.508,-0.002 282.769,6.019 276.653,77.573 216.848,90.03 165.407,-30.22 127.174,20.085 36.43,-41.476 14.093,77.894 -23.044,30.677 -86.581,86.136 -47.064,-0.003 Z"
             fill="none"
             stroke="#894c1f"
             stroke-linecap="round"
             stroke-linejoin="round"
             stroke-miterlimit="10"
             id="path205" /></g><g
           transform="translate(973.86,312.31)"
           id="g211"><path
             d="m 0,0 42.095,-65.41 44.672,-10.903 47.25,42.759 -32.647,-13.678 z"
             fill="#b9e5fb"
             id="path209" /></g><g
           transform="translate(973.86,312.31)"
           id="g215"><path
             d="m 0,0 42.095,-65.41 44.672,-10.903 47.25,42.759 -32.647,-13.678 z"
             fill="none"
             stroke="#894c1f"
             stroke-linecap="round"
             stroke-linejoin="round"
             stroke-miterlimit="10"
             id="path213" /></g><g
           transform="translate(885.88,293.38)"
           id="g219"><path
             d="M 0,0 37.008,-57.386 63.069,-46.482 87.984,18.928 35.769,-5.548 Z"
             fill="#b9e5fb"
             id="path217" /></g><g
           transform="translate(885.88,293.38)"
           id="g223"><path
             d="M 0,0 37.008,-57.386 63.069,-46.482 87.984,18.928 35.769,-5.548 Z"
             fill="none"
             stroke="#894c1f"
             stroke-linecap="round"
             stroke-linejoin="round"
             stroke-miterlimit="10"
             id="path221" /></g><g
           transform="translate(751.02,235.99)"
           id="g229"><path
             d="m 0,0 48.679,64.198 -77.66,-16.398 -128.48,6.019 68.565,-67.27 z"
             fill="#b9e5fb"
             id="path225" /><path
             d="m 0,0 48.679,64.198 -77.66,-16.398 -128.48,6.019 68.565,-67.27 z"
             fill="none"
             stroke="#894c1f"
             stroke-linecap="round"
             stroke-linejoin="round"
             stroke-miterlimit="10"
             id="path227" /></g><g
           transform="translate(364.77,204.37)"
           id="g235"><path
             d="M 0,0 42.013,60.707 74.687,31.482 136.588,60.707 50.682,94.488 -23.275,64.584 -114.923,96.848 -145.184,60.707 -44.514,52.466 Z"
             fill="#b9e5fb"
             id="path231" /><path
             d="M 0,0 42.013,60.707 74.687,31.482 136.588,60.707 50.682,94.488 -23.275,64.584 -114.923,96.848 -145.184,60.707 -44.514,52.466 Z"
             fill="none"
             stroke="#894c1f"
             stroke-linecap="round"
             stroke-linejoin="round"
             stroke-miterlimit="10"
             id="path233" /></g><g
           id="g401"><g
             clip-path="url(#clipPath4122)"
             id="g273"><g
               transform="translate(377.66,130.92)"
               id="g241"><path
                 d="M 0,0 -12.027,48.018 -45.006,-20.986 Z"
                 fill="#3ab8ca"
                 id="path237" /><path
                 d="M 0,0 -12.027,48.018 -45.006,-20.986 Z"
                 fill="none"
                 stroke="#894c1f"
                 stroke-linecap="round"
                 stroke-linejoin="round"
                 stroke-miterlimit="10"
                 id="path239" /></g><g
               transform="translate(466.72,109.09)"
               id="g247"><path
                 d="M 0,0 -1.052,7.841 -32.537,100.528 -43.164,-34.132 -1.052,0.847 Z"
                 fill="#3ab8ca"
                 id="path243" /><path
                 d="M 0,0 -1.052,7.841 -32.537,100.528 -43.164,-34.132 -1.052,0.847 Z"
                 fill="none"
                 stroke="#894c1f"
                 stroke-linecap="round"
                 stroke-linejoin="round"
                 stroke-miterlimit="10"
                 id="path245" /></g><g
               transform="translate(302.06,235.99)"
               id="g253"><path
                 d="M 0,0 -42.955,-57.058 H 4.108 Z"
                 fill="#3ab8ca"
                 id="path249" /><path
                 d="M 0,0 -42.955,-57.058 H 4.108 Z"
                 fill="none"
                 stroke="#894c1f"
                 stroke-linecap="round"
                 stroke-linejoin="round"
                 stroke-miterlimit="10"
                 id="path251" /></g><g
               transform="translate(570.91,108.96)"
               id="g259"><path
                 d="M 0,0 4.51,2.719 71.193,-0.777 48.773,69.975 31.976,81.416 10.337,143.834 Z"
                 fill="#3ab8ca"
                 id="path255" /><path
                 d="M 0,0 4.51,2.719 71.193,-0.777 48.773,69.975 31.976,81.416 10.337,143.834 Z"
                 fill="none"
                 stroke="#894c1f"
                 stroke-linecap="round"
                 stroke-linejoin="round"
                 stroke-miterlimit="10"
                 id="path257" /></g><g
               transform="translate(881.68,193.87)"
               id="g265"><path
                 d="M 0,0 -41.875,-132.91 H 87.895 L 50.656,20.08 Z"
                 fill="#3ab8ca"
                 id="path261" /><path
                 d="M 0,0 -41.875,-132.91 H 87.895 L 50.656,20.08 Z"
                 fill="none"
                 stroke="#894c1f"
                 stroke-linecap="round"
                 stroke-linejoin="round"
                 stroke-miterlimit="10"
                 id="path263" /></g><g
               transform="translate(797.81,102.94)"
               id="g271"><path
                 d="M 0,0 0.639,-0.641 -2.072,12.241 -57.543,76 -100.045,-73.45 Z"
                 fill="#3ab8ca"
                 id="path267" /><path
                 d="M 0,0 0.639,-0.641 -2.072,12.241 -57.543,76 -100.045,-73.45 Z"
                 fill="none"
                 stroke="#894c1f"
                 stroke-linecap="round"
                 stroke-linejoin="round"
                 stroke-miterlimit="10"
                 id="path269" /></g></g><g
             transform="translate(832.73,148.82)"
             id="g279"><path
               d="m 0,0 19.279,40.314 v 384.92 h 84.072 V -0.006 Z"
               fill="#eeb881"
               id="path275" /><path
               d="m 0,0 19.279,40.314 v 384.92 h 84.072 V -0.006 Z"
               fill="none"
               stroke="#774240"
               stroke-linejoin="round"
               stroke-miterlimit="10"
               id="path277" /></g><g
             transform="translate(894.64,494.4)"
             id="g285"><path
               d="m 0,0 h -43.18 l -6.64,-6.641 H 3.926 Z"
               fill="#75c4d1"
               id="path281" /><path
               d="m 0,0 h -43.18 l -6.64,-6.641 H 3.926 Z"
               fill="none"
               stroke="#774240"
               stroke-miterlimit="10"
               id="path283" /></g><g
             transform="translate(903.36,403.79)"
             id="g291"><path
               d="m 0,0 h -51.897 l -6.641,-6.641 H 3.926 Z"
               fill="#75c4d1"
               id="path287" /><path
               d="m 0,0 h -51.897 l -6.641,-6.641 H 3.926 Z"
               fill="none"
               stroke="#774240"
               stroke-miterlimit="10"
               id="path289" /></g><g
             transform="translate(903.36,289.56)"
             id="g297"><path
               d="m 0,0 h -51.897 l -6.641,-6.639 H 3.926 Z"
               fill="#75c4d1"
               id="path293" /><path
               d="m 0,0 h -51.897 l -6.641,-6.639 H 3.926 Z"
               fill="none"
               stroke="#774240"
               stroke-miterlimit="10"
               id="path295" /></g><g
             transform="translate(875.17,585.54)"
             id="g301"><path
               d="M 0,0 V 39.683"
               fill="#dcd9d0"
               stroke="#774240"
               stroke-linecap="round"
               stroke-miterlimit="10"
               stroke-width="4"
               id="path299" /></g><g
             id="g313"><g
               transform="translate(852.01,574.06)"
               id="g307"><path
                 d="M 0,0 -8.304,11.292 H 93.116 L 84.073,0 Z"
                 fill="#eeb881"
                 id="path303" /><path
                 d="M 0,0 -8.304,11.292 H 93.116 L 84.073,0 Z"
                 fill="none"
                 stroke="#774240"
                 stroke-linejoin="round"
                 stroke-miterlimit="10"
                 id="path305" /></g><path
               d="M 945.13,585.35 H 842.38 v 4.513 h 102.75 z"
               fill="#eeb881"
               stroke="#774240"
               stroke-linejoin="round"
               stroke-miterlimit="10"
               id="path309" /><path
               d="M 943.23,604.47 H 844.816 V 589.868 H 943.23 Z"
               fill="#c93131"
               stroke="#774240"
               stroke-linejoin="round"
               stroke-miterlimit="10"
               id="path311" /></g><g
             transform="translate(1107.4,197.02)"
             id="g319"><path
               d="M 0,0 V 285.98 H -208.76 V 0 c 0,0 -1.285,-17.994 -8.998,-34.703 -7.712,-16.709 -7.07,-35.344 -7.07,-35.344 h 240.9 c 0,0 0.643,18.635 -7.071,35.344 C 1.291,-17.994 0.006,0 0.006,0"
               fill="#eeb881"
               id="path315" /><path
               d="M 0,0 V 285.98 H -208.76 V 0 c 0,0 -1.285,-17.994 -8.998,-34.703 -7.712,-16.709 -7.07,-35.344 -7.07,-35.344 h 240.9 c 0,0 0.643,18.635 -7.071,35.344 C 1.291,-17.994 0.006,0 0.006,0 Z"
               fill="none"
               stroke="#774240"
               stroke-linejoin="round"
               stroke-miterlimit="10"
               id="path317" /></g><g
             id="g399"><g
               transform="translate(898.6,483)"
               id="g325"><path
                 d="m 0,0 -10.199,22.809 h 229.64 L 208.762,0 Z"
                 fill="#c93131"
                 id="path321" /><path
                 d="m 0,0 -10.199,22.809 h 229.64 L 208.762,0 Z"
                 fill="none"
                 stroke="#774240"
                 stroke-linejoin="round"
                 stroke-miterlimit="10"
                 id="path323" /></g><g
               fill="#eeb881"
               stroke="#774240"
               stroke-linejoin="round"
               stroke-miterlimit="10"
               id="g335"><path
                 d="m 962.05,483 h 5.454 v 22.809 h -5.454 z"
                 id="path327" /><path
                 d="m 949.08,483 h 5.455 v 22.809 h -5.455 z"
                 id="path329" /><path
                 d="m 975.02,483 h 5.453 v 22.809 h -5.453 z"
                 id="path331" /><path
                 d="m 936.11,483 h 5.454 v 22.809 h -5.454 z"
                 id="path333" /></g><g
               transform="translate(897.21,505.81)"
               id="g341"><path
                 d="m 0,0 v -19.694 l 1.394,-3.115 h 4.06 V 0 Z"
                 fill="#eeb881"
                 id="path337" /><path
                 d="m 0,0 v -19.694 l 1.394,-3.115 h 4.06 V 0 Z"
                 fill="none"
                 stroke="#774240"
                 stroke-linejoin="round"
                 stroke-miterlimit="10"
                 id="path339" /></g><g
               fill="#eeb881"
               stroke="#774240"
               stroke-linejoin="round"
               stroke-miterlimit="10"
               id="g357"><path
                 d="m 910.17,483 h 5.455 v 22.809 h -5.455 z"
                 id="path343" /><path
                 d="m 987.99,483 h 5.454 v 22.809 h -5.454 z"
                 id="path345" /><path
                 d="m 923.15,483 h 5.453 v 22.809 h -5.453 z"
                 id="path347" /><path
                 d="m 1065.8,483 h 5.456 v 22.809 h -5.456 z"
                 id="path349" /><path
                 d="m 1078.8,483 h 5.455 v 22.809 h -5.455 z"
                 id="path351" /><path
                 d="m 1091.7,483 h 5.454 v 22.809 h -5.454 z"
                 id="path353" /><path
                 d="m 1001,483 h 5.455 v 22.809 H 1001 Z"
                 id="path355" /></g><g
               transform="translate(1110.2,505.81)"
               id="g363"><path
                 d="m 0,0 h -5.453 v -22.809 h 2.646 l 2.807,6 z"
                 fill="#eeb881"
                 id="path359" /><path
                 d="m 0,0 h -5.453 v -22.809 h 2.646 l 2.807,6 z"
                 fill="none"
                 stroke="#774240"
                 stroke-linejoin="round"
                 stroke-miterlimit="10"
                 id="path361" /></g><g
               fill="#eeb881"
               stroke="#774240"
               stroke-linejoin="round"
               stroke-miterlimit="10"
               id="g373"><path
                 d="m 1052.8,483 h 5.453 v 22.809 h -5.453 z"
                 id="path365" /><path
                 d="m 1039.9,483 h 5.454 v 22.809 h -5.454 z"
                 id="path367" /><path
                 d="m 1013.9,483 h 5.456 v 22.809 h -5.456 z"
                 id="path369" /><path
                 d="m 1026.9,483 h 5.455 v 22.809 h -5.455 z"
                 id="path371" /></g><g
               stroke="#774240"
               stroke-miterlimit="10"
               id="g397"><path
                 d="m 917.75,524.7 h -29.133 v 17.667 h 29.133 z"
                 fill="#75c4d1"
                 id="path375" /><path
                 d="m 921.41,538.24 h -36.101 v 5.574 h 36.101 z"
                 fill="#eeb881"
                 stroke-linejoin="round"
                 id="path377" /><path
                 d="m 967.82,524.7 h -29.136 v 17.667 h 29.136 z"
                 fill="#75c4d1"
                 id="path379" /><path
                 d="m 971.48,538.24 h -36.102 v 5.574 h 36.102 z"
                 fill="#eeb881"
                 stroke-linejoin="round"
                 id="path381" /><path
                 d="m 1017.9,524.7 h -29.132 v 17.667 h 29.132 z"
                 fill="#75c4d1"
                 id="path383" /><path
                 d="m 1021.5,538.24 h -36.102 v 5.574 h 36.102 z"
                 fill="#eeb881"
                 stroke-linejoin="round"
                 id="path385" /><path
                 d="m 1068,524.7 h -29.135 v 17.667 H 1068 Z"
                 fill="#75c4d1"
                 id="path387" /><path
                 d="m 1071.6,538.24 h -36.1 v 5.574 h 36.1 z"
                 fill="#eeb881"
                 stroke-linejoin="round"
                 id="path389" /><path
                 d="m 1118,524.7 h -29.134 v 17.667 H 1118 Z"
                 fill="#75c4d1"
                 id="path391" /><path
                 d="m 1121.7,538.24 h -36.102 v 5.574 h 36.102 z"
                 fill="#eeb881"
                 stroke-linejoin="round"
                 id="path393" /><path
                 d="m 888.4,525.32 h 229.64 V 505.806 H 888.4 Z"
                 fill="#75c4d1"
                 id="path395" /></g></g></g><path
           d="m 293.65,301.81 h 75.2 v 263.96 h -75.2 z"
           fill="#eeb881"
           stroke="#774240"
           stroke-linejoin="round"
           stroke-miterlimit="10"
           id="path403" /><path
           d="m 367.36,173.42 h 85.804 V 562.16 H 367.36 Z"
           fill="#eeb881"
           stroke="#774240"
           stroke-linejoin="round"
           stroke-miterlimit="10"
           id="path405" /><g
           transform="matrix(1,0,0,-1,453.16,376.54)"
           id="g409"><path
             d="M 0,0 H -159.16"
             fill="none"
             stroke="#774240"
             stroke-linejoin="round"
             stroke-miterlimit="10"
             id="path407" /></g><g
           transform="translate(453.16,452.45)"
           id="g413"><path
             d="M 0,0 H -159.36"
             fill="none"
             stroke="#774240"
             stroke-linejoin="round"
             stroke-miterlimit="10"
             id="path411" /></g><g
           transform="translate(453.16,528.37)"
           id="g417"><path
             d="M 0,0 H -159.09"
             fill="none"
             stroke="#774240"
             stroke-linejoin="round"
             stroke-miterlimit="10"
             id="path415" /></g><g
           stroke="#774240"
           stroke-miterlimit="10"
           id="g429"><path
             d="m 287.76,582.67 h 81.087 V 565.771 H 287.76 Z"
             fill="#c93131"
             stroke-linejoin="round"
             id="path419" /><g
             fill="#75c4d1"
             id="g427"><path
               d="m 350.24,582.67 h 18.608 v 10.637 H 350.24 Z"
               id="path421" /><path
               d="m 321.94,582.67 h 18.611 v 10.637 H 321.94 Z"
               id="path423" /><path
               d="m 293.65,582.67 h 18.61 v 10.637 h -18.61 z"
               id="path425" /></g></g><g
           transform="translate(409.06,585.54)"
           id="g433"><path
             d="M 0,0 V 33.957"
             fill="#dcd9d0"
             stroke="#774240"
             stroke-linecap="round"
             stroke-miterlimit="10"
             stroke-width="4"
             id="path431" /></g><path
           d="m 361.84,569.38 h 97.076 v 17.093 H 361.84 Z"
           fill="#75c4d1"
           stroke="#774240"
           stroke-miterlimit="10"
           id="path435" /><g
           transform="translate(458.92,569.38)"
           id="g441"><path
             d="M 0,0 -5.756,-7.215 H -92.232 L -97.076,0 Z"
             fill="#75c4d1"
             id="path437" /><path
             d="M 0,0 -5.756,-7.215 H -92.232 L -97.076,0 Z"
             fill="none"
             stroke="#774240"
             stroke-linejoin="round"
             stroke-miterlimit="10"
             id="path439" /></g><g
           fill="#75c4d1"
           stroke="#774240"
           stroke-miterlimit="10"
           id="g449"><path
             d="m 438.73,586.48 h 18.612 v 10.633 H 438.73 Z"
             id="path443" /><path
             d="m 401.08,586.48 h 18.608 v 10.633 H 401.08 Z"
             id="path445" /><path
             d="m 363.42,586.48 h 18.61 v 10.633 h -18.61 z"
             id="path447" /></g></g></g><g
       clip-path="url(#clipPath6522)"
       id="g581"
       transform="translate(158.25396)"><g
         transform="translate(1018.7,469.26)"
         id="g457"><path
           d="m 0,0 c 0,-189.84 -153.9,-343.74 -343.74,-343.74 -189.84,0 -343.74,153.9 -343.74,343.74 0,189.84 153.9,343.74 343.74,343.74 C -153.9,343.74 0,189.84 0,0 Z"
           fill="none"
           stroke="#774240"
           stroke-linejoin="round"
           stroke-miterlimit="10"
           stroke-width="3"
           id="path455" /></g><g
         transform="translate(584.26,593.66)"
         id="g463"><path
           d="m 0,0 c 0,-25.958 -21.042,-47 -47,-47 -25.958,0 -47,21.042 -47,47 0,25.958 21.042,47 47,47 C -21.042,47 0,25.958 0,0"
           fill="#eeb881"
           id="path459" /><path
           d="m 0,0 c 0,-25.958 -21.042,-47 -47,-47 -25.958,0 -47,21.042 -47,47 0,25.958 21.042,47 47,47 C -21.042,47 0,25.958 0,0 Z"
           fill="none"
           stroke="#774240"
           stroke-linejoin="round"
           stroke-miterlimit="10"
           id="path461" /></g><g
         transform="translate(405,610.33)"
         id="g467"><path
           d="M 0,0 C 0,0 263.41,-45.241 470.16,9.163"
           fill="none"
           stroke="#774240"
           stroke-linejoin="round"
           stroke-miterlimit="10"
           id="path465" /></g><path
         d="m 670.57,631.74 h -4.0359 c 0,0 -0.37999,-23.966 -12.554,-36.331 0,0 -1.065,-1.521 -1.009,-3.1379 0.058,-1.617 1.105,-2.282 1.39,-1.426 0.285,0.85498 0.095,3.8979 0.095,3.8979"
         fill="none"
         stroke="#774240"
         stroke-miterlimit="10"
         stroke-width="0.99998"
         id="path469" /><path
         d="m 679.22,668.5 c 0,0 0.2629,-0.33336 0.32084,-1.2073 0.058,-0.87291 0.46802,-1.7835 0.35531,-1.9165 -0.11271,-0.133 -0.51004,-0.39408 -0.38907,-0.6145 0.12091,-0.22241 0.64243,-1.0811 0.57769,-1.4334 -0.0637,-0.35237 -0.41581,-0.31465 -0.79692,-0.27714 0,0 -0.26289,-0.64599 -0.24191,-0.86464 0.021,-0.21866 -0.17043,-0.2674 -0.17043,-0.2674 0,0 0.20816,-0.35987 -0.012,-0.43582 0,0 -0.31338,-0.48153 -0.32388,-0.86238 -0.0105,-0.38084 -0.19093,-0.97509 -1.6279,-0.77241 0,0 -0.42383,-0.53251 -0.57402,-1.0456 0,0 0.17516,-0.57702 1.2149,-2.3763 1.0398,-1.7983 2.0991,-4.8506 1.9963,-7.5987 -0.10178,-2.7482 -0.85234,-8.2014 -0.85234,-8.2014 0,0 0.13016,-2.2094 -0.21247,-2.7721 -0.34263,-0.56276 -0.84204,-4.8525 -0.53916,-5.7322 0.30286,-0.87966 1.0638,-3.8687 0.98949,-4.6029 -0.0742,-0.73222 -0.52281,-2.1634 -0.52281,-2.1634 0,0 3.342,-6.2473 3.3902,-8.4554 0.0472,-2.2071 -0.39451,-20.224 -0.39451,-20.224 0,0 1.5101,-1.5402 2.6961,-1.954 1.187,-0.41386 1.8872,-0.70526 1.8782,-1.0321 -0.009,-0.32686 -0.29515,-0.83616 -0.70224,-0.79793 -0.40809,0.0383 -4.7293,0.37548 -4.7293,0.37548 0,0 -0.88636,0.43358 -1.4039,0.41984 -0.51754,-0.0127 -1.5432,-0.64069 -2.4663,-0.55923 -0.92408,0.0815 -2.1512,0.0563 -2.1512,0.0563 0,0 -0.57738,1.7355 0.40376,2.7438 l -0.98061,0.027 0.15967,11.706 c 0,0 -2.8909,-5.0401 -4.5628,-6.4645 -1.6738,-1.4244 -1.6212,-2.4882 -1.8006,-3.0825 -0.17945,-0.59427 -0.0226,-2.7774 -0.18723,-2.7998 -0.16369,-0.0225 -0.40709,0.0382 -0.43634,-0.043 -0.0302,-0.0802 2.6639,-1.1618 2.9293,-1.4412 0.26336,-0.28035 0.28386,-0.55302 0.17041,-0.71294 -0.11347,-0.16094 -5.2529,0.14482 -5.2529,0.14482 0,0 -1.0388,0.81792 -1.9052,1.0319 -0.86539,0.21494 -1.4386,0.17672 -1.8932,0.48836 -0.45355,0.31261 -1.7915,1.1658 -1.7915,1.1658 0,0 0.44986,1.5131 1.0364,2.0692 0.58851,0.55499 0.6185,0.6632 0.6185,0.6632 0,0 7.1542,14.537 8.0181,16.229 0.86396,1.6928 1.365,3.0675 1.365,3.0675 l -0.86702,6.07 c 0,0 -2.0142,1.0359 -2.3997,2.8712 -0.38556,1.8353 -0.88658,2.4213 -1.012,2.8059 -0.12645,0.38462 -0.3221,1.1253 -0.30782,1.6431 0.002,0.09 0.0255,0.3074 0.0627,0.60648 0.17377,1.4047 0.64683,4.5938 0.62733,4.6844 -0.025,0.10973 1.0147,5.2019 1.1534,6.3145 0.13971,1.1125 0.31195,3.3686 0.31195,3.3686 l -0.70369,1.2178 c 0,0 -2.007,-2.6956 -3.3487,-3.9381 -1.3407,-1.2435 -2.7365,-2.4855 -3.3345,-3.4223 -0.59801,-0.93586 -0.70375,-1.8322 -0.68652,-2.1869 0.0162,-0.35458 0.29061,-0.96135 -0.0335,-1.0334 -0.32413,-0.0731 -1.1038,0.27551 -1.2318,0.60516 -0.12793,0.33064 -0.19614,0.79569 -0.19614,0.79569 0,0 -2.9094,-0.84612 -4.6809,-0.87931 -1.7715,-0.0322 -1.8392,0.48686 -1.7558,0.53858 0.0835,0.0527 0.54829,0.14895 0.54829,0.14895 0,0 -0.2034,0.49577 0.0188,0.68072 0.22315,0.18391 1.2545,0.0734 1.2545,0.0734 0,0 -0.0462,0.24736 0.22942,0.37481 0.27666,0.12942 1.8268,0.11269 3.131,0.97606 1.3043,0.86336 4.2722,5.7933 5.1031,7.2679 0.82994,1.4747 1.6684,2.2418 2.0305,2.5309 0.36213,0.29012 0.59703,0.93688 0.68126,1.0166 0.0842,0.0787 0.67001,1.5881 0.82197,2.1291 0.15094,0.54003 0.48285,2.7096 0.82597,3.3264 0.34512,0.6167 3.5511,3.6604 3.5511,3.6604 l 0.92616,1.6631 c 0,0 -1.2642,1.5324 -1.4948,4.0176 -0.23162,2.4843 1.53,5.1317 4.2112,5.5759 l 2.1282,6.0415 c 0,0 -1.1173,0.98413 -1.4079,2.2726 -0.29162,1.2875 -0.36853,2.489 -0.49598,2.7646 -0.12845,0.27564 -0.27739,0.82393 -0.19391,0.87665 0.0835,0.0517 0.4898,-0.0135 0.4898,-0.0135 0,0 0.18094,0.64824 0.48382,0.74893 0.30188,0.10072 0.54378,-0.015 0.54378,-0.015 l -0.23743,-0.7017 c 0,0 0.43883,0.0969 0.39659,-0.41908 -0.0412,-0.51605 -0.21245,-1.7918 -0.003,-2.0967 0.20964,-0.30589 1.0623,-0.98262 1.0623,-0.98262 0,0 0.19617,0.18465 0.17819,0.51226 -0.018,0.32761 -0.0565,0.92689 -0.0565,0.92689 0,0 0.25465,0.34711 0.60102,0.0655 0.34636,-0.28165 0.83989,-1.1396 0.73867,-1.872 -0.10122,-0.73246 0.1179,-1.6378 -0.19448,-2.1194 0,0 -0.20747,-2.5542 -0.23748,-3.6428 -0.03,-1.0886 -0.10427,-2.8021 -0.10427,-2.8021 0,0 2.7344,-0.56456 1.673,-2.524"
         fill="#774240"
         stroke-width="0.99998"
         id="path471" /><g
         transform="translate(1041.6,642.97)"
         id="g475"><path
           d="m 0,0 h -24.63 c -4.482,0 -8.116,3.125 -8.116,6.98 0,3.856 3.634,6.981 8.116,6.981 h 2.273 c 5.33,0 9.65,3.716 9.65,8.299 0,4.584 -4.32,8.3 -9.65,8.3 h -77.994 c -5.33,0 -9.65,-3.716 -9.65,-8.3 0,-4.583 4.32,-8.299 9.65,-8.299 h 8.651 c 4.482,0 8.117,-3.125 8.117,-6.981 C -83.583,3.125 -87.218,0 -91.7,0 h -27.651 c -4.193,0 -7.591,-2.923 -7.591,-6.528 0,-3.606 3.398,-6.529 7.591,-6.529 h 119.35 c 4.192,0 7.592,2.923 7.592,6.529 0,3.605 -3.4,6.528 -7.592,6.528"
           fill="#ffffff"
           id="path473" /></g><g
         transform="translate(555.79,769.41)"
         id="g479"><path
           d="m 0,0 h -18.04 c -3.282,0 -5.944,2.289 -5.944,5.112 0,2.825 2.662,5.113 5.944,5.113 h 1.665 c 3.904,0 7.068,2.722 7.068,6.079 0,3.357 -3.164,6.078 -7.068,6.078 h -57.124 c -3.904,0 -7.068,-2.721 -7.068,-6.078 0,-3.357 3.164,-6.079 7.068,-6.079 h 6.335 c 3.284,0 5.946,-2.288 5.946,-5.113 C -61.218,2.289 -63.88,0 -67.164,0 h -20.251 c -3.071,0 -5.561,-2.141 -5.561,-4.782 0,-2.641 2.49,-4.781 5.561,-4.781 H 0 c 3.071,0 5.561,2.14 5.561,4.781 C 5.561,-2.141 3.071,0 0,0"
           fill="#ffffff"
           id="path477" /></g><g
         transform="translate(448.38,693.73)"
         id="g483"><path
           d="m 0,0 h -126.29 c -3.687,0 -6.675,-2.988 -6.675,-6.675 0,-3.686 2.988,-6.675 6.675,-6.675 h 35.915 c 2.649,0 4.796,-2.147 4.796,-4.796 0,-2.648 -2.147,-4.796 -4.796,-4.796 h 1.146 c -2.378,0 -4.306,-1.928 -4.306,-4.307 0,-2.377 1.928,-4.306 4.306,-4.306 h 22.085 c 2.648,0 4.796,-2.147 4.796,-4.796 0,-2.649 -2.148,-4.796 -4.796,-4.796 h -3.835 c -2.163,0 -3.916,-1.753 -3.916,-3.916 0,-2.163 1.753,-3.916 3.916,-3.916 h 39.518 c 2.162,0 3.915,1.753 3.915,3.916 0,2.163 -1.753,3.916 -3.915,3.916 h -4.311 c -2.648,0 -4.796,2.147 -4.796,4.796 0,2.649 2.148,4.796 4.796,4.796 h 15.801 c 2.379,0 4.307,1.929 4.307,4.306 0,2.379 -1.928,4.307 -4.307,4.307 h -26.081 c -2.649,0 -4.796,2.148 -4.796,4.796 0,2.649 2.147,4.796 4.796,4.796 H 0.003 c 3.687,0 6.675,2.989 6.675,6.675 C 6.678,-2.988 3.69,0 0.003,0"
           fill="#ffffff"
           id="path481" /></g><g
         transform="translate(447.29,648.56)"
         id="g487"><path
           d="m 0,0 c 0,-2.103 -1.705,-3.807 -3.807,-3.807 h -10.361 c -2.103,0 -3.808,1.704 -3.808,3.807 0,2.103 1.705,3.807 3.808,3.807 H -3.807 C -1.705,3.807 0,2.103 0,0"
           fill="#ffffff"
           id="path485" /></g><g
         transform="translate(711.72,802.07)"
         id="g491"><path
           d="m 0,0 h 193.18 c 4.217,0 7.635,-3.418 7.635,-7.636 0,-4.217 -3.418,-7.635 -7.635,-7.635 h -75.785 c -3.268,0 -5.918,-2.649 -5.918,-5.917 0,-3.269 2.65,-5.918 5.918,-5.918 h 29.016 c 3.269,0 5.918,-2.65 5.918,-5.918 0,-3.268 -2.649,-5.917 -5.918,-5.917 h -0.023 c -3.268,0 -5.917,-2.65 -5.917,-5.918 0,-3.269 2.649,-5.918 5.917,-5.918 h 1.325 c 2.55,0 4.616,-2.067 4.616,-4.617 0,-2.549 -2.066,-4.616 -4.616,-4.616 H 72.946 c -2.55,0 -4.616,2.067 -4.616,4.616 0,2.55 2.066,4.617 4.616,4.617 h 23.643 c 3.268,0 5.918,2.649 5.918,5.918 0,3.268 -2.65,5.918 -5.918,5.918 H 8.311 c -3.267,0 -5.917,2.649 -5.917,5.917 0,3.268 2.65,5.918 5.917,5.918 h 27.907 c 3.267,0 5.917,2.649 5.917,5.918 0,3.268 -2.65,5.917 -5.917,5.917 h -36.22 c -4.218,0 -7.636,3.418 -7.636,7.635 0,4.218 3.418,7.636 7.636,7.636"
           fill="#ffffff"
           id="path489" /></g><g
         transform="translate(749,722)"
         id="g495"><path
           d="m 0,0 c 0,-4.418 -3.582,-8 -8,-8 h -67.637 c -4.419,0 -8,3.582 -8,8 0,4.418 3.581,8 8,8 H -8 C -3.582,8 0,4.418 0,0"
           fill="#ffffff"
           id="path493" /></g><g
         transform="translate(889,667.77)"
         id="g499"><path
           d="M 0,0 C 0,-3.185 -2.582,-5.767 -5.768,-5.767 H -17.232 C -20.418,-5.767 -23,-3.185 -23,0 c 0,3.185 2.582,5.767 5.768,5.767 H -5.768 C -2.582,5.767 0,3.185 0,0"
           fill="#ffffff"
           id="path497" /></g><g
         transform="translate(589,681.93)"
         id="g503"><path
           d="m 0,0 c 0,-2.171 -1.76,-3.931 -3.932,-3.931 h -11.073 c -2.171,0 -3.932,1.76 -3.932,3.931 0,2.171 1.761,3.932 3.932,3.932 H -3.932 C -1.76,3.932 0,2.171 0,0"
           fill="#ffffff"
           id="path501" /></g><g
         transform="translate(824,523.5)"
         id="g507"><path
           d="m 0,0 c 0,-3.038 -2.463,-5.5 -5.5,-5.5 h -24 c -3.037,0 -5.5,2.462 -5.5,5.5 0,3.038 2.463,5.5 5.5,5.5 h 24 C -2.463,5.5 0,3.038 0,0"
           fill="#ffffff"
           id="path505" /></g><g
         transform="translate(650.78,513.5)"
         id="g511"><path
           d="m 0,0 c 0,-2.485 -2.015,-4.5 -4.5,-4.5 h -26.782 c -2.485,0 -4.5,2.015 -4.5,4.5 0,2.485 2.015,4.5 4.5,4.5 H -4.5 C -2.015,4.5 0,2.485 0,0"
           fill="#ffffff"
           id="path509" /></g><g
         transform="translate(836,689.8)"
         id="g515"><path
           d="m 0,0 c 0,-2.172 -1.761,-3.933 -3.933,-3.933 h -9.134 C -15.239,-3.933 -17,-2.172 -17,0 c 0,2.172 1.761,3.933 3.933,3.933 h 9.134 C -1.761,3.933 0,2.172 0,0"
           fill="#ffffff"
           id="path513" /></g><g
         transform="translate(596,714.5)"
         id="g519"><path
           d="M 0,0 C 0,-1.933 -1.567,-3.5 -3.5,-3.5 -5.433,-3.5 -7,-1.933 -7,0 -7,1.933 -5.433,3.5 -3.5,3.5 -1.567,3.5 0,1.933 0,0"
           fill="#ffffff"
           id="path517" /></g><g
         transform="translate(529.27,697.86)"
         id="g523"><path
           d="m 0,0 c 0,-2.284 -1.852,-4.136 -4.136,-4.136 -2.284,0 -4.135,1.852 -4.135,4.136 0,2.284 1.851,4.136 4.135,4.136 C -1.852,4.136 0,2.284 0,0"
           fill="#ffffff"
           id="path521" /></g><g
         transform="translate(507,657.5)"
         id="g527"><path
           d="M 0,0 C 0,-2.485 -2.015,-4.5 -4.5,-4.5 -6.985,-4.5 -9,-2.485 -9,0 -9,2.485 -6.985,4.5 -4.5,4.5 -2.015,4.5 0,2.485 0,0"
           fill="#ffffff"
           id="path525" /></g><g
         transform="translate(789,693.36)"
         id="g531"><path
           d="M 0,0 C 0,-2.485 -2.015,-4.5 -4.5,-4.5 -6.985,-4.5 -9,-2.485 -9,0 -9,2.485 -6.985,4.5 -4.5,4.5 -2.015,4.5 0,2.485 0,0"
           fill="#ffffff"
           id="path529" /></g><g
         transform="translate(777.94,653.03)"
         id="g535"><path
           d="m 0,0 c 0,-2.469 -2.002,-4.471 -4.472,-4.471 -2.469,0 -4.471,2.002 -4.471,4.471 0,2.47 2.002,4.472 4.471,4.472 C -2.002,4.472 0,2.47 0,0"
           fill="#ffffff"
           id="path533" /></g><g
         transform="translate(498,514.13)"
         id="g539"><path
           d="m 0,0 c 0,-2.139 -1.734,-3.873 -3.872,-3.873 -2.139,0 -3.873,1.734 -3.873,3.873 0,2.138 1.734,3.872 3.873,3.872 C -1.734,3.872 0,2.138 0,0"
           fill="#ffffff"
           id="path537" /></g><g
         transform="translate(537.26,511.25)"
         id="g543"><path
           d="m 0,0 v -2.25 4.5 z"
           fill="#ffffff"
           id="path541" /></g><g
         transform="translate(795.74,472.63)"
         id="g547"><path
           d="m 0,0 c 0,-1.86 -1.508,-3.368 -3.368,-3.368 -1.861,0 -3.368,1.508 -3.368,3.368 0,1.86 1.507,3.368 3.368,3.368 C -1.508,3.368 0,1.86 0,0"
           fill="#ffffff"
           id="path545" /></g><g
         transform="translate(806.5,553.62)"
         id="g551"><path
           d="m 0,0 c 0,-2.973 -2.409,-5.382 -5.382,-5.382 -2.972,0 -5.382,2.409 -5.382,5.382 0,2.972 2.41,5.382 5.382,5.382 C -2.409,5.382 0,2.972 0,0"
           fill="#ffffff"
           id="path549" /></g><g
         transform="translate(677.29,556.31)"
         id="g555"><path
           d="m 0,0 c 0,-1.486 -1.205,-2.691 -2.691,-2.691 -1.486,0 -2.691,1.205 -2.691,2.691 0,1.486 1.205,2.691 2.691,2.691 C -1.205,2.691 0,1.486 0,0"
           fill="#ffffff"
           id="path553" /></g><g
         transform="translate(637.54,780.91)"
         id="g559"><path
           d="m 0,0 c 0,-2.812 -2.279,-5.091 -5.091,-5.091 -2.812,0 -5.092,2.279 -5.092,5.091 0,2.812 2.28,5.091 5.092,5.091 C -2.279,5.091 0,2.812 0,0"
           fill="#ffffff"
           id="path557" /></g><g
         transform="translate(506,726)"
         id="g563"><path
           d="m 0,0 c 0,-2.209 -1.791,-4 -4,-4 -2.209,0 -4,1.791 -4,4 0,2.209 1.791,4 4,4 2.209,0 4,-1.791 4,-4"
           fill="#ffffff"
           id="path561" /></g><g
         transform="translate(592.5,546.66)"
         id="g567"><path
           d="m 0,0 h -3.5 1.75 z"
           fill="#ffffff"
           id="path565" /></g><g
         transform="translate(485,560.5)"
         id="g571"><path
           d="M 0,0 C 0,-1.933 -1.567,-3.5 -3.5,-3.5 -5.433,-3.5 -7,-1.933 -7,0 -7,1.933 -5.433,3.5 -3.5,3.5 -1.567,3.5 0,1.933 0,0"
           fill="#ffffff"
           id="path569" /></g><g
         transform="translate(806.5,650.34)"
         id="g575"><path
           d="m 0,0 c 0,-1.486 -1.205,-2.691 -2.691,-2.691 -1.486,0 -2.691,1.205 -2.691,2.691 0,1.486 1.205,2.69 2.691,2.69 C -1.205,2.69 0,1.486 0,0"
           fill="#ffffff"
           id="path573" /></g><g
         transform="translate(563.5,520.75)"
         id="g579"><path
           d="m 0,0 c 0,-1.519 -1.231,-2.75 -2.75,-2.75 -1.519,0 -2.75,1.231 -2.75,2.75 0,1.519 1.231,2.75 2.75,2.75 C -1.231,2.75 0,1.519 0,0"
           fill="#ffffff"
           id="path577" /></g></g></g></svg>
