<?xml version="1.0" encoding="utf-8"?>
<svg id="master-artboard" viewBox="0 0 1400 980" version="1.1" xmlns="http://www.w3.org/2000/svg" x="0px" y="0px" width="1400px" height="980px" enable-background="new 0 0 1400 980">
<path d="M 0 0 H 1400 V 980 H 0 V 0 Z" id="XMLID_25_" fill="#C3C0C0"/>
<g id="XMLID_1_">
	<path id="XMLID_12_" fill="#2D2D2D" d="M344.5,318.4c0,0,1.7,0.7,7,3S603,392,603,392l-0.6-8.7l-229.2-59.8c6.4-3.2,4.6-9.7,5-11.3&#10;&#9;&#9;c0.4-1.6,5.1-6,11.2-9.8c6.1-3.8,7.5-11.6,6.7-15.7s-5.6-3.3-5.6-3.3s-3-1.3-5.9-0.4c-2.9,0.9-10.1,7.4-11.3,6.9&#10;&#9;&#9;c-1.2-0.5-0.8-1.7-2-2c-1.2-0.2-2.7,3.1-3.7,3.2s-3.3-2.3-4.3-2.7s-2.1,1.5-2.1,2.2s2.2,2.2,2.2,2.2s-0.6,1.2-2.3,2.1&#10;&#9;&#9;c-1.7,0.9-5.7,1.7-9.7,2c-4,0.4-15.9-5.1-16-6.5c-0.1-1.4,3.7-6.6,4.3-10.2c0.6-3.6-3.1-3.5-2.8-4.7c0.3-1.2,0.2-3.1,0.2-3.1&#10;&#9;&#9;s9.1-23.9,10.9-31.9c1.8-8,0.6-30.3,0.6-30.3s0,0,1.5-1.2c1.5-1.2,1.2-4.7,1.2-4.7s6.3-4.1,10.3-6.7c4.1-2.6,13.7-14.2,15.4-16.3&#10;&#9;&#9;c1.7-2.1,17.2-35.8,17.4-36.5c0.2-0.7,0.5-1.3,2.4-2.5c1.9-1.1,4.1-4.1,4.9-5.3s3-2.4,3.8-3c0.8-0.6,2.3-1.5,2.9-2.5&#10;&#9;&#9;c0.7-1-0.1-2-1.1-1.9s-1.9,0.6-2.3,1.1s-2.2,2.1-2.5,1.7c-0.3-0.3,0.4-1.8,0.8-2c0.4-0.3,1.2-0.9,2.1-1.4c1-0.5,1.7-0.6,2.6-0.8&#10;&#9;&#9;s0.3-2.4,0.3-2.4s-0.3-1.4-0.7-2.3c-0.4-1-1.1-0.7-1.6-0.8c-0.5,0-3.2,0.2-4.2,0.6c-1,0.5-3.4,2.4-3.9,2.4c-0.6,0-0.2-2.2,0.4-2.4&#10;&#9;&#9;c0.6-0.2,2.4-2.1,2.4-2.1s3-1.3,2.8-2.7c-0.3-1.4-2.3-0.5-2.9-0.4c-0.6,0.1-3.8,1.2-4.6,2.1c-0.8,0.9-2.2,3.1-2.2,3.1&#10;&#9;&#9;c0.5-2.8-0.5-3.9-1.6-3.8c-1.1,0.1-1.7,6-3,7.9s-1.2,7.5-1.4,9.7c-0.2,2.2-3.5,6.5-9.4,16.1c-5.9,9.6-11.2,17.7-13.6,21.5&#10;&#9;&#9;c-2.4,3.7-11.6,11.3-13.3,12.5c-1.7,1.2-8.5,3.4-8.5,3.4s-0.8,0-2,0.1c-1.2,0.1-3.1,2.9-3.1,2.9c-0.3-0.5,3.9-8.2,3.9-9.4&#10;&#9;&#9;s-1.2-6.8-0.7-8.4c0.5-1.6,0.4-5,0.4-5c1.3,0,3.4,0.6,3.6-0.1c0.2-0.7-4.9-5.1-4.9-5.1s-0.4-2.7-1.2-5.7c-0.8-3-1.9-3.1-1.9-3.1&#10;&#9;&#9;s-7-10.6-18.5-5.6s-7.5,16.1-7.5,16.1s-0.4,0.3-0.3,1.3c0.1,1,1.5,4.8,1.5,4.8s-2.2,0.3-1.6,3.8c0.6,3.5,5.5,7.2,5.5,7.2&#10;&#9;&#9;s0.8,2,1.2,6c0.4,4-1.1,4.8-2.1,4.6c-1-0.2-2,1-2.7,0.9c-0.7-0.1-0.5,0.5-2.1,1.2c-1.6,0.7-19.7,1.7-21.5,1.9&#10;&#9;&#9;c-1.9,0.2-1.6,1.2-1.6,1.2s-21.2,0.3-25.3,1c-4.1,0.6-15.7-6.3-23.8-9.2s-13.2-7.7-13.2-7.7s-3.4-1.6-4-3.6c-0.6-2.1-4.6-3.3-6.9-4&#10;&#9;&#9;s-2.4-1.5-5-3c-2.6-1.5-5.5-0.4-4.9,0.9c0.6,1.4,1.7,2.7,1.7,2.7l-2-0.3c-0.5-0.6-4-3-4-3l-3.4-3.2c-3.4-3.3-5-1.9-5.3-1.1&#10;&#9;&#9;c-0.3,0.8,1.7,2.5,1.9,2.8c0,0-0.2,1.4,0.6,3.2c0.8,1.8,4,5.7,4.6,7.1c0.5,1.4,0.8,1.8,3.1,3.4c2.3,1.6,10.8,2.3,15.3,3.6&#10;&#9;&#9;c4.4,1.3,36.7,23.5,42.4,25s37.3,3.1,37.3,3.1s0.1,0.7,0,1.6s3.5,5.3,5.4,11.1s1,26.8,1,26.8s-0.5,0.7-3.5,3.4s-1.9,3.7-1.9,3.7&#10;&#9;&#9;s-0.1,1.6-1.1,2.1c-0.9,0.6-1.1,0.1-1.9,0.5c-0.8,0.4,0.1,1.2-1.1,2.4c-1.1,1.2-2.8,5-3.9,5.7s-4,0.6-4,0.6s-4.6-4.9-9.8-5.4&#10;&#9;&#9;s-10,1.3-10,1.3L151,182.5l-1.3,0.8l114.6,90.1c0,0-0.3,2.2,0.7,4.5c1.1,2.4,8,4.7,11.2,5.3c3.2,0.7,6.4,3.2,6.4,3.2&#10;&#9;&#9;s0.7,2.7,0.6,4.3c-0.1,1.7,3.1,13.7,9.4,18.9c6.3,5.2,18.4,3.3,21.6,2.7c3.2-0.6,4.7-2.1,4.7-2.1l5.2-1.4l4.6,3.7&#10;&#9;&#9;c0,0,1,7.8,3.2,17.2c2.2,9.4,5.1,11,5.1,11c-0.9,2,0.4,2.6,0.4,2.6c-1,1.7,1.3,2.3,1.3,2.3s0.7,0-0.6,3.2c-1.2,3.3-0.4,7.4-0.4,7.4&#10;&#9;&#9;s-0.8,5.1,0.1,5.7c0.9,0.6,1.8-5,1.8-5c0.9,1.7,3-0.1,3-0.1s0.7,13.6,1.1,18.4s2.4,8.7,5.5,15.1s7.7,9.3,11.3,6.8&#10;&#9;&#9;c3.6-2.5,2.9-11.3,0.1-17.1c-2.7-5.8-17.4-30.6-17.4-30.6c0.5-1.2-0.4-4.6-0.4-4.6s0,0,0.5-0.3c0.5-0.3,0.4-1.6,0.4-1.6&#10;&#9;&#9;s0,0,0.9-0.6c0.9-0.6,0.5-2.7,0.5-2.7s0.4-0.9,1.1-2.5c0.6-1.6-0.4-2.8-0.4-2.8c0.1-1.5-1.9-1.8-1.9-1.8s0,0,0.8-4.7&#10;&#9;&#9;c0.8-4.7-1.5-6.5-1.5-6.5C344.4,320.7,344.5,318.4,344.5,318.4z M352.7,313.4c2.7-0.6,3.4-1.2,3.5,0.1s0,3.8,0.8,4.8&#10;&#9;&#9;c0.8,1,0.3,1.4,0.1,1.2c-0.3-0.1-11.9-4.9-11.9-4.9S350,314,352.7,313.4z M333.8,314.8l1.9,1l-0.3,5.9c0,0-0.9-3.9-1.5-5.7&#10;&#9;&#9;L333.8,314.8z M337.3,338.3c0,0-2.3-7.2-2.6-10.3c0,0,2.6,5.1,3.3,6.2C338.6,335.3,337.3,338.3,337.3,338.3z M346,361.6&#10;&#9;&#9;c0,0,13.7,20,14.8,25.6c1.1,5.6-0.2,10.1-5.1,7.6c-4.9-2.5-7.2-12.2-8.4-15.8C346.2,375.4,345.2,370.7,346,361.6z"/>
	<path id="XMLID_8_" fill="#2D2D2D" d="M361.5,488.8c2.5,1,16,0.5,16.4-2.3c0.3-2.8-0.1-1-0.1-1l285.6-34.9c0,0,0.5,2.3,2.6,2.2&#10;&#9;&#9;c2.1-0.1,3-1.3,3-1.3s1.3,1.3,2.8,0.3c0,0,1.7,0.4,2.9-0.5c0,0,2.7,0.4,3.1-0.5c0.5-0.9,0.2-2.1,0.2-2.1l5.1-0.5c0,0-0.5,0.8,6-0.1&#10;&#9;&#9;c6.5-0.9,12.6-0.4,12.6-0.4s-0.6,7.3,2.8,19.5c3.4,12.2,4.4,14.2,4.5,16.2c0.1,2-2.9,2.9-1.2,4.9c1.7,2,3.5,2.4,2.7,4.3&#10;&#9;&#9;c-0.8,1.9-5.2,1.1-5.7,15.2c-0.5,14.1-5.3,25.4-5.2,27.6c0,2.2,1.2,5.4,1.6,5.7s-1.1,5.7-1.3,7.6c-0.2,1.9,0,3.5,0,3.5&#10;&#9;&#9;s-28-5.2-39.2-8.6c-11.2-3.4-17.4-5-17.4-5l0,2.3c0,0,14.8,4.4,23.9,6.7c9.1,2.3,33.7,8,33.7,8s4.7,4.6,8.3,4.7&#10;&#9;&#9;c3.6,0.1,6.7-1.4,6.7-1.4l246,28.8l-0.1-7.3l-222.8-21.1c0,0,1.9-3.6-1.6-4.4s-11.2-5.4-11.2-5.4s20.3-22.1,33.5-43.7&#10;&#9;&#9;c13.2-21.6,35.5-66.5,35.5-66.5s1.4-0.4,1.6-0.9c0,0,2.8,1.6,3.9-3.2l237.5-21.1c0,0-0.8,1.1,1.4,0.9c2.2-0.1,7.1-0.4,8.7-1&#10;&#9;&#9;c1.6-0.6,0.4-6.6-1.9-6.6c-2.3,0-8.9,0.2-8.9,1.9l-235.6,20.2c0,0,1.9-3.4-4.8-3.3c-6.7,0.1-16.6,0.8-20.3-0.1&#10;&#9;&#9;c-3.7-0.9-8.3-2.8-8.3-2.8s2-0.8-0.7-2c-2.7-1.1-6.7-5.5-8-7.7c-1.3-2.2-6.1-21.7-7.7-22.6c-1.6-0.9-15.2-10.3-16.5-10.5&#10;&#9;&#9;c-1.3-0.2-3.6-1.5-3.6-1.5s4.2-5.2,5.1-9.1c0.9-4,0.9-9.1,1.4-11.1c0.4-2,0-5.8-5-8.4c-5-2.6-15-2-17.2,2.4&#10;&#9;&#9;c-2.2,4.4-0.4,13.4-0.4,13.4s-3.1,0,1.2,6.4l0.3,2.6c0,0-3.6,0.3-4.3,1c-0.7,0.7-0.9,1.6-0.9,1.6s-0.5-0.7-2.5,0.8&#10;&#9;&#9;s-10.9,3.4-11.3,4.3c-0.5,0.9,0,1.7,0,1.7s-6,0.9-9.2,9.2c-3.2,8.3-7.3,23.5-7.3,23.5s-1,1.8-0.8,2.9c0.2,1.2,0,1.7,0,1.7&#10;&#9;&#9;s-3.2,3.8-5.7,10.3c-2.5,6.5-4.9,8-5.4,8c-0.5,0-3.6,0-4,2.5c-0.4,2.4-0.4,2.4-0.4,2.4l-289.2,34.2c0,0,2.1-1.3-2.5-1.3&#10;&#9;&#9;c-4.5,0.1-14.6,0.9-14.6,3C359.3,483,359.1,487.8,361.5,488.8z M754.4,433.1l-8,1.3c0,0-1-3.6-1.7-5.5c-0.7-1.9,2.7-3,1.9-4.8&#10;&#9;&#9;c-0.8-1.8-0.3-4.4-0.3-4.4C747.2,420,754.4,433.1,754.4,433.1z M725.6,542.6c0.2-1.7,3.6-1.5,4.3-2.5c0.7-1,0.3-1.9,1.9-2.6&#10;&#9;&#9;c1.6-0.6-0.7-1.6-1.8-4.1c-1.1-2.4,5.9-19,7.5-25.2s3.8-11.6,4.9-19.7c1.1-8,7.2-31.8,7.3-33.7c0.2-1.9-2.6-12.5-2.6-13&#10;&#9;&#9;c0-0.5,37.8-4.2,37.8-4.2s0,0,2,1.3c2,1.3,2.4,0.9,3.5,0.8c1.1-0.1,1.8-0.8,1.8-0.8c-27.3,67.3-66.2,107-66.7,107.2&#10;&#9;&#9;C725.6,546,725.3,544.3,725.6,542.6z M679.6,442.8c2.9-2.1,11.9-11.8,11.9-11.8s1,0.2,1.4-1.8c0.4-2,3.4-4.1,4.4-7.7&#10;&#9;&#9;s1.5-6.6,1.5-6.6c0.4,2.5,2.8,3.4,2.5,5.5s-2,3.5-1.1,5.5c0.9,2,1.3,1.2,1.3,3.4c0,2.2-0.3,8.4-0.3,8.4s-4.2-0.6-7,2.1&#10;&#9;&#9;c-2.8,2.6-9.9,2.7-11.1,2.6c-1.2-0.2-1.3,2.9-1.3,2.9l-3.7,0C678,445.2,676.7,444.9,679.6,442.8z"/>
	<path id="XMLID_18_" fill="#2D2D2D" d="M321.1,534.3c0,0,1.5-3.5-4.2-8.4c-5.7-4.9-5.2-12.3-5.2-12.3s6.4-0.5,7.2-1&#10;&#9;&#9;c0.8-0.5-0.7-7.1,0.7-7.6c1.3-0.5,0.8-8.1,0.8-8.1s0.5-5.2,3-11.6c2.5-6.4,0.2-10.6,0.2-10.6s3.5-18.9,0.2-26.1&#10;&#9;&#9;c-3.4-7.2-13.3-5.9-13.3-5.9l0.3-4.9c0,0,3.7,1.5,5.9,1.7c2.2,0.2,3.4,0.3,4.5,1.5c1.2,1.2,5.4-0.7,7.9,0.2&#10;&#9;&#9;c2.5,0.8,8.2-1.3,10.1-0.5c1.9,0.8,4.4,1.9,4.4,1.9s0.8-0.7,8.1,1.5c7.2,2.2,11.9-0.8,11.9-0.8c1.7,0.8,6.9,0.3,7.9,0.3&#10;&#9;&#9;s10.6,4.5,12.3,2.5c1.7-2-0.8-3.4-0.8-3.4l5.2-4c0,0,3.4,5.6,5.6,5.2c2.2-0.3,0.7-3.4,0.7-3.4s3.2,2.2,4.5,0&#10;&#9;&#9;c1.3-2.2-3.2-4.5-7.9-7.6c-4.7-3-13.5-0.3-19.9-1c-6.4-0.7-5.4,1.3-10.8-0.7c-5.4-2-14.3-1.2-20.2-2.2c-5.9-1-11.8-7.2-17.5-8.6&#10;&#9;&#9;c-5.7-1.3-15-5-17.5-5.7c-2.5-0.7-8.6-7.7-8.6-7.7s0,0,0.5-3s2.4-7.7,2.4-7.7s2.4-0.8,2.4-11.4s-9.1-15.1-15.8-15.1&#10;&#9;&#9;c-6.7,0-11.4,5.2-12.4,8.9c-0.9,3.7-2.3,16-1.2,17.8c1,1.9,1.9,2.9,0.7,3.4c-1.2,0.5-0.8,4.2-2.4,4.7s-3.7,1.9-6.6,2.2&#10;&#9;&#9;c-2.9,0.3-8.6-0.5-14-2.5c-5.4-2-15.8-6.6-18.2-8.9c-2.4-2.4-4.4-1-4.4-1l-1.5-0.8c0,0,6.6-12.8,8.4-12.8c1.9,0,5.6-3.2,6.9-5.4&#10;&#9;&#9;c1.3-2.2,4.5-2.2,7.1-2.4c2.5-0.2,8.1-7.1,8.8-10.8c0.7-3.7-1.3-3.2-1.3-3.2c0.2-1.7-3.9-2.2-3.9-2.2c-0.5-1.9-3.7-1.5-3.7-1.5&#10;&#9;&#9;s0-1.9-3.4-1.5c-3.4,0.3-3.9,3.4-3.9,3.4s-9.6,9.3-12.3,11.1c-2.7,1.9-2.5,3.9-2.5,3.9s-17.8,23.6-18.3,26.1s1.2,3.4,9.1,8.9&#10;&#9;&#9;c7.9,5.6,32.1,21.5,32.1,21.5s2.2,15,4.5,29.6c2.4,14.6,8.2,20.4,8.2,22.2c0,1.9-0.5,4.7-1.7,6.2c-1.2,1.5,0.9,6.7-0.1,7.9&#10;&#9;&#9;c-1,1.2,0.5,1.9,0,4.4s0,3.5,0,3.5l-110.1-68.7v3l113.6,74.9c0,0,0,1.1,0,5s1.9,3.9,1.9,3.9s0.3,13.6-0.4,16.4s-1,15.7-0.9,17.9&#10;&#9;&#9;c0.1,2.3,2.4,10.4,4.9,12.4s11.1,2.4,14.3,2.4s4.9-4.8,5.7-8.2c0.8-3.4,3.9-4.7,3.8-9.6c-0.1-4.9-0.5-11.4-0.5-11.4&#10;&#9;&#9;c2.7,0,4.4-4.4,4.4-4.4l1.7,12.1l3.7,0.3l-3-20.5c0,0,3.4,0.7,8.1,4c4.7,3.4,11.1,4.7,12.1,4.7s116.5,45.8,116.5,45.8l1.7-4.7&#10;&#9;&#9;L321.1,534.3z M293.8,536c-1.4,0.5,0.2-3.4,1.1-6.2c0,0,0.9,1.6,0.9,3.1S295.3,535.5,293.8,536z M299,516.9c-0.5,2.5,0,6.4,0,6.4&#10;&#9;&#9;s-1.8-7.1-3.3-10.7l4.3-3.4C300,509.2,299.5,514.4,299,516.9z"/>
	<path id="XMLID_21_" fill="#2D2D2D" d="M735.6,309.9c0,0-8.3-26.6-7-29.6c1.2-3-4.3-14-6.1-19.3c-1.8-5.4,2.2-15,2-21&#10;&#9;&#9;c-0.2-6,7.5-9.2,10.5-18.6c2.9-9.3,3.1-11.2,3.1-11.2l4-2c0,0,77.7,17.3,147.8,36c70.1,18.7,85,23,85,23s4-1.2,0.4-4.6&#10;&#9;&#9;c0,0-66.9-18.2-89.6-25c-22.8-6.8-127.9-32.6-143.4-34.5l1-3.6c0,0,6.5-1,5.5-4.5s-4.7-10.4-4.9-16.9c-0.2-6.5-0.3-23.3-4.6-29.7&#10;&#9;&#9;s-11.5-11.5-11.5-11.5s0-0.5-1.5-2.9c-1.4-2.4-1.4-2.4-1.4-2.4s5.4-9.4-0.4-19.3c-5.8-9.8-19-6.4-22.3-4.4c-3.3,2-4.7,9.7-3,10.7&#10;&#9;&#9;c0,0,1.1,6,1.5,7c0.4,1,0.8,1,0.7,2.1s-0.6,4.5-0.2,5s1.8,0.4,1.9,0.7c0.1,0.3,0.4,1.4,0.3,1.8c-0.1,0.5,0.1,0.9,0.2,1.1&#10;&#9;&#9;c0.2,0.1,0.9,0.2,0.9,0.2s-0.3,0.6-0.3,0.8c0,0.2,0,0.9,0.6,1.3c0.6,0.3,1.5,1.4,1.5,2c0,0.7,3,0.8,3,0.8s-6.8,7.8-9.2,14.8&#10;&#9;&#9;s-2.8,20.6-2.8,20.6s-1.6,0.9-2.8,0.6c-1.2-0.2-4.1-1.1-5.1,0.7c-1,1.8-1.6,4.5-1.6,4.5s-5.5,4.5-6.1,4.6c-0.5,0-3.1-0.3-6.3,1.2&#10;&#9;&#9;c-3.2,1.5-4.1,3.7-4.1,3.7s-23.2-3.4-52.6-5.2s-141.5-6.7-143.9-6.5c-2.4,0.3-2.3,4.4,0.2,4.7c2.5,0.3,125.2,5.5,143.5,6.5&#10;&#9;&#9;s52.9,5.2,52.9,5.2s-0.5,1.9,1.3,1.8c0,0,0.9,2,3.7,0.9c0,0,1,0.6,2.8-0.1c0,0,2.5,0.5,3.4-1.1l19.2,3.2c0,0-2.8,6-3.2,13.5&#10;&#9;&#9;s0.7,19.9,0.7,19.9s-3.1,4.6-3.4,7.9c-0.3,3.3-1.5,3.7-2,8c-0.5,4.3-0.5,4.3-0.5,4.3s-5.6,8.1-4.9,11.8c0,0-2.4,2.5,0.4,6.7&#10;&#9;&#9;c0,0-5.4,19.1-8.8,22.3c-3.3,3.2-7.5,6.8-9.1,7.2c-1.6,0.5-6.9,0.7-6,3.3c0.9,2.6,6,4.1,11.1,4.1s19.9-2.1,19.8-3.8&#10;&#9;&#9;c-0.1-1.6-2.6-10.5-0.9-13.4c1.7-2.9,7.3-17.2,8.3-17.8c1-0.6,4.9-0.8,5.1-4.1c0,0,0.1,8.1,1.2,9.7s2.5,2.1,2.5,2.1&#10;&#9;&#9;s6.5,16.3,5.9,18.3s-6.4,4.9-9.2,5.8s-6.1,1-6,3.5L431.7,306l0.2,6.5l622.5,3.6l-0.2-4.9L735.6,309.9z M698.4,195.4&#10;&#9;&#9;c0,0-2.2-0.7-5-1.3c-2.8-0.6-4.4-0.8-4.4-0.8s3.6-3.4,4.7-3s4.6,1.2,4.6,1.2L698.4,195.4z"/>
	<path id="XMLID_24_" fill="#2D2D2D" d="M1139.7,352.3c1.8,2.7,5.3,2.7,7.7,5.6c2.4,2.9,5.3,3.7,5.3,3.7l4.4,4.1&#10;&#9;&#9;c0.3,2.5-4.4,5-5,5.3c-0.6,0.3-2.1,3.5,1,5c3.1,1.5,3.5,2.7,5.5,4.1c1.9,1.5,7.2,0.9,7.5-0.9c0.3-1.8,1.9-5.1,1.9-5.1l89.5,79.9&#10;&#9;&#9;v-5.6l-88.3-78.6c0,0,1.1-2.4,1.1-3.6s5.9-18.4,5.9-18.4s1.6-1.6,3.1-2.8c1.5-1.2,2.4-3.4,2.4-5.5c0-2.1,3.2-16.9,3.5-20.2&#10;&#9;&#9;c0.3-3.2,0-6.2,0.6-7.2c0.6-1,0-0.7-0.1-3.8c-0.1-3.1,6-17.4,6-17.4c3.2-6.3,0.9-7.7,0.9-7.7s0-0.9,1.9-7.2s-0.4-14.1-0.4-14.1&#10;&#9;&#9;s1-1.5,0.7-3.8c-0.3-2.4-0.3-2.1,1.2-1.6c1.5,0.4,2.2,3.5,2.7,2.1c0.4-1.5-1.3-6.8-1.3-6.8s6.5-5,5.7-6.3c-0.7-1.3-6.8,3.7-6.8,3.7&#10;&#9;&#9;c-0.3-1.9-4-2.4-4-2.4s0-0.7,0.4-2.8c0.4-2.1,0.4-39.1,0.7-42.7c0.3-3.7,21.5-34.6,22.5-38c1-3.4-2.5-20.2-4.6-30.4&#10;&#9;&#9;c-2.1-10.2-4-8.5-4-8.5s-1-8.1-1.5-10.5s-1.9-5.7-3.8-7.4c-1.9-1.6-2.7-0.3-2.7-0.3c-1.6-1.4-3.2,0.5-3.2,0.5c-0.7-1-2.2,0-2.2,0&#10;&#9;&#9;c-1.3-0.1-2.2,1.2-2.2,6.6c0,5.5,8,11.8,7.8,13.4c-0.1,1.6,2.1,29,1.6,30.9c-0.4,1.9-10.3,12.8-12.8,15.5&#10;&#9;&#9;c-2.5,2.7-22.4,12.5-22.4,12.5s0.3-4.1,1.5-9.1c1.2-5-0.3-16.1-6-19.7c-5.7-3.7-16.5-1.3-19.3,3.8c-2.8,5.2-0.9,11.3,0,13.3&#10;&#9;&#9;c0.9,1.9,0,3.4,0.6,5.6c0.6,2.2,3.1,8.5,3.1,8.5l-2.9,2.4c0,0-5,1.5-7.8,2.8c-2.8,1.3-21.8,2.8-26.7,2.4s-14.3-14.7-17.7-20.6&#10;&#9;&#9;c-3.4-5.9-4.9-3.4-4.9-3.4s-4.7-6.5-5-9.7c-0.3-3.2-3.8-8.4-3.8-9.7s-1.9-0.7-1.9-0.7c-0.3-1.5-3.2-0.9-3.2-0.9&#10;&#9;&#9;c-0.6-1.3-3.1-0.1-3.1-0.1s-0.9-1.6-1.5-0.7c-0.6,0.9-0.6,8.7,0.9,11.1c1.5,2.4,8.3,9.6,9,11.1c0.7,1.5,1.3,3.8,1,4.3s0,1,0,2.1&#10;&#9;&#9;c0,1,13.6,23.9,20.2,30.7c6.6,6.8,33.5,8.1,35.4,8.1c1.9,0,4,18.1,7.5,25.2c3.5,7.1,4.7,6.2,4.7,6.2s-0.6,0.6,0,3.4&#10;&#9;&#9;c0.6,2.8-0.9,5.2-0.9,5.2s-4.6,0.4-6.2,2.2c-1.6,1.8-2.2,9.4-2.7,12.2c-0.4,2.8,1.6,5.9,2.1,7.2c0.4,1.3-3.2,29-2.7,32.6&#10;&#9;&#9;s1.8,11.2,1,14c-0.7,2.8-0.9,4.9,0.4,6.5s3.2,7.1,6.2,8.5c3,1.4,4,3.8,4,3.8s-1.8,0.1-3.4-0.9c-1.6-1-180.7-171.1-180.7-171.1&#10;&#9;&#9;l-2.5,1.8l179.5,173c-1.2,0.7-0.3,2.1-0.4,1.9C1139.5,348.2,1137.9,349.7,1139.7,352.3z M1156.7,337.7c0,0,1,0,2.2-3.2&#10;&#9;&#9;s3.1-31.8,3-36.6c-0.1-4.8,1.4-5.9,1.5-4.5c0.1,1.3-1.1,18.5-1.4,23.9c-0.3,5.4-0.4,7.6-0.8,11.6s-2.1,11.2-1.8,13.8&#10;&#9;&#9;c0.3,2.7,7.1,5.7,7.1,5.7s-2.5,5.6-5.2,8.8l-3.5-3.6L1156.7,337.7z"/>
	<path id="XMLID_27_" fill="#2D2D2D" d="M1125.3,644.3c0,0,1.4-1.6,0.9-3c-0.5-1.4-6.9-6.9-8.1-8.8c-1.2-1.9-3.4-6.5-4.9-7.8&#10;&#9;&#9;c-1.6-1.3-2.9-8.3-2.9-8.3s1.2-1.1,1.9-2.1c0.7-1,1.6-0.4,2.1-1.6c0.4-1.2-2-7.9-2-7.9s0.7-1.8,3-7.1c2.3-5.3,3.6-14.8,4.2-16.3&#10;&#9;&#9;c0.5-1.5,1.7-10.6,2.1-19.6c0.3-9-0.6-15.5-0.6-15.5c0.5-2.4-0.1-2.9-0.1-2.9c0.3-2.4-1-3.7-1-3.7s0.3-0.3,0.5-4.1&#10;&#9;&#9;c0.2-3.8-1.4-4-1.4-4c-0.1-3.8-0.7-4.6-0.7-4.6c-0.1-2.6-1.8-4.8-1.8-4.8c-0.6-2.2-1.2-4.9-1.2-4.9c0-2.1-0.5-2.7-0.5-2.7&#10;&#9;&#9;s1.5-11.6,2.7-20.8c1.2-9.2,3.5-16.4,5-18.5c1.5-2.1,7.7-1,12.6-1.8c4.9-0.8,15.1-6.4,15.1-6.4s2.8-0.5,8.5-1.4&#10;&#9;&#9;c5.7-0.9,12.4-5.1,15.3-6.9c2.9-1.8,8.4-5.1,11-6.1c2.6-1,3.4-1.1,3.4-1.1s0.8-0.2,3.6-1.4c2.8-1.2,3.4-2.7,3.4-2.7&#10;&#9;&#9;s1.8,0.3,2.7,0.5c0.9,0.2,2.1,1,2.8,0.1s-1.6-1.6-1.6-1.6l1.2-1c0,0,2.1,0.9,3.1,0.5c1-0.3,0.1-1.6,0.1-1.6s0.8-0.1,1.3-0.8&#10;&#9;&#9;c0.5-0.6-0.3-1.8-0.3-1.8l-4.8-1.8l0.7-0.3c0,0,1.9,0,2.7-0.1c0.8-0.1,1.4-1,1.4-1.6c0-0.6-3.8-0.9-5.3-0.5&#10;&#9;&#9;c-1.5,0.3-2.1,0.8-2.9,1.4c-0.9,0.5-6.5,4.5-8,5.4c-1.5,1-16.1,6.3-22.4,6.6c-6.3,0.3-12.1,1.8-15.1,3.3c-3,1.4-11.9,4.7-13.8,5.1&#10;&#9;&#9;c-1.9,0.4-5.8,0.5-9-0.7c-3.2-1.2-10.9,1.4-12.9,2.3c-2.1,0.8-5.3-0.9-5.3-0.9s0.6-2.7,1.2-3.9c0.5-1.2,2.3-8.2,2-9&#10;&#9;&#9;c-0.3-0.8,0-1.9,0.3-2.9c0.3-1,0-5.6,0-7.3c0-1.7-2.3-9.5-10.7-10c-8.4-0.5-12.6,4.4-13.3,8.9c-0.7,4.5,1,7.4,1,7.4s-0.9,0.3-0.1,4&#10;&#9;&#9;c0.8,3.6,3,4.5,3,4.5s0.1,1.9,0,3.8s-2.2,4-4.9,4.6c-2.7,0.5-5.3,2.3-6,2.3s-5.5-1.5-9-1.5s-8,2.7-9.2,3&#10;&#9;&#9;c-1.2,0.3-11.6-1.8-13.6-2.2c-1.9-0.3-7.5-4.1-13.4-5.1s-12.5-5.6-14-6.4c-1.4-0.8-2.6-2.7-3.2-4c-0.5-1.4-2.9-2.6-4.1-3.4&#10;&#9;&#9;c-1.2-0.8-2.9-0.6-2.9-0.6s-1.4-0.5-2.4-0.5c-1,0-1.6,1.6-1.6,1.6c-1.4,0.3-1.6,1.4-1.6,1.4c-0.8,0.3-1.1,1.3-1.1,1.3&#10;&#9;&#9;s-0.3,0.2-0.6,1.6c-0.3,1.4,0.2,3.8,0.2,3.8c0,0.9,0.6,1,0.6,1s0.4,1.8,2.3,2.3c1.8,0.4,1.4-1.4,1.4-1.4s6,3.9,8.2,4.1&#10;&#9;&#9;c2.3,0.2,15.8,13.6,21.2,14.2s9,1.8,16.9,4.1s13.2,1.8,14.8,1.8c1.6,0,2.1,2.7,3.5,6.2c1.4,3.5,5.3,16.9,5.3,21s-0.8,7.8-0.8,7.8&#10;&#9;&#9;c-1.2,1-0.4,2.7-1.2,3.9c-0.8,1.2-3.3,8.4-3.3,8.4c-1.2,1.2-1.8,5.2-1.8,9.3c0,4.1,18.5,44,17.7,45.4s-1.4,3.9-1.4,7.4&#10;&#9;&#9;s3.1,15,3.1,15c-1,2.3-2.1,8.2-2.1,8.2s-4.3,7-5.3,7.8s-1.8,5.1-1.8,5.1l-108.7-68.2v3.5l108.5,68.8c1.1,3.5,3.9,2.8,4.6,3&#10;&#9;&#9;c0.7,0.2,4.7,3.2,5.4,4.2c0.8,1,2.4,0.7,3,1.1c0.6,0.4,2.7,0.6,2.7,0.6s9.9,3.8,10.5,4.6c0.7,0.8,1.5,1.6,2.8,3.6&#10;&#9;&#9;c1.3,2,5.1,3.6,6.3,3.8c1.2,0.2,1.4-0.2,1.4-0.2c0.8,0.1,1.1-1.2,1.1-1.2c0.8,0.2,1.6-0.4,1.6-0.4l136.3,64.6l-0.5-3.6&#10;&#9;&#9;L1125.3,644.3z M1106.9,636.9l-4.7-1.9l-0.4-1.1c0,0,0,0,0.4-0.8c0.4-0.8-0.7-1.5-0.7-1.5c0.3-0.9-0.7-1.1-1.7-1.6&#10;&#9;&#9;c-1.1-0.6-6.3-6.6-6.3-6.6s-0.2-1,0.3-2.2c0.5-1.2,1.7-3.3,2.6-4.1c0,0,0.8,0.9,1.6,1.4c0.8,0.5,0.8,0.3,1.2,0.4&#10;&#9;&#9;c0.5,0.1,2-0.1,2.5-0.4c0.5-0.3,3.9,9.8,4.2,11.1c0.3,1.3,0.2,2.6,0.6,3.6C1106.9,634.2,1106.9,636.9,1106.9,636.9z"/>
	<path id="XMLID_2_" fill="#2D2D2D" d="M663.9,865.4l349.2,3c0,0,0.8,1.2,25.6,0.5c4.7-0.1,7.7-1.7,7.7-1.7l212.3-4.6V857l-210,5.7&#10;&#9;&#9;c0,0,2-2.1-3-4.2c-5-2.1-5.7-5.2-5.7-5.2s13.4-37.2,12-46.2c-1.3-9-1.3-9-1.3-9s-7.4-25.7-13.7-30.6c-6.4-4.9-3-4.2-4.7-9&#10;&#9;&#9;c-1.7-4.9-4.7-10.1-4.7-15.3c0-5.2,5.7-17.4,5.7-17.4s13.5,3.7,14.2,3.7s-0.6-3.6-0.3-4.5c0,0,3.4,1.2,5,0.7c1.5-0.5,2.3,0,2.6,0.3&#10;&#9;&#9;c0.3,0.3,0.6,0.6,0.9,0.8c0.3,0.2,2.1,0.6,1.8-0.3c-0.3-0.9-1.1-2.5-1.1-2.5s1.8,0.3,2.1,0.9c0.3,0.7,0.4,1.2,1.1,0.8&#10;&#9;&#9;s0.2-2.5,0.2-2.5s0.4,1,1.1,0.8c0.6-0.2-0.1-2.6-0.1-2.6s2.4,1.2,2.7,0c0.3-1.2-2.6-2.5-2.6-2.5s0.8-1.3,0.9-1.7&#10;&#9;&#9;c0.1-0.4-0.6-1.4-1.8-0.8s-2.5,1-2.8,1c-0.3,0-1.9-0.7-4.9-0.2c-2.9,0.5-6.2,0.2-6.6,0.1c-0.4-0.1-0.7-0.7-1.4-0.7&#10;&#9;&#9;c-0.8,0-7.5-5.6-9-7.3c-1.5-1.7-3.8-3.9-3.8-3.9s0.3-2.2-0.4-4.1c-0.8-1.9-5.3-7.3-6-7.4c-0.7-0.1-3.6-2.2-3.6-2.2s5.4,0.3,5.7-0.4&#10;&#9;&#9;s0.4-3.3,0.8-3.8c0.4-0.5,0.8-0.9,0.9-1.2c0.1-0.3-0.6-0.8-0.6-0.8s0.9-0.1,1.1-0.3c0.2-0.2,0.4-0.8,0.4-1c0-0.2-0.3-2.4-0.3-2.5&#10;&#9;&#9;c0,0,2.2-0.3,2.3-1.1c0.1-0.8-3-4.4-2.5-5.3c0.5-1,1-1.2,1-2.3c0-1,0.3-4.8,0.3-4.8s1.4-3.6-1.1-6.8c-2.5-3.1-9.6-5-15.2-1.9&#10;&#9;&#9;c-5.6,3-9.1,11.7-9.1,11.7s-3.9-6.4-4.5-7.9s0.2-2.3-0.8-4.2c-1-1.9-1.7-4.1-1.7-4.1s-0.4-21.6,0.4-23.2c0.8-1.6,3.9-5.8,5-8.9&#10;&#9;&#9;c1.1-3,0.9-3.7,1.3-6.8c0.3-3,1.3-4.3,0.8-5c-0.5-0.7-3.3,0.6-3.7,2.9c-0.4,2.3-1.2,4.5-1.3,4.2c-0.2-0.3,0.1-5.2,0.8-6.4&#10;&#9;&#9;c0.7-1.2,1.9-3.2,1.7-4.7c-0.3-1.5-3.3,1-3.3,1s-1.6,0.1-2,0.9c0,0-3.2,0.4-3.5,1.3c-0.3,0.9-0.3,1.6-0.3,1.6s-2.1,0.4-2.2,1.6&#10;&#9;&#9;s-0.6,8.8,0,11.8s-5.1,24.9-5.3,30.4c0,0-2.9-0.5-3.2,1.4c-0.3,1.9,1.9,0.4,2,3.8s1.5,6.3,2.2,8.1c0.7,1.7,0.8,4.1,0.8,6&#10;&#9;&#9;c0.1,1.9-1.1,3,0.8,4.9c1.9,1.9,1.4,5.1,0.8,7.9c-0.6,2.8-1.6,5.9-1.1,7.4c0.5,1.5,3.8,18.4,2.7,24.1c-1.1,5.7-6.2,26.3-6,27.2&#10;&#9;&#9;c0.2,0.9,3.6,0.2,5.5,1.8s2.8,2.1,2.8,2.1s-1.2,12-0.1,12.5c1.1,0.5,1.7,8.9,4.6,11.3s32.3,27.4,31.8,29.8&#10;&#9;&#9;c-0.6,2.3-3.1,3.8-3.8,5.8c-0.7,2-3.7,15.6-6.2,24.2c-2.5,8.6-4.3,11.9-4.3,11.9s-1.9,1-1.6,3.1s3.1,4.5,3.1,4.5s-1.6,2.4-1.5,5&#10;&#9;&#9;c0,0-2.3-0.2-3.3,6.2l-348.4-3.3V865.4z"/>
	<path id="XMLID_31_" fill="#2D2D2D" d="M960.3,772.3c-113.7-54.2-339.2-94.8-339.2-94.8s-4.1-4.7-7.4-5.8&#10;&#9;&#9;c-3.3-1.2-8.9,0.2-10.5-0.6s-16.8-16.9-16.8-16.9s-0.8-8.2-0.7-13c0.2-4.9,1.4-12.6,0-18.1s-11.9-14.2-11.9-14.2l-0.6-7.6&#10;&#9;&#9;c0,0,1.6-2.3,3.3-4.1s1.7-7,1.7-9.7c0-2.7-0.8-12.8-3.3-16.1c-2.5-3.3-16.9-2.5-19.8,5.2c-2.9,7.8,0.8,13.6,2.1,16.5&#10;&#9;&#9;c1.4,2.9,1.2,7.8,1.2,7.8s-8.4-0.2-15.4,4.1c-7,4.3-9.3,17.5-9.7,22c-0.4,4.5,1.2,4.1,1.2,7s-4.7,9.5-2.9,17.7&#10;&#9;&#9;c1.7,8.2,1.7,13.4,1.7,13.4c-237.3-6.4-388.3,29.7-391.3,33.2c-2.7,3.3,1.9,5.4,1.9,5.4c170.3-43,389.3-33.8,389.3-33.8&#10;&#9;&#9;s-0.4,1.6-0.1,3.4c0.3,1.9,2.8,1.9,2.8,1.9c1.7,1,3.4,0.7,3.4,0.7s-0.6,1.6,1.4,10.1c1.9,8.6,11.9,26.2,11.9,29.7&#10;&#9;&#9;c0,3.5,0,2.3-0.4,3.5s-1.2,1.6-1,3.3c0.2,1.7,3.7,1.4,3.7,1.4c-0.6,7.8,0,14.8,0,14.8s-3.9,2.5-5.1,9.1c-1.2,6.6-6.4,12.8-6.4,12.8&#10;&#9;&#9;c-2.1,0-2.3,6.4-6,8.2c-3.7,1.7-8,6.6-4.1,9.9c3.9,3.3,7.4,10.5,7.4,10.5l-227.1,67.2l0.7,8.1l451.2-134v-6.9l-180.4,52.7&#10;&#9;&#9;c-0.3-4.7-3.7-3.7-7-4.1s-3.9-2.6-3.9-5.5s-0.8-3.9-0.8-3.9l-1.1-21c0,0,8.4-10.6,9.7-11.3c1.4-0.8,1.7-9.6,3.6-20.2&#10;&#9;&#9;c1.9-10.6-1.6-31.5-1.6-31.5s19,3.1,23,3.9s7.1-0.2,7.1-0.2c1.7,0,4.5-0.5,4.5-0.5c2.3,0.6,5,0.5,5,0.5&#10;&#9;&#9;c239.6,47.2,335.4,93.6,335.4,93.6C963,775.2,960.3,772.3,960.3,772.3z M565.7,775.6c-0.7,4.2,0,5.4,0,5.4l-14.3,4.8&#10;&#9;&#9;c0,0-2.9-3.8-3.2-6.4c-0.3-2.6,0.3-7.6,2-9c1.7-1.5,1.8-4.7,1.8-4.7s5.1-3.1,7.8-7.6c0,0,0.6,1.3,1,4.4S566.4,771.4,565.7,775.6z"/>
</g>
</svg>