<?xml version="1.0" encoding="UTF-8"?>
<svg width="1866.7" height="1306.7" version="1.1" viewBox="0 0 1866.7 1306.7" xml:space="preserve" xmlns="http://www.w3.org/2000/svg"><defs><clipPath id="clipPath18"><path d="m0 980h1400v-980h-1400z"/></clipPath><clipPath id="clipPath30"><path d="m311.26 836.18h729.2v-729.21h-729.2z"/></clipPath><clipPath id="clipPath46"><path d="m324.76 498.62c0-201.36 163.24-364.6 364.6-364.6s364.6 163.24 364.6 364.6-163.24 364.6-364.6 364.6c-201.37 0-364.6-163.24-364.6-364.6"/></clipPath><clipPath id="clipPath54"><path d="m408.78 634.44h224.22v-224.22h-224.22z"/></clipPath><clipPath id="clipPath70"><path d="m435.03 608.19h171.71v-171.71h-171.71z"/></clipPath><clipPath id="clipPath86"><path d="m448.73 594.49h144.32v-144.32h-144.32z"/></clipPath><clipPath id="clipPath194"><path d="m395.81 714.92c-44.664-60.511-71.056-135.31-71.056-216.29 0-201.36 163.24-364.6 364.6-364.6s364.6 163.24 364.6 364.6c0 80.981-26.391 155.78-71.056 216.29z"/></clipPath><clipPath id="clipPath380"><path d="m324.76 498.62c0-201.36 163.24-364.6 364.6-364.6s364.6 163.24 364.6 364.6-163.24 364.6-364.6 364.6c-201.37 0-364.6-163.24-364.6-364.6"/></clipPath><clipPath id="clipPath400"><path d="m301.46 550.84h63.901v-170.73h-63.901z"/></clipPath><clipPath id="clipPath432"><path d="m294.13 550.84h17.101v-370.38h-17.101z"/></clipPath><clipPath id="clipPath448"><path d="m354.62 504.86h21.685v-172.87h-21.685z"/></clipPath><clipPath id="clipPath500"><path d="m1021.8 550.84h63.9v-170.73h-63.9z"/></clipPath><clipPath id="clipPath532"><path d="m1075.9 550.84h17.1v-370.38h-17.1z"/></clipPath><clipPath id="clipPath740"><path d="m0 980h1400v-980h-1400z"/></clipPath></defs><g transform="matrix(1.3333,0,0,-1.3333,0,1306.7)"><path d="m0.77823 0.27114h1400v980h-1400z" fill="#333"/><g clip-path="url(#clipPath18)"><g transform="translate(1054,498.62)"><path d="m0 0c0-201.36-163.24-364.6-364.6-364.6s-364.6 163.24-364.6 364.6 163.24 364.6 364.6 364.6c201.37 0 364.6-163.24 364.6-364.6" fill="#268c82"/></g><g clip-path="url(#clipPath30)"><g transform="translate(1040.5,471.57)"><path d="m0 0c0-201.36-163.24-364.6-364.6-364.6s-364.6 163.24-364.6 364.6 163.24 364.6 364.6 364.6c201.37 0 364.6-163.24 364.6-364.6" fill="#30b0a4"/></g></g></g><g clip-path="url(#clipPath46)"><g clip-path="url(#clipPath54)" opacity=".55"><g transform="translate(633,522.33)"><path d="m0 0c0-61.915-50.193-112.11-112.11-112.11s-112.11 50.194-112.11 112.11 50.193 112.11 112.11 112.11 112.11-50.193 112.11-112.11" fill="#fff"/></g></g><g clip-path="url(#clipPath70)" opacity=".8"><g transform="translate(606.74,522.33)"><path d="m0 0c0-47.417-38.438-85.854-85.854-85.854-47.417 0-85.855 38.437-85.855 85.854s38.438 85.854 85.855 85.854c47.416 0 85.854-38.437 85.854-85.854" fill="#61d4c9"/></g></g><g clip-path="url(#clipPath86)" opacity=".5"><g transform="translate(593.05,522.33)"><path d="m0 0c0-39.853-32.307-72.16-72.159-72.16-39.853 0-72.159 32.307-72.159 72.16s32.306 72.16 72.159 72.16c39.852 0 72.159-32.307 72.159-72.16" fill="#30b0a4"/></g></g><g transform="translate(573.36,522.33)"><path d="m0 0c0-28.98-23.493-52.472-52.473-52.472s-52.472 23.492-52.472 52.472 23.492 52.473 52.472 52.473 52.473-23.493 52.473-52.473" fill="#30b0a4"/></g></g><g clip-path="url(#clipPath194)"><g transform="translate(294.13,351.41)"><path d="m0 0 60.489 54.212h5.706l17.691-22.256 13.125 2.854 30.815-15.409 8.559 7.704 11.984-2.567 42.799 43.94 7.989-3.995 5.118 5.905 4.421-2.464h5.146l4.421 4.929 16.885-4.422 10.727 1.594 30.656-7.827 13.915 2.826 3.913 0.508 5.219-1.522 18.118 5.87 3.407 5.942 15.771 12.533 4.565 5.612 12.364 7.133 14.551 11.318h0.952l25.774-14.837 11.128-0.286 11.223-5.516 2.853 0.096 1.712-0.191 8.369-8.465 12.936-5.231 2.947 0.191 6.183-4.375 23.872-13.03 11.983 0.286 3.424-0.952 10.652 2.092 18.831-12.744 9.702-0.095 4.28-1.141 8.75 3.803 12.078 2.093 14.647 9.796 1.522-0.095 20.067-6.753s3.424 0.191 3.71 0c0.285-0.19 6.182 0.286 6.182 0.286l9.32 2.758 7.895-2.568 10.747 6.658 2.187-0.191 6.943-3.328 15.598-4.47 11.603-9.512 17.69-4.279 9.891 1.046 14.932 5.326 11.508-3.994 5.707 1.901 3.805-0.57 7.988-4.09 11.128 5.992c0.666 0.096 4.66-2.948 4.66-2.948-0.10608-400.12-754.6-390.36-753.73-45.081z" fill="#114056"/></g><g><g transform="translate(442.69,344.95)"><path d="m0 0 5.326 1.902 9.511-4.946 12.174 1.902s8.369 14.077 9.13 16.166c0.761 2.09 7.989 11.226 7.989 11.226l14.457 3.424 32.416 45.878-4.415-0.656-16.885 4.421-4.421-4.928h-5.146l-4.421 2.464-5.118-5.905-7.989 3.994-42.799-43.939-10.461-37.471z" fill="#1c5166"/></g><g transform="translate(520.68,338.48)"><path d="m0 0c-0.38 2.283 0 54.021 0 54.021l22.065 21.304 5.706 3.045v-35.477l9.512-15.324s2.663-15.394 2.663-16.536c0-1.141-3.425-16.076-3.425-16.076l-13.745 7.039 4.565 27.569-5.276 13.328-6.086-9.795-8.37-27.772z" fill="#1c5166"/></g><g transform="translate(663.44,463.83)"><path d="m0 0h-0.951l-14.551-11.318-12.365-7.133-4.565-5.611-15.771-12.534-3.406-5.942-18.119-5.87-5.218 1.522-3.913-0.508-13.915-2.826-17.973 4.589 6.414-4.394 31.576-25.869 12.174-16.739 5.326 30.055 3.044 15.598 42.608 17.119z" fill="#1c5166"/></g><g transform="translate(734.48,427.12)"><path d="m0 0-6.468 1.521-11.412-11.792-4.946 23.585-22.826 2.665-4.185-13.697s-2.663-9.89-2.282-11.889c0.38-1.999-6.087-9.414-6.467-11.89-0.381-2.477-12.461-27.959-12.461-27.959l-10.366-27.392 12.174 15.776 23.587 39.575 5.364 8.181h12.896l12.175-8.181s-14.457-25.677-14.837-26.817c-0.381-1.142-23.207-21.685-24.348-21.116-1.141 0.571-10.652-1.711-10.652-1.711l-16.359-11.499 19.403 3.89s11.793-4.565 13.315-3.804c1.521 0.761 15.217 9.511 15.217 9.511s24.347 31.576 25.109 32.718c0.761 1.14 8.369 7.905 8.369 7.905v16.822l-8.75 5.327z" fill="#1c5166"/></g><g transform="translate(687.69,286.36)"><path d="m0 0 69.999 35.76 25.109 31.196s-0.38-10.652 0-12.174 1.522-7.228 1.522-8.94 3.044-7.8 3.424-10.082-1.141-11.031 0-12.554c1.141-1.521 6.467-18.642 6.467-18.642s-12.935-4.564-14.077-4.564c-1.14 0-45.651-9.892-45.651-9.892s-26.25 2.284-28.532 0c-2.283-2.282-11.414-12.553-12.174-12.934-0.762-0.381-9.511 9.89-9.511 9.89z" fill="#1c5166"/></g><g transform="translate(822.36,382.8)"><path d="m0 0-4.186-7.656-5.326-3.946h-18.639s-0.387-4.844 0-6.509c0.385-1.665-6.469-8.707-6.469-8.707l11.413-2.663h28.152l8.369-3.044-4.945 7.418-5.706 20.735h1.141c1.141 0 16.473-16.359 16.473-16.359v12.634l12.58 10.573 4.425 15.597 5.136 14.452-14.647-9.796-12.079-2.092-8.75-3.804 2.569-8.651z" fill="#1c5166"/></g><g transform="translate(794.21,255.93)"><path d="m0 0-13.316 9.13-12.174 4.946s-17.119-8.75-19.782-10.271c-2.665-1.522-17.881-13.697-17.881-13.697l-25.189-24.418c10.017 3.145 20.624 6.535 20.624 6.535l23.967 6.087 20.163 7.989 28.532-3.805h6.848s-1.902 12.939-1.902 14.08-9.89 3.424-9.89 3.424" fill="#1c5166"/></g><g transform="translate(529.81,304.62)"><path d="m0 0-11.984-7.988-23.396-18.449-22.827-14.657h-9.701l-14.266 17.127-42.799 37.643-10.842-9.873-11.984-10.651h-34.809l-9.131-6.562h-11.413l-16.549 6.562-15.978-10.808v-67.94l20.734 0.38s17.996 11.426 23.789 14.723l-4.007 6.01s-13.695 19.972-13.695 23.389 7.989 8.568 9.701 6.479 2.853-1.346 2.853-1.346l7.419-7.978s11.983 1.711 13.695 2.845-7.418 6.479-7.418 6.479l1.712 10.648 12.554 6.848 5.706-1.712s3.425-16.549 5.136-17.13c1.712-0.58 6.277-13.114 6.277-13.114s14.267-21.686 15.979-23.968c0.578-0.771 1.744-2.456 3.033-4.348 7.952 2.93 16.495 6.045 17.32 6.251 0.111 0.028 0.32 0.077 0.595 0.143-0.474 1.661-1.432 2.973-1.831 2.87-0.856-0.221-10.558 17.91-10.558 19.622s-6.277 13.89-6.277 13.89l0.571 8.178s14.837-20.356 20.543-22.638c4.937-1.975 20.875-13.056 26.646-16.701l13.681 1.103s1.185-0.84 3.129-2.209c4.652 2.166 11.897 9.246 14.751 11.529 2.853 2.283 16.549 7.418 18.261 7.99 1.712 0.57 19.402 3.994 19.402 3.994s3.423 3.424 6.679 6.277c3.256 2.854 4.163 15.407 5.304 18.831s10.843 17.12 10.843 19.403c0 2.282-6.848-1.142-6.848-1.142" fill="#1c5166"/></g></g></g><g clip-path="url(#clipPath380)"><g transform="translate(1093,442.66)"><path d="M 0,0 -35.952,23.523 -47.745,38.846 -60.489,63.098 0,8.886 Z" fill="#f1dfdf"/></g><g transform="translate(1081,247.72)"><path d="m0 0 12.01-5.896h-1e-3l-41.552 20.969s-3.735-7.114-8.133-14.374l14.088-7.548 11.033 1.903z" fill="#f1dfdf"/></g><g transform="translate(1093,550.84)"><path d="m0 0h-197.63l2.056-15.355 17.475-11.086s14.394-67.468 13.879-68.284c-0.514-0.816 13.051-8.012 13.051-8.012l2.589-77.966 13.144-17.125 24.159-82.241s-1.028-21.469 0-22.043c1.028-0.573 7.196-12.909 7.196-12.909l5.267-54.999h98.815z" fill="#114056"/></g><g clip-path="url(#clipPath500)" opacity=".39999"><g transform="translate(1082.3,529.53)"><path d="m0 0-13.229-149.43h-8.56l-4.565 102.83-32.304 45.055-1.828-0.377 6.424 23.227h57.478z" fill="#114056"/></g></g><g transform="translate(928.82,456.11)"><path d="m0 0 13.051 80.443v-88.455z" fill="#1c5166"/></g><g transform="translate(897.47,535.48)"><path d="m0 0 22.081 5.758 52.231-5.758s9.107 1.073 10.384 1.073c1.279 0 12.064-1.073 12.064-1.073l19.031-7.872 43.447 8.945 17.038-7.019 4.15-50.911 7.778-13.805 7.371-42.567v128.58h-197.63z" fill="#1c5166"/></g><g transform="translate(974.07,520.4)"><path d="m0 0 9.371 3.991 17.89-14.676s5.111-123.53 3.833-123.1c-1.278 0.426-8.093 0-8.093 0l-0.426-20.793-8.945-35.859 11.074-26.793-9.814-67.358s-6.168 12.336-7.197 12.909c-1.027 0.574 0 22.043 0 22.043l-24.158 82.241 6.668 163.97z" fill="#1c5166"/></g><g transform="translate(1075.9,180.46)"><path d="m0 0-19.167 178.05-8.094 2.555-2.555 96.762-8.946 8.358-7.667-138.77-8.944-8.258-15.198-78.277 5.401-60.419z" fill="#1c5166"/></g><g clip-path="url(#clipPath532)" opacity=".60001"><g transform="translate(1085.7,180.92)"><path d="m0 0v343.48l-9.779 26.44h17.101v-370.38z" fill="#114056"/></g></g><g transform="translate(982.16,536.55)"><path d="m0 0c-1.277 0-10.385-1.073-10.385-1.073l-7.605 0.838-19.607 14.517h42.906c1.712 0 17.897-7.606 17.897-7.606l7.889-15.621-19.032 7.872s-10.785 1.073-12.063 1.073" fill="#3c6f8e"/></g><g transform="translate(983.44,524.39)"><path d="m0 0-1.954-90.828-9.709 5.044-3.414 26.86-5.787 9.803 1.696 41.706z" fill="#3c6f8e"/></g><g transform="translate(928.82,527.61)"><path d="m0 0-4.352-48.628c-4.073 19.848-9.527 45.414-9.527 45.414l-17.475 11.086-2.056 15.355 23.583-7.606z" fill="#3c6f8e"/></g><g transform="translate(958.71,380.1)"><path d="m0 0 7.08-30.138 15.7-13.696 1.954-61.63h-2.815l-23.021 78.367z" fill="#3c6f8e"/></g><g transform="translate(294.13,442.66)"><path d="M 0,0 35.952,23.523 47.745,38.846 60.489,63.098 0,8.886 Z" fill="#f1dfdf"/></g><g transform="translate(306.14,247.72)"><path d="m0 0-12.01-5.896h1e-3l41.552 20.969s3.735-7.114 8.133-14.374l-14.089-7.548-11.033 1.903z" fill="#f1dfdf"/></g><g transform="translate(294.13,550.84)"><path d="m0 0h197.63l-2.056-15.355-17.476-11.086s-14.392-67.468-13.878-68.284-13.051-8.012-13.051-8.012l-2.589-77.966-13.144-17.125-24.159-82.241s1.028-21.469 0-22.043c-1.028-0.573-7.196-12.909-7.196-12.909l-5.267-54.999h-98.815z" fill="#114056"/></g><g clip-path="url(#clipPath400)" opacity=".39999"><g transform="translate(304.87,529.53)"><path d="m0 0 13.229-149.43h8.559l4.566 102.83 32.303 45.055 1.828-0.377-6.424 23.227h-57.477z" fill="#114056"/></g></g><g transform="translate(458.35,456.11)"><path d="m0 0-13.051 80.443v-88.455z" fill="#1c5166"/></g><g transform="translate(489.71,535.48)"><path d="m0 0-22.082 5.758-52.23-5.758s-9.107 1.073-10.385 1.073-12.063-1.073-12.063-1.073l-19.031-7.872-43.447 8.945-17.038-7.019-4.15-50.911-7.777-13.805-7.372-42.567v128.58h197.63z" fill="#1c5166"/></g><g transform="translate(413.1,520.4)"><path d="m0 0-9.371 3.991-17.89-14.676s-5.111-123.53-3.833-123.1c1.278 0.426 8.093 0 8.093 0l0.426-20.793 8.945-35.859-11.075-26.793 9.815-67.358s6.169 12.336 7.197 12.909c1.027 0.574 0 22.043 0 22.043l24.158 82.241-6.668 163.97z" fill="#1c5166"/></g><g transform="translate(311.23,180.46)"><path d="m0 0 19.168 178.05 8.093 2.555 2.556 96.762 8.945 8.358 7.667-138.77 8.945-8.258 15.197-78.277-5.4-60.419z" fill="#1c5166"/></g><g clip-path="url(#clipPath432)" opacity=".60001"><g transform="translate(301.45,180.92)"><path d="m0 0v343.48l9.778 26.44h-17.101v-370.38z" fill="#114056"/></g></g><g clip-path="url(#clipPath448)" opacity=".39999"><g transform="translate(373.92,504.86)"><path d="m0 0 2.39-142.26-10.95-30.605-10.735 131.8 7.812 12.933 2.923 28.132z" fill="#114056"/></g></g><g transform="translate(405.01,536.55)"><path d="m0 0c1.278 0 10.385-1.073 10.385-1.073l7.605 0.838 19.608 14.517h-42.906c-1.712 0-17.898-7.606-17.898-7.606l-7.888-15.621 19.031 7.872s10.785 1.073 12.063 1.073" fill="#3c6f8e"/></g><g transform="translate(369.24,181.02)"><path d="m0 0h-14.62l-8.102 104.42 8.102 5.991 14.62-71.042 10.426-3.438-3.262-36.496z" fill="#3c6f8e"/></g><g transform="translate(403.73,524.39)"><path d="m0 0 1.954-90.828 9.709 5.044 3.414 26.86 5.787 9.803-1.696 41.706z" fill="#3c6f8e"/></g><g transform="translate(458.35,527.61)"><path d="m0 0 4.351-48.628c4.074 19.848 9.527 45.414 9.527 45.414l17.476 11.086 2.057 15.355-23.583-7.606z" fill="#3c6f8e"/></g><g transform="translate(428.47,380.1)"><path d="m0 0-7.08-30.138-15.7-13.696-1.954-61.63h2.816l23.02 78.367z" fill="#3c6f8e"/></g><g transform="translate(338.49,361.06)"><path d="m0 0 5.323-180.6h-32.584l19.168 178.05z" fill="#3c6f8e"/></g><g transform="translate(390.55,549.42)"><path d="m0 0-1.261 32.174h7.316l-2.271-32.174z" fill="#a88c8c"/></g><g transform="translate(1010.9,549.42)"><path d="m0 0-1.262 32.174h7.317l-2.271-32.174z" fill="#a88c8c"/></g><g transform="translate(389.29,575.31)"><path d="m0 0s315.24-49.554 626.49 0" fill="none" stroke="#114056" stroke-miterlimit="10"/></g><g transform="translate(733.84,628.67)"><path d="m0 0s-0.272-0.326-0.354-1.198c-0.082-0.871-0.517-1.77-0.408-1.906s0.499-0.408 0.372-0.625c-0.127-0.219-0.672-1.063-0.617-1.417 0.054-0.354 0.407-0.326 0.789-0.299 0 0 0.245-0.653 0.218-0.871s0.163-0.272 0.163-0.272-0.218-0.354 0-0.436c0 0 0.3-0.49 0.3-0.871s0.164-0.98 1.606-0.817c0 0 0.409-0.544 0.545-1.061 0 0-0.191-0.572-1.28-2.342-1.089-1.769-2.232-4.791-2.205-7.541 0.026-2.75 0.626-8.222 0.626-8.222s-0.191-2.205 0.136-2.777 0.708-4.874 0.381-5.745-1.17-3.838-1.116-4.574c0.054-0.734 0.463-2.177 0.463-2.177s-3.513-6.153-3.622-8.359c-0.108-2.205-0.163-20.228-0.163-20.228s-1.552-1.498-2.749-1.879c-1.198-0.381-1.906-0.653-1.906-0.98s0.272-0.844 0.68-0.817c0.409 0.027 4.738 0.245 4.738 0.245s0.898 0.409 1.415 0.381c0.517-0.027 1.525-0.683 2.45-0.627 0.926 0.056 2.152-3e-3 2.152-3e-3s0.625 1.719-0.328 2.754h0.981l0.163 11.706s2.751-5.118 4.383-6.588c1.634-1.47 1.552-2.532 1.715-3.131s-0.054-2.777 0.11-2.804c0.163-0.027 0.408 0.027 0.435-0.055 0.028-0.081-2.695-1.088-2.968-1.36-0.271-0.273-0.299-0.545-0.19-0.708 0.109-0.164 5.255 0 5.255 0s1.061 0.789 1.933 0.979c0.871 0.191 1.443 0.137 1.906 0.436 0.462 0.3 1.823 1.116 1.823 1.116s-0.408 1.525-0.979 2.097c-0.573 0.571-0.6 0.68-0.6 0.68s-6.751 14.729-7.568 16.444c-0.817 1.716-1.28 3.104-1.28 3.104l1.034 6.044s2.042 0.98 2.478 2.804 0.953 2.396 1.089 2.777c0.137 0.381 0.353 1.116 0.353 1.634 0 0.09-0.017 0.308-0.046 0.608-0.135 1.409-0.52 4.61-0.498 4.7 0.028 0.109-0.871 5.228-0.979 6.344-0.109 1.116-0.219 3.376-0.219 3.376l0.737 1.198s1.932-2.75 3.239-4.029c1.306-1.28 2.667-2.56 3.239-3.513 0.572-0.952 0.653-1.851 0.626-2.205-0.026-0.354-0.317-0.953 5e-3 -1.034 0.322-0.082 1.111 0.245 1.248 0.571 0.137 0.327 0.218 0.79 0.218 0.79s2.885-0.926 4.655-1.008c1.77-0.081 1.852 0.436 1.77 0.49-0.082 0.055-0.544 0.164-0.544 0.164s0.217 0.49 0 0.681c-0.218 0.19-1.252 0.108-1.252 0.108s0.053 0.246-0.219 0.381c-0.273 0.137-1.823 0.163-3.103 1.062s-4.111 5.909-4.901 7.406c-0.789 1.497-1.606 2.287-1.96 2.586-0.354 0.3-0.571 0.953-0.653 1.035-0.082 0.081-0.626 1.606-0.763 2.151-0.136 0.544-0.408 2.722-0.734 3.348-0.328 0.626-3.449 3.757-3.449 3.757l-0.88 1.688s1.306 1.497 1.605 3.975c0.3 2.477-1.388 5.172-4.056 5.69l-1.961 6.098s1.144 0.953 1.47 2.233c0.327 1.279 0.437 2.478 0.572 2.75 0.136 0.272 0.3 0.816 0.218 0.871-0.082 0.054-0.49 0-0.49 0s-0.163 0.653-0.463 0.762c-0.299 0.109-0.544 0-0.544 0l0.218-0.708s-0.436 0.109-0.408-0.408c0.027-0.517 0.163-1.797-0.055-2.096-0.218-0.3-1.089-0.953-1.089-0.953s-0.191 0.19-0.164 0.517 0.082 0.925 0.082 0.925-0.245 0.354-0.599 0.082-0.871-1.116-0.79-1.851-0.163-1.634 0.136-2.124c0 0 0.137-2.559 0.137-3.648s0.027-2.804 0.027-2.804-2.749-0.489-1.742-2.477" fill="#114056"/></g><g transform="translate(742.62,591.4)"><path d="m0 0h4.036s0.38-23.967 12.554-36.332c0 0 1.065-1.521 1.009-3.138-0.058-1.617-1.105-2.282-1.39-1.426-0.285 0.855-0.095 3.898-0.095 3.898" fill="none" stroke="#114056" stroke-miterlimit="10"/></g></g><g transform="translate(695.37,751.58)"><path d="m0 0s17.108 12.963 32.913 0.895c0 0 2.66 1.33 4.819-0.84 0 0 15.888 7.145 26.19-8.162 0 0-9.115 8.438-26.342 3.153l2.354-6.413-15.087 3.96 6.831 4.822s-11.821 11.176-31.678 2.585" fill="#1c5166"/></g><g transform="translate(356.07,634.07)"><path d="m0 0s14.538 9.031 26.195-1.715c0 0 2.21 0.86 3.765-1.023 0 0 13.139 4.502 20.189-8.41 0 0-6.615 7.37-20.68 4.445l1.396-5.265-11.687 4.256 5.78 3.324s-8.56 9.745-24.958 4.388" fill="#1c5166"/></g><g transform="translate(634.18,619.91)"><path d="m0 0s6.033 9.46 15.971 6.413c0 0 1.062 1.135 2.515 0.463 0 0 6.49 6.387 14.319 0.753 0 0-6 2.481-13.485-3.235l2.318-2.717-8.115-0.798 2.474 3.604s-7.823 3.333-15.997-4.483" fill="#1c5166"/></g><g transform="translate(539.28,508.69)"><path d="m0 0s10.048 6.081 17.962-1.386c0 0 1.523 0.573 2.575-0.732 0 0 9.052 2.985 13.786-5.931 0 0-4.48 5.11-14.155 3.215l0.916-3.624-7.985 3.013 3.992 2.236s-5.796 6.754-17.091 3.209" fill="#1c5166"/></g><g clip-path="url(#clipPath740)"><g transform="translate(492.49,658.63)"><path d="m0 0c0-1.891-1.533-3.424-3.424-3.424s-3.424 1.533-3.424 3.424 1.533 3.424 3.424 3.424 3.424-1.533 3.424-3.424" fill="#fef3f5"/></g><g transform="translate(584.94,629.09)"><path d="m0 0c0-2.132-1.728-3.86-3.86-3.86s-3.86 1.728-3.86 3.86c0 2.131 1.728 3.859 3.86 3.859s3.86-1.728 3.86-3.859" fill="#fef3f5"/></g><g transform="translate(874.24,660.77)"><path d="m0 0c0-1.655-1.341-2.996-2.995-2.996-1.655 0-2.996 1.341-2.996 2.996s1.341 2.996 2.996 2.996c1.654 0 2.995-1.341 2.995-2.996" fill="#fef3f5"/></g><g transform="translate(934.81,689.01)"><path d="m0 0c0-1.654-1.341-2.996-2.995-2.996s-2.996 1.342-2.996 2.996 1.342 2.996 2.996 2.996 2.995-1.342 2.995-2.996" fill="#fef3f5"/></g><g transform="translate(760.92,508.15)"><path d="m0 0c0-1.324-1.074-2.398-2.398-2.398-1.325 0-2.398 1.074-2.398 2.398s1.073 2.398 2.398 2.398c1.324 0 2.398-1.074 2.398-2.398" fill="#fef3f5"/></g><g transform="translate(674.81,516.97)"><path d="m0 0c0-1.654-1.341-2.996-2.996-2.996-1.654 0-2.996 1.342-2.996 2.996 0 1.655 1.342 2.996 2.996 2.996 1.655 0 2.996-1.341 2.996-2.996" fill="#fef3f5"/></g><g transform="translate(681.09,578.45)"><path d="m0 0c0-1.734-1.405-3.139-3.139-3.139s-3.139 1.405-3.139 3.139c0 1.733 1.405 3.139 3.139 3.139s3.139-1.406 3.139-3.139" fill="#fef3f5"/></g><g transform="translate(815.18,698)"><path d="m0 0c0-0.945-0.766-1.712-1.712-1.712-0.945 0-1.712 0.767-1.712 1.712s0.767 1.712 1.712 1.712c0.946 0 1.712-0.767 1.712-1.712" fill="#fef3f5"/></g><g transform="translate(534.44,698)"><path d="m0 0c0-0.945-0.767-1.711-1.712-1.711s-1.711 0.766-1.711 1.711 0.766 1.712 1.711 1.712 1.712-0.767 1.712-1.712" fill="#fef3f5"/></g><g transform="translate(424.6,624.12)"><path d="m0 0c0-1.49-1.208-2.698-2.698-2.698-1.489 0-2.697 1.208-2.697 2.698 0 1.489 1.208 2.697 2.697 2.697 1.49 0 2.698-1.208 2.698-2.697" fill="#fef3f5"/></g><g transform="translate(858.37,606.61)"><path d="m0 0c0-1.526-1.237-2.764-2.765-2.764-1.526 0-2.763 1.238-2.763 2.764 0 1.527 1.237 2.765 2.763 2.765 1.528 0 2.765-1.238 2.765-2.765" fill="#fef3f5"/></g><g transform="translate(696.21,703.14)"><path d="m0 0c0-1.891-1.532-3.424-3.424-3.424-1.89 0-3.423 1.533-3.423 3.424s1.533 3.424 3.423 3.424c1.892 0 3.424-1.533 3.424-3.424" fill="#fef3f5"/></g><g transform="translate(598.65,751.81)"><path d="m0 0c0-1.598-1.295-2.894-2.894-2.894-1.598 0-2.893 1.296-2.893 2.894s1.295 2.894 2.893 2.894c1.599 0 2.894-1.296 2.894-2.894" fill="#fff"/></g><g transform="translate(616.74,799.91)"><path d="m0 0c0-1.398-1.134-2.532-2.532-2.532s-2.532 1.134-2.532 2.532 1.134 2.532 2.532 2.532 2.532-1.134 2.532-2.532" fill="#fff"/></g><g transform="translate(467.86,744.32)"><path d="m0 0c0-2.539-2.058-4.597-4.597-4.597-2.538 0-4.596 2.058-4.596 4.597 0 2.538 2.058 4.596 4.596 4.596 2.539 0 4.597-2.058 4.597-4.596" fill="#fff"/></g><g transform="translate(522.7,734.81)"><path d="m0 0c0-0.999-0.81-1.808-1.808-1.808-0.999 0-1.809 0.809-1.809 1.808s0.81 1.809 1.809 1.809c0.998 0 1.808-0.81 1.808-1.809" fill="#fff"/></g><g transform="translate(823.16,742.02)"><path d="m0 0c0-1.27-1.029-2.298-2.299-2.298-1.268 0-2.298 1.028-2.298 2.298 0 1.269 1.03 2.298 2.298 2.298 1.27 0 2.299-1.029 2.299-2.298" fill="#fff"/></g><g transform="translate(906.81,757.23)"><path d="m0 0c0-1.398-1.134-2.532-2.531-2.532-1.399 0-2.532 1.134-2.532 2.532s1.133 2.532 2.532 2.532c1.397 0 2.531-1.134 2.531-2.532" fill="#fff"/></g><g transform="translate(660.86,846.21)"><path d="m0 0c0-1.398-1.133-2.532-2.532-2.532-1.398 0-2.531 1.134-2.531 2.532s1.133 2.532 2.531 2.532c1.399 0 2.532-1.134 2.532-2.532" fill="#fff"/></g><g transform="translate(593.42,825.87)"><path d="m0 0c0-1.351-1.096-2.447-2.447-2.447s-2.447 1.096-2.447 2.447 1.096 2.447 2.447 2.447 2.447-1.096 2.447-2.447" fill="#fff"/></g><g transform="translate(425.76,727.21)"><path d="m0 0c0-1.198-0.972-2.17-2.17-2.17-1.199 0-2.17 0.972-2.17 2.17 0 1.199 0.971 2.17 2.17 2.17 1.198 0 2.17-0.971 2.17-2.17" fill="#fff"/></g><g transform="translate(886.56,717.08)"><path d="m0 0c0-1.198-0.972-2.17-2.17-2.17s-2.17 0.972-2.17 2.17 0.972 2.17 2.17 2.17 2.17-0.972 2.17-2.17" fill="#fff"/></g></g><g transform="translate(743.06,683.85)"><path d="m0 0h-148.49c-3.591 0-6.502-2.911-6.502-6.501 0-3.591 2.911-6.502 6.502-6.502h30.416c2.364-0.973 4.03-3.297 4.03-6.012 0-3.59-2.911-6.502-6.501-6.502h-5.028c-2.892 0-5.237-2.344-5.237-5.236s2.345-5.237 5.237-5.237h74.505c2.891 0 5.236 2.345 5.236 5.237s-2.345 5.236-5.236 5.236h-0.214c-3.591 0-6.502 2.912-6.502 6.502 0 2.715 1.666 5.039 4.03 6.012h53.751c3.591 0 6.501 2.911 6.501 6.502 0 3.59-2.91 6.501-6.501 6.501" fill="#fff"/></g><g transform="translate(900.82,535.83)"><path d="m0 0h-193.18c-4.217 0-7.635-3.418-7.635-7.636 0-4.217 3.418-7.635 7.635-7.635h75.785c3.268 0 5.918-2.649 5.918-5.917 0-3.269-2.65-5.918-5.918-5.918h-29.016c-3.269 0-5.918-2.65-5.918-5.918s2.649-5.917 5.918-5.917h0.023c3.268 0 5.917-2.65 5.917-5.918s-2.649-5.917-5.917-5.917h-1.325c-2.55 0-4.616-2.068-4.616-4.617s2.066-4.617 4.616-4.617h74.767c2.55 0 4.616 2.068 4.616 4.617s-2.066 4.617-4.616 4.617h-23.643c-3.268 0-5.918 2.649-5.918 5.917s2.65 5.918 5.918 5.918h88.278c3.267 0 5.917 2.649 5.917 5.917s-2.65 5.918-5.917 5.918h-27.907c-3.267 0-5.917 2.649-5.917 5.918 0 3.268 2.65 5.917 5.917 5.917h36.22c4.218 0 7.636 3.418 7.636 7.635 0 4.218-3.418 7.636-7.636 7.636" fill="#fff"/></g><g transform="translate(505.65,629.09)"><path d="m0 0c0-2.968-2.406-5.373-5.373-5.373h-38.366c-2.968 0-5.373 2.405-5.373 5.373 0 2.967 2.405 5.373 5.373 5.373h38.366c2.967 0 5.373-2.406 5.373-5.373" fill="#fff"/></g><g transform="translate(679.97,782.84)"><path d="m0 0c0-3.755-3.044-6.799-6.8-6.799h-34.382c-3.755 0-6.798 3.044-6.798 6.799s3.043 6.799 6.798 6.799h34.382c3.756 0 6.8-3.044 6.8-6.799" fill="#fff"/></g><g transform="translate(906.35,629.09)"><path d="m0 0c0-3.755-3.044-6.799-6.8-6.799h-34.382c-3.755 0-6.798 3.044-6.798 6.799s3.043 6.799 6.798 6.799h34.382c3.756 0 6.8-3.044 6.8-6.799" fill="#fff"/></g><g transform="translate(458.66,656.84)"><path d="m0 0c0-2.103-1.705-3.807-3.807-3.807h-10.361c-2.103 0-3.808 1.704-3.808 3.807s1.705 3.807 3.808 3.807h10.361c2.102 0 3.807-1.704 3.807-3.807" fill="#fff"/></g><g transform="translate(718.59,828.32)"><path d="m0 0h193.18c4.217 0 7.635-3.418 7.635-7.636 0-4.217-3.418-7.635-7.635-7.635h-75.785c-3.268 0-5.918-2.649-5.918-5.917 0-3.269 2.65-5.918 5.918-5.918h29.016c3.269 0 5.918-2.65 5.918-5.918s-2.649-5.917-5.918-5.917h-0.023c-3.268 0-5.917-2.65-5.917-5.918 0-3.269 2.649-5.918 5.917-5.918h1.325c2.55 0 4.616-2.067 4.616-4.617 0-2.549-2.066-4.616-4.616-4.616h-74.767c-2.55 0-4.616 2.067-4.616 4.616 0 2.55 2.066 4.617 4.616 4.617h23.643c3.268 0 5.918 2.649 5.918 5.918 0 3.268-2.65 5.918-5.918 5.918h-88.278c-3.267 0-5.917 2.649-5.917 5.917s2.65 5.918 5.917 5.918h27.907c3.267 0 5.917 2.649 5.917 5.918 0 3.268-2.65 5.917-5.917 5.917h-36.22c-4.218 0-7.636 3.418-7.636 7.635 0 4.218 3.418 7.636 7.636 7.636" fill="#fff"/></g><g transform="translate(1048.5,669.22)"><path d="m0 0h-24.63c-4.482 0-8.116 3.125-8.116 6.98 0 3.856 3.634 6.981 8.116 6.981h2.273c5.33 0 9.65 3.716 9.65 8.299 0 4.584-4.32 8.3-9.65 8.3h-77.994c-5.33 0-9.65-3.716-9.65-8.3 0-4.583 4.32-8.299 9.65-8.299h8.651c4.482 0 8.117-3.125 8.117-6.981 0-3.855-3.635-6.98-8.117-6.98h-27.651c-4.193 0-7.591-2.923-7.591-6.528 0-3.606 3.398-6.529 7.591-6.529h119.35c4.192 0 7.592 2.923 7.592 6.529 0 3.605-3.4 6.528-7.592 6.528" fill="#fff"/></g><g transform="translate(559.4,792.4)"><path d="m0 0h-18.04c-3.282 0-5.944 2.289-5.944 5.112 0 2.825 2.662 5.113 5.944 5.113h1.665c3.904 0 7.068 2.722 7.068 6.079s-3.164 6.078-7.068 6.078h-57.124c-3.904 0-7.068-2.721-7.068-6.078s3.164-6.079 7.068-6.079h6.335c3.284 0 5.946-2.288 5.946-5.113 0-2.823-2.662-5.112-5.946-5.112h-20.251c-3.071 0-5.561-2.141-5.561-4.782s2.49-4.781 5.561-4.781h87.415c3.071 0 5.561 2.14 5.561 4.781s-2.49 4.782-5.561 4.782" fill="#fff"/></g><g transform="translate(459.75,702.01)"><path d="m0 0h-126.29c-3.687 0-6.675-2.988-6.675-6.675 0-3.686 2.988-6.675 6.675-6.675h35.915c2.649 0 4.796-2.147 4.796-4.796 0-2.648-2.147-4.796-4.796-4.796h1.146c-2.378 0-4.306-1.928-4.306-4.307 0-2.377 1.928-4.306 4.306-4.306h22.085c2.648 0 4.796-2.147 4.796-4.796s-2.148-4.796-4.796-4.796h-3.835c-2.163 0-3.916-1.753-3.916-3.916s1.753-3.916 3.916-3.916h39.518c2.162 0 3.915 1.753 3.915 3.916s-1.753 3.916-3.915 3.916h-4.311c-2.648 0-4.796 2.147-4.796 4.796s2.148 4.796 4.796 4.796h15.801c2.379 0 4.307 1.929 4.307 4.306 0 2.379-1.928 4.307-4.307 4.307h-26.081c-2.649 0-4.796 2.148-4.796 4.796 0 2.649 2.147 4.796 4.796 4.796h46.055c3.687 0 6.675 2.989 6.675 6.675 0 3.687-2.988 6.675-6.675 6.675" fill="#fff"/></g></g></svg>
