<?xml version="1.0" encoding="UTF-8"?>
<!-- Created with Inkscape (http://www.inkscape.org/) -->
<svg width="1400" height="1020" version="1.1" viewBox="0 0 1400 1020" xml:space="preserve" xmlns="http://www.w3.org/2000/svg"><defs><clipPath id="clipPath6850"><path d="m342.56 483.77c0-189.84 153.9-343.74 343.74-343.74 189.84 0 343.74 153.9 343.74 343.74s-153.9 343.74-343.74 343.74c-189.84 0-343.74-153.9-343.74-343.74"/></clipPath><clipPath id="clipPath13698"><path d="m342.56 483.77c0-189.84 153.9-343.74 343.74-343.74 189.84 0 343.74 153.9 343.74 343.74s-153.9 343.74-343.74 343.74c-189.84 0-343.74-153.9-343.74-343.74"/></clipPath><clipPath id="clipPath20530"><path d="m342.56 483.77c0-189.84 153.9-343.74 343.74-343.74 189.84 0 343.74 153.9 343.74 343.74s-153.9 343.74-343.74 343.74c-189.84 0-343.74-153.9-343.74-343.74"/></clipPath><clipPath id="clipPath20546"><path d="m377.31 507.83h413.82v-391.7h-413.82z"/></clipPath><clipPath id="clipPath20622"><path d="m0 980h1400v-980h-1400z"/></clipPath></defs><g transform="matrix(1.3333 0 0 -1.3333 -272.58 1152.5)"><g transform="matrix(1.0055 0 0 1.0055 39.373 -4.7436)"><g transform="translate(1030 447.31)"><path d="m0 0c0-189.84-153.9-343.74-343.74-343.74-189.84 0-343.74 153.89-343.74 343.74 0 189.84 153.9 343.74 343.74 343.74 189.84 0 343.74-153.9 343.74-343.74" fill="#f6e3e3"/></g></g><g transform="matrix(1.0055 0 0 1.0055 39.373 -4.7436)" clip-path="url(#clipPath20530)"><g><g clip-path="url(#clipPath6850)"><g transform="translate(399.18 592.61)"><path d="m0 0 124.73 49.77h11.674l7.988-8.603 14.746-8.602 26.421 10.446 14.132 0.614 12.289 10.445s36.867 15.362 38.71 15.362h9.83l18.434-11.06 14.131 4.3 15.976 12.289h7.373l59.602-45.468 19.046 1.229 25.807 27.65h9.216l33.795-25.192 9.83 4.301h10.446l46.698-20.276s15.973 4.301 18.431 3.687c2.458-0.615 25.194-11.061 25.194-11.061s14.746 3.073 16.589 2.458c1.844-0.614 44.854-12.289 44.854-12.289z" fill="#db8928"/></g><g transform="translate(392.57 590.1)"><path d="m0 0 124.73 49.77h11.674l7.988-8.602 14.746-8.603 26.421 10.446 14.132 0.614 12.289 10.446s36.868 15.361 38.71 15.361h9.83l18.434-11.06 14.132 4.301 15.975 12.289h7.373l59.602-45.468 19.046 1.228 25.808 27.65h9.215l33.794-25.192 9.83 4.301h10.448l46.697-20.276s15.974 4.301 18.432 3.687c2.458-0.615 25.193-11.06 25.193-11.06s14.746 3.072 16.59 2.458c1.844-0.615 44.853-12.29 44.853-12.29z" fill="#2c3f6c"/></g><g transform="translate(253.21 664.42)"><path d="m0 0s49.458 26.307 102.07-14.732c0 0 34.725 33.443 83.13 23.035 48.405-10.407 66.294-59.865 66.294-59.865s8.419 16.836 37.883 12.627 25.255-28.288 25.255-28.288 7.366 11.101 20.695 8.996 18.941-11.925 18.941-11.925 7.016 23.15 36.48 23.851c29.464 0.702 38.583-28.06 38.583-28.06s15.433 14.731 47.703 14.029c32.271-0.701 44.196-17.537 44.196-17.537s6.315 14.731 32.972 5.612c0 0 5.611 14.732 49.107 16.836 43.495 2.105 63.136-22.448 63.136-22.448s18.942 32.971 50.51 25.956c0 0-0.351 31.919 49.107 49.809 49.457 17.888 79.15-26.308 79.15-26.308v-341.99h-845.21z" fill="#b0e0e9"/><path d="m0 0s49.458 26.307 102.07-14.732c0 0 34.725 33.443 83.13 23.035 48.405-10.407 66.294-59.865 66.294-59.865s8.419 16.836 37.883 12.627 25.255-28.288 25.255-28.288 7.366 11.101 20.695 8.996 18.941-11.925 18.941-11.925 7.016 23.15 36.48 23.851c29.464 0.702 38.583-28.06 38.583-28.06s15.433 14.731 47.703 14.029c32.271-0.701 44.196-17.537 44.196-17.537s6.315 14.731 32.972 5.612c0 0 5.611 14.732 49.107 16.836 43.495 2.105 63.136-22.448 63.136-22.448s18.942 32.971 50.51 25.956c0 0-0.351 31.919 49.107 49.809 49.457 17.888 79.15-26.308 79.15-26.308v-341.99h-845.21z" fill="none" stroke="#3e83c5" stroke-linejoin="round" stroke-miterlimit="10" stroke-width="3"/></g><g transform="translate(1027 507.86)"><path d="m0 0c-31.117 7.016-49.788-25.956-49.788-25.956s-19.361 24.553-62.234 22.448c-42.875-2.104-48.405-16.836-48.405-16.836-26.277 9.12-32.502-5.612-32.502-5.612s-11.756 16.837-43.564 17.537c-31.811 0.702-47.023-14.029-47.023-14.029s-8.989 28.761-38.032 28.06c-29.044-0.7-35.958-23.85-35.958-23.85s-5.533 9.819-18.671 11.924c-13.139 2.105-20.4-8.996-20.4-8.996s4.149 24.08-24.895 28.289c-29.043 4.208-37.34-12.627-37.34-12.627s-1.535 68.222-49.249 78.629c-47.713 10.408-102.38 30.856-102.38 30.856-24.232 19.175-43.443 10.56-163.32 9.884v-333.57h845.21v267.92c-7.092 0.016-14.789-1.229-23.045-4.258-48.751-17.889-48.406-49.809-48.406-49.809" fill="#efd9bb"/><path d="m0 0c-31.117 7.016-49.788-25.956-49.788-25.956s-19.361 24.553-62.234 22.448c-42.875-2.104-48.405-16.836-48.405-16.836-26.277 9.12-32.502-5.612-32.502-5.612s-11.756 16.837-43.564 17.537c-31.811 0.702-47.023-14.029-47.023-14.029s-8.989 28.761-38.032 28.06c-29.044-0.7-35.958-23.85-35.958-23.85s-5.533 9.819-18.671 11.924c-13.139 2.105-20.4-8.996-20.4-8.996s4.149 24.08-24.895 28.289c-29.043 4.208-37.34-12.627-37.34-12.627s-1.535 68.222-49.249 78.629c-47.713 10.408-102.38 30.856-102.38 30.856-24.232 19.175-43.443 10.56-163.32 9.884v-333.57h845.21v267.92c-7.092 0.016-14.789-1.229-23.045-4.258-48.751-17.889-48.406-49.809-48.406-49.809z" fill="none" stroke="#3e83c5" stroke-linejoin="round" stroke-miterlimit="10" stroke-width="3"/></g><g transform="translate(1075.4 557.67)"><path d="m0 0c-48.751-17.889-48.406-49.809-48.406-49.809-31.117 7.016-49.788-25.955-49.788-25.955s-14.459 18.303-46.021 21.939c-33.899-18.134-33.635-42.978-33.635-42.978-31.568 7.013-50.509-25.957-50.509-25.957s-19.642 24.552-63.137 22.449c-43.495-2.106-49.107-16.838-49.107-16.838-26.657 9.121-32.971-5.611-32.971-5.611s-11.926 16.838-44.197 17.537c-32.27 0.703-47.703-14.029-47.703-14.029s-9.119 28.761-38.583 28.06-36.48-23.85-36.48-23.85-5.611 9.819-18.941 11.924c-13.329 2.104-20.695-8.996-20.695-8.996s4.209 24.08-25.255 28.289-37.882-12.629-37.882-12.629-26.277 77.794-74.683 88.201c-48.405 10.408-93.013-19.871-93.013-19.871-3.838 2.992-7.557 5.446-11.163 7.448v-353.55h845.21v378.48c-7.092 0.015-14.789-1.229-23.045-4.259" fill="#f3ece4"/><path d="m0 0c-48.751-17.889-48.406-49.809-48.406-49.809-31.117 7.016-49.788-25.955-49.788-25.955s-14.459 18.303-46.021 21.939c-33.899-18.134-33.635-42.978-33.635-42.978-31.568 7.013-50.509-25.957-50.509-25.957s-19.642 24.552-63.137 22.449c-43.495-2.106-49.107-16.838-49.107-16.838-26.657 9.121-32.971-5.611-32.971-5.611s-11.926 16.838-44.197 17.537c-32.27 0.703-47.703-14.029-47.703-14.029s-9.119 28.761-38.583 28.06-36.48-23.85-36.48-23.85-5.611 9.819-18.941 11.924c-13.329 2.104-20.695-8.996-20.695-8.996s4.209 24.08-25.255 28.289-37.882-12.629-37.882-12.629-26.277 77.794-74.683 88.201c-48.405 10.408-93.013-19.871-93.013-19.871-3.838 2.992-7.557 5.446-11.163 7.448v-353.55h845.21v378.48c-7.092 0.015-14.789-1.229-23.045-4.259z" fill="none" stroke="#3e83c5" stroke-linejoin="round" stroke-miterlimit="10" stroke-width="3"/></g></g><g clip-path="url(#clipPath13698)"><g transform="translate(1065.4 348.02)"><path d="m0 0s-29.692 44.195-79.149 26.307c-49.458-17.889-49.108-49.809-49.108-49.809-31.568 7.016-50.51-25.955-50.51-25.955s-19.641 24.553-63.136 22.447c-43.495-2.103-49.107-16.836-49.107-16.836-26.657 9.119-32.971-5.611-32.971-5.611s-11.926 16.836-44.197 17.537c-32.27 0.701-47.703-14.029-47.703-14.029s-9.119 28.762-38.583 28.06c-29.464-0.701-36.48-23.851-36.48-23.851s-5.612 9.82-18.941 11.926c-13.329 2.103-20.695-8.997-20.695-8.997s4.209 24.079-25.255 28.288-37.883-12.627-37.883-12.627-17.888 49.457-66.294 59.865c-48.405 10.408-83.13-23.035-83.13-23.035-25.531 19.914-50.318 23.97-69.073 22.869v-241.78h812.22z" fill="#b0e0e9"/><path d="m0 0s-29.692 44.195-79.149 26.307c-49.458-17.889-49.108-49.809-49.108-49.809-31.568 7.016-50.51-25.955-50.51-25.955s-19.641 24.553-63.136 22.447c-43.495-2.103-49.107-16.836-49.107-16.836-26.657 9.119-32.971-5.611-32.971-5.611s-11.926 16.836-44.197 17.537c-32.27 0.701-47.703-14.029-47.703-14.029s-9.119 28.762-38.583 28.06c-29.464-0.701-36.48-23.851-36.48-23.851s-5.612 9.82-18.941 11.926c-13.329 2.103-20.695-8.997-20.695-8.997s4.209 24.079-25.255 28.288-37.883-12.627-37.883-12.627-17.888 49.457-66.294 59.865c-48.405 10.408-83.13-23.035-83.13-23.035-25.531 19.914-50.318 23.97-69.073 22.869v-241.78h812.22z" fill="none" stroke="#3e83c5" stroke-linejoin="round" stroke-miterlimit="10" stroke-width="3"/></g><g transform="translate(294.25 565.08)"><path d="m0 0s8.418 16.836 37.882 12.627 25.255-28.288 25.255-28.288 7.366 11.101 20.696 8.996c13.329-2.104 18.941-11.925 18.941-11.925s7.015 23.15 36.479 23.851c29.464 0.702 38.583-28.061 38.583-28.061s15.434 14.732 47.704 14.031c32.27-0.702 44.196-17.539 44.196-17.539s6.315 14.732 32.972 5.613c0 0 5.611 14.732 49.106 16.836 43.496 2.105 63.137-22.449 63.137-22.449s18.942 32.972 50.51 25.957c0 0 3.354 8.374 14.732 21.82-5.551 4.997-21.639 17.048-44.196 17.538-32.27 0.701-47.703-14.03-47.703-14.03s-9.119 28.762-38.584 28.061c-29.463-0.702-36.479-23.852-36.479-23.852s-5.612 9.821-18.941 11.926c-13.33 2.104-20.695-8.997-20.695-8.997s4.209 24.079-25.255 28.289c-29.465 4.209-37.883-12.628-37.883-12.628s-17.889 49.458-66.294 59.866c-48.405 10.407-83.13-23.036-83.13-23.036-52.615 41.04-102.07 14.732-102.07 14.732v-49.563c29.528-17.966 41.039-49.775 41.039-49.775" fill="#f4efea"/><path d="m0 0s8.418 16.836 37.882 12.627 25.255-28.288 25.255-28.288 7.366 11.101 20.696 8.996c13.329-2.104 18.941-11.925 18.941-11.925s7.015 23.15 36.479 23.851c29.464 0.702 38.583-28.061 38.583-28.061s15.434 14.732 47.704 14.031c32.27-0.702 44.196-17.539 44.196-17.539s6.315 14.732 32.972 5.613c0 0 5.611 14.732 49.106 16.836 43.496 2.105 63.137-22.449 63.137-22.449s18.942 32.972 50.51 25.957c0 0 3.354 8.374 14.732 21.82-5.551 4.997-21.639 17.048-44.196 17.538-32.27 0.701-47.703-14.03-47.703-14.03s-9.119 28.762-38.584 28.061c-29.463-0.702-36.479-23.852-36.479-23.852s-5.612 9.821-18.941 11.926c-13.33 2.104-20.695-8.997-20.695-8.997s4.209 24.079-25.255 28.289c-29.465 4.209-37.883-12.628-37.883-12.628s-17.889 49.458-66.294 59.866c-48.405 10.407-83.13-23.036-83.13-23.036-52.615 41.04-102.07 14.732-102.07 14.732v-49.563c29.528-17.966 41.039-49.775 41.039-49.775z" fill="none" stroke="#3e83c5" stroke-linejoin="round" stroke-miterlimit="10" stroke-width="3"/></g></g><g transform="translate(504.71 612.85)"><path d="m0 0s10.204-29.017-15.031-45.577-59.144 9.858-47.709 35.487c11.434 25.629 52.475 16.038 45.344-11.829 0 0-4.732-13.012-19.715-9.857-14.983 3.154-8.674 22.08 2.366 22.08" fill="none" stroke="#3e83c5" stroke-linejoin="round" stroke-miterlimit="10" stroke-width="3"/></g><g transform="translate(682.54 590.05)"><path d="m0 0s-9.844-9.767-6.726-22.778 22.045-13.467 30.326-5.156c8.279 8.31 1.584 23.688-9.658 22.505-11.241-1.183-12.424-17.743-2.172-18.926 10.251-1.183 10.364 5.914 6.759 9.857" fill="none" stroke="#3e83c5" stroke-linejoin="round" stroke-miterlimit="10" stroke-width="3"/></g><g transform="translate(919.66 586.55)"><path d="m0 0s10.048-11.445 4.527-24.426c-5.52-12.981-28.784-16.135-38.641-2.73-9.857 13.406 4.732 29.865 17.349 27.156 12.618-2.709 13.8-18.542 4.732-24.426-9.069-5.884-18.531 6.733-11.04 13.436" fill="none" stroke="#3e83c5" stroke-linejoin="round" stroke-miterlimit="10" stroke-width="3"/></g><g transform="translate(970.17 612.5)"><path d="m0 0s-3.794-34.58 26.173-36.551c29.967-1.972 52.046 38.99 26.417 51.63-25.629 12.639-46.131-13.384-32.726-30.733 13.406-17.348 39.035 9.858 24.447 18.532-14.59 8.674-19.792-10.151-12.459-11.976" fill="none" stroke="#3e83c5" stroke-linejoin="round" stroke-miterlimit="10" stroke-width="3"/></g><g transform="translate(355.28 649.68)"><path d="m0 0s-16.723-14.511-13.04-31.986c3.684-17.475 29.991-19.579 38.409-9.582 8.418 9.996 1.473 31.568-14.258 28.937-15.732-2.63-12.68-24.202 0-23.676s8.471 11.385 3.209 12.532" fill="none" stroke="#3e83c5" stroke-linejoin="round" stroke-miterlimit="10" stroke-width="3"/></g><g transform="translate(607.48 594.26)"><path d="m0 0s-2.833-9.649 6.62-12.806c9.454-3.157 15.066 6.671 9.804 12.806-5.261 6.135-11.642-3.065-7.4-6.708" fill="none" stroke="#3e83c5" stroke-linejoin="round" stroke-miterlimit="10" stroke-width="3"/></g><g transform="translate(381.96 127.29)"><path d="m0 0 36.286 94.9 14.886 13.028 5.582 20.467 19.539 14.888 12.095 71.641 37.216 72.572 24.392 68.85 16.748 7.442 13.025-4.651 21.399 15.817 25.122 5.582 16.765-8.374h19.52l29.773-13.025 7.444-13.026s12.217-1.861 14.482-4.652 31.836-152.12 31.836-152.12l19.539-6.979 10.234-21.4 34.424-87.457s21.401-5.582 24.192-7.443c2.791-1.862 34.424-77.223 34.424-77.223h-473.58z" fill="#2c3f6c"/></g><g clip-path="url(#clipPath20546)"><g transform="translate(686.74 279.18)"><path d="m0 0-4.981-24.203-37.216-11.574v22.097l-18.836 2.106-7.365-61.033-81.027 1.052-10.523-31.949h-18.941l13.68 112.98h33.673l12.994 5.261 5.947 72.608-5.947 57.478 48.574 13.178 17.354 9.318 10.417 52.963h-19.52l-16.766 8.374-25.121-5.582-21.399-15.817-13.026 4.651-16.747-7.442-24.392-68.85-37.216-72.572-12.095-71.641-19.539-14.888-5.583-20.467-14.886-13.027-36.285-94.901-4.652-11.164h413.26l-24.92 76.762 25.474 10.799v2e-3l-33.284 84.56-10.235 21.401-19.539 6.978-23.448-37.453z" fill="#2c3f6c"/></g></g><g transform="translate(582.56 366.52)"><path d="m0 0v32.621l31.539 17.889 10.92 82.427-16.766 8.374-25.121-5.582-21.399-15.817 12.409-119.91z" fill="#3e83c5"/></g><g transform="translate(659.38 437.18)"><path d="m0 0 22.378 36.23-7.443 13.026-29.773 13.025v-62.281z" fill="#db8928"/></g><g transform="translate(704.62 279.18)"><path d="m0 0 23.448 37.453s-29.571 149.33-31.836 152.12l-9.501-189.57z" fill="#db8928"/></g><g transform="translate(507.57 414.79)"><path d="m0 0-37.216-72.572-12.096-71.641 21.18-21.914h13.679l24.203 154.69 17.889 15.785 13.5 71.948-16.747-7.442z" fill="#3e83c5"/></g><g transform="translate(440.5 214.99)"><path d="m0 0-7.366 20.232-14.886-13.027-36.286-94.9-4.651-11.164h34.777l10.523 45.193 24.202-5.262v-39.931h46.301l-30.516 98.859z" fill="#3e83c5"/></g><g transform="translate(561.73 103.85)"><path d="m0 0 12.409 163.76 19.235 11.574 7.072 57.875 33.673 43.145h10.417v-74.713l-19.52-8.418 4.894-132.99h56.823l28.412 7.771 26.308-7.771 41.039-60.229z" fill="#3e83c5"/></g><g transform="translate(816.46 193.35)"><path d="m0 0c-2.791 1.861-24.191 7.443-24.191 7.443l-34.424 87.457-10.235 21.401-14.576-9.43 32.621-107.33 16.837-7.367 19.993-69.395h48.4s-31.634 75.362-34.425 77.223" fill="#db8928"/></g><g transform="translate(608.25 507.83)"><path d="m0 0-25.121-5.582 10.244-19.977h20.723l4.767-29.254 6.153 46.439z" fill="#db8928"/></g><g transform="translate(1098.4 370.75)"><path d="m0 0c-0.062 0 0.06-5.914-3e-3 -5.908-118.22 8.814-271.56-3.278-282.07-4.168-2.901-0.244-81.439 34.758-157 113.08-36.972 38.324-72.913 75.74-73.27 76.129-0.934 1.017-0.929 2.246 0.088 3.179 1.018 0.934 0 0 0.933-1.016 0.352-0.383 36.979-37.075 73.601-75.066 66.312-68.785 154.84-108.18 157.44-108.39 13.492 1.164 266.5 8.189 280.47 7.148 1.377-0.103 2.41-1.303 2.307-2.68-0.097-1.314-1.194-2.314-2.49-2.314" fill="#2c3f6c"/></g><g transform="translate(587.1 500.02)"><path d="m0 0c-0.953-0.14 0 81.706 0 81.706" fill="none" stroke="#2c3f6c" stroke-linecap="round" stroke-miterlimit="10" stroke-width="2"/></g><g transform="translate(594.91 562.37)"><path d="m0 0c0-0.653-0.529-1.182-1.182-1.182h-14.089c-0.652 0-1.182 0.529-1.182 1.182s0.53 1.182 1.182 1.182h14.089c0.653 0 1.182-0.529 1.182-1.182" fill="#2c3f6c"/></g><g transform="translate(822.8 426.65)"><path d="m0 0c-0.608-3.043-0.608-5.885-0.608-7.508 0-1.625-0.997-8.119-0.997-8.119s-3.063 7.713-3.266 11.162c-0.202 3.451-0.608 8.727-1.42 10.756-0.813 2.029-2.842 4.668-2.232 5.887 0.608 1.217 5.073 7.914 5.073 7.914s1.014-12.988 2.232-14.408c1.218-1.422 1.827-2.639 1.218-5.684m116.85 79.744c-0.088 0.609-7.998 3.651-9.042 3.911-1.043 0.262-14.082-1.043-14.082-1.043v1.391c0 0.261-2.001 0.522-6.434 0.608-4.434 0.087-14.083 2.522-17.908 2.956-3.824 0.435-7.128 2.956-8.693 3.217-1.563 0.261-2.173-0.522-7.215-0.609-5.042-0.086-19.474 10.259-23.733 13.562-4.26 3.304-6.519 4.433-6.519 4.694s-0.261 2.174-0.261 2.174 2.607-0.435 4.086 2.608c1.477 3.042 2.52 10.084 2.52 10.084s1.912 0.261 2.434 3.912c0.521 3.651-2.521 7.477-2.521 7.477s-1.216-1.826-3.477 0.086c-2.26 1.913-8.607 5.825-15.039 0-6.434-5.824-3.565-14.431-2.869-16.691 0.695-2.26 0.869-3.825 0.869-3.825 1.305-0.347 1.39 0 1.39 0v-1.999s-4.335 0.65-6.23 1.732-7.034 2.571-10.281 4.195c-3.248 1.623-5.413 1.082-7.307 1.758-1.893 0.677-5.142 4.33-6.088 5.818-0.947 1.488-2.977 0.677-4.6 1.759-1.624 1.083-7.307 14.341-7.712 15.289-0.407 0.946 0 2.841-0.407 4.058-0.406 1.218-2.029 2.301-2.029 2.301l-0.406 5.547s1.488 0.406 1.759 1.759c0.27 1.353 2.976 4.329 4.058 5.141s2.165 1.488 1.76 2.571c-0.406 1.082-2.301-0.677-2.977-0.541-0.677 0.135-0.271 5.682-0.271 6.494s-1.353 1.488-1.353 1.488-0.812 1.082-1.894 1.356c-1.082 0.273-1.623-0.409-2.57-0.274-0.948 0.136-1.489 0.542-1.895 0-0.405-0.541-0.405-3.923-0.676-5.953-0.27-2.029-0.947-5.141-1.353-7.171-0.405-2.029-0.812-10.959-0.812-10.959-1.76 0-1.488-1.353-1.488-1.353s2.706-18.129 3.789-23.677c1.083-5.547 9.876-16.1 13.395-21.106 3.517-5.006 6.222-7.171 6.764-9.877 0.541-2.706-1.624-28.684-1.624-28.684s-6.359-3.653-6.9-8.93c-0.54-5.275 0.406-20.158 0.541-23.406 0.135-3.246-4.464-14.071-3.924-17.453 0.541-3.383 5.548-9.877 6.225-11.5 0.675-1.623 2.976-7.983 3.382-12.178 0.406-4.193 13.123-38.018 13.123-38.018s-2.164-2.166-2.975-3.654c-0.813-1.488 1.082-2.435 1.758-2.977 0.676-0.539 2.165-2.974 3.383-5.003 1.217-2.03 3.111-2.166 3.517-2.03 0.406 0.135 1.488 4.735 1.488 4.735s1.218-1.354 1.759-4.465c0.541-3.113 0-7.848 0-9.199 0-1.356 5.548 2.705 5.573 3.38 0.026 0.678 2.951 4.194 3.763 6.629 0.812 2.436 2.841 3.924 3.383 4.871 0.541 0.948-1.489 5.954-1.489 5.954l1.083 1.625-2.03 7.304c0.135 0.678 5.412 57.772 5.547 64.268 0.135 6.494 2.977 19.889 2.436 25.164-0.542 5.277-2.773 8.051-4.126 8.93-1.354 0.88-1.421 2.232-1.421 2.232h2.706c1.894 0 3.45 1.15 5.006 4.534 1.556 3.383 3.788 11.5 3.788 11.5s5.683-0.069 6.494-0.135c0.813-0.068 4.06-2.774 7.307-3.248 3.247-0.473 6.156 2.165 6.156 2.165l12.244 0.203s1.421-0.88 3.653-1.352c2.233-0.474 32.337 0.489 32.337 0.489v2.284l1.489-0.88c1.487-0.88 4.017-0.109 6.365-0.022 2.347 0.087 4.868-0.348 7.129-1.217 2.26-0.87 2.26 1.999 1.217 1.912-1.043-0.088-1.217 1.478-1.217 1.478l5.738-1.13s1.042 0 1.129 0.695c0.088 0.695-4.086 2.695-4.086 2.695l4.956-1.565s0.522 0.522 0.435 1.131" fill="#2c3f6c"/></g></g></g><g transform="matrix(1.0055 0 0 1.0055 1075.1 481.68)"><path d="m0 0c0-189.84-153.9-343.74-343.74-343.74-189.84 0-343.74 153.9-343.74 343.74 0 189.84 153.9 343.74 343.74 343.74 189.84 0 343.74-153.9 343.74-343.74z" fill="none" stroke="#3e83c5" stroke-linejoin="round" stroke-miterlimit="10" stroke-width="3"/></g><g transform="matrix(1.0055 0 0 1.0055 39.373 -4.7436)" clip-path="url(#clipPath20622)"><g><g transform="translate(413.43 674.44)"><path d="m0 0s-52.452-3.357-83.504-45.739c0 0-15.947 28.114-44.061 32.311-28.114 4.196-55.39-18.044-55.39-18.044" fill="none" stroke="#3e83c5" stroke-linejoin="round" stroke-miterlimit="10" stroke-width="3"/></g><g transform="translate(354.55 564.6)"><path d="m0 0s-14.133 25.006-54.417 8.464c0 0-6.714 24.173-35.668 26.474-28.954 2.302-55.81-20.776-57.488-44.275s29.793-27.695 37.766-10.911c7.973 16.785-15.945 29.793-24.338 17.205-8.393-12.589 6.713-23.08 15.945-11.33" fill="none" stroke="#3e83c5" stroke-linejoin="round" stroke-miterlimit="10" stroke-width="3"/></g><g transform="translate(352.17 550.65)"><path d="m0 0s-52.872 9.971-80.567-39.914c0 0-12.169 10.961-28.115 5.086s-13.008-16.785-13.008-16.785" fill="none" stroke="#3e83c5" stroke-linejoin="round" stroke-miterlimit="10" stroke-width="3"/></g><g transform="translate(1027.2 510.74)"><path d="m0 0s2.593 44.101 71.189 37.434c0 0 19.931 26.001 56.597 32.667 36.666 6.667 69.334-25.333 76-53.333" fill="none" stroke="#3e83c5" stroke-linejoin="round" stroke-miterlimit="10" stroke-width="3"/></g><g transform="translate(997.02 376.84)"><path d="m0 0s1.263 37.332 51.333 33.332c0 0 31.333 42 92 36.668 60.667-5.334 62.668-56.668 41.334-76.668s-57.334 19.135-32.667 38.568c24.667 19.432 40.667-15.902 26.667-24.568s-25.204 8.107-14.667 18" fill="none" stroke="#3e83c5" stroke-linejoin="round" stroke-miterlimit="10" stroke-width="3"/></g><g transform="translate(1079.4 472.5)"><path d="m0 0s9 18 33 22 31-10.736 31-10.736 19 33.736 58 33.736 47-38 47-38 18 16.528 33 4.264" fill="none" stroke="#3e83c5" stroke-linejoin="round" stroke-miterlimit="10" stroke-width="3"/></g><g transform="translate(332.35 364.63)"><path d="m0 0s-20 35.873-66 7.873c0 0 4 19-15 22s-27-14.935-27-14.935" fill="none" stroke="#3e83c5" stroke-linejoin="round" stroke-miterlimit="10" stroke-width="3"/></g><g transform="translate(984.35 639.49)"><path d="m0 0s37 50.988 125 0c0 0 19 16.649 38 11.331 19-5.319 19-22.123 19-22.123" fill="none" stroke="#3e83c5" stroke-linejoin="round" stroke-miterlimit="10" stroke-width="3"/></g><g transform="translate(619.15 773.4)"><path d="m0 0c0-42.234-34.237-76.47-76.471-76.47-42.235 0-76.471 34.236-76.471 76.47s34.236 76.472 76.471 76.472c42.234 0 76.471-34.238 76.471-76.472" fill="#f2b777"/><path d="m0 0c0-42.234-34.237-76.47-76.471-76.47-42.235 0-76.471 34.236-76.471 76.47s34.236 76.472 76.471 76.472c42.234 0 76.471-34.238 76.471-76.472z" fill="none" stroke="#3e83c5" stroke-linejoin="round" stroke-miterlimit="10" stroke-width="3"/></g><g transform="translate(804.44 694.37)"><path d="m0 0c0-3.314-2.687-6-6-6s-6 2.686-6 6c0 3.313 2.687 6 6 6s6-2.687 6-6" fill="#fff"/></g><g transform="translate(763.94 772.48)"><path d="m0 0c0-5.203-4.218-9.42-9.42-9.42-5.203 0-9.421 4.217-9.421 9.42s4.218 9.42 9.421 9.42c5.202 0 9.42-4.217 9.42-9.42" fill="#fff"/></g><g transform="translate(676.94 716.65)"><path d="m0 0c0-2.899-2.351-5.25-5.25-5.25s-5.25 2.351-5.25 5.25 2.351 5.25 5.25 5.25 5.25-2.351 5.25-5.25" fill="#fff"/></g><g transform="translate(385.96 741.4)"><path d="m0 0c0-4.142-3.357-7.5-7.5-7.5-4.142 0-7.499 3.358-7.499 7.5s3.357 7.5 7.499 7.5c4.143 0 7.5-3.358 7.5-7.5" fill="#fff"/></g><g transform="translate(457.96 695.87)"><path d="m0 0c0-2.485-2.015-4.5-4.5-4.5s-4.5 2.015-4.5 4.5 2.015 4.5 4.5 4.5 4.5-2.015 4.5-4.5" fill="#fff"/></g><g transform="translate(435.46 768.9)"><path d="m0 0c0-2.485-2.015-4.5-4.5-4.5s-4.5 2.015-4.5 4.5 2.015 4.5 4.5 4.5 4.5-2.015 4.5-4.5" fill="#fff"/></g><g transform="translate(628.95 852)"><path d="m0 0c0-2.704-2.192-4.896-4.896-4.896-2.705 0-4.897 2.192-4.897 4.896 0 2.705 2.192 4.897 4.897 4.897 2.704 0 4.896-2.192 4.896-4.897" fill="#fff"/></g><g transform="translate(929.22 668.3)"><path d="m0 0c0-3.393-2.75-6.143-6.144-6.143-3.392 0-6.142 2.75-6.142 6.143s2.75 6.143 6.142 6.143c3.394 0 6.144-2.75 6.144-6.143" fill="#fff"/></g><g transform="translate(1016.6 755.98)"><path d="m0 0c0-3.91-3.17-7.079-7.079-7.079-3.91 0-7.079 3.169-7.079 7.079 0 3.909 3.169 7.079 7.079 7.079 3.909 0 7.079-3.17 7.079-7.079" fill="#fff"/></g><g transform="translate(1041.4 721.9)"><path d="m0 0h-4.5 2.25z" fill="#fff"/></g><g transform="translate(880.93 823.75)"><path d="m0 0c0-2.071-1.679-3.75-3.75-3.75s-3.75 1.679-3.75 3.75 1.679 3.75 3.75 3.75 3.75-1.679 3.75-3.75" fill="#fff"/></g><g transform="translate(841.52 752.44)"><path d="m0 0c0-1.955-1.585-3.54-3.54-3.54-1.954 0-3.539 1.585-3.539 3.54s1.585 3.54 3.539 3.54c1.955 0 3.54-1.585 3.54-3.54" fill="#fff"/></g><g transform="translate(573.59 665.23)"><path d="m0 0c0-1.697-1.375-3.072-3.072-3.072-1.696 0-3.071 1.375-3.071 3.072 0 1.696 1.375 3.071 3.071 3.071 1.697 0 3.072-1.375 3.072-3.071" fill="#fff"/></g><g transform="translate(745.1 860.32)"><path d="m0 0c0-2.253-1.826-4.079-4.079-4.079s-4.079 1.826-4.079 4.079 1.826 4.079 4.079 4.079 4.079-1.826 4.079-4.079" fill="#fff"/></g><g transform="translate(711.35 781.9)"><path d="m0 0h-10.409 5.204z" fill="#fff"/></g><g transform="translate(1047.4 697.37)"><path d="m0 0c0-1.657-1.343-3-3-3s-3 1.343-3 3 1.343 3 3 3 3-1.343 3-3" fill="#fff"/></g><g transform="translate(997.02 824.96)"><path d="m0 0c0-1.406-1.14-2.545-2.546-2.545-1.405 0-2.545 1.139-2.545 2.545s1.14 2.545 2.545 2.545c1.406 0 2.546-1.139 2.546-2.545" fill="#fff"/></g><g transform="translate(880.93 733.9)"><path d="m0 0h-3.75 1.875z" fill="#fff"/></g><g transform="translate(332.35 705.89)"><path d="m0 0v-5.518 11.036z" fill="#fff"/></g><g transform="translate(792.44 682.33)"><path d="m0 0c0-3.332-2.701-6.033-6.033-6.033s-6.033 2.701-6.033 6.033c0 3.333 2.701 6.034 6.033 6.034s6.033-2.701 6.033-6.034" fill="#fff"/></g><g transform="translate(1109.9 757.34)"><path d="m0 0h-24.63c-4.482 0-8.116 3.125-8.116 6.98 0 3.856 3.634 6.981 8.116 6.981h2.273c5.33 0 9.65 3.716 9.65 8.299 0 4.584-4.32 8.3-9.65 8.3h-77.994c-5.33 0-9.65-3.716-9.65-8.3 0-4.583 4.32-8.299 9.65-8.299h8.651c4.482 0 8.117-3.125 8.117-6.981 0-3.855-3.635-6.98-8.117-6.98h-27.651c-4.193 0-7.591-2.923-7.591-6.528 0-3.606 3.398-6.529 7.591-6.529h119.35c4.192 0 7.592 2.923 7.592 6.529 0 3.605-3.4 6.528-7.592 6.528" fill="#fff"/></g><g transform="translate(365.66 796.99)"><path d="m0 0h-18.04c-3.282 0-5.944 2.289-5.944 5.112 0 2.825 2.662 5.113 5.944 5.113h1.665c3.904 0 7.068 2.722 7.068 6.079s-3.164 6.078-7.068 6.078h-57.124c-3.904 0-7.068-2.721-7.068-6.078s3.164-6.079 7.068-6.079h6.335c3.284 0 5.946-2.288 5.946-5.113 0-2.823-2.662-5.112-5.946-5.112h-20.251c-3.071 0-5.561-2.141-5.561-4.782s2.49-4.781 5.561-4.781h87.415c3.071 0 5.561 2.14 5.561 4.781s-2.49 4.782-5.561 4.782" fill="#fff"/></g><g transform="translate(524.47 763.62)"><path d="m0 0h-126.29c-3.687 0-6.675-2.988-6.675-6.675 0-3.686 2.988-6.675 6.675-6.675h35.915c2.649 0 4.796-2.147 4.796-4.796 0-2.648-2.147-4.796-4.796-4.796h1.146c-2.378 0-4.306-1.928-4.306-4.307 0-2.377 1.928-4.306 4.306-4.306h22.085c2.648 0 4.796-2.147 4.796-4.796s-2.148-4.796-4.796-4.796h-3.835c-2.163 0-3.916-1.753-3.916-3.916s1.753-3.916 3.916-3.916h39.518c2.162 0 3.915 1.753 3.915 3.916s-1.753 3.916-3.915 3.916h-4.311c-2.648 0-4.796 2.147-4.796 4.796s2.148 4.796 4.796 4.796h15.801c2.379 0 4.307 1.929 4.307 4.306 0 2.379-1.928 4.307-4.307 4.307h-26.081c-2.649 0-4.796 2.148-4.796 4.796 0 2.649 2.147 4.796 4.796 4.796h46.055c3.687 0 6.675 2.989 6.675 6.675 0 3.687-2.988 6.675-6.675 6.675" fill="#fff"/></g><g transform="translate(523.38 718.45)"><path d="m0 0c0-2.103-1.705-3.807-3.807-3.807h-10.361c-2.103 0-3.808 1.704-3.808 3.807s1.705 3.807 3.808 3.807h10.361c2.102 0 3.807-1.704 3.807-3.807" fill="#fff"/></g><g transform="translate(683.78 803.4)"><path d="m0 0h193.18c4.217 0 7.635-3.418 7.635-7.636 0-4.217-3.418-7.635-7.635-7.635h-75.785c-3.268 0-5.918-2.649-5.918-5.917 0-3.269 2.65-5.918 5.918-5.918h29.016c3.269 0 5.918-2.65 5.918-5.918s-2.649-5.917-5.918-5.917h-0.023c-3.268 0-5.917-2.65-5.917-5.918 0-3.269 2.649-5.918 5.917-5.918h1.325c2.55 0 4.616-2.067 4.616-4.617 0-2.549-2.066-4.616-4.616-4.616h-74.767c-2.55 0-4.616 2.067-4.616 4.616 0 2.55 2.066 4.617 4.616 4.617h23.643c3.268 0 5.918 2.649 5.918 5.918 0 3.268-2.65 5.918-5.918 5.918h-88.278c-3.267 0-5.917 2.649-5.917 5.917s2.65 5.918 5.917 5.918h27.907c3.267 0 5.917 2.649 5.917 5.918 0 3.268-2.65 5.917-5.917 5.917h-36.22c-4.218 0-7.636 3.418-7.636 7.635 0 4.218 3.418 7.636 7.636 7.636" fill="#fff"/></g></g><g transform="translate(841.47 694.03)"><path d="m0 0s17.108 12.963 32.913 0.895c0 0 2.66 1.33 4.819-0.84 0 0 15.888 7.145 26.19-8.162 0 0-9.115 8.438-26.342 3.153l2.354-6.413-15.087 3.96 6.831 4.822s-11.821 11.176-31.678 2.585" fill="#1c5166"/></g><g transform="translate(924.15 802.68)"><path d="m0 0s12.483 26.495 39.225 21.902c0 0 2.376 3.291 6.359 2.033 0 0 14.687 18.688 36.824 6.7 0 0-16.357 4.434-33.841-12.851l6.903-6.265-20.746-4.757 5.21 10.151s-21.362 6.036-39.934-16.913" fill="#1c5166"/></g><g transform="translate(619.15 692.58)"><path d="m0 0s14.538 9.031 26.195-1.715c0 0 2.21 0.86 3.765-1.023 0 0 13.139 4.502 20.189-8.41 0 0-6.615 7.37-20.68 4.445l1.396-5.265-11.687 4.256 5.78 3.324s-8.56 9.745-24.958 4.388" fill="#1c5166"/></g><g transform="translate(419.05 825.57)"><path d="m0 0s6.033 9.46 15.971 6.413c0 0 1.062 1.135 2.515 0.463 0 0 6.49 6.387 14.319 0.753 0 0-6 2.481-13.485-3.235l2.318-2.717-8.115-0.798 2.474 3.604s-7.823 3.333-15.997-4.483" fill="#1c5166"/></g><g transform="translate(299.95 714.34)"><path d="m0 0s10.048 6.081 17.962-1.386c0 0 1.523 0.573 2.575-0.732 0 0 9.052 2.985 13.786-5.931 0 0-4.48 5.11-14.155 3.215l0.916-3.624-7.985 3.013 3.992 2.236s-5.796 6.754-17.091 3.209" fill="#1c5166"/></g></g></g></svg>
