<?xml version="1.0" encoding="UTF-8" standalone="no"?>
<svg
   width="993.02985"
   height="1008.3081"
   version="1.1"
   viewBox="0 0 993.02987 1008.3081"
   xml:space="preserve"
   id="svg432"
   sodipodi:docname="visokica.svg"
   inkscape:version="1.1.2 (76b9e6a115, 2022-02-25)"
   xmlns:inkscape="http://www.inkscape.org/namespaces/inkscape"
   xmlns:sodipodi="http://sodipodi.sourceforge.net/DTD/sodipodi-0.dtd"
   xmlns="http://www.w3.org/2000/svg"
   xmlns:svg="http://www.w3.org/2000/svg"><sodipodi:namedview
     id="namedview434"
     pagecolor="#505050"
     bordercolor="#ffffff"
     borderopacity="1"
     inkscape:pageshadow="0"
     inkscape:pageopacity="0"
     inkscape:pagecheckerboard="1"
     showgrid="false"
     inkscape:zoom="0.50815032"
     inkscape:cx="485.09268"
     inkscape:cy="506.73982"
     inkscape:window-width="1532"
     inkscape:window-height="836"
     inkscape:window-x="68"
     inkscape:window-y="27"
     inkscape:window-maximized="1"
     inkscape:current-layer="g430"
     fit-margin-top="0"
     fit-margin-left="0"
     fit-margin-right="0"
     fit-margin-bottom="0" /><defs
     id="defs44"><clipPath
       id="clipPath18"><path
         d="M 0,980 H 1400 V 0 H 0 Z"
         id="path2" /></clipPath><clipPath
       id="clipPath30"><path
         d="m 311.26,836.18 h 729.2 V 106.97 h -729.2 z"
         id="path5" /></clipPath><clipPath
       id="clipPath46"><path
         d="m 324.76,498.62 c 0,-201.36 163.24,-364.6 364.6,-364.6 201.36,0 364.6,163.24 364.6,364.6 0,201.36 -163.24,364.6 -364.6,364.6 -201.37,0 -364.6,-163.24 -364.6,-364.6"
         id="path8" /></clipPath><clipPath
       id="clipPath54"><path
         d="M 408.78,634.44 H 633 V 410.22 H 408.78 Z"
         id="path11" /></clipPath><clipPath
       id="clipPath70"><path
         d="M 435.03,608.19 H 606.74 V 436.48 H 435.03 Z"
         id="path14" /></clipPath><clipPath
       id="clipPath86"><path
         d="M 448.73,594.49 H 593.05 V 450.17 H 448.73 Z"
         id="path17" /></clipPath><clipPath
       id="clipPath194"><path
         d="m 395.81,714.92 c -44.664,-60.511 -71.056,-135.31 -71.056,-216.29 0,-201.36 163.24,-364.6 364.6,-364.6 201.36,0 364.6,163.24 364.6,364.6 0,80.981 -26.391,155.78 -71.056,216.29 z"
         id="path20" /></clipPath><clipPath
       id="clipPath380"><path
         d="m 324.76,498.62 c 0,-201.36 163.24,-364.6 364.6,-364.6 201.36,0 364.6,163.24 364.6,364.6 0,201.36 -163.24,364.6 -364.6,364.6 -201.37,0 -364.6,-163.24 -364.6,-364.6"
         id="path23" /></clipPath><clipPath
       id="clipPath400"><path
         d="m 301.46,550.84 h 63.901 V 380.11 H 301.46 Z"
         id="path26" /></clipPath><clipPath
       id="clipPath432"><path
         d="m 294.13,550.84 h 17.101 V 180.46 H 294.13 Z"
         id="path29" /></clipPath><clipPath
       id="clipPath448"><path
         d="m 354.62,504.86 h 21.685 V 331.99 H 354.62 Z"
         id="path32" /></clipPath><clipPath
       id="clipPath500"><path
         d="m 1021.8,550.84 h 63.9 V 380.11 h -63.9 z"
         id="path35" /></clipPath><clipPath
       id="clipPath532"><path
         d="M 1075.9,550.84 H 1093 V 180.46 h -17.1 z"
         id="path38" /></clipPath><clipPath
       id="clipPath740"><path
         d="M 0,980 H 1400 V 0 H 0 Z"
         id="path41" /></clipPath></defs><g
     transform="matrix(1.3333,0,0,-1.3333,-415.05629,1150.9312)"
     id="g430"
     inkscape:label="visokica"><g
       clip-path="url(#clipPath18)"
       id="g58"
       style="display:inline"
       inkscape:label="krog"><g
         transform="translate(1054,498.62)"
         id="g50"><path
           d="m 0,0 c 0,-201.36 -163.24,-364.6 -364.6,-364.6 -201.36,0 -364.6,163.24 -364.6,364.6 0,201.36 163.24,364.6 364.6,364.6 C -163.23,364.6 0,201.36 0,0"
           fill="#30b0a4"
           id="path48" /></g><g
         clip-path="url(#clipPath30)"
         id="g56"><g
           transform="translate(1040.5,471.57)"
           id="g54"><path
             d="m 0,0 c 0,-201.36 -163.24,-364.6 -364.6,-364.6 -201.36,0 -364.6,163.24 -364.6,364.6 0,201.36 163.24,364.6 364.6,364.6 C -163.23,364.6 0,201.36 0,0"
             fill="#61d4c9"
             id="path52" /></g></g></g><g
       transform="translate(0,0.225)"
       display="inline"
       id="g84"
       inkscape:label="sonce"><g
         clip-path="url(#clipPath46)"
         display="inline"
         id="g82"><g
           clip-path="url(#clipPath54)"
           opacity="0.60001"
           id="g64"><g
             transform="translate(633,522.33)"
             id="g62"><path
               d="m 0,0 c 0,-61.915 -50.193,-112.11 -112.11,-112.11 -61.917,0 -112.11,50.194 -112.11,112.11 0,61.916 50.193,112.11 112.11,112.11 C -50.193,112.11 0,61.917 0,0"
               fill="#fef3f5"
               id="path60" /></g></g><g
           clip-path="url(#clipPath70)"
           opacity="0.8"
           id="g70"><g
             transform="translate(606.74,522.33)"
             id="g68"><path
               d="m 0,0 c 0,-47.417 -38.438,-85.854 -85.854,-85.854 -47.417,0 -85.855,38.437 -85.855,85.854 0,47.417 38.438,85.854 85.855,85.854 C -38.438,85.854 0,47.417 0,0"
               fill="#f3e1e3"
               id="path66" /></g></g><g
           clip-path="url(#clipPath86)"
           opacity="0.5"
           id="g76"><g
             transform="translate(593.05,522.33)"
             id="g74"><path
               d="m 0,0 c 0,-39.853 -32.307,-72.16 -72.159,-72.16 -39.853,0 -72.159,32.307 -72.159,72.16 0,39.853 32.306,72.16 72.159,72.16 C -32.307,72.16 0,39.853 0,0"
               fill="#eebbbc"
               id="path72" /></g></g><g
           transform="translate(573.36,522.33)"
           id="g80"><path
             d="m 0,0 c 0,-28.98 -23.493,-52.472 -52.473,-52.472 -28.98,0 -52.472,23.492 -52.472,52.472 0,28.98 23.492,52.473 52.472,52.473 C -23.493,52.473 0,28.98 0,0"
             fill="#eebbbc"
             id="path78" /></g></g></g><g
       clip-path="url(#clipPath194)"
       id="g124"
       style="display:inline"
       inkscape:label="gora"><g
         transform="translate(294.13,351.41)"
         id="g88"><path
           d="m 0,0 60.489,54.212 h 5.706 l 17.691,-22.256 13.125,2.854 30.815,-15.409 8.559,7.704 11.984,-2.567 42.799,43.94 7.989,-3.995 5.118,5.905 4.421,-2.464 h 5.146 l 4.421,4.929 16.885,-4.422 10.727,1.594 30.656,-7.827 13.915,2.826 3.913,0.508 5.219,-1.522 18.118,5.87 3.407,5.942 15.771,12.533 4.565,5.612 12.364,7.133 14.551,11.318 h 0.952 l 25.774,-14.837 11.128,-0.286 11.223,-5.516 2.853,0.096 1.712,-0.191 8.369,-8.465 12.936,-5.231 2.947,0.191 6.183,-4.375 23.872,-13.03 11.983,0.286 3.424,-0.952 10.652,2.092 18.831,-12.744 9.702,-0.095 4.28,-1.141 8.75,3.803 12.078,2.093 14.647,9.796 1.522,-0.095 20.067,-6.753 c 0,0 3.424,0.191 3.71,0 0.285,-0.19 6.182,0.286 6.182,0.286 l 9.32,2.758 7.895,-2.568 10.747,6.658 2.187,-0.191 6.943,-3.328 15.598,-4.47 11.603,-9.512 17.69,-4.279 9.891,1.046 14.932,5.326 11.508,-3.994 5.707,1.901 3.805,-0.57 7.988,-4.09 11.128,5.992 c 0.666,0.096 4.66,-2.948 4.66,-2.948 C 753.62692,-355.039 -0.867,-345.279 0.003,0 Z"
           fill="#114056"
           id="path86" /></g><g
         id="g122"><g
           transform="translate(442.69,344.95)"
           id="g92"><path
             d="m 0,0 5.326,1.902 9.511,-4.946 12.174,1.902 c 0,0 8.369,14.077 9.13,16.166 0.761,2.09 7.989,11.226 7.989,11.226 l 14.457,3.424 32.416,45.878 -4.415,-0.656 -16.885,4.421 -4.421,-4.928 H 60.136 L 55.715,76.853 50.597,70.948 42.608,74.942 -0.191,31.003 -10.652,-6.468 Z"
             fill="#1c5166"
             id="path90" /></g><g
           transform="translate(520.68,338.48)"
           id="g96"><path
             d="m 0,0 c -0.38,2.283 0,54.021 0,54.021 l 22.065,21.304 5.706,3.045 V 42.893 l 9.512,-15.324 c 0,0 2.663,-15.394 2.663,-16.536 0,-1.141 -3.425,-16.076 -3.425,-16.076 L 22.776,1.996 27.341,29.565 22.065,42.893 15.979,33.098 7.609,5.326 Z"
             fill="#1c5166"
             id="path94" /></g><g
           transform="translate(663.44,463.83)"
           id="g100"><path
             d="m 0,0 h -0.951 l -14.551,-11.318 -12.365,-7.133 -4.565,-5.611 -15.771,-12.534 -3.406,-5.942 -18.119,-5.87 -5.218,1.522 -3.913,-0.508 -13.915,-2.826 -17.973,4.589 6.414,-4.394 31.576,-25.869 12.174,-16.739 5.326,30.055 3.044,15.598 42.608,17.119 z"
             fill="#1c5166"
             id="path98" /></g><g
           transform="translate(734.48,427.12)"
           id="g104"><path
             d="m 0,0 -6.468,1.521 -11.412,-11.792 -4.946,23.585 -22.826,2.665 -4.185,-13.697 c 0,0 -2.663,-9.89 -2.282,-11.889 0.38,-1.999 -6.087,-9.414 -6.467,-11.89 -0.381,-2.477 -12.461,-27.959 -12.461,-27.959 l -10.366,-27.392 12.174,15.776 23.587,39.575 5.364,8.181 h 12.896 l 12.175,-8.181 c 0,0 -14.457,-25.677 -14.837,-26.817 -0.381,-1.142 -23.207,-21.685 -24.348,-21.116 -1.141,0.571 -10.652,-1.711 -10.652,-1.711 l -16.359,-11.499 19.403,3.89 c 0,0 11.793,-4.565 13.315,-3.804 1.521,0.761 15.217,9.511 15.217,9.511 0,0 24.347,31.576 25.109,32.718 0.761,1.14 8.369,7.905 8.369,7.905 v 16.822 l -8.75,5.327 z"
             fill="#1c5166"
             id="path102" /></g><g
           transform="translate(687.69,286.36)"
           id="g108"><path
             d="m 0,0 69.999,35.76 25.109,31.196 c 0,0 -0.38,-10.652 0,-12.174 0.38,-1.522 1.522,-7.228 1.522,-8.94 0,-1.712 3.044,-7.8 3.424,-10.082 0.38,-2.282 -1.141,-11.031 0,-12.554 1.141,-1.521 6.467,-18.642 6.467,-18.642 0,0 -12.935,-4.564 -14.077,-4.564 -1.14,0 -45.651,-9.892 -45.651,-9.892 0,0 -26.25,2.284 -28.532,0 -2.283,-2.282 -11.414,-12.553 -12.174,-12.934 -0.762,-0.381 -9.511,9.89 -9.511,9.89 z"
             fill="#1c5166"
             id="path106" /></g><g
           transform="translate(822.36,382.8)"
           id="g112"><path
             d="m 0,0 -4.186,-7.656 -5.326,-3.946 h -18.639 c 0,0 -0.387,-4.844 0,-6.509 0.385,-1.665 -6.469,-8.707 -6.469,-8.707 l 11.413,-2.663 H 4.945 l 8.369,-3.044 -4.945,7.418 -5.706,20.735 h 1.141 c 1.141,0 16.473,-16.359 16.473,-16.359 V -8.097 L 32.857,2.476 37.282,18.073 42.418,32.525 27.771,22.729 15.692,20.637 6.942,16.833 9.511,8.182 Z"
             fill="#1c5166"
             id="path110" /></g><g
           transform="translate(794.21,255.93)"
           id="g116"><path
             d="m 0,0 -13.316,9.13 -12.174,4.946 c 0,0 -17.119,-8.75 -19.782,-10.271 C -47.937,2.283 -63.153,-9.892 -63.153,-9.892 L -88.342,-34.31 c 10.017,3.145 20.624,6.535 20.624,6.535 l 23.967,6.087 20.163,7.989 28.532,-3.805 h 6.848 c 0,0 -1.902,12.939 -1.902,14.08 C 9.89,-2.283 0,0 0,0"
             fill="#1c5166"
             id="path114" /></g><g
           transform="translate(529.81,304.62)"
           id="g120"><path
             d="M 0,0 -11.984,-7.988 -35.38,-26.437 -58.207,-41.094 h -9.701 l -14.266,17.127 -42.799,37.643 -10.842,-9.873 -11.984,-10.651 h -34.809 l -9.131,-6.562 h -11.413 l -16.549,6.562 -15.978,-10.808 v -67.94 l 20.734,0.38 c 0,0 17.996,11.426 23.789,14.723 l -4.007,6.01 c 0,0 -13.695,19.972 -13.695,23.389 0,3.417 7.989,8.568 9.701,6.479 1.712,-2.089 2.853,-1.346 2.853,-1.346 l 7.419,-7.978 c 0,0 11.983,1.711 13.695,2.845 1.712,1.134 -7.418,6.479 -7.418,6.479 l 1.712,10.648 12.554,6.848 5.706,-1.712 c 0,0 3.425,-16.549 5.136,-17.13 1.712,-0.58 6.277,-13.114 6.277,-13.114 0,0 14.267,-21.686 15.979,-23.968 0.578,-0.771 1.744,-2.456 3.033,-4.348 7.952,2.93 16.495,6.045 17.32,6.251 0.111,0.028 0.32,0.077 0.595,0.143 -0.474,1.661 -1.432,2.973 -1.831,2.87 -0.856,-0.221 -10.558,17.91 -10.558,19.622 0,1.712 -6.277,13.89 -6.277,13.89 l 0.571,8.178 c 0,0 14.837,-20.356 20.543,-22.638 4.937,-1.975 20.875,-13.056 26.646,-16.701 l 13.681,1.103 c 0,0 1.185,-0.84 3.129,-2.209 4.652,2.166 11.897,9.246 14.751,11.529 2.853,2.283 16.549,7.418 18.261,7.99 1.712,0.57 19.402,3.994 19.402,3.994 0,0 3.423,3.424 6.679,6.277 3.256,2.854 4.163,15.407 5.304,18.831 1.141,3.424 10.843,17.12 10.843,19.403 C 6.848,3.424 0,0 0,0"
             fill="#1c5166"
             id="path118" /></g></g></g><g
       clip-path="url(#clipPath380)"
       id="g256"
       style="display:inline"
       inkscape:label="stena"><g
         id="g1545"
         inkscape:label="stena desno"><g
           transform="translate(1093,442.66)"
           id="g128"><path
             d="M 0,0 -35.952,23.523 -47.745,38.846 -60.489,63.098 0,8.886 Z"
             fill="#f1dfdf"
             id="path126" /></g><g
           transform="translate(1081,247.72)"
           id="g132"><path
             d="m 0,0 12.01,-5.896 h -10e-4 l -41.552,20.969 c 0,0 -3.735,-7.114 -8.133,-14.374 l 14.088,-7.548 11.033,1.903 z"
             fill="#f1dfdf"
             id="path130" /></g><g
           transform="translate(1093,550.84)"
           id="g136"><path
             d="m 0,0 h -197.63 l 2.056,-15.355 17.475,-11.086 c 0,0 14.394,-67.468 13.879,-68.284 -0.514,-0.816 13.051,-8.012 13.051,-8.012 l 2.589,-77.966 13.144,-17.125 24.159,-82.241 c 0,0 -1.028,-21.469 0,-22.043 1.028,-0.573 7.196,-12.909 7.196,-12.909 l 5.267,-54.999 H 0.001 Z"
             fill="#114056"
             id="path134" /></g><g
           clip-path="url(#clipPath500)"
           opacity="0.39999"
           id="g142"><g
             transform="translate(1082.3,529.53)"
             id="g140"><path
               d="m 0,0 -13.229,-149.43 h -8.56 l -4.565,102.83 -32.304,45.055 -1.828,-0.377 6.424,23.227 H 3.416 Z"
               fill="#114056"
               id="path138" /></g></g><g
           transform="translate(928.82,456.11)"
           id="g146"><path
             d="M 0,0 13.051,80.443 V -8.012 Z"
             fill="#1c5166"
             id="path144" /></g><g
           transform="translate(897.47,535.48)"
           id="g150"><path
             d="M 0,0 22.081,5.758 74.312,0 c 0,0 9.107,1.073 10.384,1.073 C 85.975,1.073 96.76,0 96.76,0 l 19.031,-7.872 43.447,8.945 17.038,-7.019 4.15,-50.911 7.778,-13.805 7.371,-42.567 V 15.351 H -2.055 Z"
             fill="#1c5166"
             id="path148" /></g><g
           transform="translate(974.07,520.4)"
           id="g154"><path
             d="m 0,0 9.371,3.991 17.89,-14.676 c 0,0 5.111,-123.53 3.833,-123.1 -1.278,0.426 -8.093,0 -8.093,0 l -0.426,-20.793 -8.945,-35.859 11.074,-26.793 -9.814,-67.358 c 0,0 -6.168,12.336 -7.197,12.909 -1.027,0.574 0,22.043 0,22.043 l -24.158,82.241 6.668,163.97 z"
             fill="#1c5166"
             id="path152" /></g><g
           transform="translate(1075.9,180.46)"
           id="g158"><path
             d="m 0,0 -19.167,178.05 -8.094,2.555 -2.555,96.762 -8.946,8.358 -7.667,-138.77 -8.944,-8.258 L -70.571,60.42 -65.17,0.001 Z"
             fill="#1c5166"
             id="path156" /></g><g
           clip-path="url(#clipPath532)"
           opacity="0.60001"
           id="g164"><g
             transform="translate(1085.7,180.92)"
             id="g162"><path
               d="m 0,0 v 343.48 l -9.779,26.44 H 7.322 V -0.46 Z"
               fill="#114056"
               id="path160" /></g></g><g
           transform="translate(982.16,536.55)"
           id="g168"><path
             d="m 0,0 c -1.277,0 -10.385,-1.073 -10.385,-1.073 l -7.605,0.838 -19.607,14.517 H 5.309 c 1.712,0 17.897,-7.606 17.897,-7.606 L 31.095,-8.945 12.063,-1.073 C 12.063,-1.073 1.278,0 0,0"
             fill="#3c6f8e"
             id="path166" /></g><g
           transform="translate(983.44,524.39)"
           id="g172"><path
             d="m 0,0 -1.954,-90.828 -9.709,5.044 -3.414,26.86 -5.787,9.803 1.696,41.706 z"
             fill="#3c6f8e"
             id="path170" /></g><g
           transform="translate(928.82,527.61)"
           id="g176"><path
             d="m 0,0 -4.352,-48.628 c -4.073,19.848 -9.527,45.414 -9.527,45.414 L -31.354,7.872 -33.41,23.227 -9.827,15.621 Z"
             fill="#3c6f8e"
             id="path174" /></g><g
           transform="translate(958.71,380.1)"
           id="g180"><path
             d="m 0,0 7.08,-30.138 15.7,-13.696 1.954,-61.63 h -2.815 l -23.021,78.367 z"
             fill="#3c6f8e"
             id="path178" /></g></g><g
         id="g1515"
         inkscape:label="stena levo"><g
           transform="translate(294.13,442.66)"
           id="g184"><path
             d="M 0,0 35.952,23.523 47.745,38.846 60.489,63.098 0,8.886 Z"
             fill="#f1dfdf"
             id="path182" /></g><g
           transform="translate(306.14,247.72)"
           id="g188"><path
             d="m 0,0 -12.01,-5.896 h 10e-4 l 41.552,20.969 c 0,0 3.735,-7.114 8.133,-14.374 L 23.587,-6.849 12.554,-4.946 Z"
             fill="#f1dfdf"
             id="path186" /></g><g
           transform="translate(294.13,550.84)"
           id="g192"><path
             d="m 0,0 h 197.63 l -2.056,-15.355 -17.476,-11.086 c 0,0 -14.392,-67.468 -13.878,-68.284 0.514,-0.816 -13.051,-8.012 -13.051,-8.012 l -2.589,-77.966 -13.144,-17.125 -24.159,-82.241 c 0,0 1.028,-21.469 0,-22.043 -1.028,-0.573 -7.196,-12.909 -7.196,-12.909 L 98.814,-370.02 H -0.001 Z"
             fill="#114056"
             id="path190" /></g><g
           clip-path="url(#clipPath400)"
           opacity="0.39999"
           id="g198"><g
             transform="translate(304.87,529.53)"
             id="g196"><path
               d="m 0,0 13.229,-149.43 h 8.559 l 4.566,102.83 32.303,45.055 1.828,-0.377 -6.424,23.227 H -3.416 Z"
               fill="#114056"
               id="path194" /></g></g><g
           transform="translate(458.35,456.11)"
           id="g202"><path
             d="M 0,0 -13.051,80.443 V -8.012 Z"
             fill="#1c5166"
             id="path200" /></g><g
           transform="translate(489.71,535.48)"
           id="g206"><path
             d="M 0,0 -22.082,5.758 -74.312,0 c 0,0 -9.107,1.073 -10.385,1.073 C -85.975,1.073 -96.76,0 -96.76,0 l -19.031,-7.872 -43.447,8.945 -17.038,-7.019 -4.15,-50.911 -7.777,-13.805 -7.372,-42.567 V 15.351 H 2.055 Z"
             fill="#1c5166"
             id="path204" /></g><g
           transform="translate(413.1,520.4)"
           id="g210"><path
             d="m 0,0 -9.371,3.991 -17.89,-14.676 c 0,0 -5.111,-123.53 -3.833,-123.1 1.278,0.426 8.093,0 8.093,0 l 0.426,-20.793 8.945,-35.859 -11.075,-26.793 9.815,-67.358 c 0,0 6.169,12.336 7.197,12.909 1.027,0.574 0,22.043 0,22.043 l 24.158,82.241 -6.668,163.97 z"
             fill="#1c5166"
             id="path208" /></g><g
           transform="translate(311.23,180.46)"
           id="g214"><path
             d="m 0,0 19.168,178.05 8.093,2.555 2.556,96.762 8.945,8.358 7.667,-138.77 8.945,-8.258 15.197,-78.277 -5.4,-60.419 z"
             fill="#1c5166"
             id="path212" /></g><g
           clip-path="url(#clipPath432)"
           opacity="0.60001"
           id="g220"><g
             transform="translate(301.45,180.92)"
             id="g218"><path
               d="m 0,0 v 343.48 l 9.778,26.44 H -7.323 V -0.46 Z"
               fill="#114056"
               id="path216" /></g></g><g
           clip-path="url(#clipPath448)"
           opacity="0.39999"
           id="g226"><g
             transform="translate(373.92,504.86)"
             id="g224"><path
               d="m 0,0 2.39,-142.26 -10.95,-30.605 -10.735,131.8 7.812,12.933 L -8.56,0 Z"
               fill="#114056"
               id="path222" /></g></g><g
           transform="translate(405.01,536.55)"
           id="g230"><path
             d="m 0,0 c 1.278,0 10.385,-1.073 10.385,-1.073 l 7.605,0.838 19.608,14.517 H -5.308 c -1.712,0 -17.898,-7.606 -17.898,-7.606 l -7.888,-15.621 19.031,7.872 C -12.063,-1.073 -1.278,0 0,0"
             fill="#3c6f8e"
             id="path228" /></g><g
           transform="translate(369.24,181.02)"
           id="g234"><path
             d="m 0,0 h -14.62 l -8.102,104.42 8.102,5.991 L 0,39.369 10.426,35.931 7.164,-0.565 Z"
             fill="#3c6f8e"
             id="path232" /></g><g
           transform="translate(403.73,524.39)"
           id="g238"><path
             d="m 0,0 1.954,-90.828 9.709,5.044 3.414,26.86 5.787,9.803 -1.696,41.706 z"
             fill="#3c6f8e"
             id="path236" /></g><g
           transform="translate(458.35,527.61)"
           id="g242"><path
             d="m 0,0 4.351,-48.628 c 4.074,19.848 9.527,45.414 9.527,45.414 L 31.354,7.872 33.411,23.227 9.828,15.621 Z"
             fill="#3c6f8e"
             id="path240" /></g><g
           transform="translate(428.47,380.1)"
           id="g246"><path
             d="m 0,0 -7.08,-30.138 -15.7,-13.696 -1.954,-61.63 h 2.816 l 23.02,78.367 z"
             fill="#3c6f8e"
             id="path244" /></g><g
           transform="translate(338.49,361.06)"
           id="g250"><path
             d="M 0,0 5.323,-180.6 H -27.261 L -8.093,-2.55 Z"
             fill="#3c6f8e"
             id="path248" /></g></g><g
         id="g1398"
         inkscape:label="slack"><g
           transform="translate(390.55,549.42)"
           id="g260"><path
             d="M 0,0 -1.261,32.174 H 6.055 L 3.784,0 Z"
             fill="#a88c8c"
             id="path258" /></g><g
           transform="translate(1010.9,549.42)"
           id="g264"><path
             d="M 0,0 -1.262,32.174 H 6.055 L 3.784,0 Z"
             fill="#a88c8c"
             id="path262" /></g><g
           transform="translate(389.29,575.31)"
           id="g268"><path
             d="M 0,0 C 0,0 315.24,-49.554 626.49,0"
             fill="none"
             stroke="#114056"
             stroke-miterlimit="10"
             id="path266" /></g><g
           transform="translate(733.84,628.67)"
           id="g272"><path
             d="m 0,0 c 0,0 -0.272,-0.326 -0.354,-1.198 -0.082,-0.871 -0.517,-1.77 -0.408,-1.906 0.109,-0.136 0.499,-0.408 0.372,-0.625 -0.127,-0.219 -0.672,-1.063 -0.617,-1.417 0.054,-0.354 0.407,-0.326 0.789,-0.299 0,0 0.245,-0.653 0.218,-0.871 -0.027,-0.218 0.163,-0.272 0.163,-0.272 0,0 -0.218,-0.354 0,-0.436 0,0 0.3,-0.49 0.3,-0.871 0,-0.381 0.164,-0.98 1.606,-0.817 0,0 0.409,-0.544 0.545,-1.061 0,0 -0.191,-0.572 -1.28,-2.342 -1.089,-1.769 -2.232,-4.791 -2.205,-7.541 0.026,-2.75 0.626,-8.222 0.626,-8.222 0,0 -0.191,-2.205 0.136,-2.777 0.327,-0.572 0.708,-4.874 0.381,-5.745 -0.327,-0.871 -1.17,-3.838 -1.116,-4.574 0.054,-0.734 0.463,-2.177 0.463,-2.177 0,0 -3.513,-6.153 -3.622,-8.359 -0.108,-2.205 -0.163,-20.228 -0.163,-20.228 0,0 -1.552,-1.498 -2.749,-1.879 -1.198,-0.381 -1.906,-0.653 -1.906,-0.98 0,-0.327 0.272,-0.844 0.68,-0.817 0.409,0.027 4.738,0.245 4.738,0.245 0,0 0.898,0.409 1.415,0.381 0.517,-0.027 1.525,-0.683 2.45,-0.627 0.926,0.056 2.152,-0.003 2.152,-0.003 0,0 0.625,1.719 -0.328,2.754 h 0.981 l 0.163,11.706 c 0,0 2.751,-5.118 4.383,-6.588 1.634,-1.47 1.552,-2.532 1.715,-3.131 0.163,-0.599 -0.054,-2.777 0.11,-2.804 0.163,-0.027 0.408,0.027 0.435,-0.055 0.028,-0.081 -2.695,-1.088 -2.968,-1.36 -0.271,-0.273 -0.299,-0.545 -0.19,-0.708 0.109,-0.164 5.255,0 5.255,0 0,0 1.061,0.789 1.933,0.979 0.871,0.191 1.443,0.137 1.906,0.436 0.462,0.3 1.823,1.116 1.823,1.116 0,0 -0.408,1.525 -0.979,2.097 -0.573,0.571 -0.6,0.68 -0.6,0.68 0,0 -6.751,14.729 -7.568,16.444 -0.817,1.716 -1.28,3.104 -1.28,3.104 l 1.034,6.044 c 0,0 2.042,0.98 2.478,2.804 0.436,1.824 0.953,2.396 1.089,2.777 0.137,0.381 0.353,1.116 0.353,1.634 0,0.09 -0.017,0.308 -0.046,0.608 -0.135,1.409 -0.52,4.61 -0.498,4.7 0.028,0.109 -0.871,5.228 -0.979,6.344 -0.109,1.116 -0.219,3.376 -0.219,3.376 l 0.737,1.198 c 0,0 1.932,-2.75 3.239,-4.029 1.306,-1.28 2.667,-2.56 3.239,-3.513 0.572,-0.952 0.653,-1.851 0.626,-2.205 -0.026,-0.354 -0.317,-0.953 0.005,-1.034 0.322,-0.082 1.111,0.245 1.248,0.571 0.137,0.327 0.218,0.79 0.218,0.79 0,0 2.885,-0.926 4.655,-1.008 1.77,-0.081 1.852,0.436 1.77,0.49 -0.082,0.055 -0.544,0.164 -0.544,0.164 0,0 0.217,0.49 0,0.681 -0.218,0.19 -1.252,0.108 -1.252,0.108 0,0 0.053,0.246 -0.219,0.381 -0.273,0.137 -1.823,0.163 -3.103,1.062 -1.28,0.899 -4.111,5.909 -4.901,7.406 -0.789,1.497 -1.606,2.287 -1.96,2.586 -0.354,0.3 -0.571,0.953 -0.653,1.035 -0.082,0.081 -0.626,1.606 -0.763,2.151 -0.136,0.544 -0.408,2.722 -0.734,3.348 -0.328,0.626 -3.449,3.757 -3.449,3.757 l -0.88,1.688 c 0,0 1.306,1.497 1.605,3.975 0.3,2.477 -1.388,5.172 -4.056,5.69 L 3.484,8.929 c 0,0 1.144,0.953 1.47,2.233 0.327,1.279 0.437,2.478 0.572,2.75 0.136,0.272 0.3,0.816 0.218,0.871 -0.082,0.054 -0.49,0 -0.49,0 0,0 -0.163,0.653 -0.463,0.762 -0.299,0.109 -0.544,0 -0.544,0 l 0.218,-0.708 c 0,0 -0.436,0.109 -0.408,-0.408 C 4.084,13.912 4.22,12.632 4.002,12.333 3.784,12.033 2.913,11.38 2.913,11.38 c 0,0 -0.191,0.19 -0.164,0.517 0.027,0.327 0.082,0.925 0.082,0.925 0,0 -0.245,0.354 -0.599,0.082 C 1.878,12.632 1.361,11.788 1.442,11.053 1.523,10.318 1.279,9.419 1.578,8.929 c 0,0 0.137,-2.559 0.137,-3.648 0,-1.089 0.027,-2.804 0.027,-2.804 C 1.742,2.477 -1.007,1.988 0,0"
             fill="#114056"
             id="path270" /></g><g
           transform="translate(742.62,591.4)"
           id="g276"><path
             d="m 0,0 h 4.036 c 0,0 0.38,-23.967 12.554,-36.332 0,0 1.065,-1.521 1.009,-3.138 -0.058,-1.617 -1.105,-2.282 -1.39,-1.426 -0.285,0.855 -0.095,3.898 -0.095,3.898"
             fill="none"
             stroke="#114056"
             stroke-miterlimit="10"
             id="path274" /></g></g></g><g
       id="g424"
       inkscape:label="nebo"><g
         id="g1386"
         inkscape:label="ptice"><g
           transform="translate(695.37,751.58)"
           id="g280"><path
             d="m 0,0 c 0,0 17.108,12.963 32.913,0.895 0,0 2.66,1.33 4.819,-0.84 0,0 15.888,7.145 26.19,-8.162 0,0 -9.115,8.438 -26.342,3.153 l 2.354,-6.413 -15.087,3.96 6.831,4.822 C 31.678,-2.585 19.857,8.591 0,0"
             fill="#1c5166"
             id="path278" /></g><g
           transform="translate(356.07,634.07)"
           id="g284"><path
             d="m 0,0 c 0,0 14.538,9.031 26.195,-1.715 0,0 2.21,0.86 3.765,-1.023 0,0 13.139,4.502 20.189,-8.41 0,0 -6.615,7.37 -20.68,4.445 l 1.396,-5.265 -11.687,4.256 5.78,3.324 c 0,0 -8.56,9.745 -24.958,4.388"
             fill="#1c5166"
             id="path282" /></g><g
           transform="translate(634.18,619.91)"
           id="g288"><path
             d="m 0,0 c 0,0 6.033,9.46 15.971,6.413 0,0 1.062,1.135 2.515,0.463 0,0 6.49,6.387 14.319,0.753 0,0 -6,2.481 -13.485,-3.235 L 21.638,1.677 13.523,0.879 15.997,4.483 C 15.997,4.483 8.174,7.816 0,0"
             fill="#1c5166"
             id="path286" /></g><g
           transform="translate(539.28,508.69)"
           id="g292"><path
             d="m 0,0 c 0,0 10.048,6.081 17.962,-1.386 0,0 1.523,0.573 2.575,-0.732 0,0 9.052,2.985 13.786,-5.931 0,0 -4.48,5.11 -14.155,3.215 l 0.916,-3.624 -7.985,3.013 3.992,2.236 c 0,0 -5.796,6.754 -17.091,3.209"
             fill="#1c5166"
             id="path290" /></g></g><g
         clip-path="url(#clipPath740)"
         id="g382"
         style="display:inline"
         inkscape:label="zvezde"><g
           transform="translate(492.49,658.63)"
           id="g340"
           style="display:inline"><path
             d="m 0,0 c 0,-1.891 -1.533,-3.424 -3.424,-3.424 -1.891,0 -3.424,1.533 -3.424,3.424 0,1.891 1.533,3.424 3.424,3.424 C -1.533,3.424 0,1.891 0,0"
             fill="#fef3f5"
             id="path338" /></g><g
           transform="translate(584.94,629.09)"
           id="g336"><path
             d="m 0,0 c 0,-2.132 -1.728,-3.86 -3.86,-3.86 -2.132,0 -3.86,1.728 -3.86,3.86 0,2.131 1.728,3.859 3.86,3.859 C -1.728,3.859 0,2.131 0,0"
             fill="#fef3f5"
             id="path334" /></g><g
           transform="translate(874.24,660.77)"
           id="g332"><path
             d="m 0,0 c 0,-1.655 -1.341,-2.996 -2.995,-2.996 -1.655,0 -2.996,1.341 -2.996,2.996 0,1.655 1.341,2.996 2.996,2.996 C -1.341,2.996 0,1.655 0,0"
             fill="#fef3f5"
             id="path330" /></g><g
           transform="translate(934.81,689.01)"
           id="g328"><path
             d="m 0,0 c 0,-1.654 -1.341,-2.996 -2.995,-2.996 -1.654,0 -2.996,1.342 -2.996,2.996 0,1.654 1.342,2.996 2.996,2.996 C -1.341,2.996 0,1.654 0,0"
             fill="#fef3f5"
             id="path326" /></g><g
           transform="translate(760.92,508.15)"
           id="g324"><path
             d="m 0,0 c 0,-1.324 -1.074,-2.398 -2.398,-2.398 -1.325,0 -2.398,1.074 -2.398,2.398 0,1.324 1.073,2.398 2.398,2.398 C -1.074,2.398 0,1.324 0,0"
             fill="#fef3f5"
             id="path322" /></g><g
           transform="translate(674.81,516.97)"
           id="g320"><path
             d="m 0,0 c 0,-1.654 -1.341,-2.996 -2.996,-2.996 -1.654,0 -2.996,1.342 -2.996,2.996 0,1.655 1.342,2.996 2.996,2.996 C -1.341,2.996 0,1.655 0,0"
             fill="#fef3f5"
             id="path318" /></g><g
           transform="translate(681.09,578.45)"
           id="g316"><path
             d="m 0,0 c 0,-1.734 -1.405,-3.139 -3.139,-3.139 -1.734,0 -3.139,1.405 -3.139,3.139 0,1.733 1.405,3.139 3.139,3.139 C -1.405,3.139 0,1.733 0,0"
             fill="#fef3f5"
             id="path314" /></g><g
           transform="translate(815.18,698)"
           id="g312"><path
             d="m 0,0 c 0,-0.945 -0.766,-1.712 -1.712,-1.712 -0.945,0 -1.712,0.767 -1.712,1.712 0,0.945 0.767,1.712 1.712,1.712 C -0.766,1.712 0,0.945 0,0"
             fill="#fef3f5"
             id="path310" /></g><g
           transform="translate(534.44,698)"
           id="g308"><path
             d="m 0,0 c 0,-0.945 -0.767,-1.711 -1.712,-1.711 -0.945,0 -1.711,0.766 -1.711,1.711 0,0.945 0.766,1.712 1.711,1.712 C -0.767,1.712 0,0.945 0,0"
             fill="#fef3f5"
             id="path306" /></g><g
           transform="translate(424.6,624.12)"
           id="g304"><path
             d="m 0,0 c 0,-1.49 -1.208,-2.698 -2.698,-2.698 -1.489,0 -2.697,1.208 -2.697,2.698 0,1.489 1.208,2.697 2.697,2.697 C -1.208,2.697 0,1.489 0,0"
             fill="#fef3f5"
             id="path302" /></g><g
           transform="translate(858.37,606.61)"
           id="g300"><path
             d="m 0,0 c 0,-1.526 -1.237,-2.764 -2.765,-2.764 -1.526,0 -2.763,1.238 -2.763,2.764 0,1.527 1.237,2.765 2.763,2.765 C -1.237,2.765 0,1.527 0,0"
             fill="#fef3f5"
             id="path298" /></g><g
           transform="translate(696.21,703.14)"
           id="g296"><path
             d="m 0,0 c 0,-1.891 -1.532,-3.424 -3.424,-3.424 -1.89,0 -3.423,1.533 -3.423,3.424 0,1.891 1.533,3.424 3.423,3.424 C -1.532,3.424 0,1.891 0,0"
             fill="#fef3f5"
             id="path294" /></g><g
           transform="translate(598.65,751.81)"
           id="g344"><path
             d="m 0,0 c 0,-1.598 -1.295,-2.894 -2.894,-2.894 -1.598,0 -2.893,1.296 -2.893,2.894 0,1.598 1.295,2.894 2.893,2.894 C -1.295,2.894 0,1.598 0,0"
             fill="#ffffff"
             id="path342" /></g><g
           transform="translate(616.74,799.91)"
           id="g348"><path
             d="m 0,0 c 0,-1.398 -1.134,-2.532 -2.532,-2.532 -1.398,0 -2.532,1.134 -2.532,2.532 0,1.398 1.134,2.532 2.532,2.532 C -1.134,2.532 0,1.398 0,0"
             fill="#ffffff"
             id="path346" /></g><g
           transform="translate(467.86,744.32)"
           id="g352"><path
             d="m 0,0 c 0,-2.539 -2.058,-4.597 -4.597,-4.597 -2.538,0 -4.596,2.058 -4.596,4.597 0,2.538 2.058,4.596 4.596,4.596 C -2.058,4.596 0,2.538 0,0"
             fill="#ffffff"
             id="path350" /></g><g
           transform="translate(522.7,734.81)"
           id="g356"><path
             d="m 0,0 c 0,-0.999 -0.81,-1.808 -1.808,-1.808 -0.999,0 -1.809,0.809 -1.809,1.808 0,0.999 0.81,1.809 1.809,1.809 C -0.81,1.809 0,0.999 0,0"
             fill="#ffffff"
             id="path354" /></g><g
           transform="translate(823.16,742.02)"
           id="g360"><path
             d="m 0,0 c 0,-1.27 -1.029,-2.298 -2.299,-2.298 -1.268,0 -2.298,1.028 -2.298,2.298 0,1.269 1.03,2.298 2.298,2.298 C -1.029,2.298 0,1.269 0,0"
             fill="#ffffff"
             id="path358" /></g><g
           transform="translate(906.81,757.23)"
           id="g364"><path
             d="m 0,0 c 0,-1.398 -1.134,-2.532 -2.531,-2.532 -1.399,0 -2.532,1.134 -2.532,2.532 0,1.398 1.133,2.532 2.532,2.532 C -1.134,2.532 0,1.398 0,0"
             fill="#ffffff"
             id="path362" /></g><g
           transform="translate(660.86,846.21)"
           id="g368"><path
             d="m 0,0 c 0,-1.398 -1.133,-2.532 -2.532,-2.532 -1.398,0 -2.531,1.134 -2.531,2.532 0,1.398 1.133,2.532 2.531,2.532 C -1.133,2.532 0,1.398 0,0"
             fill="#ffffff"
             id="path366" /></g><g
           transform="translate(593.42,825.87)"
           id="g372"><path
             d="m 0,0 c 0,-1.351 -1.096,-2.447 -2.447,-2.447 -1.351,0 -2.447,1.096 -2.447,2.447 0,1.351 1.096,2.447 2.447,2.447 C -1.096,2.447 0,1.351 0,0"
             fill="#ffffff"
             id="path370" /></g><g
           transform="translate(425.76,727.21)"
           id="g376"><path
             d="m 0,0 c 0,-1.198 -0.972,-2.17 -2.17,-2.17 -1.199,0 -2.17,0.972 -2.17,2.17 0,1.199 0.971,2.17 2.17,2.17 C -0.972,2.17 0,1.199 0,0"
             fill="#ffffff"
             id="path374" /></g><g
           transform="translate(886.56,717.08)"
           id="g380"><path
             d="m 0,0 c 0,-1.198 -0.972,-2.17 -2.17,-2.17 -1.198,0 -2.17,0.972 -2.17,2.17 0,1.198 0.972,2.17 2.17,2.17 C -0.972,2.17 0,1.198 0,0"
             fill="#ffffff"
             id="path378" /></g></g><g
         id="g1351"
         inkscape:label="oblaki"><g
           transform="translate(743.06,683.85)"
           id="g386"><path
             d="m 0,0 h -148.49 c -3.591,0 -6.502,-2.911 -6.502,-6.501 0,-3.591 2.911,-6.502 6.502,-6.502 h 30.416 c 2.364,-0.973 4.03,-3.297 4.03,-6.012 0,-3.59 -2.911,-6.502 -6.501,-6.502 h -5.028 c -2.892,0 -5.237,-2.344 -5.237,-5.236 0,-2.892 2.345,-5.237 5.237,-5.237 h 74.505 c 2.891,0 5.236,2.345 5.236,5.237 0,2.892 -2.345,5.236 -5.236,5.236 h -0.214 c -3.591,0 -6.502,2.912 -6.502,6.502 0,2.715 1.666,5.039 4.03,6.012 h 53.751 c 3.591,0 6.501,2.911 6.501,6.502 0,3.59 -2.91,6.501 -6.501,6.501"
             fill="#ffffff"
             id="path384" /></g><g
           transform="translate(900.82,535.83)"
           id="g390"><path
             d="m 0,0 h -193.18 c -4.217,0 -7.635,-3.418 -7.635,-7.636 0,-4.217 3.418,-7.635 7.635,-7.635 h 75.785 c 3.268,0 5.918,-2.649 5.918,-5.917 0,-3.269 -2.65,-5.918 -5.918,-5.918 h -29.016 c -3.269,0 -5.918,-2.65 -5.918,-5.918 0,-3.268 2.649,-5.917 5.918,-5.917 h 0.023 c 3.268,0 5.917,-2.65 5.917,-5.918 0,-3.268 -2.649,-5.917 -5.917,-5.917 h -1.325 c -2.55,0 -4.616,-2.068 -4.616,-4.617 0,-2.549 2.066,-4.617 4.616,-4.617 h 74.767 c 2.55,0 4.616,2.068 4.616,4.617 0,2.549 -2.066,4.617 -4.616,4.617 h -23.643 c -3.268,0 -5.918,2.649 -5.918,5.917 0,3.268 2.65,5.918 5.918,5.918 h 88.278 c 3.267,0 5.917,2.649 5.917,5.917 0,3.268 -2.65,5.918 -5.917,5.918 h -27.907 c -3.267,0 -5.917,2.649 -5.917,5.918 0,3.268 2.65,5.917 5.917,5.917 h 36.22 c 4.218,0 7.636,3.418 7.636,7.635 C 7.638,-3.418 4.22,0 0.002,0"
             fill="#ffffff"
             id="path388" /></g><g
           transform="translate(505.65,629.09)"
           id="g394"><path
             d="m 0,0 c 0,-2.968 -2.406,-5.373 -5.373,-5.373 h -38.366 c -2.968,0 -5.373,2.405 -5.373,5.373 0,2.967 2.405,5.373 5.373,5.373 H -5.373 C -2.406,5.373 0,2.967 0,0"
             fill="#ffffff"
             id="path392" /></g><g
           transform="translate(679.97,782.84)"
           id="g398"><path
             d="m 0,0 c 0,-3.755 -3.044,-6.799 -6.8,-6.799 h -34.382 c -3.755,0 -6.798,3.044 -6.798,6.799 0,3.755 3.043,6.799 6.798,6.799 H -6.8 C -3.044,6.799 0,3.755 0,0"
             fill="#ffffff"
             id="path396" /></g><g
           transform="translate(906.35,629.09)"
           id="g402"><path
             d="m 0,0 c 0,-3.755 -3.044,-6.799 -6.8,-6.799 h -34.382 c -3.755,0 -6.798,3.044 -6.798,6.799 0,3.755 3.043,6.799 6.798,6.799 H -6.8 C -3.044,6.799 0,3.755 0,0"
             fill="#ffffff"
             id="path400" /></g><g
           transform="translate(458.66,656.84)"
           id="g406"><path
             d="m 0,0 c 0,-2.103 -1.705,-3.807 -3.807,-3.807 h -10.361 c -2.103,0 -3.808,1.704 -3.808,3.807 0,2.103 1.705,3.807 3.808,3.807 H -3.807 C -1.705,3.807 0,2.103 0,0"
             fill="#ffffff"
             id="path404" /></g><g
           transform="translate(718.59,828.32)"
           id="g410"><path
             d="m 0,0 h 193.18 c 4.217,0 7.635,-3.418 7.635,-7.636 0,-4.217 -3.418,-7.635 -7.635,-7.635 h -75.785 c -3.268,0 -5.918,-2.649 -5.918,-5.917 0,-3.269 2.65,-5.918 5.918,-5.918 h 29.016 c 3.269,0 5.918,-2.65 5.918,-5.918 0,-3.268 -2.649,-5.917 -5.918,-5.917 h -0.023 c -3.268,0 -5.917,-2.65 -5.917,-5.918 0,-3.269 2.649,-5.918 5.917,-5.918 h 1.325 c 2.55,0 4.616,-2.067 4.616,-4.617 0,-2.549 -2.066,-4.616 -4.616,-4.616 H 72.946 c -2.55,0 -4.616,2.067 -4.616,4.616 0,2.55 2.066,4.617 4.616,4.617 h 23.643 c 3.268,0 5.918,2.649 5.918,5.918 0,3.268 -2.65,5.918 -5.918,5.918 H 8.311 c -3.267,0 -5.917,2.649 -5.917,5.917 0,3.268 2.65,5.918 5.917,5.918 h 27.907 c 3.267,0 5.917,2.649 5.917,5.918 0,3.268 -2.65,5.917 -5.917,5.917 h -36.22 c -4.218,0 -7.636,3.418 -7.636,7.635 0,4.218 3.418,7.636 7.636,7.636"
             fill="#ffffff"
             id="path408" /></g><g
           transform="translate(1048.5,669.22)"
           id="g414"><path
             d="m 0,0 h -24.63 c -4.482,0 -8.116,3.125 -8.116,6.98 0,3.856 3.634,6.981 8.116,6.981 h 2.273 c 5.33,0 9.65,3.716 9.65,8.299 0,4.584 -4.32,8.3 -9.65,8.3 h -77.994 c -5.33,0 -9.65,-3.716 -9.65,-8.3 0,-4.583 4.32,-8.299 9.65,-8.299 h 8.651 c 4.482,0 8.117,-3.125 8.117,-6.981 C -83.583,3.125 -87.218,0 -91.7,0 h -27.651 c -4.193,0 -7.591,-2.923 -7.591,-6.528 0,-3.606 3.398,-6.529 7.591,-6.529 h 119.35 c 4.192,0 7.592,2.923 7.592,6.529 0,3.605 -3.4,6.528 -7.592,6.528"
             fill="#ffffff"
             id="path412" /></g><g
           transform="translate(559.4,792.4)"
           id="g418"><path
             d="m 0,0 h -18.04 c -3.282,0 -5.944,2.289 -5.944,5.112 0,2.825 2.662,5.113 5.944,5.113 h 1.665 c 3.904,0 7.068,2.722 7.068,6.079 0,3.357 -3.164,6.078 -7.068,6.078 h -57.124 c -3.904,0 -7.068,-2.721 -7.068,-6.078 0,-3.357 3.164,-6.079 7.068,-6.079 h 6.335 c 3.284,0 5.946,-2.288 5.946,-5.113 C -61.218,2.289 -63.88,0 -67.164,0 h -20.251 c -3.071,0 -5.561,-2.141 -5.561,-4.782 0,-2.641 2.49,-4.781 5.561,-4.781 H 0 c 3.071,0 5.561,2.14 5.561,4.781 C 5.561,-2.141 3.071,0 0,0"
             fill="#ffffff"
             id="path416" /></g><g
           transform="translate(459.75,702.01)"
           id="g422"><path
             d="m 0,0 h -126.29 c -3.687,0 -6.675,-2.988 -6.675,-6.675 0,-3.686 2.988,-6.675 6.675,-6.675 h 35.915 c 2.649,0 4.796,-2.147 4.796,-4.796 0,-2.648 -2.147,-4.796 -4.796,-4.796 h 1.146 c -2.378,0 -4.306,-1.928 -4.306,-4.307 0,-2.377 1.928,-4.306 4.306,-4.306 h 22.085 c 2.648,0 4.796,-2.147 4.796,-4.796 0,-2.649 -2.148,-4.796 -4.796,-4.796 h -3.835 c -2.163,0 -3.916,-1.753 -3.916,-3.916 0,-2.163 1.753,-3.916 3.916,-3.916 h 39.518 c 2.162,0 3.915,1.753 3.915,3.916 0,2.163 -1.753,3.916 -3.915,3.916 h -4.311 c -2.648,0 -4.796,2.147 -4.796,4.796 0,2.649 2.148,4.796 4.796,4.796 h 15.801 c 2.379,0 4.307,1.929 4.307,4.306 0,2.379 -1.928,4.307 -4.307,4.307 h -26.081 c -2.649,0 -4.796,2.148 -4.796,4.796 0,2.649 2.147,4.796 4.796,4.796 H 0.003 c 3.687,0 6.675,2.989 6.675,6.675 C 6.678,-2.988 3.69,0 0.003,0"
             fill="#ffffff"
             id="path420" /></g></g></g></g></svg>
