<?xml version="1.0" encoding="UTF-8"?>
<svg width="1400" height="1020" version="1.1" viewBox="0 0 1400 1020" xml:space="preserve" xmlns="http://www.w3.org/2000/svg"><defs><clipPath id="clipPath18"><path d="m0 980h1400v-980h-1400z"/></clipPath><clipPath id="clipPath30"><path d="m378.23 716.48h596.97v-596.97h-596.97z"/></clipPath><clipPath id="clipPath54"><path d="m331.2 469.26c0-189.84 153.9-343.74 343.74-343.74s343.74 153.9 343.74 343.74-153.9 343.74-343.74 343.74-343.74-153.9-343.74-343.74"/></clipPath><clipPath id="clipPath4122"><path d="m258.61 253.3h711.46v-224.31h-711.46z"/></clipPath><clipPath id="clipPath6522"><path d="m0 980h1400v-980h-1400z"/></clipPath></defs><g transform="matrix(1.4676 0 0 -1.4676 -533.64 1195.4)"><g transform="translate(158.25)" clip-path="url(#clipPath18)"><g transform="translate(1018.7,469.26)"><path d="m0 0c0-189.84-153.9-343.74-343.74-343.74s-343.74 153.9-343.74 343.74 153.9 343.74 343.74 343.74 343.74-153.9 343.74-343.74" fill="#cceaec"/></g><g clip-path="url(#clipPath30)"><g transform="translate(975.2,417.99)"><path d="m0 0c0-164.85-133.64-298.48-298.48-298.48-164.85 0-298.49 133.64-298.49 298.48 0 164.85 133.64 298.49 298.49 298.49s298.48-133.64 298.48-298.49" fill="#cceaec"/></g></g></g><g transform="translate(158.25)" clip-path="url(#clipPath54)"><path d="m1002.3 263.63h-37.248v205.34h37.248z" fill="#f4ebe6" stroke="#774240" stroke-linejoin="round" stroke-miterlimit="10"/><path d="m985.35 468.98h-20.256v-205.34h20.256z" fill="#f4ebe6" stroke="#774240" stroke-linejoin="round" stroke-miterlimit="10"/><g transform="translate(964.08,468.97)"><path d="m0 0 38.258-65.417v-139.92h-38.258z" fill="#f4ebe6"/><path d="m0 0 38.258-65.417v-139.92h-38.258z" fill="none" stroke="#774240" stroke-linejoin="round" stroke-miterlimit="10"/></g><path d="m967.1 262.21h-33.301v277.86h33.301z" fill="#f4ebe6" stroke="#774240" stroke-linejoin="round" stroke-miterlimit="10"/><g transform="translate(913.99,445.28)"><path d="m0 0h7.963l-4.147 43.454z" fill="none" stroke="#774240" stroke-linejoin="round" stroke-miterlimit="10"/><path d="m0 0h7.963l-4.147 43.454z" fill="#f4ebe6"/></g><g transform="translate(904.12,262.97)"><path d="m0 0v181.53l13.658 47.659 14.029-44.506v-184.68z" fill="none" stroke="#774240" stroke-linejoin="round" stroke-miterlimit="10"/><path d="m0 0v181.53l13.658 47.659 14.029-44.506v-184.68z" fill="#f4ebe6"/></g><g transform="translate(905.41,445.69)"><path d="m0 0h5.734l5.973 42.637z" fill="#f4ebe6"/><path d="m0 0h5.734l5.973 42.637z" fill="none" stroke="#774240" stroke-linejoin="round" stroke-miterlimit="10"/></g><g transform="translate(930.73,445.69)"><path d="m0 0h-5.734l-6.594 42.637z" fill="#f4ebe6"/><path d="m0 0h-5.734l-6.594 42.637z" fill="none" stroke="#774240" stroke-linejoin="round" stroke-miterlimit="10"/></g><g fill="#f4ebe6" stroke="#774240" stroke-linejoin="round" stroke-miterlimit="10"><path d="m894.32 508.98h-10.855v17.662h10.855z"/><path d="m883.46 511.04h10.855v7.238h-10.855z"/><path d="m890.83 521.49h-1.939v42.685h1.939z"/><path d="m898.97 263.63h-25.588v249.76h25.588z"/><path d="m898.97 266.46h-25.588v249.76h25.588z"/><path d="m873.38 263.63h25.588v21.937h-25.588z"/><path d="m873.38 263.9h12.613v252.32h-12.613z"/></g><g transform="translate(852.87,451.91)"><path d="m0 0-18.814-52.558v-135.5h37.63v135.5z" fill="#f4ebe6"/><path d="m0 0-18.814-52.558v-135.5h37.63v135.5z" fill="none" stroke="#774240" stroke-linejoin="round" stroke-miterlimit="10"/></g><path d="m828.85 263.63h-37.25v142.93h37.25z" fill="#f4ebe6" stroke="#774240" stroke-linejoin="round" stroke-miterlimit="10"/><path d="m811.85 406.56h-20.256v-142.93h20.256z" fill="#f4ebe6" stroke="#774240" stroke-linejoin="round" stroke-miterlimit="10"/><g transform="translate(754.59,406.02)"><path d="m0 0 7.096 30.795h10.101l7.541-30.795z" fill="#774240"/></g><path d="m754.59 401.48h23.902v1.733h-23.902z" fill="#f4ebe6" stroke="#774240" stroke-linejoin="round" stroke-miterlimit="10"/><path d="m778.49 393.99h-23.902v9.221h23.902z" fill="#f4ebe6" stroke="#774240" stroke-linejoin="round" stroke-miterlimit="10"/><path d="m780.53 406.02h-27.121v-2.804h27.121z" fill="#774240"/><path d="m780.53 393.99h-27.121v-2.804h27.121z" fill="#774240"/><g fill="#f4ebe6" stroke="#774240" stroke-linejoin="round" stroke-miterlimit="10"><path d="m780.53 374.38h-27.121v16.812h27.121z"/><path d="m791.6 262.3h-47.781v112.07h47.781z"/><path d="m782 263.63h9.592v110.74h-9.592z"/><path d="m744.06 261.22h-8.438v304.04h8.438z"/><path d="m703.84 261.22h6.211v234h-6.211z"/></g><g transform="translate(735.62,261.22)"><path d="m0 0h-25.57v312.93l25.57 7.467z" fill="none" stroke="#774240" stroke-linejoin="round" stroke-miterlimit="10"/><path d="m0 0h-25.57v312.93l25.57 7.467z" fill="#f4ebe6"/></g><g fill="#f4ebe6" stroke="#774240" stroke-linejoin="round" stroke-miterlimit="10"><path d="m707.6 261.92h-33.302v199.92h33.302z"/><path d="m680.9 322.02h-45.197v-59.392h45.197z"/><path d="m673.16 322.02h-37.461v12.727h37.461z"/><path d="m662.1 345.62h2.912v12.301h-2.912z"/><path d="m665.01 334.75h-2.912v23.169h2.912z"/><path d="m638.61 357.92h-2.912v-12.301h2.912z"/><path d="m638.61 334.75h-2.912v23.169h2.912z"/><path d="m665.01 348.11h-29.315v14.061h29.315z"/><path d="m626.79 329.15h-83.359v-67.267h83.359z"/><path d="m586.42 329.34h-11.11v87.488h11.11z"/><path d="m575.31 329.34h8.696v87.488h-8.696z"/><path d="m579.42 423.08h-33.33v-93.738h33.33z"/><path d="m632.89 264.16h-43.738v231.96h43.738z"/><path d="m589.15 490.5h43.738v5.614h-43.738z"/><path d="m543.43 261.89h-48.962v208.53h48.962z"/><path d="m545.61 468.73h-53.317v8.644h53.317z"/><path d="m494.47 465.52h48.962v4.897h-48.962z"/><path d="m487.84 263.06h-32.929v121.08h32.929z"/><path d="m468.64 263.06h-13.735v121.08h13.735z"/></g><path d="m445.45 254.16h-53.492v226.97h53.492z" fill="#f4ebe6" stroke="#774240" stroke-linejoin="round" stroke-miterlimit="10"/><g transform="translate(448.31,258.84)"><path d="m 0,0 v 147.405 l -2.859,6.691 V 1.462 C -1.676,0.504 0,0 0,0 Z" fill="none" stroke="#774240" stroke-linejoin="round" stroke-miterlimit="10"/><path d="m 0,0 v 147.405 l -2.859,6.691 V 1.462 C -1.676,0.504 0,0 0,0" fill="#f4ebe6"/></g><g transform="translate(445.45,412.93)"><path d="m0 0 9.551-22.349v-136.42h-9.551z" fill="none" stroke="#774240" stroke-linejoin="round" stroke-miterlimit="10"/><path d="m0 0 9.551-22.349v-136.42h-9.551z" fill="#f4ebe6"/></g><path d="m431.05 574.87h-33.33v-93.739h33.33z" fill="#f4ebe6" stroke="#774240" stroke-linejoin="round" stroke-miterlimit="10"/><path d="m438.05 568.62h-11.11v-87.49h11.11z" fill="#f4ebe6" stroke="#774240" stroke-linejoin="round" stroke-miterlimit="10"/><g transform="translate(397.72,492.71)"><path d="m0 0v-11.583h40.325v11.583z" fill="none" stroke="#774240" stroke-linejoin="round" stroke-miterlimit="10"/><path d="m0 0v-11.583h40.325v11.583z" fill="#f4ebe6"/></g><path d="m391.96 261.92h-33.301v199.92h33.301z" fill="#f4ebe6" stroke="#774240" stroke-linejoin="round" stroke-miterlimit="10"/><g transform="translate(219.59,265.07)" style="mix-blend-mode:normal"><path d="m0 0 30.261 36.141 91.648-32.264 73.957 29.904 85.906-33.781 86.77 24.994 133.91-6.275 95.561 20.178 104.05-16.14 52.215 24.475 101.37-47.232 32.646 13.679 13.745-42.76-152.06-175.03h-129.77l-41.995 41.97-100.05-73.452-41.23 12.241-14.431 66.459-66.683 3.496-63.874-38.475-45.876 36.727-42.112-34.978-45.892 55.965-45.007-20.987-26.485 69.004h-47.062z" fill="#3ab8ca"/></g><g transform="translate(219.59,265.07)"><path d="m0 0 30.261 36.141 91.648-32.264 73.957 29.904 85.906-33.781 86.77 24.994 133.91-6.275 95.561 20.178 104.05-16.14 52.215 24.475 101.37-47.232 32.646 13.679 13.745-42.76-152.06-175.03h-129.77l-41.995 41.97-100.05-73.452-41.23 12.241-14.431 66.459-66.683 3.496-63.874-38.475-45.876 36.727-42.112-34.978-45.892 55.965-45.007-20.987-26.485 69.004h-47.062z" fill="none" stroke="#894c1f" stroke-linecap="round" stroke-linejoin="round" stroke-miterlimit="10"/></g><g transform="translate(306.17,178.94)"><path d="m0 0 26.485-69.004 45.007 20.986 45.892-55.964 42.112 34.978 45.876-36.727 63.874 38.475 66.683-3.496 14.431-66.459 41.23-12.241 100.05 73.452 41.995-41.971h129.76l96.915 111.55c1.588 6.877 2.499 11.053 2.499 11.053l-53.022 63.326-57.122-63.326-34.49-63.447-42.67 73.75-36.795 20.085-27.199-45.79-63.208 69.534 3.396-79.005-11.031-32.278-37.347-55.691-45.298 144.55-44.515-36.342-30.739 6.021-6.116 71.554-59.805 12.457-51.441-120.25-38.233 50.305-90.744-61.561-22.337 119.37-37.137-47.217-63.537 55.459 39.517-86.139z" fill="#3ab8ca"/><path d="m0 0 26.485-69.004 45.007 20.986 45.892-55.964 42.112 34.978 45.876-36.727 63.874 38.475 66.683-3.496 14.431-66.459 41.23-12.241 100.05 73.452 41.995-41.971h129.76l96.915 111.55c1.588 6.877 2.499 11.053 2.499 11.053l-53.022 63.326-57.122-63.326-34.49-63.447-42.67 73.75-36.795 20.085-27.199-45.79-63.208 69.534 3.396-79.005-11.031-32.278-37.347-55.691-45.298 144.55-44.515-36.342-30.739 6.021-6.116 71.554-59.805 12.457-51.441-120.25-38.233 50.305-90.744-61.561-22.337 119.37-37.137-47.217-63.537 55.459 39.517-86.139z" fill="none" stroke="#894c1f" stroke-linecap="round" stroke-linejoin="round" stroke-miterlimit="10"/></g><g transform="translate(973.86,312.31)"><path d="m0 0 42.095-65.41 44.672-10.903 47.25 42.759-32.647-13.678z" fill="#b9e5fb"/><path d="m0 0 42.095-65.41 44.672-10.903 47.25 42.759-32.647-13.678z" fill="none" stroke="#894c1f" stroke-linecap="round" stroke-linejoin="round" stroke-miterlimit="10"/></g><g transform="translate(885.88,293.38)"><path d="m0 0 37.008-57.386 26.061 10.904 24.915 65.41-52.215-24.476z" fill="#b9e5fb"/><path d="m0 0 37.008-57.386 26.061 10.904 24.915 65.41-52.215-24.476z" fill="none" stroke="#894c1f" stroke-linecap="round" stroke-linejoin="round" stroke-miterlimit="10"/></g><g transform="translate(751.02,235.99)"><path d="m0 0 48.679 64.198-77.66-16.398-128.48 6.019 68.565-67.27z" fill="#b9e5fb"/><path d="m0 0 48.679 64.198-77.66-16.398-128.48 6.019 68.565-67.27z" fill="none" stroke="#894c1f" stroke-linecap="round" stroke-linejoin="round" stroke-miterlimit="10"/></g><g transform="translate(364.77,204.37)"><path d="m0 0 42.013 60.707 32.674-29.225 61.901 29.225-85.906 33.781-73.957-29.904-91.648 32.264-30.261-36.141 100.67-8.241z" fill="#b9e5fb"/><path d="m0 0 42.013 60.707 32.674-29.225 61.901 29.225-85.906 33.781-73.957-29.904-91.648 32.264-30.261-36.141 100.67-8.241z" fill="none" stroke="#894c1f" stroke-linecap="round" stroke-linejoin="round" stroke-miterlimit="10"/></g><g clip-path="url(#clipPath4122)"><g transform="translate(377.66,130.92)"><path d="m0 0-12.027 48.018-32.979-69.004z" fill="#3ab8ca"/><path d="m0 0-12.027 48.018-32.979-69.004z" fill="none" stroke="#894c1f" stroke-linecap="round" stroke-linejoin="round" stroke-miterlimit="10"/></g><g transform="translate(466.72,109.09)"><path d="m0 0-1.052 7.841-31.485 92.687-10.627-134.66 42.112 34.979z" fill="#3ab8ca"/><path d="m0 0-1.052 7.841-31.485 92.687-10.627-134.66 42.112 34.979z" fill="none" stroke="#894c1f" stroke-linecap="round" stroke-linejoin="round" stroke-miterlimit="10"/></g><g transform="translate(302.06,235.99)"><path d="m0 0-42.955-57.058h47.063z" fill="#3ab8ca"/><path d="m0 0-42.955-57.058h47.063z" fill="none" stroke="#894c1f" stroke-linecap="round" stroke-linejoin="round" stroke-miterlimit="10"/></g><g transform="translate(570.91,108.96)"><path d="m0 0 4.51 2.719 66.683-3.496-22.42 70.752-16.797 11.441-21.639 62.418z" fill="#3ab8ca"/><path d="m0 0 4.51 2.719 66.683-3.496-22.42 70.752-16.797 11.441-21.639 62.418z" fill="none" stroke="#894c1f" stroke-linecap="round" stroke-linejoin="round" stroke-miterlimit="10"/></g><g transform="translate(881.68,193.87)"><path d="m0 0-41.875-132.91h129.77l-37.239 152.99z" fill="#3ab8ca"/><path d="m0 0-41.875-132.91h129.77l-37.239 152.99z" fill="none" stroke="#894c1f" stroke-linecap="round" stroke-linejoin="round" stroke-miterlimit="10"/></g><g transform="translate(797.81,102.94)"><path d="m0 0 0.639-0.641-2.711 12.882-55.471 63.759-42.502-149.45z" fill="#3ab8ca"/><path d="m0 0 0.639-0.641-2.711 12.882-55.471 63.759-42.502-149.45z" fill="none" stroke="#894c1f" stroke-linecap="round" stroke-linejoin="round" stroke-miterlimit="10"/></g></g><g transform="translate(832.73,148.82)"><path d="m0 0 19.279 40.314v384.92h84.072v-425.24z" fill="#eeb881"/><path d="m0 0 19.279 40.314v384.92h84.072v-425.24z" fill="none" stroke="#774240" stroke-linejoin="round" stroke-miterlimit="10"/></g><g transform="translate(894.64,494.4)"><path d="m0 0h-43.18l-6.64-6.641h53.746z" fill="#75c4d1"/><path d="m0 0h-43.18l-6.64-6.641h53.746z" fill="none" stroke="#774240" stroke-miterlimit="10"/></g><g transform="translate(903.36,403.79)"><path d="m0 0h-51.897l-6.641-6.641h62.464z" fill="#75c4d1"/><path d="m0 0h-51.897l-6.641-6.641h62.464z" fill="none" stroke="#774240" stroke-miterlimit="10"/></g><g transform="translate(903.36,289.56)"><path d="m0 0h-51.897l-6.641-6.639h62.464z" fill="#75c4d1"/><path d="m0 0h-51.897l-6.641-6.639h62.464z" fill="none" stroke="#774240" stroke-miterlimit="10"/></g><g transform="translate(875.17,585.54)"><path d="m0 0v39.683" fill="#dcd9d0" stroke="#774240" stroke-linecap="round" stroke-miterlimit="10" stroke-width="4"/></g><g transform="translate(852.01,574.06)"><path d="m0 0-8.304 11.292h101.42l-9.043-11.292z" fill="#eeb881"/><path d="m0 0-8.304 11.292h101.42l-9.043-11.292z" fill="none" stroke="#774240" stroke-linejoin="round" stroke-miterlimit="10"/></g><path d="m945.13 585.35h-102.75v4.513h102.75z" fill="#eeb881" stroke="#774240" stroke-linejoin="round" stroke-miterlimit="10"/><path d="m943.23 604.47h-98.414v-14.602h98.414z" fill="#c93131" stroke="#774240" stroke-linejoin="round" stroke-miterlimit="10"/><g transform="translate(1107.4,197.02)"><path d="m0 0v285.98h-208.76v-285.98s-1.285-17.994-8.998-34.703c-7.712-16.709-7.07-35.344-7.07-35.344h240.9s0.643 18.635-7.071 35.344c-7.71 16.709-8.995 34.703-8.995 34.703" fill="#eeb881"/><path d="m0 0v285.98h-208.76v-285.98s-1.285-17.994-8.998-34.703c-7.712-16.709-7.07-35.344-7.07-35.344h240.9s0.643 18.635-7.071 35.344c-7.71 16.709-8.995 34.703-8.995 34.703z" fill="none" stroke="#774240" stroke-linejoin="round" stroke-miterlimit="10"/></g><g transform="translate(898.6,483)"><path d="m0 0-10.199 22.809h229.64l-10.679-22.809z" fill="#c93131"/><path d="m0 0-10.199 22.809h229.64l-10.679-22.809z" fill="none" stroke="#774240" stroke-linejoin="round" stroke-miterlimit="10"/></g><g fill="#eeb881" stroke="#774240" stroke-linejoin="round" stroke-miterlimit="10"><path d="m962.05 483h5.454v22.809h-5.454z"/><path d="m949.08 483h5.455v22.809h-5.455z"/><path d="m975.02 483h5.453v22.809h-5.453z"/><path d="m936.11 483h5.454v22.809h-5.454z"/></g><g transform="translate(897.21,505.81)"><path d="m0 0v-19.694l1.394-3.115h4.06v22.809z" fill="#eeb881"/><path d="m0 0v-19.694l1.394-3.115h4.06v22.809z" fill="none" stroke="#774240" stroke-linejoin="round" stroke-miterlimit="10"/></g><g fill="#eeb881" stroke="#774240" stroke-linejoin="round" stroke-miterlimit="10"><path d="m910.17 483h5.455v22.809h-5.455z"/><path d="m987.99 483h5.454v22.809h-5.454z"/><path d="m923.15 483h5.453v22.809h-5.453z"/><path d="m1065.8 483h5.456v22.809h-5.456z"/><path d="m1078.8 483h5.455v22.809h-5.455z"/><path d="m1091.7 483h5.454v22.809h-5.454z"/><path d="m1001 483h5.455v22.809h-5.455z"/></g><g transform="translate(1110.2,505.81)"><path d="m0 0h-5.453v-22.809h2.646l2.807 6z" fill="#eeb881"/><path d="m0 0h-5.453v-22.809h2.646l2.807 6z" fill="none" stroke="#774240" stroke-linejoin="round" stroke-miterlimit="10"/></g><g fill="#eeb881" stroke="#774240" stroke-linejoin="round" stroke-miterlimit="10"><path d="m1052.8 483h5.453v22.809h-5.453z"/><path d="m1039.9 483h5.454v22.809h-5.454z"/><path d="m1013.9 483h5.456v22.809h-5.456z"/><path d="m1026.9 483h5.455v22.809h-5.455z"/></g><g stroke="#774240" stroke-miterlimit="10"><path d="m917.75 524.7h-29.133v17.667h29.133z" fill="#75c4d1"/><path d="m921.41 538.24h-36.101v5.574h36.101z" fill="#eeb881" stroke-linejoin="round"/><path d="m967.82 524.7h-29.136v17.667h29.136z" fill="#75c4d1"/><path d="m971.48 538.24h-36.102v5.574h36.102z" fill="#eeb881" stroke-linejoin="round"/><path d="m1017.9 524.7h-29.132v17.667h29.132z" fill="#75c4d1"/><path d="m1021.5 538.24h-36.102v5.574h36.102z" fill="#eeb881" stroke-linejoin="round"/><path d="m1068 524.7h-29.135v17.667h29.135z" fill="#75c4d1"/><path d="m1071.6 538.24h-36.1v5.574h36.1z" fill="#eeb881" stroke-linejoin="round"/><path d="m1118 524.7h-29.134v17.667h29.134z" fill="#75c4d1"/><path d="m1121.7 538.24h-36.102v5.574h36.102z" fill="#eeb881" stroke-linejoin="round"/><path d="m888.4 525.32h229.64v-19.514h-229.64z" fill="#75c4d1"/></g><path d="m293.65 301.81h75.2v263.96h-75.2z" fill="#eeb881" stroke="#774240" stroke-linejoin="round" stroke-miterlimit="10"/><path d="m367.36 173.42h85.804v388.74h-85.804z" fill="#eeb881" stroke="#774240" stroke-linejoin="round" stroke-miterlimit="10"/><g transform="matrix(1,0,0,-1,453.16,376.54)"><path d="m0 0h-159.16" fill="none" stroke="#774240" stroke-linejoin="round" stroke-miterlimit="10"/></g><g transform="translate(453.16,452.45)"><path d="m0 0h-159.36" fill="none" stroke="#774240" stroke-linejoin="round" stroke-miterlimit="10"/></g><g transform="translate(453.16,528.37)"><path d="m0 0h-159.09" fill="none" stroke="#774240" stroke-linejoin="round" stroke-miterlimit="10"/></g><g stroke="#774240" stroke-miterlimit="10"><path d="m287.76 582.67h81.087v-16.899h-81.087z" fill="#c93131" stroke-linejoin="round"/><g fill="#75c4d1"><path d="m350.24 582.67h18.608v10.637h-18.608z"/><path d="m321.94 582.67h18.611v10.637h-18.611z"/><path d="m293.65 582.67h18.61v10.637h-18.61z"/></g></g><g transform="translate(409.06,585.54)"><path d="m0 0v33.957" fill="#dcd9d0" stroke="#774240" stroke-linecap="round" stroke-miterlimit="10" stroke-width="4"/></g><path d="m361.84 569.38h97.076v17.093h-97.076z" fill="#75c4d1" stroke="#774240" stroke-miterlimit="10"/><g transform="translate(458.92,569.38)"><path d="m0 0-5.756-7.215h-86.476l-4.844 7.215z" fill="#75c4d1"/><path d="m0 0-5.756-7.215h-86.476l-4.844 7.215z" fill="none" stroke="#774240" stroke-linejoin="round" stroke-miterlimit="10"/></g><g fill="#75c4d1" stroke="#774240" stroke-miterlimit="10"><path d="m438.73 586.48h18.612v10.633h-18.612z"/><path d="m401.08 586.48h18.608v10.633h-18.608z"/><path d="m363.42 586.48h18.61v10.633h-18.61z"/></g></g><g transform="translate(158.25)" clip-path="url(#clipPath6522)"><g transform="translate(1018.7,469.26)"><path d="m0 0c0-189.84-153.9-343.74-343.74-343.74s-343.74 153.9-343.74 343.74 153.9 343.74 343.74 343.74 343.74-153.9 343.74-343.74z" fill="none" stroke="#774240" stroke-linejoin="round" stroke-miterlimit="10" stroke-width="3"/></g><g transform="translate(584.26,593.66)"><path d="m0 0c0-25.958-21.042-47-47-47s-47 21.042-47 47 21.042 47 47 47 47-21.042 47-47" fill="#eeb881"/><path d="m0 0c0-25.958-21.042-47-47-47s-47 21.042-47 47 21.042 47 47 47 47-21.042 47-47z" fill="none" stroke="#774240" stroke-linejoin="round" stroke-miterlimit="10"/></g><g transform="translate(405,610.33)"><path d="m0 0s263.41-45.241 470.16 9.163" fill="none" stroke="#774240" stroke-linejoin="round" stroke-miterlimit="10"/></g><path d="m670.57 631.74h-4.0359s-0.37999-23.966-12.554-36.331c0 0-1.065-1.521-1.009-3.1379 0.058-1.617 1.105-2.282 1.39-1.426 0.285 0.85498 0.095 3.8979 0.095 3.8979" fill="none" stroke="#774240" stroke-miterlimit="10" stroke-width=".99998"/><path d="m679.22 668.5s0.2629-0.33336 0.32084-1.2073c0.058-0.87291 0.46802-1.7835 0.35531-1.9165s-0.51004-0.39408-0.38907-0.6145c0.12091-0.22241 0.64243-1.0811 0.57769-1.4334-0.0637-0.35237-0.41581-0.31465-0.79692-0.27714 0 0-0.26289-0.64599-0.24191-0.86464 0.021-0.21866-0.17043-0.2674-0.17043-0.2674s0.20816-0.35987-0.012-0.43582c0 0-0.31338-0.48153-0.32388-0.86238-0.0105-0.38084-0.19093-0.97509-1.6279-0.77241 0 0-0.42383-0.53251-0.57402-1.0456 0 0 0.17516-0.57702 1.2149-2.3763 1.0398-1.7983 2.0991-4.8506 1.9963-7.5987-0.10178-2.7482-0.85234-8.2014-0.85234-8.2014s0.13016-2.2094-0.21247-2.7721c-0.34263-0.56276-0.84204-4.8525-0.53916-5.7322 0.30286-0.87966 1.0638-3.8687 0.98949-4.6029-0.0742-0.73222-0.52281-2.1634-0.52281-2.1634s3.342-6.2473 3.3902-8.4554c0.0472-2.2071-0.39451-20.224-0.39451-20.224s1.5101-1.5402 2.6961-1.954c1.187-0.41386 1.8872-0.70526 1.8782-1.0321-9e-3 -0.32686-0.29515-0.83616-0.70224-0.79793-0.40809 0.0383-4.7293 0.37548-4.7293 0.37548s-0.88636 0.43358-1.4039 0.41984c-0.51754-0.0127-1.5432-0.64069-2.4663-0.55923-0.92408 0.0815-2.1512 0.0563-2.1512 0.0563s-0.57738 1.7355 0.40376 2.7438l-0.98061 0.027 0.15967 11.706s-2.8909-5.0401-4.5628-6.4645c-1.6738-1.4244-1.6212-2.4882-1.8006-3.0825-0.17945-0.59427-0.0226-2.7774-0.18723-2.7998-0.16369-0.0225-0.40709 0.0382-0.43634-0.043-0.0302-0.0802 2.6639-1.1618 2.9293-1.4412 0.26336-0.28035 0.28386-0.55302 0.17041-0.71294-0.11347-0.16094-5.2529 0.14482-5.2529 0.14482s-1.0388 0.81792-1.9052 1.0319c-0.86539 0.21494-1.4386 0.17672-1.8932 0.48836-0.45355 0.31261-1.7915 1.1658-1.7915 1.1658s0.44986 1.5131 1.0364 2.0692c0.58851 0.55499 0.6185 0.6632 0.6185 0.6632s7.1542 14.537 8.0181 16.229c0.86396 1.6928 1.365 3.0675 1.365 3.0675l-0.86702 6.07s-2.0142 1.0359-2.3997 2.8712c-0.38556 1.8353-0.88658 2.4213-1.012 2.8059-0.12645 0.38462-0.3221 1.1253-0.30782 1.6431 2e-3 0.09 0.0255 0.3074 0.0627 0.60648 0.17377 1.4047 0.64683 4.5938 0.62733 4.6844-0.025 0.10973 1.0147 5.2019 1.1534 6.3145 0.13971 1.1125 0.31195 3.3686 0.31195 3.3686l-0.70369 1.2178s-2.007-2.6956-3.3487-3.9381c-1.3407-1.2435-2.7365-2.4855-3.3345-3.4223-0.59801-0.93586-0.70375-1.8322-0.68652-2.1869 0.0162-0.35458 0.29061-0.96135-0.0335-1.0334-0.32413-0.0731-1.1038 0.27551-1.2318 0.60516-0.12793 0.33064-0.19614 0.79569-0.19614 0.79569s-2.9094-0.84612-4.6809-0.87931c-1.7715-0.0322-1.8392 0.48686-1.7558 0.53858 0.0835 0.0527 0.54829 0.14895 0.54829 0.14895s-0.2034 0.49577 0.0188 0.68072c0.22315 0.18391 1.2545 0.0734 1.2545 0.0734s-0.0462 0.24736 0.22942 0.37481c0.27666 0.12942 1.8268 0.11269 3.131 0.97606 1.3043 0.86336 4.2722 5.7933 5.1031 7.2679 0.82994 1.4747 1.6684 2.2418 2.0305 2.5309 0.36213 0.29012 0.59703 0.93688 0.68126 1.0166 0.0842 0.0787 0.67001 1.5881 0.82197 2.1291 0.15094 0.54003 0.48285 2.7096 0.82597 3.3264 0.34512 0.6167 3.5511 3.6604 3.5511 3.6604l0.92616 1.6631s-1.2642 1.5324-1.4948 4.0176c-0.23162 2.4843 1.53 5.1317 4.2112 5.5759l2.1282 6.0415s-1.1173 0.98413-1.4079 2.2726c-0.29162 1.2875-0.36853 2.489-0.49598 2.7646-0.12845 0.27564-0.27739 0.82393-0.19391 0.87665 0.0835 0.0517 0.4898-0.0135 0.4898-0.0135s0.18094 0.64824 0.48382 0.74893c0.30188 0.10072 0.54378-0.015 0.54378-0.015l-0.23743-0.7017s0.43883 0.0969 0.39659-0.41908c-0.0412-0.51605-0.21245-1.7918-3e-3 -2.0967 0.20964-0.30589 1.0623-0.98262 1.0623-0.98262s0.19617 0.18465 0.17819 0.51226c-0.018 0.32761-0.0565 0.92689-0.0565 0.92689s0.25465 0.34711 0.60102 0.0655c0.34636-0.28165 0.83989-1.1396 0.73867-1.872-0.10122-0.73246 0.1179-1.6378-0.19448-2.1194 0 0-0.20747-2.5542-0.23748-3.6428-0.03-1.0886-0.10427-2.8021-0.10427-2.8021s2.7344-0.56456 1.673-2.524" fill="#774240" stroke-width=".99998"/><g transform="translate(1041.6,642.97)"><path d="m0 0h-24.63c-4.482 0-8.116 3.125-8.116 6.98 0 3.856 3.634 6.981 8.116 6.981h2.273c5.33 0 9.65 3.716 9.65 8.299 0 4.584-4.32 8.3-9.65 8.3h-77.994c-5.33 0-9.65-3.716-9.65-8.3 0-4.583 4.32-8.299 9.65-8.299h8.651c4.482 0 8.117-3.125 8.117-6.981 0-3.855-3.635-6.98-8.117-6.98h-27.651c-4.193 0-7.591-2.923-7.591-6.528 0-3.606 3.398-6.529 7.591-6.529h119.35c4.192 0 7.592 2.923 7.592 6.529 0 3.605-3.4 6.528-7.592 6.528" fill="#fff"/></g><g transform="translate(555.79,769.41)"><path d="m0 0h-18.04c-3.282 0-5.944 2.289-5.944 5.112 0 2.825 2.662 5.113 5.944 5.113h1.665c3.904 0 7.068 2.722 7.068 6.079s-3.164 6.078-7.068 6.078h-57.124c-3.904 0-7.068-2.721-7.068-6.078s3.164-6.079 7.068-6.079h6.335c3.284 0 5.946-2.288 5.946-5.113 0-2.823-2.662-5.112-5.946-5.112h-20.251c-3.071 0-5.561-2.141-5.561-4.782s2.49-4.781 5.561-4.781h87.415c3.071 0 5.561 2.14 5.561 4.781s-2.49 4.782-5.561 4.782" fill="#fff"/></g><g transform="translate(448.38,693.73)"><path d="m0 0h-126.29c-3.687 0-6.675-2.988-6.675-6.675 0-3.686 2.988-6.675 6.675-6.675h35.915c2.649 0 4.796-2.147 4.796-4.796 0-2.648-2.147-4.796-4.796-4.796h1.146c-2.378 0-4.306-1.928-4.306-4.307 0-2.377 1.928-4.306 4.306-4.306h22.085c2.648 0 4.796-2.147 4.796-4.796s-2.148-4.796-4.796-4.796h-3.835c-2.163 0-3.916-1.753-3.916-3.916s1.753-3.916 3.916-3.916h39.518c2.162 0 3.915 1.753 3.915 3.916s-1.753 3.916-3.915 3.916h-4.311c-2.648 0-4.796 2.147-4.796 4.796s2.148 4.796 4.796 4.796h15.801c2.379 0 4.307 1.929 4.307 4.306 0 2.379-1.928 4.307-4.307 4.307h-26.081c-2.649 0-4.796 2.148-4.796 4.796 0 2.649 2.147 4.796 4.796 4.796h46.055c3.687 0 6.675 2.989 6.675 6.675 0 3.687-2.988 6.675-6.675 6.675" fill="#fff"/></g><g transform="translate(447.29,648.56)"><path d="m0 0c0-2.103-1.705-3.807-3.807-3.807h-10.361c-2.103 0-3.808 1.704-3.808 3.807s1.705 3.807 3.808 3.807h10.361c2.102 0 3.807-1.704 3.807-3.807" fill="#fff"/></g><g transform="translate(711.72,802.07)"><path d="m0 0h193.18c4.217 0 7.635-3.418 7.635-7.636 0-4.217-3.418-7.635-7.635-7.635h-75.785c-3.268 0-5.918-2.649-5.918-5.917 0-3.269 2.65-5.918 5.918-5.918h29.016c3.269 0 5.918-2.65 5.918-5.918s-2.649-5.917-5.918-5.917h-0.023c-3.268 0-5.917-2.65-5.917-5.918 0-3.269 2.649-5.918 5.917-5.918h1.325c2.55 0 4.616-2.067 4.616-4.617 0-2.549-2.066-4.616-4.616-4.616h-74.767c-2.55 0-4.616 2.067-4.616 4.616 0 2.55 2.066 4.617 4.616 4.617h23.643c3.268 0 5.918 2.649 5.918 5.918 0 3.268-2.65 5.918-5.918 5.918h-88.278c-3.267 0-5.917 2.649-5.917 5.917s2.65 5.918 5.917 5.918h27.907c3.267 0 5.917 2.649 5.917 5.918 0 3.268-2.65 5.917-5.917 5.917h-36.22c-4.218 0-7.636 3.418-7.636 7.635 0 4.218 3.418 7.636 7.636 7.636" fill="#fff"/></g><g transform="translate(749,722)"><path d="m0 0c0-4.418-3.582-8-8-8h-67.637c-4.419 0-8 3.582-8 8s3.581 8 8 8h67.637c4.418 0 8-3.582 8-8" fill="#fff"/></g><g transform="translate(889,667.77)"><path d="m0 0c0-3.185-2.582-5.767-5.768-5.767h-11.464c-3.186 0-5.768 2.582-5.768 5.767s2.582 5.767 5.768 5.767h11.464c3.186 0 5.768-2.582 5.768-5.767" fill="#fff"/></g><g transform="translate(589,681.93)"><path d="m0 0c0-2.171-1.76-3.931-3.932-3.931h-11.073c-2.171 0-3.932 1.76-3.932 3.931s1.761 3.932 3.932 3.932h11.073c2.172 0 3.932-1.761 3.932-3.932" fill="#fff"/></g><g transform="translate(824,523.5)"><path d="m0 0c0-3.038-2.463-5.5-5.5-5.5h-24c-3.037 0-5.5 2.462-5.5 5.5s2.463 5.5 5.5 5.5h24c3.037 0 5.5-2.462 5.5-5.5" fill="#fff"/></g><g transform="translate(650.78,513.5)"><path d="m0 0c0-2.485-2.015-4.5-4.5-4.5h-26.782c-2.485 0-4.5 2.015-4.5 4.5s2.015 4.5 4.5 4.5h26.782c2.485 0 4.5-2.015 4.5-4.5" fill="#fff"/></g><g transform="translate(836,689.8)"><path d="m0 0c0-2.172-1.761-3.933-3.933-3.933h-9.134c-2.172 0-3.933 1.761-3.933 3.933s1.761 3.933 3.933 3.933h9.134c2.172 0 3.933-1.761 3.933-3.933" fill="#fff"/></g><g transform="translate(596,714.5)"><path d="m0 0c0-1.933-1.567-3.5-3.5-3.5s-3.5 1.567-3.5 3.5 1.567 3.5 3.5 3.5 3.5-1.567 3.5-3.5" fill="#fff"/></g><g transform="translate(529.27,697.86)"><path d="m0 0c0-2.284-1.852-4.136-4.136-4.136s-4.135 1.852-4.135 4.136 1.851 4.136 4.135 4.136 4.136-1.852 4.136-4.136" fill="#fff"/></g><g transform="translate(507,657.5)"><path d="m0 0c0-2.485-2.015-4.5-4.5-4.5s-4.5 2.015-4.5 4.5 2.015 4.5 4.5 4.5 4.5-2.015 4.5-4.5" fill="#fff"/></g><g transform="translate(789,693.36)"><path d="m0 0c0-2.485-2.015-4.5-4.5-4.5s-4.5 2.015-4.5 4.5 2.015 4.5 4.5 4.5 4.5-2.015 4.5-4.5" fill="#fff"/></g><g transform="translate(777.94,653.03)"><path d="m0 0c0-2.469-2.002-4.471-4.472-4.471-2.469 0-4.471 2.002-4.471 4.471 0 2.47 2.002 4.472 4.471 4.472 2.47 0 4.472-2.002 4.472-4.472" fill="#fff"/></g><g transform="translate(498,514.13)"><path d="m0 0c0-2.139-1.734-3.873-3.872-3.873-2.139 0-3.873 1.734-3.873 3.873 0 2.138 1.734 3.872 3.873 3.872 2.138 0 3.872-1.734 3.872-3.872" fill="#fff"/></g><g transform="translate(537.26,511.25)"><path d="m0 0v-2.25 4.5z" fill="#fff"/></g><g transform="translate(795.74,472.63)"><path d="m0 0c0-1.86-1.508-3.368-3.368-3.368-1.861 0-3.368 1.508-3.368 3.368s1.507 3.368 3.368 3.368c1.86 0 3.368-1.508 3.368-3.368" fill="#fff"/></g><g transform="translate(806.5,553.62)"><path d="m0 0c0-2.973-2.409-5.382-5.382-5.382-2.972 0-5.382 2.409-5.382 5.382 0 2.972 2.41 5.382 5.382 5.382 2.973 0 5.382-2.41 5.382-5.382" fill="#fff"/></g><g transform="translate(677.29,556.31)"><path d="m0 0c0-1.486-1.205-2.691-2.691-2.691s-2.691 1.205-2.691 2.691 1.205 2.691 2.691 2.691 2.691-1.205 2.691-2.691" fill="#fff"/></g><g transform="translate(637.54,780.91)"><path d="m0 0c0-2.812-2.279-5.091-5.091-5.091s-5.092 2.279-5.092 5.091 2.28 5.091 5.092 5.091 5.091-2.279 5.091-5.091" fill="#fff"/></g><g transform="translate(506,726)"><path d="m0 0c0-2.209-1.791-4-4-4s-4 1.791-4 4 1.791 4 4 4 4-1.791 4-4" fill="#fff"/></g><g transform="translate(592.5,546.66)"><path d="m0 0h-3.5 1.75z" fill="#fff"/></g><g transform="translate(485,560.5)"><path d="m0 0c0-1.933-1.567-3.5-3.5-3.5s-3.5 1.567-3.5 3.5 1.567 3.5 3.5 3.5 3.5-1.567 3.5-3.5" fill="#fff"/></g><g transform="translate(806.5,650.34)"><path d="m0 0c0-1.486-1.205-2.691-2.691-2.691s-2.691 1.205-2.691 2.691 1.205 2.69 2.691 2.69 2.691-1.204 2.691-2.69" fill="#fff"/></g><g transform="translate(563.5,520.75)"><path d="m0 0c0-1.519-1.231-2.75-2.75-2.75s-2.75 1.231-2.75 2.75 1.231 2.75 2.75 2.75 2.75-1.231 2.75-2.75" fill="#fff"/></g></g></g></svg>
